<?xml version="1.0" encoding="utf-8"?>
<!-- Generator: Adobe Illustrator 24.2.3, SVG Export Plug-In . SVG Version: 6.00 Build 0)  -->
<svg version="1.1" id="Layer_1" xmlns="http://www.w3.org/2000/svg" xmlns:xlink="http://www.w3.org/1999/xlink" x="0px" y="0px"
	 viewBox="0 0 1800 1200" style="enable-background:new 0 0 1800 1200;" xml:space="preserve">
<style type="text/css">
	.st0{opacity:0.78;fill:#FFD56F;enable-background:new    ;}
	.st1{opacity:0.78;fill:#5BC0F8;enable-background:new    ;}
</style>
<path class="st0" d="M865.5,837.8H362.1c-18.3,0-33.1-15.6-33.2-34.8c0,0,0,0,0-0.1l0,0c0-19.3,14.8-34.9,33.1-34.9c0,0,0,0,0.1,0
	h503.5c18.3,0,33.1,15.6,33.2,34.8c0,0,0,0,0,0.1l0,0C898.7,822.2,883.9,837.8,865.5,837.8L865.5,837.8z"/>
<path class="st1" d="M865.5,764.1H362.1c-18.3,0-33.1-15.6-33.2-34.8c0,0,0,0,0-0.1l0,0c0-19.3,14.8-34.9,33.2-34.8l0,0h503.5
	c18.3,0,33.1,15.6,33.2,34.8c0,0,0,0,0,0.1l0,0C898.6,748.4,883.8,764,865.5,764.1z"/>
<path class="st0" d="M1610.7,836.6h-503.5c-18.3,0-33.1-15.6-33.2-34.8c0,0,0,0,0-0.1l0,0c0-19.3,14.8-34.9,33.1-34.9c0,0,0,0,0.1,0
	h503.5c18.3,0,33.1,15.6,33.2,34.8c0,0,0,0,0,0.1l0,0C1643.9,820.9,1629.1,836.5,1610.7,836.6L1610.7,836.6z"/>
<path class="st1" d="M1610.7,762.6h-503.5c-18.3,0-33.1-15.6-33.2-34.8c0,0,0,0,0-0.1l0,0c0-19.3,14.8-34.9,33.1-34.9c0,0,0,0,0.1,0
	h503.5c18.3,0,33.1,15.6,33.2,34.8c0,0,0,0,0,0.1l0,0C1643.9,747,1629.1,762.6,1610.7,762.6L1610.7,762.6z"/>
<path class="st0" d="M1603.4,540.6H360.7c-18.2,0-32.9-15.6-33-34.8c0,0,0,0,0-0.1l0,0c0-19.3,14.7-34.9,32.9-34.9c0,0,0,0,0.1,0
	h1242.7c18.2,0,32.9,15.6,33,34.8c0,0,0,0,0,0.1l0,0C1636.4,525,1621.7,540.6,1603.4,540.6L1603.4,540.6z"/>
<path class="st1" d="M1603.4,466.8H360.7c-18.2,0-32.9-15.6-33-34.8c0,0,0,0,0-0.1l0,0c0-19.3,14.7-34.9,32.9-34.9c0,0,0,0,0.1,0
	h1242.7c18.2,0,32.9,15.6,33,34.8c0,0,0,0,0,0.1l0,0C1636.4,451.1,1621.7,466.7,1603.4,466.8L1603.4,466.8z"/>
<g>
	<path d="M501.2,811.9v-20.2h-7.6V789h18.2v2.7h-7.6v20.2H501.2z"/>
	<path d="M513.3,811.9v-16.6h2.5v2.5c0.4-0.9,1-1.7,1.8-2.3c0.5-0.4,1.2-0.6,1.8-0.6c1,0,2,0.3,2.9,0.9l-1,2.6
		c-0.6-0.4-1.3-0.6-2.1-0.6c-0.6,0-1.2,0.2-1.7,0.5c-0.5,0.4-0.9,0.9-1,1.5c-0.3,1.1-0.5,2.2-0.5,3.3v8.7L513.3,811.9L513.3,811.9z"
		/>
	<path d="M534.9,809.8c-0.9,0.8-1.9,1.4-3,1.9c-1,0.4-2,0.5-3.1,0.5c-1.5,0.1-3-0.4-4.2-1.3c-1-0.9-1.5-2.1-1.5-3.4
		c0-1.5,0.7-3,2-3.8c0.6-0.4,1.3-0.7,2-0.9c0.8-0.2,1.7-0.3,2.5-0.4c1.7-0.2,3.4-0.5,5-1c0-0.4,0-0.6,0-0.7c0.1-0.9-0.2-1.8-0.8-2.4
		c-0.9-0.7-2.1-1-3.2-1c-1-0.1-2,0.2-2.9,0.7c-0.7,0.6-1.2,1.5-1.4,2.5l-2.8-0.4c0.2-1,0.6-2,1.2-2.8c0.7-0.8,1.5-1.4,2.5-1.7
		c1.2-0.4,2.5-0.6,3.8-0.6c1.2,0,2.3,0.1,3.5,0.5c1.5,0.4,2.6,1.6,2.8,3.2c0.1,0.9,0.2,1.7,0.1,2.6v3.8c0,1.7,0,3.3,0.2,5
		c0.1,0.7,0.4,1.4,0.7,2h-2.9C535.1,811.2,534.9,810.5,534.9,809.8z M534.6,803.5c-1.5,0.5-3,0.9-4.6,1.1c-0.8,0.1-1.7,0.3-2.5,0.6
		c-0.5,0.2-0.8,0.5-1.1,0.9c-0.7,1-0.5,2.4,0.5,3.2c0.7,0.5,1.6,0.8,2.5,0.8c1,0,2-0.2,2.9-0.7c0.8-0.5,1.5-1.2,1.9-2
		c0.3-0.9,0.5-1.9,0.5-2.8L534.6,803.5z"/>
	<path d="M541.8,811.9v-16.6h2.5v2.4c1.2-1.8,3.2-2.8,5.3-2.7c0.9,0,1.9,0.2,2.8,0.5c0.7,0.3,1.4,0.8,1.9,1.4
		c0.4,0.6,0.7,1.3,0.9,2.1c0.1,0.9,0.2,1.8,0.2,2.7v10.2h-2.8v-10.1c0-0.9-0.1-1.7-0.3-2.6c-0.2-0.6-0.6-1.1-1.2-1.4
		c-0.6-0.3-1.3-0.5-2-0.5c-1.1,0-2.2,0.4-3.1,1.1c-0.9,0.8-1.3,2.2-1.3,4.3v9.1L541.8,811.9z"/>
	<path d="M558.5,806.9l2.8-0.4c0.1,1,0.6,1.9,1.3,2.6c0.9,0.6,1.9,1,3,0.9c1,0.1,2-0.2,2.9-0.8c0.6-0.4,0.9-1.1,0.9-1.8
		c0-0.6-0.3-1.2-0.8-1.5c-0.9-0.4-1.9-0.8-2.9-1c-1.5-0.3-2.9-0.8-4.3-1.3c-1.5-0.7-2.5-2.2-2.4-3.8c0-0.7,0.2-1.4,0.5-2
		s0.8-1.2,1.4-1.6c0.5-0.4,1.1-0.7,1.8-0.8c0.8-0.2,1.6-0.3,2.4-0.3c1.2,0,2.3,0.2,3.4,0.6c0.9,0.3,1.6,0.8,2.2,1.5
		c0.5,0.8,0.9,1.6,1,2.6l-2.8,0.4c-0.1-0.8-0.5-1.5-1.1-2c-0.7-0.5-1.6-0.8-2.5-0.7c-1-0.1-1.9,0.1-2.8,0.6
		c-0.5,0.3-0.8,0.9-0.8,1.5c0,0.4,0.1,0.7,0.3,1c0.3,0.3,0.7,0.6,1.1,0.8c0.3,0.1,1.1,0.3,2.5,0.7c1.4,0.3,2.8,0.8,4.2,1.3
		c0.7,0.3,1.4,0.8,1.8,1.4c0.5,0.7,0.7,1.5,0.7,2.4s-0.3,1.9-0.8,2.7c-0.6,0.9-1.4,1.5-2.4,1.9c-1.1,0.5-2.3,0.7-3.5,0.7
		c-1.7,0.1-3.5-0.3-4.9-1.3C559.5,809.9,558.7,808.5,558.5,806.9z"/>
	<path d="M576.3,811.9v-14.4h-2.5v-2.2h2.5v-1.8c0-0.8,0.1-1.7,0.3-2.5c0.3-0.7,0.8-1.4,1.4-1.8c0.9-0.5,1.9-0.7,2.9-0.7
		c0.9,0,1.8,0.1,2.6,0.3l-0.4,2.5c-0.5-0.1-1.1-0.2-1.7-0.2c-0.7-0.1-1.3,0.1-1.8,0.5c-0.4,0.6-0.6,1.3-0.5,2v1.5h3.2v2.2h-3.2v14.4
		L576.3,811.9z"/>
	<path d="M583.5,803.6c0-3.1,0.9-5.3,2.6-6.8c1.5-1.2,3.3-1.9,5.2-1.8c2.1-0.1,4.1,0.7,5.6,2.2c1.5,1.7,2.3,3.9,2.2,6.2
		c0.1,1.7-0.3,3.4-1,5c-0.6,1.2-1.6,2.2-2.8,2.8c-1.2,0.7-2.6,1-4,1c-2.1,0.1-4.2-0.7-5.6-2.2C584.1,808.2,583.3,805.9,583.5,803.6z
		 M586.4,803.6c-0.1,1.7,0.4,3.4,1.4,4.8c1.7,1.9,4.6,2.1,6.5,0.5c0.2-0.1,0.3-0.3,0.5-0.5c1-1.4,1.5-3.1,1.4-4.9
		c0.1-1.7-0.4-3.3-1.4-4.7c-1.7-1.9-4.6-2.1-6.5-0.5c-0.2,0.1-0.3,0.3-0.5,0.5C586.7,800.2,586.2,801.9,586.4,803.6z"/>
	<path d="M602.3,811.9v-16.6h2.5v2.5c0.4-0.9,1-1.7,1.8-2.3c0.5-0.4,1.2-0.6,1.8-0.6c1,0,2,0.3,2.9,0.9l-1,2.6
		c-0.6-0.4-1.3-0.6-2.1-0.6c-0.6,0-1.2,0.2-1.6,0.6c-0.5,0.4-0.8,0.9-1,1.5c-0.3,1.1-0.5,2.2-0.5,3.3v8.7L602.3,811.9z"/>
	<path d="M613,811.9v-16.6h2.5v2.3c0.5-0.8,1.2-1.5,2.1-2c0.9-0.5,1.9-0.8,3-0.7c1.1,0,2.1,0.2,3,0.8c0.8,0.5,1.4,1.3,1.7,2.1
		c1.1-1.8,3-2.9,5.1-2.9c1.4-0.1,2.8,0.4,3.8,1.4c1,1.2,1.5,2.7,1.3,4.2v11.4h-2.9v-10.5c0-0.8-0.1-1.6-0.3-2.4
		c-0.2-0.5-0.5-0.9-1-1.2s-1.1-0.5-1.7-0.5c-1.1,0-2.1,0.4-2.9,1.2c-0.9,1-1.3,2.4-1.2,3.7v9.6h-2.8v-10.7c0.1-1-0.2-2-0.7-2.8
		c-0.5-0.7-1.4-1-2.3-0.9c-0.8,0-1.5,0.2-2.2,0.6c-0.7,0.4-1.2,1.1-1.5,1.8c-0.3,1.1-0.5,2.3-0.5,3.5v8.6L613,811.9L613,811.9z"/>
	<path d="M651,806.5l2.9,0.4c-0.4,1.6-1.3,3-2.5,4c-1.4,1-3.1,1.5-4.8,1.4c-2.2,0.1-4.3-0.7-5.8-2.2c-1.5-1.7-2.3-4-2.1-6.3
		c-0.1-2.4,0.6-4.7,2.2-6.5c1.4-1.5,3.5-2.4,5.6-2.3c2.1-0.1,4,0.8,5.4,2.3c1.5,1.8,2.3,4.1,2.1,6.4c0,0.2,0,0.4,0,0.8h-12.4
		c0,1.5,0.5,3,1.5,4.2c0.9,1,2.2,1.5,3.5,1.5c0.9,0,1.9-0.3,2.6-0.8C650.1,808.5,650.7,807.6,651,806.5z M641.7,802h9.3
		c0-1.1-0.4-2.2-1.1-3.1c-0.8-1.1-2.1-1.7-3.5-1.6c-1.2,0-2.4,0.4-3.3,1.3C642.3,799.5,641.8,800.7,641.7,802z"/>
	<path d="M657.4,811.9v-16.6h2.5v2.5c0.4-0.9,1-1.7,1.8-2.3c0.5-0.4,1.2-0.6,1.8-0.6c1,0,2,0.3,2.9,0.9l-1,2.6
		c-0.6-0.4-1.3-0.6-2.1-0.6c-0.6,0-1.2,0.2-1.7,0.5c-0.5,0.4-0.8,0.9-1,1.5c-0.3,1.1-0.5,2.2-0.5,3.3v8.7L657.4,811.9L657.4,811.9z"
		/>
	<path d="M666.9,806.9l2.8-0.4c0.1,1,0.6,1.9,1.3,2.6c0.9,0.6,1.9,1,3,0.9c1,0.1,2-0.2,2.9-0.8c0.6-0.4,0.9-1.1,0.9-1.8
		c0-0.6-0.3-1.2-0.8-1.5c-0.9-0.4-1.9-0.8-2.9-1c-1.5-0.3-2.9-0.8-4.3-1.3c-1.5-0.7-2.5-2.2-2.4-3.8c0-0.7,0.2-1.4,0.5-2
		s0.8-1.2,1.4-1.6c0.5-0.4,1.1-0.7,1.8-0.8c0.8-0.2,1.6-0.3,2.4-0.3c1.2,0,2.3,0.2,3.4,0.6c0.9,0.3,1.6,0.8,2.2,1.5
		c0.5,0.8,0.9,1.6,1,2.6l-2.8,0.4c-0.1-0.8-0.5-1.5-1.1-2c-0.7-0.5-1.6-0.8-2.5-0.7c-1-0.1-1.9,0.1-2.8,0.6
		c-0.5,0.3-0.8,0.9-0.8,1.5c0,0.4,0.1,0.7,0.3,1c0.3,0.3,0.7,0.6,1.1,0.8c0.3,0.1,1.1,0.3,2.5,0.7c1.4,0.3,2.8,0.8,4.2,1.3
		c0.7,0.3,1.4,0.8,1.9,1.5s0.7,1.6,0.7,2.4c0,0.9-0.3,1.9-0.8,2.7c-0.6,0.9-1.4,1.5-2.4,1.9c-1.1,0.5-2.3,0.7-3.5,0.7
		c-1.7,0.1-3.5-0.3-4.9-1.3C667.9,810,667.1,808.5,666.9,806.9z"/>
</g>
<g>
	<path d="M1264,810.6v-20.2h-7.2v-2.7h17.2v2.7h-7.2v20.2H1264z"/>
	<path d="M1275.5,810.6V794h2.4v2.5c0.4-0.9,0.9-1.7,1.7-2.3c0.5-0.4,1.1-0.6,1.7-0.6c0.9,0,2,0.3,2.7,0.9l-0.9,2.6
		c-0.6-0.4-1.3-0.6-2-0.6c-0.6,0-1.1,0.2-1.5,0.6c-0.4,0.4-0.8,0.9-0.9,1.5c-0.3,1.1-0.4,2.2-0.4,3.3v8.7L1275.5,810.6z"/>
	<path d="M1295.9,808.5c-0.9,0.8-1.8,1.4-2.8,1.9c-0.9,0.4-2,0.5-2.9,0.5c-1.5,0.1-2.9-0.4-4-1.3c-0.9-0.9-1.5-2.1-1.4-3.4
		c0-0.8,0.2-1.5,0.5-2.2s0.8-1.2,1.4-1.6c0.6-0.4,1.2-0.7,1.9-0.9c0.8-0.2,1.5-0.3,2.4-0.4c1.6-0.2,3.2-0.5,4.7-1c0-0.4,0-0.6,0-0.7
		c0.1-0.9-0.2-1.8-0.8-2.4c-0.9-0.7-2-1-3-1c-0.9-0.1-2,0.2-2.7,0.7c-0.7,0.7-1.1,1.5-1.3,2.5l-2.6-0.4c0.2-1,0.6-2,1.2-2.8
		c0.6-0.8,1.5-1.4,2.4-1.7c1.1-0.4,2.4-0.6,3.6-0.6c1.1,0,2.2,0.1,3.3,0.5c0.7,0.2,1.4,0.7,1.9,1.3c0.4,0.6,0.7,1.2,0.9,1.9
		c0.1,0.9,0.2,1.7,0.2,2.6v3.8c0,1.7,0,3.3,0.2,5c0.1,0.7,0.3,1.4,0.7,2h-2.8C1296.1,810,1296,809.3,1295.9,808.5z M1295.7,802.2
		c-1.4,0.5-2.9,0.9-4.4,1.1c-0.8,0.1-1.5,0.3-2.3,0.6c-0.4,0.2-0.8,0.5-1,0.9c-0.3,0.4-0.3,0.9-0.3,1.3c0,0.7,0.3,1.4,0.9,1.9
		c0.7,0.5,1.5,0.8,2.4,0.8c0.9,0,1.9-0.2,2.7-0.7c0.8-0.5,1.4-1.2,1.8-2c0.3-0.9,0.5-1.9,0.4-2.8v-1.1H1295.7z"/>
	<path d="M1302.5,810.6V794h2.4v2.4c1.1-1.8,3-2.8,5-2.7c0.9,0,1.8,0.2,2.6,0.5c0.7,0.3,1.4,0.8,1.8,1.4c0.4,0.6,0.7,1.3,0.9,2.1
		c0.1,0.9,0.2,1.8,0.2,2.7v10.2h-2.7v-10.1c0-0.9-0.1-1.7-0.3-2.6c-0.3-0.6-0.6-1.1-1.1-1.4c-0.6-0.3-1.2-0.5-1.9-0.5
		c-1.1,0-2.1,0.4-2.9,1.1c-0.9,0.8-1.2,2.2-1.2,4.3v9.1L1302.5,810.6z"/>
	<path d="M1318.3,805.6l2.7-0.4c0.1,1,0.5,1.9,1.2,2.6c0.9,0.6,1.8,1,2.8,0.9c0.9,0.1,2-0.2,2.7-0.8c0.5-0.4,0.9-1.1,0.9-1.8
		c0-0.6-0.3-1.2-0.8-1.5c-0.9-0.4-1.8-0.8-2.7-1c-1.4-0.3-2.7-0.8-4.1-1.4c-0.7-0.3-1.3-0.9-1.7-1.6c-0.8-1.3-0.8-2.9-0.1-4.3
		c0.3-0.6,0.8-1.2,1.3-1.6c0.5-0.4,1.1-0.6,1.7-0.8c0.8-0.2,1.5-0.3,2.3-0.3c1.1,0,2.2,0.2,3.3,0.6c0.9,0.3,1.5,0.8,2.1,1.5
		c0.5,0.8,0.9,1.6,0.9,2.6l-2.6,0.4c-0.1-0.8-0.4-1.5-1-2c-0.7-0.5-1.5-0.8-2.4-0.7c-0.9-0.1-1.8,0.1-2.7,0.6
		c-0.5,0.3-0.8,0.9-0.8,1.5c0,0.4,0.1,0.7,0.3,1s0.6,0.6,1,0.8c0.3,0.1,1,0.3,2.3,0.7c1.4,0.4,2.7,0.8,3.9,1.3
		c0.7,0.3,1.3,0.8,1.8,1.5c0.4,0.7,0.7,1.6,0.6,2.4c0,0.9-0.3,1.9-0.8,2.7c-0.5,0.9-1.4,1.5-2.2,1.9c-1,0.5-2.1,0.7-3.3,0.7
		c-1.6,0.1-3.3-0.3-4.7-1.3C1319.3,808.6,1318.6,807.2,1318.3,805.6z"/>
	<path d="M1335.3,810.6v-14.4h-2.3V794h2.3v-1.8c0-0.8,0.1-1.7,0.3-2.5c0.3-0.7,0.8-1.3,1.4-1.8c0.9-0.5,1.8-0.7,2.7-0.7
		c0.9,0,1.6,0.1,2.5,0.3l-0.4,2.5c-0.5-0.1-1-0.1-1.5-0.2c-0.6-0.1-1.2,0.1-1.7,0.5c-0.4,0.6-0.6,1.3-0.5,2v1.5h3v2.2h-3.1v14.4
		L1335.3,810.6z"/>
	<path d="M1342.1,802.3c0-3.1,0.8-5.3,2.4-6.8c1.4-1.2,3.2-1.9,5-1.8c2-0.1,3.9,0.7,5.3,2.2c1.5,1.7,2.2,3.9,2.1,6.2
		c0.1,1.7-0.3,3.4-0.9,5c-0.6,1.2-1.5,2.2-2.7,2.8c-1.2,0.7-2.5,1-3.8,1c-2,0.1-3.9-0.7-5.3-2.2
		C1342.7,806.9,1341.9,804.6,1342.1,802.3z M1344.8,802.3c-0.2,1.7,0.3,3.4,1.3,4.8c1.6,1.9,4.4,2.1,6.2,0.5
		c0.2-0.1,0.3-0.3,0.4-0.5c0.9-1.4,1.5-3.1,1.3-4.9c0.1-1.7-0.3-3.3-1.4-4.7c-1.6-1.9-4.4-2.1-6.3-0.5c-0.2,0.1-0.3,0.3-0.4,0.5
		C1345.1,798.9,1344.6,800.6,1344.8,802.3L1344.8,802.3z"/>
	<path d="M1360,810.6V794h2.4v2.5c0.4-0.9,0.9-1.7,1.7-2.3c0.5-0.4,1.1-0.6,1.7-0.6c0.9,0,1.9,0.3,2.7,0.9l-0.9,2.6
		c-0.6-0.4-1.3-0.6-2-0.6c-0.6,0-1.1,0.2-1.5,0.6c-0.4,0.4-0.8,0.9-0.9,1.5c-0.3,1.1-0.4,2.2-0.4,3.3v8.7L1360,810.6z"/>
	<path d="M1370.1,810.6V794h2.4v2.3c0.5-0.8,1.2-1.5,2-2c0.9-0.5,1.9-0.8,2.8-0.7c1,0,2,0.2,2.8,0.8c0.8,0.5,1.3,1.3,1.5,2.1
		c1-1.8,2.8-2.9,4.9-2.9c1.4-0.1,2.7,0.4,3.6,1.4c0.9,1.2,1.4,2.7,1.3,4.2v11.4h-2.7v-10.5c0-0.8-0.1-1.6-0.3-2.4
		c-0.2-0.5-0.5-0.9-0.9-1.2c-0.5-0.3-1-0.5-1.6-0.5c-1,0-2.1,0.4-2.7,1.2c-0.9,1-1.2,2.4-1.1,3.7v9.6h-2.7v-10.8
		c0.1-1-0.2-2-0.7-2.8c-0.5-0.7-1.3-1-2.1-0.9c-0.8,0-1.5,0.2-2.1,0.6c-0.7,0.4-1.1,1.1-1.4,1.8c-0.3,1.1-0.5,2.3-0.4,3.5v8.6h-2.7
		L1370.1,810.6L1370.1,810.6z"/>
	<path d="M1406.2,805.2l2.7,0.4c-0.3,1.6-1.2,3-2.4,4c-1.3,1-2.9,1.5-4.5,1.4c-2.1,0.1-4-0.7-5.5-2.2c-1.5-1.7-2.1-4-2.1-6.3
		c-0.2-2.4,0.6-4.7,2.1-6.5c1.4-1.5,3.3-2.4,5.3-2.3c2-0.1,3.9,0.8,5.1,2.3c1.5,1.8,2.1,4.1,2,6.4c0,0.2,0,0.4,0,0.8h-11.7
		c0,1.5,0.5,3,1.5,4.2c0.9,1,2.1,1.5,3.3,1.5c0.9,0,1.8-0.3,2.5-0.8C1405.3,807.2,1405.9,806.3,1406.2,805.2z M1397.4,800.7h8.8
		c0-1.1-0.3-2.2-1-3.1c-0.8-1.1-2.1-1.7-3.3-1.6c-1.1,0-2.2,0.4-3.1,1.3C1397.9,798.1,1397.4,799.4,1397.4,800.7z"/>
	<path d="M1412.3,810.6V794h2.4v2.5c0.4-0.9,0.9-1.7,1.7-2.3c0.5-0.4,1.1-0.6,1.7-0.6c0.9,0,1.9,0.3,2.7,0.9l-0.9,2.6
		c-0.6-0.4-1.3-0.6-2-0.6c-0.6,0-1.1,0.2-1.5,0.6c-0.4,0.4-0.8,0.9-0.9,1.5c-0.3,1.1-0.4,2.2-0.4,3.3v8.7L1412.3,810.6z"/>
	<path d="M1421.3,805.6l2.7-0.4c0.1,1,0.5,1.9,1.3,2.6c0.9,0.6,1.8,1,2.8,0.9c0.9,0.1,2-0.2,2.7-0.8c0.5-0.4,0.9-1.1,0.9-1.8
		c0-0.6-0.3-1.2-0.8-1.5c-0.9-0.4-1.8-0.8-2.7-1c-1.4-0.3-2.7-0.8-4.1-1.4c-1.5-0.7-2.3-2.2-2.3-3.8c0-0.7,0.2-1.4,0.5-2
		s0.8-1.2,1.3-1.6c0.5-0.4,1.1-0.6,1.7-0.8c0.8-0.2,1.5-0.3,2.3-0.3c1.1,0,2.2,0.2,3.3,0.6c0.8,0.3,1.5,0.8,2.1,1.5
		c0.5,0.8,0.9,1.6,0.9,2.6l-2.6,0.4c-0.1-0.8-0.4-1.5-1-2c-0.7-0.5-1.5-0.8-2.4-0.7c-0.9-0.1-1.8,0.1-2.7,0.6
		c-0.5,0.3-0.8,0.9-0.8,1.5c0,0.4,0.1,0.7,0.3,1c0.3,0.3,0.6,0.6,1,0.8c0.3,0.1,1,0.3,2.3,0.7c1.4,0.4,2.7,0.8,3.9,1.3
		c0.7,0.3,1.3,0.8,1.7,1.5s0.7,1.5,0.6,2.4c0,0.9-0.3,1.9-0.8,2.7c-0.5,0.9-1.4,1.5-2.2,1.9c-1,0.5-2.1,0.7-3.3,0.7
		c-1.6,0.1-3.3-0.4-4.7-1.3C1422.3,808.6,1421.5,807.2,1421.3,805.6z"/>
</g>
<g>
	<path d="M398.8,740.1v-20.2h-7.2v-2.7h17.2v2.7h-7.2v20.2H398.8z"/>
	<path d="M407.2,731.8c0-3.1,0.8-5.4,2.4-6.8c1.4-1.2,3.2-1.9,5-1.8c2-0.1,3.9,0.7,5.3,2.2c1.5,1.7,2.2,3.9,2.1,6.2
		c0.1,1.7-0.3,3.4-0.9,5c-0.6,1.2-1.5,2.2-2.7,2.9c-1.2,0.7-2.5,1-3.8,1c-2,0.1-3.9-0.7-5.3-2.2
		C407.8,736.7,407.2,734.6,407.2,731.8z M409.9,731.8c-0.2,1.7,0.3,3.4,1.3,4.8c1.6,1.9,4.4,2.1,6.2,0.5c0.2-0.1,0.3-0.3,0.4-0.5
		c0.9-1.4,1.5-3.1,1.4-4.9c0.1-1.7-0.3-3.3-1.4-4.7c-1.6-1.9-4.4-2.1-6.3-0.4c-0.2,0.1-0.3,0.3-0.4,0.4
		C410.2,728.4,409.7,730.1,409.9,731.8L409.9,731.8z"/>
	<path d="M425,740.1v-22.9h2.7v13.1l6.3-6.8h3.4l-6,6.2l6.7,10.4h-3.3l-5.2-8.5l-1.9,1.9v6.6H425z"/>
	<path d="M451,734.7l2.7,0.4c-0.3,1.6-1.2,3-2.4,4c-1.3,1-2.9,1.5-4.5,1.4c-2.1,0.1-4-0.7-5.5-2.2c-1.5-1.7-2.1-4-2.1-6.3
		c-0.2-2.4,0.6-4.7,2.1-6.5c1.4-1.5,3.3-2.4,5.3-2.3c2-0.1,3.9,0.8,5.1,2.3c1.5,1.8,2.1,4.1,2,6.4c0,0.2,0,0.4,0,0.8H442
		c0,1.5,0.5,3,1.5,4.2c0.9,1,2.1,1.5,3.3,1.5c0.9,0,1.8-0.3,2.5-0.8C450.1,736.7,450.7,735.8,451,734.7z M442.2,730.2h8.8
		c0-1.1-0.3-2.2-1-3.1c-0.8-1.1-2.1-1.7-3.3-1.6c-1.2,0-2.3,0.4-3.1,1.3C442.7,727.6,442.2,728.9,442.2,730.2L442.2,730.2z"/>
	<path d="M457.1,740.1v-16.6h2.4v2.3c1.1-1.8,3-2.8,5-2.7c0.9,0,1.8,0.2,2.7,0.5c0.7,0.3,1.3,0.8,1.8,1.4c0.4,0.6,0.7,1.3,0.9,2.1
		c0.1,0.9,0.2,1.8,0.2,2.7V740h-2.7v-10.1c0-0.9-0.1-1.7-0.3-2.6c-0.2-0.6-0.6-1-1.1-1.4c-0.6-0.3-1.2-0.5-1.9-0.5
		c-1.1,0-2.1,0.4-2.9,1.1c-0.9,0.8-1.3,2.2-1.3,4.3v9.1L457.1,740.1z"/>
	<path d="M473,733.2v-2.8h8.2v2.8H473z"/>
	<path d="M484,740.1v-22.9h2.7v22.9H484z"/>
	<path d="M501.6,734.7l2.7,0.4c-0.3,1.6-1.2,3-2.4,4c-1.3,1-2.9,1.5-4.5,1.4c-2.1,0.1-4-0.7-5.5-2.2c-1.5-1.7-2.1-4-2.1-6.3
		c-0.2-2.4,0.6-4.7,2.1-6.5c1.4-1.5,3.3-2.4,5.3-2.3c2-0.1,3.9,0.8,5.1,2.3c1.5,1.8,2.1,4.1,2,6.4c0,0.2,0,0.4,0,0.8h-11.7
		c0,1.5,0.5,3,1.5,4.2c0.9,1,2.1,1.5,3.3,1.5c0.9,0,1.8-0.3,2.5-0.8C500.8,736.7,501.4,735.8,501.6,734.7z M492.9,730.2h8.8
		c0-1.1-0.3-2.2-1-3.1c-0.8-1.1-2.1-1.7-3.3-1.6c-1.2,0-2.3,0.4-3.1,1.3C493.4,727.6,493,728.9,492.9,730.2L492.9,730.2z"/>
	<path d="M512.2,740.1l-6-16.6h2.8l3.4,9.9c0.3,1.1,0.7,2.2,1,3.3c0.3-0.9,0.5-1.9,0.9-3.2l3.5-10.1h2.7l-6,16.6L512.2,740.1
		L512.2,740.1z"/>
	<path d="M533.8,734.7l2.7,0.4c-0.3,1.6-1.2,3-2.4,4c-1.3,1-2.9,1.5-4.5,1.4c-2.1,0.1-4-0.7-5.5-2.2c-1.5-1.7-2.1-4-2.1-6.3
		c-0.2-2.4,0.6-4.7,2.1-6.5c1.4-1.5,3.3-2.4,5.3-2.3c2-0.1,3.9,0.8,5.1,2.3c1.5,1.8,2.1,4.1,2,6.4c0,0.2,0,0.4,0,0.8h-11.8
		c0,1.5,0.5,3,1.5,4.2c0.9,1,2.1,1.5,3.3,1.5c0.9,0,1.8-0.3,2.5-0.8C532.9,736.7,533.5,735.8,533.8,734.7z M525,730.2h8.7
		c0-1.1-0.3-2.2-1-3.1c-0.8-1.1-2.1-1.7-3.3-1.6c-1.2,0-2.3,0.4-3.1,1.3C525.5,727.6,525,728.9,525,730.2L525,730.2z"/>
	<path d="M539.8,740.1v-22.9h2.7v22.9H539.8z"/>
	<path d="M565.3,734l2.7,0.4c-0.2,1.7-0.9,3.3-2.2,4.5c-1.2,1.1-2.7,1.7-4.4,1.6c-2,0.1-3.9-0.7-5.2-2.2c-1.4-1.8-2.1-4.1-2-6.4
		c0-1.6,0.3-3.2,0.9-4.7c0.5-1.3,1.5-2.3,2.6-3c1.2-0.7,2.5-1,3.8-1c1.5-0.1,3,0.4,4.2,1.4c1.1,1,1.9,2.4,2.1,3.9l-2.7,0.4
		c-0.2-1-0.6-1.8-1.3-2.5c-0.6-0.6-1.5-0.9-2.3-0.8c-1.3,0-2.5,0.5-3.3,1.5c-0.9,1.4-1.4,3.1-1.3,4.8c0,2.2,0.4,3.8,1.2,4.9
		c0.8,1,2,1.6,3.2,1.5c0.9,0,1.9-0.3,2.7-1C564.8,736.3,565.3,735.2,565.3,734z"/>
	<path d="M570.2,740.1v-22.9h2.7v22.9H570.2z"/>
	<path d="M587.2,738c-0.9,0.8-1.8,1.4-2.8,1.9c-0.9,0.4-2,0.5-2.9,0.5c-1.5,0.1-2.8-0.4-4-1.3c-0.9-0.9-1.5-2.1-1.4-3.4
		c0-0.8,0.2-1.5,0.5-2.2c0.3-0.7,0.8-1.2,1.4-1.6c0.6-0.4,1.2-0.7,1.9-0.9c0.8-0.2,1.5-0.3,2.4-0.4c1.6-0.2,3.2-0.5,4.7-1
		c0-0.4,0-0.6,0-0.7c0.1-0.9-0.2-1.8-0.8-2.4c-0.9-0.7-2-1.1-3.1-1c-0.9-0.1-2,0.2-2.7,0.7c-0.7,0.6-1.1,1.5-1.3,2.5l-2.6-0.4
		c0.2-1,0.6-2,1.2-2.8s1.5-1.4,2.4-1.7c1.1-0.4,2.4-0.6,3.6-0.6c1.1,0,2.2,0.1,3.3,0.5c1.5,0.4,2.6,1.7,2.7,3.3
		c0.1,0.9,0.2,1.7,0.2,2.6v3.8c-0.1,1.7,0,3.3,0.2,5c0.1,0.7,0.3,1.4,0.7,2H588C587.5,739.5,587.3,738.8,587.2,738z M587.1,731.8
		c-1.4,0.5-2.9,0.9-4.4,1.1c-0.8,0.1-1.5,0.3-2.3,0.6c-0.4,0.2-0.8,0.5-1,0.9s-0.3,0.9-0.3,1.3c0,0.7,0.3,1.4,0.8,1.9
		c0.7,0.5,1.5,0.8,2.4,0.8c0.9,0,1.9-0.2,2.7-0.7c0.8-0.5,1.4-1.2,1.8-2c0.3-0.9,0.5-1.9,0.4-2.8L587.1,731.8z"/>
	<path d="M592.8,735.1l2.7-0.4c0.1,1,0.5,1.9,1.2,2.6c0.9,0.6,1.8,1,2.8,0.9c0.9,0.1,2-0.2,2.7-0.8c0.5-0.4,0.9-1.1,0.9-1.8
		c0-0.6-0.3-1.2-0.8-1.5c-0.9-0.5-1.8-0.8-2.7-1c-1.4-0.3-2.7-0.8-4-1.4c-0.7-0.3-1.3-0.9-1.7-1.6c-0.4-0.7-0.6-1.4-0.6-2.2
		c0-0.7,0.2-1.4,0.5-2.1c0.3-0.6,0.8-1.2,1.3-1.6c0.5-0.4,1.1-0.6,1.7-0.8c0.8-0.2,1.5-0.3,2.3-0.3c1.1,0,2.2,0.2,3.3,0.6
		c0.9,0.3,1.5,0.8,2.1,1.5c0.5,0.8,0.9,1.6,0.9,2.6l-2.6,0.4c-0.1-0.8-0.4-1.5-1-2c-0.7-0.5-1.5-0.8-2.4-0.7
		c-0.9-0.1-1.8,0.1-2.7,0.6c-0.5,0.3-0.8,0.9-0.8,1.5c0,0.4,0.1,0.7,0.3,1s0.6,0.6,1,0.8c0.3,0.1,1,0.3,2.3,0.7
		c1.4,0.4,2.7,0.8,3.9,1.3c0.7,0.3,1.3,0.8,1.8,1.5c0.4,0.7,0.7,1.6,0.6,2.4c0,0.9-0.3,1.9-0.8,2.7c-0.5,0.9-1.4,1.5-2.2,1.9
		c-1,0.5-2.1,0.7-3.3,0.7c-1.6,0.1-3.3-0.4-4.7-1.3C593.8,738.1,593.1,736.7,592.8,735.1z"/>
	<path d="M608,735.1l2.7-0.4c0.1,1,0.5,1.9,1.2,2.6c0.9,0.6,1.8,1,2.8,0.9c0.9,0.1,2-0.2,2.7-0.8c0.5-0.4,0.9-1.1,0.9-1.8
		c0-0.6-0.3-1.2-0.8-1.5c-0.9-0.5-1.8-0.8-2.7-1c-1.4-0.3-2.7-0.8-4-1.4c-0.7-0.3-1.3-0.9-1.7-1.6c-0.4-0.7-0.6-1.4-0.6-2.2
		c0-0.7,0.2-1.4,0.5-2.1c0.3-0.6,0.8-1.2,1.3-1.6c0.5-0.4,1.1-0.6,1.7-0.8c0.8-0.2,1.5-0.3,2.3-0.3c1.1,0,2.2,0.2,3.3,0.6
		c0.9,0.3,1.5,0.8,2.1,1.5c0.5,0.8,0.9,1.6,0.9,2.6l-2.6,0.4c-0.1-0.8-0.4-1.5-1-2c-0.7-0.5-1.5-0.8-2.4-0.7
		c-0.9-0.1-1.8,0.1-2.7,0.6c-0.5,0.3-0.8,0.9-0.8,1.5c0,0.4,0.1,0.7,0.3,1c0.3,0.3,0.6,0.6,1,0.8c0.3,0.1,1,0.3,2.3,0.7
		c1.4,0.4,2.7,0.8,3.9,1.3c0.7,0.3,1.3,0.8,1.8,1.5c0.4,0.7,0.7,1.6,0.6,2.4c0,0.9-0.3,1.9-0.8,2.7c-0.5,0.9-1.4,1.5-2.2,1.9
		c-1,0.5-2.1,0.7-3.3,0.7c-1.6,0.1-3.3-0.4-4.7-1.3C608.9,738.1,608.2,736.7,608,735.1z"/>
	<path d="M624.3,720.4v-3.2h2.7v3.2H624.3z M624.3,740.1v-16.6h2.7v16.6H624.3z"/>
	<path d="M631.6,740.1v-14.4h-2.3v-2.2h2.3v-1.8c0-0.8,0.1-1.7,0.3-2.5c0.3-0.7,0.8-1.4,1.4-1.8c0.9-0.5,1.8-0.7,2.7-0.7
		c0.9,0,1.6,0.1,2.5,0.3l-0.4,2.5c-0.5-0.1-1-0.1-1.5-0.2c-0.6-0.1-1.2,0.1-1.7,0.5c-0.4,0.6-0.6,1.3-0.5,2v1.5h3.1v2.2h-3.1v14.4
		L631.6,740.1z"/>
	<path d="M639.5,720.4v-3.2h2.7v3.2H639.5z M639.5,740.1v-16.6h2.7v16.6H639.5z"/>
	<path d="M657,734.7l2.7,0.4c-0.3,1.6-1.2,3-2.4,4c-1.3,1-2.9,1.5-4.5,1.4c-2.1,0.1-4-0.7-5.5-2.2c-1.5-1.7-2.1-4-2.1-6.3
		c-0.2-2.4,0.6-4.7,2.1-6.5c1.4-1.5,3.3-2.4,5.3-2.3c2-0.1,3.9,0.8,5.1,2.3c1.5,1.8,2.1,4.1,2,6.4c0,0.2,0,0.4,0,0.8H648
		c0,1.5,0.5,3,1.5,4.2c0.9,1,2.1,1.5,3.3,1.5c0.9,0,1.8-0.3,2.5-0.8C656.2,736.7,656.8,735.8,657,734.7z M648.3,730.2h8.7
		c0-1.1-0.3-2.2-1-3.1c-0.8-1.1-2.1-1.7-3.3-1.6c-1.2,0-2.3,0.4-3.1,1.3C648.8,727.6,648.3,728.9,648.3,730.2L648.3,730.2z"/>
	<path d="M663.1,740.1v-16.6h2.4v2.5c0.4-0.9,0.9-1.7,1.7-2.3c0.5-0.4,1.1-0.6,1.7-0.6c0.9,0,1.9,0.3,2.7,0.9l-0.9,2.6
		c-0.6-0.4-1.3-0.6-2-0.6c-0.6,0-1.1,0.2-1.5,0.6c-0.4,0.4-0.8,0.9-0.9,1.5c-0.3,1.1-0.4,2.2-0.4,3.3v8.7L663.1,740.1z"/>
	<path d="M682.3,740.1v-14.4h-2.4v-2.2h2.4v-1.8c0-0.8,0.1-1.7,0.3-2.5c0.3-0.7,0.8-1.4,1.4-1.8c0.9-0.5,1.8-0.7,2.7-0.7
		c0.9,0,1.7,0.1,2.5,0.3l-0.4,2.5c-0.5-0.1-1-0.1-1.5-0.2c-0.6-0.1-1.2,0.1-1.7,0.5c-0.4,0.6-0.6,1.3-0.5,2v1.5h3.1v2.2H685v14.4
		L682.3,740.1z"/>
	<path d="M689.2,731.8c0-3.1,0.8-5.4,2.4-6.8c1.4-1.2,3.2-1.9,5-1.8c2-0.1,3.9,0.7,5.3,2.2c1.5,1.7,2.2,3.9,2.1,6.2
		c0.1,1.7-0.3,3.4-0.9,5c-0.6,1.2-1.5,2.2-2.7,2.9c-1.2,0.7-2.5,1-3.8,1c-2,0.1-3.9-0.7-5.3-2.2
		C689.8,736.7,689.2,734.6,689.2,731.8z M691.9,731.8c-0.2,1.7,0.3,3.4,1.3,4.8c1.6,1.9,4.4,2.1,6.2,0.5c0.2-0.1,0.3-0.3,0.4-0.5
		c0.9-1.4,1.5-3.1,1.4-4.9c0.1-1.7-0.3-3.3-1.4-4.7c-1.6-1.9-4.4-2.1-6.3-0.4c-0.2,0.1-0.3,0.3-0.4,0.4
		C692.2,728.4,691.7,730.1,691.9,731.8z"/>
	<path d="M707,740.1v-16.6h2.4v2.5c0.4-0.9,0.9-1.7,1.7-2.3c0.5-0.4,1.1-0.6,1.7-0.6c0.9,0,1.9,0.3,2.7,0.9l-0.9,2.6
		c-0.6-0.4-1.3-0.6-2-0.6c-0.6,0-1.1,0.2-1.5,0.6c-0.4,0.4-0.8,0.9-0.9,1.5c-0.3,1.1-0.4,2.2-0.4,3.3v8.7L707,740.1z"/>
	<path d="M731.4,737.6l0.4,2.5c-0.7,0.2-1.4,0.2-2.1,0.3c-0.8,0-1.5-0.1-2.3-0.5c-0.5-0.3-0.9-0.7-1.1-1.3c-0.3-1.1-0.4-2.2-0.3-3.3
		v-9.5h-2v-2.2h2v-4.1l2.7-1.7v5.8h2.7v2.2h-2.7v9.7c0,0.5,0,1,0.2,1.5c0.1,0.2,0.3,0.4,0.4,0.5c0.3,0.2,0.6,0.2,0.9,0.2
		C730.6,737.7,731.1,737.6,731.4,737.6z"/>
	<path d="M744.3,738c-0.9,0.8-1.8,1.4-2.8,1.9c-0.9,0.4-2,0.5-2.9,0.5c-1.5,0.1-2.8-0.4-4-1.3c-0.9-0.9-1.5-2.1-1.4-3.4
		c0-0.8,0.2-1.5,0.5-2.2c0.3-0.6,0.8-1.2,1.4-1.6c0.6-0.4,1.2-0.7,1.9-0.9c0.8-0.2,1.5-0.3,2.4-0.4c1.6-0.2,3.2-0.5,4.7-1
		c0-0.4,0-0.6,0-0.7c0.1-0.9-0.2-1.8-0.8-2.4c-0.9-0.7-2-1.1-3-1c-0.9-0.1-2,0.2-2.7,0.7c-0.7,0.6-1.2,1.5-1.4,2.5l-2.6-0.4
		c0.2-1,0.6-2,1.2-2.8c0.6-0.8,1.5-1.4,2.3-1.7c1.1-0.4,2.4-0.6,3.6-0.6c1.1,0,2.2,0.1,3.3,0.5c0.7,0.2,1.4,0.7,1.9,1.3
		c0.4,0.6,0.7,1.2,0.9,1.9c0.1,0.9,0.2,1.7,0.2,2.6v3.8c-0.1,1.7,0,3.3,0.2,5c0.1,0.7,0.3,1.4,0.7,2h-2.8
		C744.5,739.4,744.4,738.7,744.3,738z M744.1,731.7c-1.4,0.5-2.9,0.9-4.4,1.1c-0.8,0.1-1.5,0.3-2.3,0.6c-0.4,0.2-0.8,0.5-1,0.9
		c-0.6,1-0.4,2.4,0.4,3.2c0.7,0.5,1.5,0.8,2.4,0.8c0.9,0,1.9-0.2,2.7-0.7c0.8-0.5,1.4-1.2,1.8-2c0.3-0.9,0.5-1.9,0.4-2.8
		L744.1,731.7L744.1,731.7z"/>
	<path d="M749.8,735.1l2.7-0.4c0.1,1,0.5,1.9,1.3,2.6c0.9,0.6,1.8,1,2.8,0.9c0.9,0.1,2-0.2,2.7-0.8c0.5-0.4,0.9-1.1,0.9-1.8
		c0-0.6-0.3-1.2-0.8-1.5c-0.9-0.5-1.8-0.8-2.7-1c-1.4-0.3-2.7-0.8-4.1-1.4c-0.7-0.3-1.3-0.9-1.7-1.6c-0.4-0.7-0.6-1.4-0.6-2.2
		c0-0.7,0.2-1.4,0.5-2.1c0.3-0.6,0.8-1.2,1.3-1.6c0.5-0.4,1.1-0.6,1.7-0.8c0.8-0.2,1.5-0.3,2.3-0.3c1.1,0,2.2,0.2,3.3,0.6
		c0.8,0.3,1.5,0.8,2.1,1.5c0.5,0.8,0.9,1.6,0.9,2.6l-2.6,0.4c-0.1-0.8-0.4-1.5-1-2c-0.7-0.5-1.5-0.8-2.4-0.7
		c-0.9-0.1-1.8,0.1-2.7,0.6c-0.5,0.3-0.8,0.9-0.8,1.5c0,0.4,0.1,0.7,0.3,1c0.3,0.3,0.6,0.6,1,0.8c0.3,0.1,1,0.3,2.4,0.7
		s2.7,0.8,3.9,1.3c0.7,0.3,1.3,0.8,1.7,1.5c0.4,0.7,0.7,1.5,0.6,2.4c0,0.9-0.3,1.9-0.8,2.7c-0.5,0.9-1.4,1.5-2.2,1.9
		c-1,0.5-2.1,0.7-3.3,0.7c-1.6,0.1-3.3-0.4-4.7-1.3C750.8,738.1,750.1,736.7,749.8,735.1z"/>
	<path d="M766.1,740.1v-22.9h2.7v13.1l6.3-6.8h3.4l-6,6.2l6.7,10.4H776l-5.2-8.5l-1.9,1.9v6.6H766.1z"/>
	<path d="M799,740.1h-2.7v-17.9c-0.8,0.7-1.6,1.4-2.6,1.9c-0.9,0.6-1.9,1.1-2.8,1.5v-2.8c1.5-0.7,2.7-1.6,3.9-2.7
		c0.9-0.9,1.8-1.9,2.4-3.1h1.7V740.1z"/>
</g>
<g>
	<path d="M1157.2,738.6v-20.2h-7.2v-2.7h17.2v2.7h-7.2v20.2H1157.2z"/>
	<path d="M1165.5,730.3c0-3.1,0.8-5.4,2.4-6.8c1.4-1.2,3.2-1.9,5-1.8c2-0.1,3.9,0.7,5.3,2.2c1.5,1.7,2.2,3.9,2.1,6.2
		c0.1,1.7-0.3,3.4-0.9,5c-0.6,1.2-1.5,2.2-2.7,2.9c-1.2,0.7-2.5,1-3.8,1c-2,0.1-3.9-0.7-5.3-2.2
		C1166.2,735.2,1165.5,733.1,1165.5,730.3z M1168.2,730.3c-0.2,1.7,0.3,3.4,1.3,4.8c1.6,1.9,4.4,2.1,6.2,0.5
		c0.2-0.1,0.3-0.3,0.4-0.5c0.9-1.4,1.5-3.1,1.4-4.9c0.1-1.7-0.3-3.3-1.4-4.7c-1.6-1.9-4.4-2.1-6.3-0.4c-0.2,0.1-0.3,0.3-0.4,0.4
		C1168.6,726.9,1168.1,728.6,1168.2,730.3L1168.2,730.3z"/>
	<path d="M1183.4,738.6v-22.9h2.7v13.1l6.3-6.8h3.4l-6,6.2l6.7,10.4h-3.3l-5.2-8.5l-1.9,1.9v6.6H1183.4z"/>
	<path d="M1209.4,733.2l2.7,0.4c-0.3,1.6-1.2,3-2.4,4c-1.3,1-2.9,1.5-4.5,1.4c-2.1,0.1-4-0.7-5.5-2.2c-1.5-1.7-2.1-4-2.1-6.3
		c-0.2-2.4,0.6-4.7,2.1-6.5c1.4-1.5,3.3-2.4,5.3-2.3c2-0.1,3.9,0.8,5.1,2.3c1.5,1.8,2.1,4.1,2,6.4c0,0.2,0,0.4,0,0.8h-11.7
		c0,1.5,0.5,3,1.5,4.2c0.9,1,2.1,1.5,3.3,1.5c0.9,0,1.8-0.3,2.5-0.8C1208.5,735.2,1209.1,734.3,1209.4,733.2z M1200.6,728.7h8.7
		c0-1.1-0.3-2.2-1-3.1c-0.8-1.1-2.1-1.7-3.3-1.6c-1.2,0-2.3,0.4-3.1,1.3C1201.1,726.2,1200.6,727.4,1200.6,728.7z"/>
	<path d="M1215.5,738.6V722h2.4v2.3c1.1-1.8,3-2.8,5-2.7c0.9,0,1.8,0.2,2.7,0.5c0.7,0.3,1.3,0.8,1.8,1.4c0.4,0.6,0.7,1.3,0.9,2.1
		c0.1,0.9,0.2,1.8,0.2,2.7v10.2h-2.7v-10.1c0-0.9-0.1-1.7-0.3-2.6c-0.2-0.6-0.6-1-1.1-1.4c-0.6-0.3-1.2-0.5-1.9-0.5
		c-1.1,0-2.1,0.4-2.9,1.1c-0.9,0.8-1.3,2.2-1.3,4.3v9.1L1215.5,738.6z"/>
	<path d="M1231.3,731.7v-2.8h8.2v2.8H1231.3z"/>
	<path d="M1242.5,738.6v-22.9h2.7v22.9H1242.5z"/>
	<path d="M1260,733.2l2.7,0.4c-0.3,1.6-1.2,3-2.4,4c-1.3,1-2.9,1.5-4.5,1.4c-2.1,0.1-4-0.7-5.5-2.2c-1.5-1.7-2.1-4-2.1-6.3
		c-0.2-2.4,0.6-4.7,2.1-6.5c1.4-1.5,3.3-2.4,5.3-2.3c2-0.1,3.9,0.8,5.1,2.3c1.5,1.8,2.1,4.1,2,6.4c0,0.2,0,0.4,0,0.8H1251
		c0,1.5,0.5,3,1.5,4.2c0.9,1,2.1,1.5,3.3,1.5c0.9,0,1.8-0.3,2.5-0.8C1259.2,735.2,1259.8,734.3,1260,733.2z M1251.3,728.7h8.8
		c0-1.1-0.3-2.2-1-3.1c-0.8-1.1-2.1-1.7-3.3-1.6c-1.2,0-2.3,0.4-3.1,1.3C1251.8,726.1,1251.3,727.4,1251.3,728.7z"/>
	<path d="M1270.6,738.6l-6-16.6h2.8l3.4,9.9c0.3,1.1,0.7,2.2,1,3.3c0.3-0.9,0.5-1.9,0.9-3.2l3.5-10.1h2.7l-6,16.6L1270.6,738.6
		L1270.6,738.6z"/>
	<path d="M1292.2,733.2l2.7,0.4c-0.3,1.6-1.2,3-2.4,4c-1.3,1-2.9,1.5-4.5,1.4c-2.1,0.1-4-0.7-5.5-2.2c-1.5-1.7-2.1-4-2.1-6.3
		c-0.2-2.4,0.6-4.7,2.1-6.5c1.4-1.5,3.3-2.4,5.3-2.3c2-0.1,3.9,0.8,5.1,2.3c1.5,1.8,2.1,4.1,2,6.4c0,0.2,0,0.4,0,0.8h-11.7
		c0,1.5,0.5,3,1.5,4.2c0.9,1,2.1,1.5,3.3,1.5c0.9,0,1.8-0.3,2.5-0.8C1291.3,735.2,1291.8,734.3,1292.2,733.2z M1283.3,728.7h8.8
		c0-1.1-0.3-2.2-1-3.1c-0.8-1.1-2.1-1.7-3.3-1.6c-1.1,0-2.3,0.4-3.1,1.3C1283.9,726.2,1283.4,727.4,1283.3,728.7z"/>
	<path d="M1298.2,738.6v-22.9h2.7v22.9H1298.2z"/>
	<path d="M1323.7,732.5l2.7,0.4c-0.2,1.7-0.9,3.3-2.2,4.5c-1.2,1.1-2.7,1.7-4.4,1.6c-2,0.1-3.9-0.7-5.2-2.2c-1.4-1.8-2.1-4.1-2-6.4
		c0-1.6,0.3-3.2,0.9-4.7c0.5-1.3,1.5-2.3,2.6-3c1.2-0.7,2.5-1,3.8-1c1.5-0.1,3,0.4,4.2,1.4c1.1,1,1.9,2.4,2.1,3.9l-2.6,0.4
		c-0.2-1-0.6-1.8-1.3-2.5c-0.6-0.6-1.5-0.9-2.3-0.8c-1.3,0-2.5,0.5-3.3,1.5c-0.9,1.4-1.4,3.1-1.3,4.8c0,2.2,0.4,3.8,1.2,4.9
		c0.8,1,2,1.6,3.2,1.5c0.9,0,1.9-0.3,2.7-1C1323.2,734.8,1323.6,733.7,1323.7,732.5z"/>
	<path d="M1328.6,738.6v-22.9h2.7v22.9H1328.6z"/>
	<path d="M1345.6,736.5c-0.9,0.8-1.8,1.4-2.8,1.9c-0.9,0.4-2,0.5-2.9,0.5c-1.5,0.1-2.8-0.4-4-1.3c-0.9-0.9-1.5-2.1-1.4-3.4
		c0-0.8,0.2-1.5,0.5-2.2c0.3-0.7,0.8-1.2,1.4-1.6c0.6-0.4,1.2-0.7,1.9-0.9c0.8-0.2,1.5-0.3,2.4-0.4c1.6-0.2,3.2-0.5,4.7-1
		c0-0.4,0-0.6,0-0.7c0.1-0.9-0.2-1.8-0.8-2.4c-0.9-0.7-2-1.1-3.1-1c-0.9-0.1-2,0.2-2.7,0.7c-0.7,0.6-1.1,1.5-1.3,2.5l-2.6-0.4
		c0.2-1,0.6-2,1.2-2.8c0.6-0.8,1.5-1.4,2.4-1.7c1.1-0.4,2.4-0.6,3.6-0.6c1.1,0,2.2,0.1,3.3,0.5c0.7,0.2,1.4,0.7,1.9,1.3
		c0.4,0.6,0.7,1.3,0.9,2c0.1,0.9,0.2,1.7,0.2,2.6v3.8c-0.1,1.7,0,3.3,0.2,5c0.1,0.7,0.3,1.4,0.7,2h-2.7
		C1345.9,738,1345.7,737.3,1345.6,736.5z M1345.5,730.2c-1.4,0.5-2.8,0.9-4.4,1.1c-0.8,0.1-1.5,0.3-2.3,0.6c-0.4,0.2-0.8,0.5-1,0.9
		c-0.3,0.4-0.3,0.9-0.3,1.3c0,0.7,0.3,1.4,0.8,1.9c0.7,0.5,1.5,0.8,2.4,0.8c0.9,0,1.9-0.2,2.7-0.7c0.8-0.5,1.4-1.2,1.8-2
		c0.3-0.9,0.5-1.9,0.4-2.8L1345.5,730.2L1345.5,730.2z"/>
	<path d="M1351.2,733.6l2.7-0.4c0.1,1,0.5,1.9,1.2,2.6c0.9,0.6,1.8,1,2.8,0.9c0.9,0.1,2-0.2,2.7-0.8c0.5-0.4,0.9-1.1,0.9-1.8
		c0-0.6-0.3-1.2-0.8-1.5c-0.9-0.5-1.8-0.8-2.7-1c-1.4-0.3-2.7-0.8-4-1.4c-0.7-0.3-1.3-0.9-1.7-1.6c-0.4-0.7-0.6-1.4-0.6-2.2
		c0-0.7,0.2-1.4,0.5-2.1c0.3-0.6,0.8-1.2,1.3-1.6c0.5-0.4,1.1-0.6,1.7-0.8c0.8-0.2,1.5-0.3,2.3-0.3c1.1,0,2.2,0.2,3.3,0.6
		c0.9,0.3,1.5,0.8,2.1,1.5c0.5,0.8,0.9,1.6,0.9,2.6l-2.6,0.4c-0.1-0.8-0.4-1.5-1-2c-0.7-0.5-1.5-0.8-2.4-0.7
		c-0.9-0.1-1.8,0.1-2.7,0.6c-0.5,0.3-0.8,0.9-0.8,1.5c0,0.4,0.1,0.7,0.3,1c0.3,0.3,0.6,0.6,1,0.8c0.3,0.1,1,0.3,2.3,0.7
		c1.4,0.4,2.7,0.8,3.9,1.3c0.7,0.3,1.3,0.8,1.8,1.5c0.4,0.7,0.7,1.6,0.6,2.4c0,0.9-0.3,1.9-0.8,2.7c-0.5,0.9-1.4,1.6-2.2,2
		c-1,0.5-2.1,0.7-3.3,0.7c-1.6,0.1-3.3-0.4-4.7-1.3C1352.2,736.6,1351.4,735.2,1351.2,733.6z"/>
	<path d="M1366.4,733.6l2.7-0.4c0.1,1,0.5,1.9,1.2,2.6c0.9,0.6,1.8,1,2.8,0.9c0.9,0.1,2-0.2,2.7-0.8c0.5-0.4,0.9-1.1,0.9-1.8
		c0-0.6-0.3-1.2-0.8-1.5c-0.9-0.5-1.8-0.8-2.7-1c-1.4-0.3-2.7-0.8-4-1.4c-0.7-0.3-1.3-0.9-1.7-1.6c-0.4-0.7-0.6-1.4-0.6-2.2
		c0-0.7,0.2-1.4,0.5-2.1c0.3-0.6,0.8-1.2,1.3-1.6c0.5-0.4,1.1-0.6,1.7-0.8c0.8-0.2,1.5-0.3,2.3-0.3c1.1,0,2.2,0.2,3.3,0.6
		c0.9,0.3,1.5,0.8,2.1,1.5c0.5,0.8,0.9,1.6,0.9,2.6l-2.6,0.4c-0.1-0.8-0.4-1.5-1-2c-0.7-0.5-1.5-0.8-2.4-0.7
		c-0.9-0.1-1.8,0.1-2.7,0.6c-0.5,0.3-0.8,0.9-0.8,1.5c0,0.4,0.1,0.7,0.3,1c0.3,0.3,0.6,0.6,1,0.8c0.3,0.1,1,0.3,2.3,0.7
		c1.4,0.4,2.7,0.8,3.9,1.3c0.7,0.3,1.3,0.8,1.8,1.5c0.4,0.7,0.7,1.6,0.6,2.4c0,0.9-0.3,1.9-0.8,2.7c-0.5,0.9-1.4,1.6-2.2,2
		c-1,0.5-2.1,0.7-3.3,0.7c-1.6,0.1-3.3-0.4-4.7-1.3C1367.3,736.6,1366.6,735.2,1366.4,733.6z"/>
	<path d="M1382.7,718.9v-3.2h2.7v3.2H1382.7z M1382.7,738.6V722h2.7v16.6H1382.7z"/>
	<path d="M1390,738.6v-14.4h-2.3V722h2.3v-1.8c0-0.8,0.1-1.7,0.3-2.5c0.3-0.7,0.8-1.4,1.4-1.8c0.9-0.5,1.8-0.7,2.7-0.7
		c0.9,0,1.6,0.1,2.5,0.3l-0.4,2.5c-0.5-0.1-1-0.1-1.5-0.2c-0.6-0.1-1.2,0.1-1.7,0.5c-0.4,0.6-0.6,1.3-0.5,2v1.5h3.1v2.2h-3.1v14.4
		L1390,738.6z"/>
	<path d="M1397.8,718.9v-3.2h2.7v3.2H1397.8z M1397.8,738.6V722h2.7v16.6H1397.8z"/>
	<path d="M1415.4,733.2l2.7,0.4c-0.3,1.6-1.2,3-2.4,4c-1.3,1-2.9,1.5-4.5,1.4c-2.1,0.1-4-0.7-5.5-2.2c-1.5-1.7-2.1-4-2.1-6.3
		c-0.2-2.4,0.6-4.7,2.1-6.5c1.4-1.5,3.3-2.4,5.3-2.3c2-0.1,3.9,0.8,5.1,2.3c1.5,1.8,2.1,4.1,2,6.4c0,0.2,0,0.4,0,0.8h-11.7
		c0,1.5,0.5,3,1.5,4.2c0.9,1,2.1,1.5,3.3,1.5c0.9,0,1.8-0.3,2.5-0.8C1414.6,735.2,1415.2,734.3,1415.4,733.2z M1406.7,728.7h8.7
		c0-1.1-0.3-2.2-1-3.1c-0.8-1.1-2.1-1.7-3.3-1.6c-1.2,0-2.3,0.4-3.1,1.3C1407.2,726.1,1406.7,727.4,1406.7,728.7L1406.7,728.7z"/>
	<path d="M1421.5,738.6V722h2.4v2.5c0.4-0.9,0.9-1.7,1.7-2.3c0.5-0.4,1.1-0.6,1.7-0.6c0.9,0,1.9,0.3,2.7,0.9l-0.9,2.6
		c-0.6-0.4-1.3-0.6-2-0.6c-0.6,0-1.1,0.2-1.5,0.6c-0.4,0.4-0.8,0.9-0.9,1.5c-0.3,1.1-0.4,2.2-0.4,3.3v8.7L1421.5,738.6z"/>
	<path d="M1440.7,738.6v-14.4h-2.4V722h2.4v-1.8c0-0.8,0.1-1.7,0.3-2.5c0.3-0.7,0.8-1.4,1.4-1.8c0.9-0.5,1.8-0.7,2.7-0.7
		c0.9,0,1.7,0.1,2.5,0.3l-0.4,2.5c-0.5-0.1-1-0.1-1.5-0.2c-0.6-0.1-1.2,0.1-1.7,0.5c-0.4,0.6-0.6,1.3-0.5,2v1.5h3.1v2.2h-3.1v14.4
		L1440.7,738.6z"/>
	<path d="M1447.5,730.3c0-3.1,0.8-5.4,2.4-6.8c1.4-1.2,3.2-1.9,5-1.8c2-0.1,3.9,0.7,5.3,2.2c1.5,1.7,2.2,3.9,2.1,6.2
		c0.1,1.7-0.3,3.4-0.9,5c-0.6,1.2-1.5,2.2-2.7,2.9c-1.2,0.7-2.5,1-3.8,1c-2,0.1-3.9-0.7-5.3-2.2
		C1448.2,735.2,1447.5,733.1,1447.5,730.3z M1450.2,730.3c-0.2,1.7,0.3,3.4,1.3,4.8c1.6,1.9,4.4,2.1,6.2,0.5
		c0.2-0.1,0.3-0.3,0.4-0.5c0.9-1.4,1.5-3.1,1.4-4.9c0.1-1.7-0.3-3.3-1.4-4.7c-1.6-1.9-4.4-2.1-6.3-0.4c-0.2,0.1-0.3,0.3-0.4,0.4
		C1450.6,726.9,1450.1,728.6,1450.2,730.3L1450.2,730.3z"/>
	<path d="M1465.4,738.6V722h2.4v2.5c0.4-0.9,0.9-1.7,1.7-2.3c0.5-0.4,1.1-0.6,1.7-0.6c0.9,0,1.9,0.3,2.7,0.9l-0.9,2.6
		c-0.6-0.4-1.3-0.6-2-0.6c-0.6,0-1.1,0.2-1.5,0.6c-0.4,0.4-0.8,0.9-0.9,1.5c-0.3,1.1-0.4,2.2-0.4,3.3v8.7L1465.4,738.6z"/>
	<path d="M1489.8,736.1l0.4,2.5c-0.7,0.2-1.4,0.2-2.1,0.3c-0.8,0-1.5-0.1-2.2-0.5c-0.5-0.3-0.9-0.7-1.1-1.3
		c-0.3-1.1-0.4-2.2-0.3-3.3v-9.5h-2v-2.2h2V718l2.7-1.7v5.8h2.7v2.2h-2.7v9.7c0,0.5,0,1,0.2,1.5c0.1,0.2,0.3,0.4,0.4,0.5
		c0.3,0.2,0.6,0.2,0.9,0.2C1489,736.2,1489.4,736.1,1489.8,736.1z"/>
	<path d="M1502.7,736.5c-0.9,0.8-1.8,1.4-2.8,1.9c-0.9,0.4-2,0.5-2.9,0.5c-1.5,0.1-2.8-0.4-4-1.3c-0.9-0.9-1.5-2.1-1.4-3.4
		c0-0.8,0.2-1.5,0.5-2.2c0.3-0.6,0.8-1.2,1.4-1.6c0.6-0.4,1.2-0.7,1.9-0.9c0.8-0.2,1.5-0.3,2.4-0.4c1.6-0.2,3.2-0.5,4.7-1
		c0-0.4,0-0.6,0-0.7c0.1-0.9-0.2-1.8-0.8-2.4c-0.9-0.7-2-1.1-3-1c-0.9-0.1-2,0.2-2.7,0.7c-0.7,0.6-1.2,1.5-1.4,2.5l-2.6-0.4
		c0.2-1,0.6-2,1.2-2.8c0.6-0.8,1.5-1.4,2.3-1.7c1.1-0.4,2.4-0.6,3.6-0.6c1.1,0,2.2,0.1,3.3,0.5c0.8,0.2,1.4,0.7,1.9,1.3
		c0.4,0.6,0.7,1.2,0.9,1.9c0.1,0.9,0.2,1.7,0.2,2.6v3.8c-0.1,1.7,0,3.3,0.2,5c0.1,0.7,0.3,1.4,0.7,2h-2.8
		C1502.9,737.9,1502.8,737.2,1502.7,736.5z M1502.5,730.2c-1.4,0.5-2.9,0.9-4.4,1.1c-0.8,0.1-1.5,0.3-2.3,0.6
		c-0.4,0.2-0.8,0.5-1,0.9c-0.6,1-0.4,2.4,0.4,3.2c0.7,0.5,1.5,0.8,2.4,0.8c0.9,0,1.9-0.2,2.7-0.7c0.8-0.5,1.4-1.2,1.8-2
		c0.3-0.9,0.5-1.9,0.4-2.8L1502.5,730.2L1502.5,730.2z"/>
	<path d="M1508.2,733.6l2.7-0.4c0.1,1,0.5,1.9,1.3,2.6c0.9,0.6,1.8,1,2.8,0.9c0.9,0.1,2-0.2,2.7-0.8c0.5-0.4,0.9-1.1,0.9-1.8
		c0-0.6-0.3-1.2-0.8-1.5c-0.9-0.5-1.8-0.8-2.7-1c-1.4-0.3-2.7-0.8-4.1-1.4c-0.7-0.3-1.3-0.9-1.7-1.6c-0.4-0.7-0.6-1.4-0.6-2.2
		c0-0.7,0.2-1.4,0.5-2.1c0.3-0.6,0.8-1.2,1.3-1.6c0.5-0.4,1.1-0.6,1.7-0.8c0.8-0.2,1.5-0.3,2.3-0.3c1.1,0,2.2,0.2,3.3,0.6
		c0.8,0.3,1.5,0.8,2.1,1.5c0.5,0.8,0.9,1.6,0.9,2.6l-2.6,0.4c-0.1-0.8-0.4-1.5-1-2c-0.7-0.5-1.5-0.8-2.4-0.7
		c-0.9-0.1-1.8,0.1-2.7,0.6c-0.5,0.3-0.8,0.9-0.8,1.5c0,0.4,0.1,0.7,0.3,1s0.6,0.6,1,0.8c0.3,0.1,1,0.3,2.4,0.7s2.7,0.8,3.9,1.3
		c0.7,0.3,1.3,0.8,1.7,1.5c0.4,0.7,0.7,1.5,0.6,2.4c0,0.9-0.3,1.9-0.8,2.7c-0.5,0.9-1.4,1.5-2.2,1.9c-1,0.5-2.1,0.7-3.3,0.7
		c-1.6,0.1-3.3-0.4-4.7-1.3C1509.2,736.6,1508.4,735.2,1508.2,733.6z"/>
	<path d="M1524.5,738.6v-22.9h2.7v13.1l6.3-6.8h3.4l-6,6.2l6.7,10.4h-3.3l-5.2-8.5l-1.9,1.9v6.6H1524.5z"/>
	<path d="M1561.4,735.9v2.7H1547c0-0.7,0.1-1.4,0.3-2c0.4-1.1,1-2.1,1.7-3c1-1.3,2.2-2.4,3.5-3.5c1.7-1.4,3.3-3.1,4.7-4.8
		c0.8-1,1.2-2.1,1.3-3.4c0-1.1-0.4-2.1-1.1-2.8c-0.8-0.8-1.9-1.2-3-1.1c-1.1-0.1-2.2,0.4-3.1,1.2c-0.8,0.9-1.2,2.1-1.2,3.4l-2.7-0.3
		c0.1-1.9,0.9-3.6,2.1-4.9c1.4-1.2,3.2-1.8,5-1.7c1.8-0.1,3.6,0.6,5,1.8c1.2,1.2,1.9,2.8,1.8,4.5c0,0.9-0.2,1.8-0.5,2.7
		c-0.4,1-1,2-1.8,2.8c-1.3,1.4-2.7,2.8-4.1,4c-1.6,1.4-2.7,2.4-3.1,2.9c-0.4,0.5-0.8,1-1.1,1.5L1561.4,735.9z"/>
</g>
<g>
	<path d="M898.9,518.1v-20.2h-8.4v-2.7h20.1v2.7h-8.4v20.2H898.9z"/>
	<path d="M912.4,518.1v-16.6h2.8v2.5c0.5-0.9,1.1-1.7,2-2.3c0.6-0.4,1.3-0.6,2-0.6c1.1,0,2.2,0.3,3.2,0.9l-1.1,2.6
		c-0.7-0.4-1.5-0.6-2.3-0.6c-0.7,0-1.3,0.2-1.8,0.6s-0.9,0.9-1.1,1.5c-0.4,1.1-0.5,2.2-0.5,3.3v8.7H912.4z"/>
	<path d="M936.2,516.1c-1,0.8-2.1,1.4-3.3,1.9c-1.1,0.4-2.3,0.6-3.4,0.5c-1.7,0.1-3.4-0.4-4.7-1.3c-1.1-0.9-1.7-2.1-1.6-3.4
		c0-0.8,0.2-1.5,0.6-2.2c0.4-0.6,0.9-1.2,1.6-1.6c0.7-0.4,1.4-0.7,2.2-0.9c0.9-0.2,1.8-0.3,2.8-0.4c1.9-0.2,3.7-0.5,5.5-1
		c0-0.4,0-0.6,0-0.7c0.1-0.9-0.2-1.8-0.9-2.4c-1-0.7-2.3-1.1-3.5-1c-1.1-0.1-2.3,0.2-3.2,0.7c-0.8,0.6-1.4,1.5-1.6,2.5l-3-0.4
		c0.2-1,0.7-2,1.4-2.9c0.7-0.8,1.7-1.4,2.8-1.7c1.3-0.4,2.8-0.6,4.2-0.6c1.3,0,2.6,0.1,3.8,0.5c0.8,0.2,1.6,0.7,2.2,1.3
		c0.5,0.6,0.8,1.2,1,1.9c0.1,0.9,0.2,1.7,0.2,2.6v3.8c-0.1,1.7,0,3.3,0.2,5c0.1,0.7,0.4,1.4,0.8,2H937
		C936.5,517.4,936.3,516.8,936.2,516.1z M936,509.8c-1.6,0.5-3.4,0.9-5.1,1.1c-0.9,0.1-1.8,0.3-2.7,0.6c-0.5,0.2-0.9,0.5-1.2,0.9
		c-0.3,0.4-0.4,0.9-0.4,1.3c0,0.7,0.3,1.4,1,1.9c0.8,0.5,1.8,0.8,2.8,0.8c1.1,0,2.2-0.2,3.2-0.7c0.9-0.4,1.6-1.1,2.1-2
		c0.4-0.9,0.6-1.9,0.5-2.8L936,509.8z"/>
	<path d="M943.9,518.1v-16.6h2.8v2.4c1.3-1.8,3.5-2.8,5.9-2.7c1,0,2.1,0.2,3,0.5c0.8,0.3,1.6,0.8,2.1,1.4s0.8,1.3,1,2.1
		c0.1,0.9,0.2,1.8,0.2,2.7v10.2h-3.1V508c0-0.9-0.1-1.7-0.4-2.6c-0.2-0.6-0.7-1.1-1.3-1.4c-0.7-0.4-1.4-0.5-2.2-0.5
		c-1.3,0-2.5,0.4-3.4,1.1c-1,0.8-1.4,2.2-1.4,4.3v9.1L943.9,518.1z"/>
	<path d="M962.4,513.2l3.1-0.4c0.1,1,0.6,1.9,1.4,2.6c1,0.6,2.1,1,3.3,0.9c1.1,0.1,2.3-0.2,3.2-0.8c0.6-0.4,1-1.1,1-1.9
		c0-0.6-0.3-1.2-0.9-1.5c-1-0.4-2.1-0.8-3.2-1c-1.6-0.3-3.2-0.8-4.8-1.4c-0.8-0.3-1.5-0.9-2-1.6s-0.7-1.4-0.7-2.2
		c0-0.7,0.2-1.4,0.6-2.1c0.4-0.6,0.9-1.2,1.5-1.6s1.3-0.6,2-0.8c0.9-0.2,1.8-0.3,2.7-0.3c1.3,0,2.6,0.2,3.8,0.6
		c1,0.3,1.8,0.8,2.4,1.5c0.6,0.8,1,1.6,1.1,2.6l-3,0.4c-0.1-0.8-0.5-1.5-1.2-2c-0.8-0.5-1.8-0.8-2.8-0.7c-1.1-0.1-2.1,0.1-3.1,0.6
		c-0.6,0.3-0.9,0.9-0.9,1.5c0,0.4,0.1,0.7,0.4,1c0.3,0.3,0.7,0.6,1.2,0.8c0.3,0.1,1.2,0.4,2.8,0.7c1.6,0.3,3.1,0.8,4.6,1.3
		c0.8,0.3,1.5,0.8,2,1.5s0.8,1.6,0.8,2.4c0,0.9-0.3,1.9-0.9,2.6c-0.6,0.9-1.6,1.5-2.6,1.9c-1.2,0.5-2.5,0.7-3.9,0.7
		c-1.9,0.1-3.9-0.4-5.5-1.3C963.5,516.1,962.7,514.7,962.4,513.2z"/>
	<path d="M982,518.1v-14.4h-2.7v-2.2h2.7v-1.8c0-0.8,0.1-1.7,0.3-2.5c0.3-0.7,0.9-1.4,1.6-1.8c1-0.5,2.1-0.7,3.2-0.7
		c1,0,1.9,0.1,2.9,0.3l-0.5,2.5c-0.6-0.1-1.2-0.1-1.8-0.1c-0.7-0.1-1.4,0.1-2,0.5c-0.5,0.6-0.7,1.3-0.6,2v1.5h3.6v2.2h-3.6V518
		L982,518.1z"/>
	<path d="M990,509.8c0-3.1,0.9-5.3,2.8-6.8c1.6-1.2,3.7-1.9,5.8-1.8c2.3-0.1,4.6,0.7,6.2,2.2c1.7,1.7,2.6,3.9,2.4,6.2
		c0.1,1.7-0.3,3.4-1.1,5c-0.7,1.2-1.8,2.2-3.1,2.9c-1.4,0.7-2.9,1-4.4,1c-2.3,0.1-4.6-0.7-6.2-2.2
		C990.8,514.4,989.9,512.1,990,509.8z M993.3,509.8c-0.1,1.7,0.4,3.4,1.6,4.8c1.8,1.9,5.1,2.1,7.2,0.5c0.2-0.1,0.4-0.3,0.5-0.5
		c1.2-1.4,1.7-3.1,1.6-4.9c0.1-1.7-0.4-3.3-1.6-4.7c-1.8-1.9-5.1-2.1-7.2-0.5c-0.2,0.1-0.4,0.3-0.5,0.5
		C993.7,506.4,993,508.1,993.3,509.8z"/>
	<path d="M1010.9,518.1v-16.6h2.8v2.5c0.5-0.9,1.1-1.7,2-2.3c0.6-0.4,1.3-0.6,2-0.6c1.1,0,2.2,0.3,3.2,0.9l-1.1,2.6
		c-0.7-0.4-1.5-0.6-2.3-0.6c-0.7,0-1.3,0.2-1.8,0.6s-0.9,0.9-1.1,1.5c-0.4,1.1-0.5,2.2-0.5,3.3v8.7H1010.9z"/>
	<path d="M1022.8,518.1v-16.6h2.8v2.3c0.6-0.8,1.4-1.5,2.3-2c1-0.5,2.2-0.8,3.3-0.7c1.2,0,2.3,0.2,3.3,0.8c0.9,0.5,1.5,1.3,1.8,2.1
		c1.2-1.8,3.3-2.9,5.7-2.9c1.6-0.1,3.1,0.4,4.2,1.4c1.1,1.2,1.6,2.7,1.5,4.2v11.4h-3.1v-10.4c0-0.8-0.1-1.6-0.3-2.4
		c-0.2-0.5-0.6-0.9-1.1-1.2c-0.6-0.3-1.2-0.5-1.9-0.5c-1.2,0-2.4,0.4-3.2,1.2c-1,1-1.4,2.4-1.3,3.7v9.6h-3.1v-10.8
		c0.1-1-0.2-2-0.8-2.8c-0.6-0.7-1.5-1-2.5-0.9c-0.9,0-1.7,0.2-2.4,0.6c-0.8,0.4-1.3,1.1-1.6,1.8c-0.4,1.1-0.6,2.3-0.5,3.5v8.6
		L1022.8,518.1z"/>
	<path d="M1064.9,512.8l3.2,0.4c-0.4,1.6-1.4,3-2.8,4c-3.6,2.2-8.4,1.8-11.7-0.8c-1.7-1.7-2.5-4-2.4-6.3c-0.2-2.4,0.7-4.7,2.4-6.5
		c1.6-1.5,3.9-2.4,6.2-2.3c2.3-0.1,4.5,0.8,6,2.3c1.7,1.8,2.5,4.1,2.3,6.4c0,0.2,0,0.4,0,0.8h-13.7c0,1.5,0.6,3,1.7,4.2
		c1,1,2.4,1.5,3.8,1.5c1.1,0,2.1-0.3,2.9-0.8C1063.9,514.7,1064.5,513.8,1064.9,512.8z M1054.7,508.2h10.3c0-1.1-0.4-2.2-1.2-3.1
		c-0.9-1.1-2.4-1.7-3.9-1.6c-1.3,0-2.6,0.4-3.6,1.3C1055.3,505.7,1054.7,506.9,1054.7,508.2L1054.7,508.2z"/>
	<path d="M1072,518.1v-16.6h2.8v2.5c0.5-0.9,1.1-1.7,2-2.3c0.6-0.4,1.3-0.6,2-0.6c1.1,0,2.2,0.3,3.2,0.9l-1.1,2.6
		c-0.7-0.4-1.5-0.6-2.3-0.6c-0.7,0-1.3,0.2-1.8,0.6s-0.9,0.9-1.1,1.5c-0.4,1.1-0.5,2.2-0.5,3.3v8.7H1072z"/>
	<path d="M1082.6,513.2l3.1-0.4c0.1,1,0.6,1.9,1.4,2.6c1,0.6,2.1,1,3.3,0.9c1.1,0.1,2.3-0.2,3.2-0.8c0.6-0.4,1-1.1,1-1.9
		c0-0.6-0.3-1.2-0.9-1.5c-1-0.5-2.1-0.8-3.2-1c-1.6-0.3-3.2-0.8-4.8-1.4c-1.7-0.7-2.7-2.2-2.7-3.8c0-0.7,0.2-1.4,0.6-2.1
		c0.4-0.6,0.9-1.2,1.5-1.6s1.3-0.6,2-0.8c0.9-0.2,1.8-0.3,2.7-0.3c1.3,0,2.6,0.2,3.8,0.6c1,0.3,1.8,0.8,2.4,1.5
		c0.6,0.8,1,1.6,1.1,2.6l-3,0.4c-0.1-0.8-0.5-1.5-1.2-2c-0.8-0.5-1.8-0.8-2.8-0.7c-1.1-0.1-2.1,0.1-3.1,0.6
		c-0.6,0.3-0.9,0.9-0.9,1.5c0,0.4,0.1,0.7,0.4,1s0.7,0.6,1.2,0.8c0.3,0.1,1.2,0.4,2.7,0.7c1.6,0.3,3.1,0.8,4.6,1.3
		c0.8,0.3,1.5,0.8,2,1.5s0.8,1.6,0.7,2.4c0,0.9-0.3,1.9-0.9,2.6c-0.6,0.9-1.6,1.5-2.6,1.9c-1.2,0.5-2.5,0.7-3.9,0.7
		c-1.9,0.1-3.9-0.4-5.5-1.3C1083.7,516.1,1082.8,514.7,1082.6,513.2z"/>
</g>
<g>
	<path d="M852.7,445.9V423H871v2.7h-15v7H870v2.7H856v7.8h15.6v2.7L852.7,445.9z"/>
	<path d="M875.9,445.9v-16.6h2.8v2.4c0.6-0.8,1.4-1.5,2.3-2c1-0.5,2.2-0.8,3.3-0.7c1.2,0,2.3,0.2,3.3,0.8c0.9,0.5,1.5,1.3,1.8,2.1
		c1.2-1.8,3.3-2.9,5.7-2.9c1.6-0.1,3.1,0.4,4.2,1.4c1.1,1.2,1.6,2.7,1.5,4.2V446h-3.1v-10.5c0-0.8-0.1-1.6-0.3-2.4
		c-0.2-0.5-0.6-0.9-1.1-1.2c-0.6-0.3-1.2-0.5-1.9-0.5c-1.2,0-2.4,0.4-3.2,1.2c-1,1-1.4,2.4-1.3,3.7v9.6h-3.2v-10.8
		c0.1-1-0.2-2-0.8-2.8c-0.6-0.7-1.5-1-2.5-0.9c-0.9,0-1.7,0.2-2.4,0.6c-0.8,0.4-1.3,1.1-1.6,1.8c-0.4,1.1-0.6,2.3-0.5,3.5v8.6
		L875.9,445.9L875.9,445.9z"/>
	<path d="M908.3,445.9h-2.9V423h3.1v8.2c1.2-1.4,3.1-2.3,5-2.2c1.1,0,2.2,0.2,3.2,0.6s1.8,1,2.5,1.7c0.7,0.8,1.2,1.7,1.5,2.7
		c0.4,1.1,0.6,2.2,0.6,3.4c0.2,2.4-0.7,4.7-2.3,6.6c-1.4,1.5-3.5,2.3-5.6,2.3s-4-0.9-5.1-2.5V445.9z M908.3,437.5
		c-0.1,1.5,0.2,3,0.9,4.3c1.1,2,3.8,2.8,6,1.8c0.6-0.3,1.1-0.7,1.6-1.2c1.9-2.9,1.9-6.6,0-9.6c-0.8-1-2.1-1.6-3.5-1.5
		c-1.4,0-2.7,0.6-3.5,1.6C908.5,434.2,908,435.8,908.3,437.5L908.3,437.5z"/>
	<path d="M937.7,440.6l3.2,0.4c-0.4,1.6-1.4,3-2.8,4c-3.6,2.2-8.4,1.8-11.7-0.8c-1.7-1.7-2.5-4-2.4-6.3c-0.2-2.4,0.7-4.7,2.4-6.5
		c1.6-1.5,3.9-2.4,6.2-2.3c2.3-0.1,4.5,0.8,6,2.3c1.7,1.8,2.5,4.1,2.3,6.4c0,0.2,0,0.4,0,0.8h-13.7c0,1.5,0.6,3,1.7,4.2
		c1,1,2.4,1.5,3.8,1.5c1,0,2.1-0.3,2.9-0.8C936.7,442.5,937.3,441.6,937.7,440.6z M927.5,436h10.2c0-1.1-0.4-2.2-1.2-3.1
		c-0.9-1.1-2.4-1.7-3.9-1.6c-1.4,0-2.7,0.4-3.6,1.3C928,433.5,927.5,434.7,927.5,436z"/>
	<path d="M956.7,445.9v-2.1c-1.1,1.6-3.1,2.6-5.1,2.5c-1.4,0-2.8-0.4-4-1.1c-1.3-0.8-2.2-1.8-2.9-3.1c-0.7-1.4-1-3-1-4.5
		s0.3-3.1,0.9-4.5c0.5-1.3,1.5-2.4,2.7-3.1s2.6-1.1,4.1-1.1c2,0,3.9,0.8,5.1,2.3V423h3.1v22.9L956.7,445.9L956.7,445.9z
		 M946.9,437.6c-0.1,1.7,0.4,3.4,1.5,4.8c0.8,1,2.1,1.6,3.5,1.6s2.6-0.6,3.5-1.5c1.1-1.3,1.6-3,1.4-4.6c0-2.3-0.5-3.9-1.5-5
		c-0.8-1-2.2-1.6-3.6-1.6c-1.4,0-2.6,0.6-3.5,1.5C947.2,434.2,946.7,435.9,946.9,437.6z"/>
	<path d="M976.5,445.9v-2.1c-1.1,1.6-3.1,2.6-5.1,2.5c-1.4,0-2.8-0.4-4-1.1c-1.3-0.8-2.2-1.8-2.9-3.1c-0.7-1.4-1-3-1-4.5
		s0.3-3.1,0.9-4.5c0.5-1.3,1.5-2.4,2.8-3.1c1.2-0.7,2.6-1.1,4.1-1.1c2,0,3.9,0.8,5.1,2.3V423h3.1v22.9L976.5,445.9L976.5,445.9z
		 M966.5,437.6c-0.1,1.7,0.4,3.4,1.5,4.8c0.8,1,2.1,1.6,3.5,1.6s2.6-0.6,3.5-1.5c1.1-1.3,1.6-3,1.4-4.6c0-2.3-0.5-3.9-1.5-5
		c-0.8-1-2.2-1.6-3.6-1.6c-1.4,0-2.7,0.6-3.5,1.5C967,434.2,966.5,435.9,966.5,437.6z"/>
	<path d="M984.2,426.2V423h3.1v3.2H984.2z M984.2,445.9v-16.6h3.1v16.6H984.2z"/>
	<path d="M992,445.9v-16.6h2.8v2.4c1.3-1.8,3.5-2.8,5.8-2.7c1,0,2.1,0.2,3.1,0.5c0.8,0.3,1.5,0.8,2.1,1.4c0.5,0.6,0.8,1.3,1,2.1
		c0.1,0.9,0.2,1.8,0.2,2.7v10.2h-3.1v-10.1c0-0.9-0.1-1.7-0.4-2.6c-0.2-0.6-0.7-1.1-1.3-1.4c-0.7-0.4-1.4-0.5-2.2-0.5
		c-1.3,0-2.5,0.4-3.4,1.1c-1,0.8-1.5,2.2-1.5,4.3v9.1H992V445.9z"/>
	<path d="M1011.3,447.3l3,0.4c0.1,0.7,0.5,1.4,1.1,1.8c0.9,0.6,2,0.8,3.2,0.8c1.2,0.1,2.3-0.2,3.3-0.8c0.8-0.5,1.4-1.3,1.6-2.2
		c0.2-1.2,0.3-2.4,0.2-3.6c-1.2,1.4-3.1,2.2-5.1,2.2c-2.3,0.1-4.5-0.8-5.9-2.5s-2.1-3.8-2.1-5.9c0-1.5,0.3-3,1-4.4
		c0.6-1.3,1.5-2.3,2.8-3.1c1.3-0.7,2.7-1.1,4.2-1.1c2.1,0,4.1,0.9,5.4,2.4v-2h2.9v14.4c0.1,1.9-0.2,3.7-0.9,5.5
		c-0.6,1.1-1.6,2-2.8,2.5c-1.4,0.7-3.1,1-4.7,1c-1.9,0.1-3.7-0.4-5.3-1.3C1011.8,450.4,1011,448.9,1011.3,447.3z M1013.9,437.3
		c-0.2,1.7,0.3,3.4,1.4,4.8c1.7,1.8,4.7,2,6.7,0.5c0.2-0.1,0.4-0.3,0.5-0.5c1.1-1.3,1.6-3,1.5-4.7c0.1-1.6-0.4-3.3-1.5-4.6
		c-0.9-1-2.2-1.5-3.6-1.5c-1.4,0-2.7,0.6-3.5,1.5C1014.2,434.1,1013.7,435.7,1013.9,437.3L1013.9,437.3z"/>
	<path d="M1030.3,441l3.1-0.4c0.1,1,0.6,1.9,1.4,2.6c1,0.6,2.1,1,3.3,0.9c1.1,0.1,2.3-0.2,3.2-0.8c0.6-0.4,1-1.1,1-1.9
		c0-0.6-0.3-1.2-0.9-1.5c-1-0.5-2.1-0.8-3.2-1c-1.6-0.3-3.2-0.8-4.7-1.4c-0.8-0.3-1.5-0.9-2-1.6s-0.7-1.4-0.7-2.2
		c0-0.7,0.2-1.4,0.6-2.1c0.4-0.6,0.9-1.2,1.5-1.6s1.3-0.6,2-0.8c0.9-0.2,1.8-0.3,2.7-0.3c1.3,0,2.6,0.2,3.8,0.6
		c1,0.3,1.8,0.8,2.4,1.5c0.6,0.8,1,1.6,1.1,2.6l-3,0.4c-0.1-0.8-0.5-1.5-1.2-2c-0.8-0.5-1.8-0.8-2.8-0.7c-1.1-0.1-2.1,0.1-3.1,0.6
		c-0.6,0.3-0.9,0.9-0.9,1.5c0,0.4,0.1,0.7,0.4,1s0.7,0.6,1.2,0.8c0.3,0.1,1.2,0.4,2.7,0.7c1.6,0.3,3.1,0.8,4.6,1.3
		c0.8,0.3,1.5,0.8,2.1,1.5c0.5,0.7,0.8,1.6,0.7,2.4c0,0.9-0.3,1.9-0.9,2.6c-0.6,0.9-1.6,1.5-2.6,1.9c-1.2,0.5-2.5,0.7-3.9,0.7
		c-1.9,0.1-3.9-0.4-5.5-1.3C1031.4,443.9,1030.5,442.5,1030.3,441z"/>
	<path d="M1059.4,445.9V423h3.3v20.2h12.5v2.7L1059.4,445.9z"/>
	<path d="M1090.8,443.9c-1,0.8-2.1,1.4-3.3,1.9c-1.1,0.4-2.3,0.6-3.4,0.5c-1.7,0.1-3.4-0.4-4.7-1.3c-1.1-0.9-1.7-2.1-1.6-3.4
		c0-0.8,0.2-1.5,0.6-2.2c0.4-0.6,0.9-1.2,1.6-1.6s1.4-0.7,2.2-0.9c0.9-0.2,1.8-0.3,2.8-0.4c1.9-0.2,3.7-0.5,5.5-1c0-0.4,0-0.6,0-0.7
		c0.1-0.9-0.2-1.8-0.9-2.4c-1-0.7-2.3-1.1-3.5-1c-1.1-0.1-2.3,0.2-3.2,0.7c-0.8,0.6-1.4,1.5-1.6,2.5l-3-0.4c0.2-1,0.7-2,1.4-2.9
		c0.7-0.8,1.7-1.4,2.8-1.7c1.3-0.4,2.8-0.6,4.2-0.6c1.3,0,2.6,0.1,3.8,0.5c0.8,0.2,1.6,0.7,2.2,1.3c0.5,0.6,0.8,1.2,1,1.9
		c0.1,0.9,0.2,1.7,0.2,2.6v3.8c-0.1,1.7,0,3.3,0.2,5c0.1,0.7,0.4,1.4,0.8,2h-3.3C1091.1,445.3,1090.9,444.6,1090.8,443.9z
		 M1090.6,437.6c-1.6,0.5-3.4,0.9-5.1,1.1c-0.9,0.1-1.8,0.3-2.7,0.6c-0.5,0.2-0.9,0.5-1.2,0.9c-0.7,1-0.5,2.4,0.5,3.2
		c0.8,0.5,1.8,0.8,2.8,0.8c1.1,0,2.2-0.2,3.2-0.7c0.9-0.4,1.6-1.1,2.1-2c0.4-0.9,0.6-1.9,0.5-2.8v-1.1H1090.6z"/>
	<path d="M1098.4,452.3l-0.3-2.6c0.6,0.2,1.2,0.2,1.8,0.3c0.6,0,1.1-0.1,1.7-0.3c0.4-0.2,0.8-0.5,1-0.9c0.4-0.7,0.7-1.4,1-2.1
		c0-0.1,0.1-0.4,0.3-0.7l-7-16.6h3.3l3.8,9.6c0.5,1.2,0.9,2.5,1.3,3.8c0.4-1.3,0.8-2.5,1.3-3.8l3.9-9.7h3.1l-7,16.9
		c-0.5,1.3-1.1,2.5-1.8,3.8c-0.4,0.8-1.1,1.5-1.9,2c-0.8,0.4-1.7,0.7-2.6,0.6C1099.7,452.6,1099.1,452.5,1098.4,452.3z"/>
	<path d="M1128.9,440.6l3.2,0.4c-0.4,1.6-1.4,3-2.8,4c-3.6,2.2-8.4,1.8-11.7-0.8c-1.7-1.7-2.5-4-2.4-6.3c-0.2-2.4,0.7-4.7,2.4-6.5
		c1.6-1.5,3.9-2.4,6.2-2.3c2.3-0.1,4.5,0.8,6,2.3c1.7,1.8,2.5,4.1,2.3,6.4c0,0.2,0,0.4,0,0.8h-13.7c0,1.5,0.6,3,1.7,4.2
		c1,1,2.4,1.5,3.8,1.5c1,0,2.1-0.3,2.9-0.8C1127.9,442.5,1128.5,441.6,1128.9,440.6z M1118.6,436h10.3c0-1.1-0.4-2.2-1.2-3.1
		c-0.9-1.1-2.4-1.7-3.9-1.6c-1.3,0-2.7,0.4-3.6,1.3C1119.2,433.5,1118.7,434.7,1118.6,436z"/>
	<path d="M1136,445.9v-16.6h2.8v2.5c0.5-0.9,1.1-1.7,2-2.3c0.6-0.4,1.3-0.6,2-0.6c1.1,0,2.2,0.3,3.2,0.9l-1.1,2.6
		c-0.7-0.4-1.5-0.6-2.3-0.6c-0.7,0-1.3,0.2-1.8,0.6s-0.9,0.9-1.1,1.5c-0.4,1.1-0.5,2.2-0.5,3.3v8.7H1136z"/>
</g>
<g>
	<g>
		<path d="M132.4,762.6v-20.2h-7.5v-2.7H143v2.7h-7.6v20.2H132.4z"/>
		<path d="M141.2,754.3c0-3.1,0.8-5.3,2.6-6.8c1.5-1.2,3.3-1.9,5.2-1.8c2.1-0.1,4.1,0.7,5.6,2.2c1.5,1.7,2.3,3.9,2.2,6.2
			c0.1,1.7-0.3,3.4-1,5c-0.6,1.2-1.6,2.2-2.8,2.8c-1.2,0.7-2.6,1-4,1c-2.1,0.1-4.2-0.7-5.6-2.2C141.9,759.3,141.2,757.2,141.2,754.3
			z M144.1,754.3c-0.1,1.7,0.4,3.4,1.4,4.8c0.9,1,2.2,1.6,3.5,1.6c1.3,0,2.6-0.6,3.5-1.6c1-1.4,1.5-3.1,1.4-4.9
			c0.1-1.7-0.4-3.3-1.4-4.7c-1.7-1.9-4.6-2.1-6.5-0.5c-0.2,0.1-0.3,0.3-0.5,0.5C144.4,751,143.9,752.7,144.1,754.3L144.1,754.3z"/>
		<path d="M160,762.6v-22.9h2.8v13.1l6.7-6.8h3.6l-6.4,6.2l7,10.4h-3.5l-5.5-8.5l-2,1.9v6.6H160z"/>
		<path d="M187.4,757.3l2.9,0.4c-0.4,1.6-1.3,3-2.6,4c-3.3,2.2-7.6,1.8-10.5-0.8c-1.5-1.7-2.3-4-2.1-6.3c-0.1-2.4,0.6-4.7,2.2-6.5
			c1.4-1.5,3.5-2.4,5.6-2.3c2.1-0.1,4,0.8,5.4,2.3c1.5,1.8,2.3,4.1,2.1,6.4c0,0.2,0,0.4,0,0.8H178c0,1.5,0.5,3,1.6,4.2
			c0.9,1,2.2,1.5,3.5,1.5c0.9,0,1.9-0.3,2.6-0.8C186.5,759.3,187.1,758.3,187.4,757.3z M178.1,752.8h9.3c0-1.1-0.4-2.2-1.1-3.1
			c-0.8-1.1-2.1-1.7-3.5-1.6c-1.2,0-2.4,0.4-3.3,1.3C178.7,750.2,178.2,751.5,178.1,752.8L178.1,752.8z"/>
		<path d="M193.8,762.6V746h2.5v2.4c1.2-1.8,3.2-2.8,5.3-2.7c0.9,0,1.9,0.2,2.8,0.5c0.7,0.3,1.4,0.8,1.9,1.4
			c0.4,0.6,0.7,1.3,0.9,2.1c0.1,0.9,0.2,1.8,0.1,2.7v10.2h-2.8v-10.1c0-0.9-0.1-1.7-0.3-2.6c-0.2-0.6-0.6-1.1-1.2-1.4
			c-0.6-0.4-1.3-0.5-2-0.5c-1.1,0-2.2,0.4-3.1,1.1c-0.9,0.8-1.3,2.2-1.3,4.3v9.1L193.8,762.6z"/>
		<path d="M210.5,755.8V753h8.6v2.8H210.5z"/>
		<path d="M222.5,762.6v-22.9h3v20.2h11.3v2.7H222.5z"/>
		<path d="M251.4,757.3l2.9,0.4c-0.4,1.6-1.3,3-2.5,4c-3.3,2.2-7.6,1.8-10.5-0.8c-1.5-1.7-2.3-4-2.1-6.3c-0.1-2.4,0.6-4.7,2.2-6.5
			c1.4-1.5,3.5-2.4,5.6-2.3c2.1-0.1,4,0.8,5.4,2.3c1.5,1.8,2.3,4.1,2.1,6.4c0,0.2,0,0.4,0,0.8h-12.4c0,1.5,0.5,3,1.5,4.2
			c0.9,1,2.2,1.5,3.5,1.5c0.9,0,1.9-0.3,2.6-0.8C250.5,759.3,251.1,758.3,251.4,757.3z M242.2,752.8h9.3c0-1.1-0.4-2.2-1.1-3.1
			c-0.8-1.1-2.1-1.7-3.5-1.6c-1.2,0-2.4,0.5-3.2,1.3C242.8,750.2,242.2,751.5,242.2,752.8L242.2,752.8z"/>
		<path d="M262.5,762.6l-6.3-16.6h3l3.6,9.9c0.4,1.1,0.7,2.2,1.1,3.3c0.3-0.9,0.6-1.9,1-3.2l3.7-10.1h2.9l-6.3,16.6L262.5,762.6
			L262.5,762.6z"/>
		<path d="M285.2,757.3l2.9,0.4c-0.4,1.6-1.3,3-2.5,4c-3.3,2.2-7.6,1.8-10.5-0.8c-1.5-1.7-2.3-4-2.1-6.3c-0.1-2.4,0.6-4.7,2.1-6.5
			c1.4-1.5,3.5-2.4,5.6-2.3c2.1-0.1,4,0.8,5.4,2.3c1.5,1.8,2.3,4.1,2.1,6.4c0,0.2,0,0.4,0,0.8h-12.4c0,1.5,0.5,3,1.5,4.2
			c0.9,1,2.2,1.5,3.5,1.5c0.9,0,1.9-0.3,2.6-0.8C284.3,759.3,284.9,758.3,285.2,757.3z M276,752.8h9.3c0-1.1-0.4-2.2-1.1-3.1
			c-0.8-1.1-2.1-1.7-3.5-1.6c-1.2,0-2.4,0.4-3.3,1.3C276.5,750.2,276,751.5,276,752.8L276,752.8z"/>
		<path d="M291.6,762.6v-22.9h2.8v22.9H291.6z"/>
	</g>
	<g>
		<path d="M165.1,801.1v-22.9h4.6l5.4,16.2c0.5,1.5,0.9,2.6,1.1,3.4c0.3-0.8,0.7-2,1.2-3.7l5.5-15.9h4.1v22.9h-2.9v-19.2l-6.7,19.2
			h-2.7l-6.6-19.5v19.5H165.1z"/>
		<path d="M190.4,792.8c0-3.1,0.9-5.3,2.6-6.8c1.5-1.2,3.3-1.9,5.2-1.8c2.1-0.1,4.1,0.7,5.6,2.2c1.5,1.7,2.3,3.9,2.2,6.2
			c0.1,1.7-0.3,3.4-1,5c-0.6,1.2-1.6,2.2-2.8,2.8c-1.2,0.7-2.6,1-4,1c-2.1,0.1-4.2-0.7-5.6-2.2C191.1,797.7,190.4,795.6,190.4,792.8
			z M193.3,792.8c-0.1,1.7,0.4,3.4,1.4,4.8c1.7,1.9,4.6,2.1,6.5,0.5c0.2-0.1,0.3-0.3,0.5-0.5c1-1.4,1.5-3.1,1.4-4.9
			c0.1-1.7-0.4-3.3-1.4-4.7c-1.7-1.9-4.6-2.1-6.5-0.5c-0.2,0.1-0.3,0.3-0.5,0.5C193.7,789.4,193.2,791.1,193.3,792.8L193.3,792.8z"
			/>
		<path d="M220,801.1V799c-1,1.6-2.8,2.5-4.6,2.5c-1.3,0-2.6-0.4-3.6-1.1c-1.1-0.7-2-1.8-2.6-3c-0.6-1.4-0.9-3-0.9-4.5
			s0.3-3.1,0.8-4.5c0.5-1.3,1.4-2.4,2.5-3.1c1.1-0.7,2.4-1.1,3.7-1.1c0.9,0,1.8,0.2,2.7,0.6c0.8,0.4,1.4,1,1.9,1.7v-8.2h2.8v22.9
			L220,801.1z M211.1,792.8c-0.1,1.7,0.3,3.4,1.4,4.8c0.8,1,1.9,1.6,3.2,1.6c1.2,0,2.4-0.6,3.1-1.5c1-1.3,1.4-3,1.3-4.6
			c0.1-1.8-0.3-3.5-1.3-5c-0.8-1-2-1.6-3.2-1.6s-2.4,0.6-3.1,1.5C211.5,789.4,211,791.1,211.1,792.8z"/>
		<path d="M238.4,795.7l2.9,0.4c-0.4,1.6-1.3,3-2.6,4c-3.3,2.1-7.6,1.8-10.5-0.8c-1.5-1.7-2.3-4-2.1-6.3c-0.1-2.4,0.6-4.7,2.1-6.5
			c1.4-1.5,3.5-2.4,5.6-2.3c2.1-0.1,4,0.8,5.4,2.3c1.5,1.8,2.2,4.1,2.1,6.4c0,0.2,0,0.4,0,0.8h-12.4c0,1.5,0.5,3,1.6,4.2
			c0.9,1,2.2,1.5,3.5,1.5c1,0,1.9-0.3,2.6-0.9C237.5,797.6,238.1,796.7,238.4,795.7z M229.2,791.2h9.3c0-1.1-0.4-2.2-1.1-3.1
			c-0.8-1.1-2.1-1.7-3.5-1.6c-1.2,0-2.4,0.4-3.3,1.3C229.8,788.6,229.2,789.9,229.2,791.2z"/>
		<path d="M244.8,801.1v-22.9h2.8v22.9H244.8z"/>
	</g>
</g>
<g>
	<g>
		<path d="M180.8,446c0-3.8,1-6.8,3.1-8.9c2.1-2.2,4.9-3.3,7.9-3.2c2,0,4,0.5,5.7,1.5s3,2.5,3.9,4.2c0.9,1.9,1.4,4,1.3,6.1
			c0,2.2-0.4,4.3-1.4,6.2c-0.9,1.8-2.3,3.2-4,4.2c-1.7,0.9-3.6,1.4-5.6,1.4s-4-0.5-5.8-1.6c-1.7-1-3-2.5-3.9-4.3
			C181.2,450,180.7,448,180.8,446z M183.9,446.1c-0.1,2.4,0.7,4.7,2.2,6.5c3,3.1,7.9,3.2,11,0.2c0.1-0.1,0.1-0.1,0.2-0.2
			c1.6-1.9,2.4-4.4,2.2-6.8c0-1.7-0.3-3.3-1-4.9c-0.6-1.3-1.5-2.5-2.8-3.2c-1.2-0.8-2.6-1.2-4.1-1.1c-2.1,0-4.1,0.8-5.5,2.2
			C184.7,440.2,183.9,442.6,183.9,446.1L183.9,446.1z"/>
		<path d="M217.1,457.2v-2.4c-1.1,1.8-3.1,2.9-5.3,2.8c-0.9,0-1.9-0.2-2.7-0.6c-0.7-0.3-1.4-0.8-1.9-1.4c-0.4-0.6-0.7-1.3-0.9-2.1
			c-0.1-0.9-0.2-1.8-0.2-2.6v-10.3h2.8v9.2c0,1,0,2,0.2,3c0.2,0.7,0.6,1.3,1.1,1.8c0.6,0.4,1.4,0.7,2.1,0.6c0.8,0,1.7-0.2,2.4-0.6
			c0.7-0.4,1.3-1,1.6-1.8c0.4-1,0.5-2.1,0.5-3.2v-8.9h2.8v16.6h-2.5V457.2z"/>
		<path d="M224,457.2v-16.6h2.5v2.5c0.4-0.9,1-1.7,1.8-2.3c0.5-0.4,1.2-0.6,1.8-0.6c1,0,2,0.3,2.9,0.9l-1,2.6
			c-0.6-0.4-1.3-0.6-2.1-0.6c-0.6,0-1.2,0.2-1.7,0.6s-0.8,0.9-1,1.5c-0.3,1.1-0.5,2.2-0.5,3.3v8.7H224z"/>
	</g>
	<g>
		<path d="M142.6,495.6v-22.9h4.6l5.4,16.2c0.5,1.5,0.9,2.6,1.1,3.4c0.3-0.8,0.7-2.1,1.2-3.7l5.5-15.9h4.1v22.9h-2.9v-19.2
			l-6.7,19.2h-2.7l-6.6-19.5v19.5H142.6z"/>
		<path d="M167.9,487.3c0-3.1,0.9-5.3,2.6-6.8c1.5-1.2,3.3-1.9,5.2-1.8c2.1-0.1,4.1,0.7,5.6,2.2c1.5,1.7,2.3,3.9,2.2,6.2
			c0.1,1.7-0.3,3.4-1,5c-0.6,1.2-1.6,2.2-2.8,2.9c-1.2,0.7-2.6,1-4,1c-2.1,0.1-4.2-0.7-5.6-2.2C168.5,491.9,167.8,489.6,167.9,487.3
			z M170.8,487.3c-0.1,1.7,0.4,3.4,1.4,4.8c1.7,1.9,4.6,2.1,6.5,0.5c0.2-0.1,0.3-0.3,0.5-0.5c1-1.4,1.5-3.1,1.4-4.9
			c0.1-1.7-0.4-3.3-1.4-4.7c-1.7-1.9-4.6-2.1-6.6-0.4c-0.2,0.1-0.3,0.3-0.4,0.4C171.2,483.9,170.7,485.6,170.8,487.3z"/>
		<path d="M197.5,495.6v-2.1c-1,1.6-2.8,2.6-4.6,2.5c-1.3,0-2.6-0.4-3.6-1.1c-1.1-0.8-2-1.8-2.6-3.1c-0.6-1.4-0.9-3-0.9-4.5
			s0.3-3.1,0.8-4.5c0.5-1.3,1.3-2.4,2.5-3.1c1.1-0.7,2.4-1.1,3.7-1.1c0.9,0,1.9,0.2,2.7,0.6c0.8,0.4,1.4,1,1.9,1.6v-8.2h2.8v22.9
			h-2.7C197.5,495.5,197.5,495.6,197.5,495.6z M188.6,487.3c-0.1,1.7,0.3,3.4,1.3,4.8c0.8,1,1.9,1.6,3.2,1.6c1.2,0,2.4-0.6,3.1-1.5
			c1-1.3,1.4-3,1.3-4.6c0-2.3-0.4-3.9-1.3-5c-0.8-1-2-1.6-3.2-1.6s-2.4,0.6-3.1,1.5C188.9,483.9,188.5,485.6,188.6,487.3z"/>
		<path d="M215.9,490.3l2.9,0.4c-0.4,1.6-1.3,3-2.6,4c-3.3,2.2-7.6,1.8-10.5-0.8c-1.5-1.7-2.3-4-2.1-6.3c-0.1-2.4,0.6-4.7,2.2-6.5
			c1.4-1.5,3.5-2.4,5.6-2.3c2.1-0.1,4,0.8,5.4,2.3c1.5,1.8,2.3,4.1,2.1,6.4c0,0.2,0,0.4,0,0.8h-12.4c0,1.5,0.5,3,1.6,4.2
			c0.9,1,2.2,1.5,3.5,1.5c0.9,0,1.9-0.3,2.6-0.8C215,492.2,215.6,491.3,215.9,490.3z M206.7,485.7h9.3c0-1.1-0.4-2.2-1.1-3.1
			c-0.8-1.1-2.1-1.7-3.5-1.6c-1.2,0-2.4,0.4-3.3,1.3C207.2,483.2,206.7,484.4,206.7,485.7z"/>
		<path d="M222.3,495.6v-22.9h2.8v22.9H222.3z"/>
		<path d="M229.5,475.9v-3.2h2.8v3.2H229.5z M229.5,495.6V479h2.8v16.6H229.5z"/>
		<path d="M236.6,495.6V479h2.5v2.4c1.2-1.8,3.2-2.8,5.3-2.7c0.9,0,1.9,0.2,2.8,0.5c0.7,0.3,1.4,0.8,1.9,1.4
			c0.4,0.6,0.7,1.3,0.9,2.1c0.1,0.9,0.2,1.8,0.2,2.7v10.2h-2.8v-10.1c0-0.9-0.1-1.7-0.3-2.6c-0.2-0.6-0.6-1-1.2-1.4
			c-0.6-0.4-1.3-0.5-2-0.5c-1.1,0-2.2,0.4-3.1,1.1c-0.9,0.8-1.3,2.2-1.3,4.3v9.1L236.6,495.6z"/>
		<path d="M253.9,497l2.7,0.4c0.1,0.7,0.4,1.4,1,1.8c0.8,0.6,1.8,0.8,2.9,0.8c1.1,0.1,2.1-0.2,3-0.8c0.7-0.5,1.2-1.3,1.4-2.2
			c0.2-1.2,0.3-2.4,0.2-3.6c-1.1,1.4-2.8,2.2-4.6,2.2c-2.1,0.1-4-0.8-5.3-2.5c-1.3-1.7-1.9-3.8-1.9-5.9c0-1.5,0.3-3,0.9-4.4
			c0.5-1.3,1.4-2.3,2.5-3.1c1.1-0.7,2.5-1.1,3.8-1.1c1.9,0,3.7,0.9,4.9,2.4v-2h2.6v14.3c0.1,1.9-0.2,3.7-0.8,5.5
			c-0.5,1.1-1.4,2-2.5,2.5c-1.3,0.7-2.7,1-4.2,0.9c-1.7,0.1-3.4-0.4-4.8-1.3C254.4,500.1,253.7,498.5,253.9,497z M256.2,487
			c-0.1,1.7,0.3,3.4,1.3,4.8c1.5,1.8,4.2,2,6,0.5c0.2-0.1,0.3-0.3,0.5-0.5c1-1.4,1.4-3,1.3-4.7c0.1-1.6-0.4-3.3-1.4-4.6
			c-0.8-1-2-1.5-3.3-1.5c-1.2,0-2.4,0.5-3.2,1.5C256.5,483.8,256.1,485.4,256.2,487L256.2,487z"/>
	</g>
</g>
<g>
	<path d="M400.9,269.2h-6.6v-2.4h16v2.4h-6.6v19.2h-2.8V269.2z"/>
	<path d="M419.1,288.4l-0.2-2h-0.1c-0.9,1.2-2.5,2.3-4.7,2.3c-3.1,0-4.7-2.2-4.7-4.4c0-3.7,3.3-5.8,9.3-5.8v-0.3
		c0-1.3-0.4-3.6-3.5-3.6c-1.4,0-2.9,0.4-4,1.2l-0.6-1.9c1.3-0.8,3.1-1.4,5.1-1.4c4.7,0,5.9,3.2,5.9,6.3v5.8c0,1.3,0.1,2.7,0.3,3.7
		L419.1,288.4L419.1,288.4z M418.7,280.5c-3.1-0.1-6.6,0.5-6.6,3.5c0,1.8,1.2,2.7,2.7,2.7c2,0,3.3-1.3,3.7-2.6
		c0.1-0.3,0.2-0.6,0.2-0.9L418.7,280.5L418.7,280.5z"/>
	<path d="M425.6,285.5c0.8,0.5,2.3,1.1,3.7,1.1c2,0,3-1,3-2.3s-0.8-2.1-2.9-2.8c-2.8-1-4.1-2.5-4.1-4.4c0-2.5,2-4.5,5.3-4.5
		c1.6,0,2.9,0.4,3.8,1l-0.7,2c-0.6-0.4-1.7-0.9-3.2-0.9c-1.7,0-2.6,1-2.6,2.1c0,1.3,0.9,1.9,2.9,2.6c2.7,1,4.1,2.4,4.1,4.7
		c0,2.7-2.1,4.6-5.8,4.6c-1.7,0-3.3-0.4-4.4-1.1L425.6,285.5z"/>
	<path d="M441.4,280L441.4,280c0.4-0.5,1-1.2,1.4-1.8l4.5-5.3h3.4l-6,6.4l6.8,9.1h-3.4l-5.3-7.4l-1.4,1.6v5.8h-2.8v-22.7h2.8V280z"
		/>
	<path d="M465.6,270.2L465.6,270.2l-3.7,2l-0.5-2.1l4.5-2.4h2.4v20.8h-2.7L465.6,270.2L465.6,270.2z"/>
	<path d="M476.2,275.4c0-1.2,0.8-2,1.9-2s1.9,0.8,1.9,2c0,1.1-0.7,2-1.9,2S476.2,276.5,476.2,275.4z M476.2,286.7c0-1.2,0.8-2,1.9-2
		s1.9,0.8,1.9,2c0,1.1-0.7,2-1.9,2S476.2,287.8,476.2,286.7z"/>
	<path d="M490,285c1.2,0.8,3.1,1.4,5,1.4c2.8,0,4.5-1.5,4.5-3.7c0-2-1.2-3.2-4.1-4.3c-3.5-1.2-5.7-3.1-5.7-6.1c0-3.4,2.8-5.9,7-5.9
		c2.2,0,3.8,0.5,4.8,1.1l-0.8,2.3c-0.7-0.4-2.1-1-4.1-1c-2.9,0-4.1,1.8-4.1,3.2c0,2,1.3,3,4.3,4.2c3.6,1.4,5.5,3.2,5.5,6.3
		c0,3.3-2.5,6.2-7.6,6.2c-2.1,0-4.4-0.6-5.5-1.4L490,285z"/>
	<path d="M506,265.6h2.8v22.7H506V265.6z"/>
	<path d="M527.6,280.5c0,5.7-4,8.2-7.7,8.2c-4.2,0-7.4-3.1-7.4-8c0-5.2,3.4-8.2,7.7-8.2C524.6,272.5,527.6,275.7,527.6,280.5z
		 M515.3,280.6c0,3.4,2,6,4.7,6s4.7-2.5,4.7-6c0-2.6-1.3-6-4.6-6C516.7,274.6,515.3,277.7,515.3,280.6z"/>
	<path d="M534.5,268.4v4.4h4v2.1h-4v8.4c0,1.9,0.5,3,2.1,3c0.7,0,1.3-0.1,1.6-0.2l0.1,2.1c-0.5,0.2-1.4,0.4-2.5,0.4
		c-1.3,0-2.4-0.4-3-1.2c-0.8-0.8-1.1-2.2-1.1-4V275h-2.4v-2.1h2.4v-3.7L534.5,268.4z"/>
	<path d="M548.6,266.8h2.8V286h9.2v2.3h-12V266.8z"/>
	<path d="M572.2,288.4l-0.2-2h-0.1c-0.9,1.2-2.5,2.3-4.7,2.3c-3.1,0-4.7-2.2-4.7-4.4c0-3.7,3.3-5.8,9.3-5.8v-0.3
		c0-1.3-0.4-3.6-3.5-3.6c-1.4,0-2.9,0.4-4,1.2l-0.6-1.9c1.3-0.8,3.1-1.4,5.1-1.4c4.7,0,5.9,3.2,5.9,6.3v5.8c0,1.3,0.1,2.7,0.3,3.7
		L572.2,288.4L572.2,288.4z M571.8,280.5c-3.1-0.1-6.6,0.5-6.6,3.5c0,1.8,1.2,2.7,2.7,2.7c2,0,3.3-1.3,3.7-2.6
		c0.1-0.3,0.2-0.6,0.2-0.9L571.8,280.5L571.8,280.5z"/>
	<path d="M578.9,288.4c0.1-1.1,0.1-2.6,0.1-4v-18.7h2.8v9.7h0.1c1-1.7,2.8-2.8,5.3-2.8c3.8,0,6.6,3.2,6.5,7.9c0,5.5-3.5,8.3-6.9,8.3
		c-2.2,0-4-0.9-5.2-2.9h-0.1l-0.1,2.6h-2.5L578.9,288.4L578.9,288.4z M581.8,282.1c0,0.4,0.1,0.7,0.1,1c0.5,2,2.2,3.3,4.2,3.3
		c2.9,0,4.7-2.4,4.7-6c0-3.1-1.6-5.8-4.6-5.8c-1.9,0-3.7,1.3-4.3,3.5c-0.1,0.3-0.2,0.7-0.2,1.2L581.8,282.1L581.8,282.1z"/>
	<path d="M598.8,281.1c0.1,3.8,2.5,5.4,5.3,5.4c2,0,3.2-0.4,4.3-0.8l0.5,2c-1,0.4-2.7,1-5.2,1c-4.8,0-7.6-3.1-7.6-7.8
		c0-4.7,2.8-8.4,7.3-8.4c5.1,0,6.4,4.4,6.4,7.3c0,0.6-0.1,1-0.1,1.3H598.8z M607.1,279.1c0-1.8-0.7-4.6-3.9-4.6
		c-2.8,0-4.1,2.6-4.3,4.6H607.1z"/>
	<path d="M613.3,265.6h2.8v22.7h-2.8V265.6z"/>
	<path d="M624,268.5c0,1-0.7,1.7-1.8,1.7c-1,0-1.7-0.8-1.7-1.7c0-1,0.7-1.8,1.8-1.8C623.3,266.8,624,267.5,624,268.5z M620.8,288.4
		v-15.5h2.8v15.5H620.8z"/>
	<path d="M628.3,277.1c0-1.6,0-2.9-0.1-4.2h2.5l0.2,2.6h0.1c0.8-1.5,2.6-2.9,5.1-2.9c2.1,0,5.5,1.3,5.5,6.6v9.2h-2.9v-8.9
		c0-2.5-0.9-4.6-3.6-4.6c-1.9,0-3.3,1.3-3.8,2.9c-0.1,0.4-0.2,0.8-0.2,1.3v9.3h-2.8L628.3,277.1L628.3,277.1z"/>
	<path d="M659.4,272.9c-0.1,1.1-0.1,2.4-0.1,4.3v9c0,3.6-0.7,5.7-2.2,7.1s-3.7,1.9-5.6,1.9c-1.9,0-3.9-0.4-5.2-1.3l0.7-2.1
		c1,0.6,2.6,1.2,4.5,1.2c2.9,0,5-1.5,5-5.4v-1.7h-0.1c-0.9,1.4-2.5,2.6-4.9,2.6c-3.8,0-6.6-3.3-6.6-7.6c0-5.2,3.4-8.2,7-8.2
		c2.7,0,4.2,1.4,4.8,2.7h0.1l0.1-2.3h2.5V272.9z M656.5,279c0-0.5,0-0.9-0.2-1.3c-0.5-1.6-1.9-3-3.9-3c-2.7,0-4.6,2.3-4.6,5.9
		c0,3,1.5,5.6,4.6,5.6c1.7,0,3.3-1.1,3.9-2.9c0.2-0.5,0.2-1,0.2-1.5V279z"/>
	<path d="M679.3,288.4l-0.2-2H679c-0.9,1.2-2.5,2.3-4.7,2.3c-3.1,0-4.7-2.2-4.7-4.4c0-3.7,3.3-5.8,9.3-5.8v-0.3
		c0-1.3-0.4-3.6-3.5-3.6c-1.4,0-2.9,0.4-4,1.2l-0.6-1.9c1.3-0.8,3.1-1.4,5.1-1.4c4.7,0,5.9,3.2,5.9,6.3v5.8c0,1.3,0.1,2.7,0.3,3.7
		L679.3,288.4L679.3,288.4z M678.9,280.5c-3.1-0.1-6.6,0.5-6.6,3.5c0,1.8,1.2,2.7,2.7,2.7c2,0,3.3-1.3,3.7-2.6
		c0.1-0.3,0.2-0.6,0.2-0.9L678.9,280.5L678.9,280.5z"/>
	<path d="M686.2,277.1c0-1.6,0-2.9-0.1-4.2h2.5l0.2,2.6h0.1c0.8-1.5,2.6-2.9,5.1-2.9c2.1,0,5.5,1.3,5.5,6.6v9.2h-2.8v-8.9
		c0-2.5-0.9-4.6-3.6-4.6c-1.9,0-3.3,1.3-3.8,2.9c-0.1,0.4-0.2,0.8-0.2,1.3v9.3h-2.8v-11.3H686.2z"/>
	<path d="M717.3,265.6v18.7c0,1.4,0,2.9,0.1,4h-2.5l-0.1-2.7h-0.1c-0.9,1.7-2.8,3-5.3,3c-3.7,0-6.6-3.2-6.6-7.9
		c0-5.2,3.2-8.3,6.9-8.3c2.4,0,4,1.1,4.7,2.4h0.1v-9.2H717.3z M714.5,279.2c0-0.4,0-0.8-0.1-1.2c-0.4-1.8-2-3.3-4.1-3.3
		c-2.9,0-4.6,2.6-4.6,6c0,3.1,1.5,5.7,4.6,5.7c1.9,0,3.6-1.2,4.1-3.4c0.1-0.4,0.1-0.8,0.1-1.2V279.2z"/>
	<path d="M731.6,266.8v21.6h-2.8v-21.6H731.6z"/>
	<path d="M736.7,277.1c0-1.6,0-2.9-0.1-4.2h2.5l0.2,2.6h0.1c0.8-1.5,2.6-2.9,5.1-2.9c2.1,0,5.5,1.3,5.5,6.6v9.2h-2.8v-8.9
		c0-2.5-0.9-4.6-3.6-4.6c-1.9,0-3.3,1.3-3.8,2.9c-0.1,0.4-0.2,0.8-0.2,1.3v9.3h-2.9V277.1z"/>
	<path d="M757.8,268.4v4.4h4v2.1h-4v8.4c0,1.9,0.5,3,2.1,3c0.7,0,1.3-0.1,1.6-0.2l0.1,2.1c-0.5,0.2-1.4,0.4-2.5,0.4
		c-1.3,0-2.4-0.4-3-1.2c-0.8-0.8-1.1-2.2-1.1-4V275h-2.4v-2.1h2.4v-3.7L757.8,268.4z"/>
	<path d="M766.3,281.1c0.1,3.8,2.5,5.4,5.3,5.4c2,0,3.2-0.4,4.3-0.8l0.5,2c-1,0.4-2.7,1-5.2,1c-4.8,0-7.6-3.1-7.6-7.8
		c0-4.7,2.8-8.4,7.3-8.4c5.1,0,6.4,4.4,6.4,7.3c0,0.6-0.1,1-0.1,1.3H766.3z M774.6,279.1c0-1.8-0.7-4.6-3.9-4.6
		c-2.8,0-4.1,2.6-4.3,4.6H774.6z"/>
	<path d="M780.8,277.1c0-1.6,0-2.9-0.1-4.2h2.5l0.2,2.6h0.1c0.8-1.5,2.6-2.9,5.1-2.9c2.1,0,5.5,1.3,5.5,6.6v9.2h-2.8v-8.9
		c0-2.5-0.9-4.6-3.6-4.6c-1.9,0-3.3,1.3-3.8,2.9c-0.1,0.4-0.2,0.8-0.2,1.3v9.3h-2.8v-11.3H780.8z"/>
	<path d="M801.8,268.4v4.4h4v2.1h-4v8.4c0,1.9,0.5,3,2.1,3c0.7,0,1.3-0.1,1.6-0.2l0.1,2.1c-0.5,0.2-1.4,0.4-2.5,0.4
		c-1.3,0-2.4-0.4-3-1.2c-0.8-0.8-1.1-2.2-1.1-4V275h-2.3v-2.1h2.4v-3.7L801.8,268.4z"/>
	<path d="M831,287.7c-1,0.5-3.1,1-5.7,1c-6.1,0-10.7-3.8-10.7-10.9c0-6.8,4.6-11.3,11.3-11.3c2.7,0,4.4,0.6,5.1,1l-0.7,2.3
		c-1.1-0.5-2.6-0.9-4.4-0.9c-5.1,0-8.4,3.2-8.4,8.9c0,5.3,3,8.7,8.3,8.7c1.7,0,3.4-0.4,4.5-0.9L831,287.7z"/>
	<path d="M834.4,265.6h2.8v22.7h-2.8V265.6z"/>
	<path d="M850.5,288.4l-0.2-2h-0.1c-0.9,1.2-2.5,2.3-4.7,2.3c-3.1,0-4.7-2.2-4.7-4.4c0-3.7,3.3-5.8,9.3-5.8v-0.3
		c0-1.3-0.4-3.6-3.5-3.6c-1.4,0-2.9,0.4-4,1.2l-0.6-1.9c1.3-0.8,3.1-1.4,5.1-1.4c4.7,0,5.9,3.2,5.9,6.3v5.8c0,1.3,0.1,2.7,0.3,3.7
		L850.5,288.4L850.5,288.4z M850.1,280.5c-3.1-0.1-6.6,0.5-6.6,3.5c0,1.8,1.2,2.7,2.7,2.7c2,0,3.3-1.3,3.7-2.6
		c0.1-0.3,0.2-0.6,0.2-0.9L850.1,280.5L850.1,280.5z"/>
	<path d="M857,285.5c0.8,0.5,2.3,1.1,3.7,1.1c2,0,3-1,3-2.3s-0.8-2.1-2.9-2.8c-2.8-1-4.1-2.5-4.1-4.4c0-2.5,2-4.5,5.3-4.5
		c1.6,0,2.9,0.4,3.8,1l-0.7,2c-0.6-0.4-1.7-0.9-3.2-0.9c-1.7,0-2.6,1-2.6,2.1c0,1.3,0.9,1.9,2.9,2.6c2.7,1,4.1,2.4,4.1,4.7
		c0,2.7-2.1,4.6-5.8,4.6c-1.7,0-3.3-0.4-4.4-1.1L857,285.5z"/>
	<path d="M869.6,285.5c0.8,0.5,2.3,1.1,3.7,1.1c2,0,3-1,3-2.3s-0.8-2.1-2.9-2.8c-2.8-1-4.1-2.5-4.1-4.4c0-2.5,2-4.5,5.3-4.5
		c1.6,0,2.9,0.4,3.8,1l-0.7,2c-0.6-0.4-1.7-0.9-3.2-0.9c-1.7,0-2.6,1-2.6,2.1c0,1.3,0.9,1.9,2.9,2.6c2.7,1,4.1,2.4,4.1,4.7
		c0,2.7-2.1,4.6-5.8,4.6c-1.7,0-3.3-0.4-4.4-1.1L869.6,285.5z"/>
	<path d="M885.8,268.5c0,1-0.7,1.7-1.8,1.7c-1,0-1.7-0.8-1.7-1.7c0-1,0.7-1.8,1.8-1.8C885.1,266.8,885.8,267.5,885.8,268.5z
		 M882.7,288.4v-15.5h2.8v15.5H882.7z"/>
	<path d="M890.5,288.4v-13.3h-2.2V273h2.2v-0.8c0-4.1,2.4-6.8,6.8-6.8c1.4,0,3.1,0.4,3.9,1l-0.8,2.1c-0.7-0.5-1.9-0.9-3.3-0.9
		c-3,0-3.8,2.1-3.8,4.5v0.8h9v15.5h-2.8v-13.3h-6.2v13.3L890.5,288.4L890.5,288.4z"/>
	<path d="M917.9,287.8c-0.7,0.4-2.4,0.9-4.4,0.9c-4.7,0-7.7-3.2-7.7-7.9c0-4.8,3.3-8.2,8.3-8.2c1.7,0,3.1,0.4,3.9,0.8l-0.6,2.2
		c-0.7-0.4-1.7-0.7-3.3-0.7c-3.6,0-5.5,2.6-5.5,5.9c0,3.6,2.3,5.8,5.4,5.8c1.6,0,2.7-0.4,3.5-0.8L917.9,287.8z"/>
	<path d="M929.8,288.4l-0.2-2h-0.1c-0.9,1.2-2.5,2.3-4.7,2.3c-3.1,0-4.7-2.2-4.7-4.4c0-3.7,3.3-5.8,9.3-5.8v-0.3
		c0-1.3-0.4-3.6-3.5-3.6c-1.4,0-2.9,0.4-4,1.2l-0.6-1.9c1.3-0.8,3.1-1.4,5.1-1.4c4.7,0,5.9,3.2,5.9,6.3v5.8c0,1.3,0.1,2.7,0.3,3.7
		L929.8,288.4L929.8,288.4z M929.4,280.5c-3.1-0.1-6.6,0.5-6.6,3.5c0,1.8,1.2,2.7,2.7,2.7c2,0,3.3-1.3,3.7-2.6
		c0.1-0.3,0.2-0.6,0.2-0.9L929.4,280.5L929.4,280.5z"/>
	<path d="M939.9,268.4v4.4h4v2.1h-4v8.4c0,1.9,0.5,3,2.1,3c0.7,0,1.3-0.1,1.6-0.2l0.1,2.1c-0.5,0.2-1.4,0.4-2.5,0.4
		c-1.3,0-2.4-0.4-3-1.2c-0.8-0.8-1.1-2.2-1.1-4V275h-2.4v-2.1h2.4v-3.7L939.9,268.4z"/>
	<path d="M950.3,268.5c0,1-0.7,1.7-1.8,1.7c-1,0-1.7-0.8-1.7-1.7c0-1,0.7-1.8,1.8-1.8C949.6,266.8,950.3,267.5,950.3,268.5z
		 M947.1,288.4v-15.5h2.8v15.5H947.1z"/>
	<path d="M968.6,280.5c0,5.7-4,8.2-7.7,8.2c-4.2,0-7.4-3.1-7.4-8c0-5.2,3.4-8.2,7.7-8.2C965.6,272.5,968.6,275.7,968.6,280.5z
		 M956.3,280.6c0,3.4,2,6,4.7,6s4.7-2.5,4.7-6c0-2.6-1.3-6-4.6-6C957.8,274.6,956.3,277.7,956.3,280.6z"/>
	<path d="M972.2,277.1c0-1.6,0-2.9-0.1-4.2h2.5l0.2,2.6h0.1c0.8-1.5,2.6-2.9,5.1-2.9c2.1,0,5.5,1.3,5.5,6.6v9.2h-2.8v-8.9
		c0-2.5-0.9-4.6-3.6-4.6c-1.9,0-3.3,1.3-3.8,2.9c-0.1,0.4-0.2,0.8-0.2,1.3v9.3h-2.8v-11.3H972.2z"/>
</g>
<g>
	<path d="M1163.6,266.8h-6.6v-2.4h16v2.4h-6.6V286h-2.8V266.8z"/>
	<path d="M1181.9,286l-0.2-2h-0.1c-0.9,1.2-2.5,2.3-4.7,2.3c-3.1,0-4.7-2.2-4.7-4.4c0-3.7,3.3-5.8,9.3-5.8v-0.3
		c0-1.3-0.4-3.6-3.5-3.6c-1.4,0-2.9,0.4-4,1.2l-0.6-1.9c1.3-0.8,3.1-1.4,5.1-1.4c4.7,0,5.9,3.2,5.9,6.3v5.8c0,1.3,0.1,2.7,0.3,3.7
		L1181.9,286L1181.9,286z M1181.5,278.1c-3.1-0.1-6.6,0.5-6.6,3.5c0,1.8,1.2,2.7,2.7,2.7c2,0,3.3-1.3,3.7-2.6
		c0.1-0.3,0.2-0.6,0.2-0.9L1181.5,278.1L1181.5,278.1z"/>
	<path d="M1188.3,283.1c0.8,0.5,2.3,1.1,3.7,1.1c2,0,3-1,3-2.3s-0.8-2.1-2.9-2.8c-2.8-1-4.1-2.5-4.1-4.4c0-2.5,2-4.5,5.3-4.5
		c1.6,0,2.9,0.4,3.8,1l-0.7,2c-0.6-0.4-1.7-0.9-3.2-0.9c-1.7,0-2.6,1-2.6,2.1c0,1.3,0.9,1.9,2.9,2.6c2.7,1,4.1,2.4,4.1,4.7
		c0,2.7-2.1,4.6-5.8,4.6c-1.7,0-3.3-0.4-4.4-1.1L1188.3,283.1z"/>
	<path d="M1204.2,277.6L1204.2,277.6c0.4-0.5,1-1.2,1.4-1.8l4.5-5.3h3.4l-6,6.4l6.8,9.1h-3.4l-5.3-7.4l-1.4,1.6v5.8h-2.8v-22.7h2.8
		V277.6z"/>
	<path d="M1222.3,286v-1.7l2.2-2.1c5.3-5.1,7.7-7.7,7.7-10.9c0-2.1-1-4.1-4.1-4.1c-1.9,0-3.5,1-4.4,1.8l-0.9-2
		c1.4-1.2,3.5-2.1,5.9-2.1c4.5,0,6.4,3.1,6.4,6c0,3.8-2.8,6.9-7.2,11.2l-1.7,1.5v0.1h9.3v2.3L1222.3,286L1222.3,286z"/>
	<path d="M1238.9,273c0-1.2,0.8-2,1.9-2s1.9,0.8,1.9,2c0,1.1-0.7,2-1.9,2C1239.7,275,1238.9,274.1,1238.9,273z M1238.9,284.3
		c0-1.2,0.8-2,1.9-2s1.9,0.8,1.9,2c0,1.1-0.7,2-1.9,2C1239.7,286.3,1238.9,285.4,1238.9,284.3z"/>
	<path d="M1253.1,286v-21.6h3l6.9,10.9c1.6,2.5,2.8,4.8,3.9,7h0.1c-0.3-2.9-0.3-5.5-0.3-8.9v-9h2.6V286h-2.8l-6.8-10.9
		c-1.5-2.4-2.9-4.9-4-7.2h-0.1c0.2,2.7,0.2,5.3,0.2,8.9v9.2H1253.1z"/>
	<path d="M1282.6,286l-0.2-2h-0.1c-0.9,1.2-2.5,2.3-4.7,2.3c-3.1,0-4.7-2.2-4.7-4.4c0-3.7,3.3-5.8,9.3-5.8v-0.3
		c0-1.3-0.4-3.6-3.5-3.6c-1.4,0-2.9,0.4-4,1.2l-0.6-1.9c1.3-0.8,3.1-1.4,5.1-1.4c4.7,0,5.9,3.2,5.9,6.3v5.8c0,1.3,0.1,2.7,0.3,3.7
		L1282.6,286L1282.6,286z M1282.2,278.1c-3.1-0.1-6.6,0.5-6.6,3.5c0,1.8,1.2,2.7,2.7,2.7c2,0,3.3-1.3,3.7-2.6
		c0.1-0.3,0.2-0.6,0.2-0.9L1282.2,278.1L1282.2,278.1z"/>
	<path d="M1289.5,274.7c0-1.6,0-2.9-0.1-4.2h2.5l0.1,2.5h0.1c0.9-1.5,2.3-2.8,4.9-2.8c2.1,0,3.7,1.3,4.4,3.1h0.1
		c0.5-0.9,1.1-1.5,1.7-2c0.9-0.7,2-1.1,3.4-1.1c2,0,5.1,1.3,5.1,6.7v9.1h-2.8v-8.8c0-3-1.1-4.8-3.4-4.8c-1.6,0-2.8,1.2-3.3,2.6
		c-0.1,0.4-0.2,0.9-0.2,1.4v9.6h-2.8v-9.3c0-2.5-1.1-4.3-3.2-4.3c-1.8,0-3,1.4-3.5,2.8c-0.2,0.4-0.2,0.9-0.2,1.4v9.3h-2.8
		L1289.5,274.7L1289.5,274.7z"/>
	<path d="M1317.7,278.7c0.1,3.8,2.5,5.4,5.3,5.4c2,0,3.2-0.4,4.3-0.8l0.5,2c-1,0.4-2.7,1-5.2,1c-4.8,0-7.6-3.1-7.6-7.8
		c0-4.7,2.8-8.4,7.3-8.4c5.1,0,6.4,4.4,6.4,7.3c0,0.6-0.1,1-0.1,1.3H1317.7z M1326,276.7c0-1.8-0.7-4.6-3.9-4.6
		c-2.8,0-4.1,2.6-4.3,4.6H1326z"/>
	<path d="M1345.6,263.2v18.7c0,1.4,0,2.9,0.1,4h-2.5l-0.1-2.7h-0.1c-0.9,1.7-2.8,3-5.3,3c-3.7,0-6.6-3.2-6.6-7.9
		c0-5.2,3.2-8.3,6.9-8.3c2.4,0,4,1.1,4.7,2.4h0.1v-9.2H1345.6z M1342.8,276.8c0-0.4,0-0.8-0.1-1.2c-0.4-1.8-2-3.3-4.1-3.3
		c-2.9,0-4.6,2.6-4.6,6c0,3.1,1.5,5.7,4.6,5.7c1.9,0,3.6-1.2,4.1-3.4c0.1-0.4,0.1-0.8,0.1-1.2V276.8z"/>
	<path d="M1368.3,275.8h-8.4v7.8h9.3v2.3h-12.1v-21.6h11.6v2.3h-8.9v6.8h8.4L1368.3,275.8L1368.3,275.8z"/>
	<path d="M1372.8,274.7c0-1.6,0-2.9-0.1-4.2h2.5l0.2,2.6h0.1c0.8-1.5,2.6-2.9,5.1-2.9c2.1,0,5.5,1.3,5.5,6.6v9.2h-2.8v-8.9
		c0-2.5-0.9-4.6-3.6-4.6c-1.9,0-3.3,1.3-3.8,2.9c-0.1,0.4-0.2,0.8-0.2,1.3v9.3h-2.8L1372.8,274.7L1372.8,274.7z"/>
	<path d="M1393.8,266v4.4h4v2.1h-4v8.4c0,1.9,0.5,3,2.1,3c0.7,0,1.3-0.1,1.6-0.2l0.1,2.1c-0.5,0.2-1.4,0.4-2.5,0.4
		c-1.3,0-2.4-0.4-3-1.2c-0.8-0.8-1.1-2.2-1.1-4v-8.4h-2.4v-2.1h2.4v-3.7L1393.8,266z"/>
	<path d="M1404.1,266.1c0,1-0.7,1.7-1.8,1.7c-1,0-1.7-0.8-1.7-1.7c0-1,0.7-1.8,1.8-1.8C1403.5,264.4,1404.1,265.1,1404.1,266.1z
		 M1401,286v-15.5h2.8V286H1401z"/>
	<path d="M1411.9,266v4.4h4v2.1h-4v8.4c0,1.9,0.5,3,2.1,3c0.7,0,1.3-0.1,1.6-0.2l0.1,2.1c-0.5,0.2-1.4,0.4-2.5,0.4
		c-1.3,0-2.4-0.4-3-1.2c-0.8-0.8-1.1-2.2-1.1-4v-8.4h-2.4v-2.1h2.4v-3.7L1411.9,266z"/>
	<path d="M1420.4,270.5l3.4,9.2c0.4,1,0.7,2.2,1,3.2h0.1c0.3-0.9,0.6-2.1,1-3.2l3.1-9.1h3l-4.2,11c-2,5.3-3.4,8-5.3,9.7
		c-1.4,1.2-2.8,1.7-3.5,1.8l-0.7-2.4c0.7-0.2,1.6-0.7,2.5-1.4c0.8-0.6,1.7-1.7,2.4-3.1c0.1-0.3,0.2-0.5,0.2-0.7s-0.1-0.4-0.2-0.7
		l-5.7-14.3H1420.4z"/>
	<path d="M1441.3,264.7c1.4-0.3,3.4-0.4,5.3-0.4c3,0,4.9,0.5,6.2,1.8c1.1,1,1.7,2.4,1.7,4.1c0,2.8-1.8,4.7-4.1,5.5v0.1
		c1.7,0.6,2.7,2.1,3.2,4.4c0.7,3,1.2,5.1,1.7,5.9h-2.9c-0.4-0.6-0.8-2.5-1.4-5.2c-0.6-3-1.8-4.1-4.3-4.2h-2.6v9.3h-2.8L1441.3,264.7
		L1441.3,264.7z M1444.1,274.5h2.8c3,0,4.9-1.6,4.9-4.1c0-2.8-2-4-5-4c-1.3,0-2.3,0.1-2.8,0.3L1444.1,274.5L1444.1,274.5z"/>
	<path d="M1460.1,278.7c0.1,3.8,2.5,5.4,5.3,5.4c2,0,3.2-0.4,4.3-0.8l0.5,2c-1,0.4-2.7,1-5.2,1c-4.8,0-7.6-3.1-7.6-7.8
		c0-4.7,2.8-8.4,7.3-8.4c5.1,0,6.4,4.4,6.4,7.3c0,0.6-0.1,1-0.1,1.3H1460.1z M1468.4,276.7c0-1.8-0.7-4.6-3.9-4.6
		c-2.8,0-4.1,2.6-4.3,4.6H1468.4z"/>
	<path d="M1485.6,285.4c-0.7,0.4-2.4,0.9-4.4,0.9c-4.7,0-7.7-3.2-7.7-7.9c0-4.8,3.3-8.2,8.3-8.2c1.7,0,3.1,0.4,3.9,0.8l-0.6,2.2
		c-0.7-0.4-1.7-0.7-3.3-0.7c-3.6,0-5.5,2.6-5.5,5.9c0,3.6,2.3,5.8,5.4,5.8c1.6,0,2.7-0.4,3.5-0.8L1485.6,285.4z"/>
	<path d="M1502.8,278.1c0,5.7-4,8.2-7.7,8.2c-4.2,0-7.4-3.1-7.4-8c0-5.2,3.4-8.2,7.7-8.2C1499.8,270.1,1502.8,273.3,1502.8,278.1z
		 M1490.5,278.2c0,3.4,2,6,4.7,6s4.7-2.5,4.7-6c0-2.6-1.3-6-4.6-6C1491.9,272.2,1490.5,275.3,1490.5,278.2z"/>
	<path d="M1519.7,270.5c-0.1,1.1-0.1,2.4-0.1,4.3v9c0,3.6-0.7,5.7-2.2,7.1s-3.7,1.9-5.6,1.9s-3.9-0.4-5.2-1.3l0.7-2.1
		c1,0.6,2.6,1.2,4.5,1.2c2.9,0,5-1.5,5-5.4v-1.7h-0.1c-0.9,1.4-2.5,2.6-4.9,2.6c-3.8,0-6.6-3.3-6.6-7.6c0-5.2,3.4-8.2,7-8.2
		c2.7,0,4.2,1.4,4.8,2.7h0.1l0.1-2.3h2.5L1519.7,270.5L1519.7,270.5z M1516.7,276.6c0-0.5,0-0.9-0.2-1.3c-0.5-1.6-1.9-3-3.9-3
		c-2.7,0-4.6,2.3-4.6,5.9c0,3,1.5,5.6,4.6,5.6c1.7,0,3.3-1.1,3.9-2.9c0.2-0.5,0.2-1,0.2-1.5V276.6z"/>
	<path d="M1524,274.7c0-1.6,0-2.9-0.1-4.2h2.5l0.2,2.6h0.1c0.8-1.5,2.6-2.9,5.1-2.9c2.1,0,5.5,1.3,5.5,6.6v9.2h-2.8v-8.9
		c0-2.5-0.9-4.6-3.6-4.6c-1.9,0-3.3,1.3-3.8,2.9c-0.1,0.4-0.2,0.8-0.2,1.3v9.3h-2.8L1524,274.7L1524,274.7z"/>
	<path d="M1544.9,266.1c0,1-0.7,1.7-1.8,1.7c-1,0-1.7-0.8-1.7-1.7c0-1,0.7-1.8,1.8-1.8C1544.2,264.4,1544.9,265.1,1544.9,266.1z
		 M1541.8,286v-15.5h2.8V286H1541.8z"/>
	<path d="M1552.7,266v4.4h4v2.1h-4v8.4c0,1.9,0.5,3,2.1,3c0.7,0,1.3-0.1,1.6-0.2l0.1,2.1c-0.5,0.2-1.4,0.4-2.5,0.4
		c-1.3,0-2.4-0.4-3-1.2c-0.8-0.8-1.1-2.2-1.1-4v-8.4h-2.4v-2.1h2.4v-3.7L1552.7,266z"/>
	<path d="M1563,266.1c0,1-0.7,1.7-1.8,1.7c-1,0-1.7-0.8-1.7-1.7c0-1,0.7-1.8,1.8-1.8C1562.3,264.4,1563,265.1,1563,266.1z
		 M1559.9,286v-15.5h2.8V286H1559.9z"/>
	<path d="M1581.4,278.1c0,5.7-4,8.2-7.7,8.2c-4.2,0-7.4-3.1-7.4-8c0-5.2,3.4-8.2,7.7-8.2C1578.3,270.1,1581.4,273.3,1581.4,278.1z
		 M1569.1,278.2c0,3.4,2,6,4.7,6s4.7-2.5,4.7-6c0-2.6-1.3-6-4.6-6C1570.5,272.2,1569.1,275.3,1569.1,278.2z"/>
	<path d="M1584.9,274.7c0-1.6,0-2.9-0.1-4.2h2.5l0.2,2.6h0.1c0.8-1.5,2.6-2.9,5.1-2.9c2.1,0,5.5,1.3,5.5,6.6v9.2h-2.8v-8.9
		c0-2.5-0.9-4.6-3.6-4.6c-1.9,0-3.3,1.3-3.8,2.9c-0.1,0.4-0.2,0.8-0.2,1.3v9.3h-2.8L1584.9,274.7L1584.9,274.7z"/>
</g>
</svg>
