<?xml version="1.0" encoding="utf-8"?>
<!-- Generator: Adobe Illustrator 24.2.3, SVG Export Plug-In . SVG Version: 6.00 Build 0)  -->
<svg version="1.1" id="Layer_1" xmlns="http://www.w3.org/2000/svg" xmlns:xlink="http://www.w3.org/1999/xlink" x="0px" y="0px"
	 viewBox="0 0 1800 1200" style="enable-background:new 0 0 1800 1200;" xml:space="preserve">
<style type="text/css">
	.st0{opacity:0.78;fill:#FFD56F;}
	.st1{opacity:0.78;fill:#5BC0F8;}
</style>
<path class="st0" d="M867.3,832.5H279.9c-21.3,0-38.6-15.6-38.7-34.8c0,0,0,0,0-0.1l0,0c0-19.3,17.3-34.9,38.6-34.9c0,0,0,0,0.1,0
	h587.4c21.3,0,38.6,15.6,38.7,34.8c0,0,0,0,0,0.1l0,0C906,816.9,888.7,832.5,867.3,832.5L867.3,832.5z"/>
<path class="st1" d="M867.3,758.8H279.9c-21.3,0-38.6-15.6-38.7-34.8c0,0,0,0,0-0.1l0,0c0-19.3,17.3-34.9,38.7-34.8l0,0h587.4
	c21.3,0,38.6,15.6,38.7,34.8c0,0,0,0,0,0.1l0,0C905.9,743.1,888.6,758.7,867.3,758.8z"/>
<path class="st0" d="M1736.7,831.3h-587.4c-21.3,0-38.6-15.6-38.7-34.8c0,0,0,0,0-0.1l0,0c0-19.3,17.3-34.9,38.6-34.9c0,0,0,0,0.1,0
	h587.4c21.3,0,38.6,15.6,38.7,34.8c0,0,0,0,0,0.1l0,0C1775.4,815.6,1758.1,831.2,1736.7,831.3L1736.7,831.3z"/>
<path class="st1" d="M1736.7,757.3h-587.4c-21.3,0-38.6-15.6-38.7-34.8c0,0,0,0,0-0.1l0,0c0-19.3,17.3-34.9,38.6-34.9c0,0,0,0,0.1,0
	h587.4c21.3,0,38.6,15.6,38.7,34.8c0,0,0,0,0,0.1l0,0C1775.4,741.7,1758.1,757.3,1736.7,757.3L1736.7,757.3z"/>
<path class="st0" d="M1736.7,535.3h-1458c-21.3,0-38.6-15.6-38.7-34.8c0,0,0,0,0-0.1l0,0c0-19.3,17.3-34.9,38.6-34.9c0,0,0,0,0.1,0
	h1458c21.3,0,38.6,15.6,38.7,34.8c0,0,0,0,0,0.1l0,0C1775.4,519.7,1758.1,535.3,1736.7,535.3L1736.7,535.3z"/>
<path class="st1" d="M1736.7,461.5h-1458c-21.3,0-38.6-15.6-38.7-34.8c0,0,0,0,0-0.1l0,0c0-19.3,17.3-34.9,38.6-34.9c0,0,0,0,0.1,0
	h1458c21.3,0,38.6,15.6,38.7,34.8c0,0,0,0,0,0.1l0,0C1775.4,445.8,1758.1,461.4,1736.7,461.5L1736.7,461.5z"/>
<g>
	<path d="M502.6,807.5v-20.2H495v-2.7h18.2v2.7h-7.6v20.2H502.6z"/>
	<path d="M514.7,807.5v-16.6h2.5v2.5c0.4-0.9,1-1.7,1.8-2.3c0.5-0.4,1.2-0.6,1.8-0.6c1,0,2,0.3,2.9,0.9l-1,2.6
		c-0.6-0.4-1.3-0.6-2.1-0.6c-0.6,0-1.2,0.2-1.7,0.5c-0.5,0.4-0.9,0.9-1,1.5c-0.3,1.1-0.5,2.2-0.5,3.3v8.7L514.7,807.5L514.7,807.5z"
		/>
	<path d="M536.3,805.4c-0.9,0.8-1.9,1.4-3,1.9c-1,0.4-2,0.5-3.1,0.5c-1.5,0.1-3-0.4-4.2-1.3c-1-0.9-1.5-2.1-1.5-3.4
		c0-1.5,0.7-3,2-3.8c0.6-0.4,1.3-0.7,2-0.9c0.8-0.2,1.7-0.3,2.5-0.4c1.7-0.2,3.4-0.5,5-1c0-0.4,0-0.6,0-0.7c0.1-0.9-0.2-1.8-0.8-2.4
		c-0.9-0.7-2.1-1-3.2-1c-1-0.1-2,0.2-2.9,0.7c-0.7,0.6-1.2,1.5-1.4,2.5l-2.8-0.4c0.2-1,0.6-2,1.2-2.8c0.7-0.8,1.5-1.4,2.5-1.7
		c1.2-0.4,2.5-0.6,3.8-0.6c1.2,0,2.3,0.1,3.5,0.5c1.5,0.4,2.6,1.6,2.8,3.2c0.1,0.9,0.2,1.7,0.1,2.6v3.8c0,1.7,0,3.3,0.2,5
		c0.1,0.7,0.4,1.4,0.7,2h-2.9C536.5,806.8,536.3,806.1,536.3,805.4z M536,799.1c-1.5,0.5-3,0.9-4.6,1.1c-0.8,0.1-1.7,0.3-2.5,0.6
		c-0.5,0.2-0.8,0.5-1.1,0.9c-0.7,1-0.5,2.4,0.5,3.2c0.7,0.5,1.6,0.8,2.5,0.8c1,0,2-0.2,2.9-0.7c0.8-0.5,1.5-1.2,1.9-2
		c0.3-0.9,0.5-1.9,0.5-2.8L536,799.1z"/>
	<path d="M543.2,807.5v-16.6h2.5v2.4c1.2-1.8,3.2-2.8,5.3-2.7c0.9,0,1.9,0.2,2.8,0.5c0.7,0.3,1.4,0.8,1.9,1.4
		c0.4,0.6,0.7,1.3,0.9,2.1c0.1,0.9,0.2,1.8,0.2,2.7v10.2H554v-10.1c0-0.9-0.1-1.7-0.3-2.6c-0.2-0.6-0.6-1.1-1.2-1.4
		c-0.6-0.3-1.3-0.5-2-0.5c-1.1,0-2.2,0.4-3.1,1.1c-0.9,0.8-1.3,2.2-1.3,4.3v9.1L543.2,807.5z"/>
	<path d="M559.9,802.5l2.8-0.4c0.1,1,0.6,1.9,1.3,2.6c0.9,0.6,1.9,1,3,0.9c1,0.1,2-0.2,2.9-0.8c0.6-0.4,0.9-1.1,0.9-1.8
		c0-0.6-0.3-1.2-0.8-1.5c-0.9-0.4-1.9-0.8-2.9-1c-1.5-0.3-2.9-0.8-4.3-1.3c-1.5-0.7-2.5-2.2-2.4-3.8c0-0.7,0.2-1.4,0.5-2
		s0.8-1.2,1.4-1.6c0.5-0.4,1.1-0.7,1.8-0.8c0.8-0.2,1.6-0.3,2.4-0.3c1.2,0,2.3,0.2,3.4,0.6c0.9,0.3,1.6,0.8,2.2,1.5
		c0.5,0.8,0.9,1.6,1,2.6l-2.8,0.4c-0.1-0.8-0.5-1.5-1.1-2c-0.7-0.5-1.6-0.8-2.5-0.7c-1-0.1-1.9,0.1-2.8,0.6
		c-0.5,0.3-0.8,0.9-0.8,1.5c0,0.4,0.1,0.7,0.3,1c0.3,0.3,0.7,0.6,1.1,0.8c0.3,0.1,1.1,0.3,2.5,0.7c1.4,0.3,2.8,0.8,4.2,1.3
		c0.7,0.3,1.4,0.8,1.8,1.4c0.5,0.7,0.7,1.5,0.7,2.4s-0.3,1.9-0.8,2.7c-0.6,0.9-1.4,1.5-2.4,1.9c-1.1,0.5-2.3,0.7-3.5,0.7
		c-1.7,0.1-3.5-0.3-4.9-1.3C560.9,805.5,560.1,804.1,559.9,802.5z"/>
	<path d="M577.7,807.5v-14.4h-2.5v-2.2h2.5v-1.8c0-0.8,0.1-1.7,0.3-2.5c0.3-0.7,0.8-1.4,1.4-1.8c0.9-0.5,1.9-0.7,2.9-0.7
		c0.9,0,1.8,0.1,2.6,0.3l-0.4,2.5c-0.5-0.1-1.1-0.2-1.7-0.2c-0.7-0.1-1.3,0.1-1.8,0.5c-0.4,0.6-0.6,1.3-0.5,2v1.5h3.2v2.2h-3.2v14.4
		L577.7,807.5z"/>
	<path d="M584.9,799.2c0-3.1,0.9-5.3,2.6-6.8c1.5-1.2,3.3-1.9,5.2-1.8c2.1-0.1,4.1,0.7,5.6,2.2c1.5,1.7,2.3,3.9,2.2,6.2
		c0.1,1.7-0.3,3.4-1,5c-0.6,1.2-1.6,2.2-2.8,2.8c-1.2,0.7-2.6,1-4,1c-2.1,0.1-4.2-0.7-5.6-2.2C585.5,803.8,584.7,801.5,584.9,799.2z
		 M587.8,799.2c-0.1,1.7,0.4,3.4,1.4,4.8c1.7,1.9,4.6,2.1,6.5,0.5c0.2-0.1,0.3-0.3,0.5-0.5c1-1.4,1.5-3.1,1.4-4.9
		c0.1-1.7-0.4-3.3-1.4-4.7c-1.7-1.9-4.6-2.1-6.5-0.5c-0.2,0.1-0.3,0.3-0.5,0.5C588.1,795.8,587.6,797.5,587.8,799.2z"/>
	<path d="M603.7,807.5v-16.6h2.5v2.5c0.4-0.9,1-1.7,1.8-2.3c0.5-0.4,1.2-0.6,1.8-0.6c1,0,2,0.3,2.9,0.9l-1,2.6
		c-0.6-0.4-1.3-0.6-2.1-0.6c-0.6,0-1.2,0.2-1.6,0.6c-0.5,0.4-0.8,0.9-1,1.5c-0.3,1.1-0.5,2.2-0.5,3.3v8.7L603.7,807.5z"/>
	<path d="M614.4,807.5v-16.6h2.5v2.3c0.5-0.8,1.2-1.5,2.1-2c0.9-0.5,1.9-0.8,3-0.7c1.1,0,2.1,0.2,3,0.8c0.8,0.5,1.4,1.3,1.7,2.1
		c1.1-1.8,3-2.9,5.1-2.9c1.4-0.1,2.8,0.4,3.8,1.4c1,1.2,1.5,2.7,1.3,4.2v11.4H634V797c0-0.8-0.1-1.6-0.3-2.4c-0.2-0.5-0.5-0.9-1-1.2
		s-1.1-0.5-1.7-0.5c-1.1,0-2.1,0.4-2.9,1.2c-0.9,1-1.3,2.4-1.2,3.7v9.6h-2.8v-10.7c0.1-1-0.2-2-0.7-2.8c-0.5-0.7-1.4-1-2.3-0.9
		c-0.8,0-1.5,0.2-2.2,0.6c-0.7,0.4-1.2,1.1-1.5,1.8c-0.3,1.1-0.5,2.3-0.5,3.5v8.6L614.4,807.5L614.4,807.5z"/>
	<path d="M652.4,802.1l2.9,0.4c-0.4,1.6-1.3,3-2.5,4c-1.4,1-3.1,1.5-4.8,1.4c-2.2,0.1-4.3-0.7-5.8-2.2c-1.5-1.7-2.3-4-2.1-6.3
		c-0.1-2.4,0.6-4.7,2.2-6.5c1.4-1.5,3.5-2.4,5.6-2.3c2.1-0.1,4,0.8,5.4,2.3c1.5,1.8,2.3,4.1,2.1,6.4c0,0.2,0,0.4,0,0.8H643
		c0,1.5,0.5,3,1.5,4.2c0.9,1,2.2,1.5,3.5,1.5c0.9,0,1.9-0.3,2.6-0.8C651.5,804.1,652.1,803.2,652.4,802.1z M643.1,797.6h9.3
		c0-1.1-0.4-2.2-1.1-3.1c-0.8-1.1-2.1-1.7-3.5-1.6c-1.2,0-2.4,0.4-3.3,1.3C643.7,795.1,643.2,796.3,643.1,797.6z"/>
	<path d="M658.8,807.5v-16.6h2.5v2.5c0.4-0.9,1-1.7,1.8-2.3c0.5-0.4,1.2-0.6,1.8-0.6c1,0,2,0.3,2.9,0.9l-1,2.6
		c-0.6-0.4-1.3-0.6-2.1-0.6c-0.6,0-1.2,0.2-1.7,0.5c-0.5,0.4-0.8,0.9-1,1.5c-0.3,1.1-0.5,2.2-0.5,3.3v8.7L658.8,807.5L658.8,807.5z"
		/>
	<path d="M668.3,802.5l2.8-0.4c0.1,1,0.6,1.9,1.3,2.6c0.9,0.6,1.9,1,3,0.9c1,0.1,2-0.2,2.9-0.8c0.6-0.4,0.9-1.1,0.9-1.8
		c0-0.6-0.3-1.2-0.8-1.5c-0.9-0.4-1.9-0.8-2.9-1c-1.5-0.3-2.9-0.8-4.3-1.3c-1.5-0.7-2.5-2.2-2.4-3.8c0-0.7,0.2-1.4,0.5-2
		s0.8-1.2,1.4-1.6c0.5-0.4,1.1-0.7,1.8-0.8c0.8-0.2,1.6-0.3,2.4-0.3c1.2,0,2.3,0.2,3.4,0.6c0.9,0.3,1.6,0.8,2.2,1.5
		c0.5,0.8,0.9,1.6,1,2.6l-2.8,0.4c-0.1-0.8-0.5-1.5-1.1-2c-0.7-0.5-1.6-0.8-2.5-0.7c-1-0.1-1.9,0.1-2.8,0.6
		c-0.5,0.3-0.8,0.9-0.8,1.5c0,0.4,0.1,0.7,0.3,1c0.3,0.3,0.7,0.6,1.1,0.8c0.3,0.1,1.1,0.3,2.5,0.7c1.4,0.3,2.8,0.8,4.2,1.3
		c0.7,0.3,1.4,0.8,1.9,1.5s0.7,1.6,0.7,2.4c0,0.9-0.3,1.9-0.8,2.7c-0.6,0.9-1.4,1.5-2.4,1.9c-1.1,0.5-2.3,0.7-3.5,0.7
		c-1.7,0.1-3.5-0.3-4.9-1.3C669.3,805.6,668.5,804.1,668.3,802.5z"/>
</g>
<g>
	<path d="M1364.6,806.5v-20.2h-8.4v-2.7h20.1v2.7h-8.4v20.2H1364.6z"/>
	<path d="M1378,806.5v-16.6h2.8v2.5c0.5-0.9,1.1-1.7,2-2.3c0.6-0.4,1.3-0.6,2-0.6c1.1,0,2.3,0.3,3.2,0.9l-1.1,2.6
		c-0.7-0.4-1.5-0.6-2.3-0.6c-0.7,0-1.3,0.2-1.8,0.6c-0.5,0.4-0.9,0.9-1.1,1.5c-0.4,1.1-0.5,2.2-0.5,3.3v8.7L1378,806.5z"/>
	<path d="M1401.8,804.4c-1,0.8-2.1,1.4-3.3,1.9c-1.1,0.4-2.3,0.5-3.4,0.5c-1.7,0.1-3.4-0.4-4.7-1.3c-1.1-0.9-1.7-2.1-1.6-3.4
		c0-0.8,0.2-1.5,0.6-2.2s0.9-1.2,1.6-1.6c0.7-0.4,1.4-0.7,2.2-0.9c0.9-0.2,1.8-0.3,2.8-0.4c1.9-0.2,3.7-0.5,5.5-1c0-0.4,0-0.6,0-0.7
		c0.1-0.9-0.2-1.8-0.9-2.4c-1-0.7-2.3-1-3.5-1c-1.1-0.1-2.3,0.2-3.2,0.7c-0.8,0.7-1.3,1.5-1.5,2.5l-3-0.4c0.2-1,0.7-2,1.4-2.8
		c0.7-0.8,1.7-1.4,2.8-1.7c1.3-0.4,2.8-0.6,4.2-0.6c1.3,0,2.6,0.1,3.8,0.5c0.8,0.2,1.6,0.7,2.2,1.3c0.5,0.6,0.8,1.2,1,1.9
		c0.1,0.9,0.2,1.7,0.2,2.6v3.8c0,1.7,0,3.3,0.2,5c0.1,0.7,0.4,1.4,0.8,2h-3.3C1402.1,805.9,1401.9,805.2,1401.8,804.4z
		 M1401.6,798.1c-1.6,0.5-3.4,0.9-5.1,1.1c-0.9,0.1-1.8,0.3-2.7,0.6c-0.5,0.2-0.9,0.5-1.2,0.9c-0.3,0.4-0.4,0.9-0.4,1.3
		c0,0.7,0.3,1.4,1,1.9c0.8,0.5,1.8,0.8,2.8,0.8c1.1,0,2.2-0.2,3.2-0.7c0.9-0.5,1.6-1.2,2.1-2c0.4-0.9,0.6-1.9,0.5-2.8v-1.1H1401.6z"
		/>
	<path d="M1409.6,806.5v-16.6h2.8v2.4c1.3-1.8,3.5-2.8,5.8-2.7c1,0,2.1,0.2,3,0.5c0.8,0.3,1.6,0.8,2.1,1.4c0.5,0.6,0.8,1.3,1,2.1
		c0.1,0.9,0.2,1.8,0.2,2.7v10.2h-3.1v-10.1c0-0.9-0.1-1.7-0.4-2.6c-0.3-0.6-0.7-1.1-1.3-1.4c-0.7-0.3-1.4-0.5-2.2-0.5
		c-1.3,0-2.5,0.4-3.4,1.1c-1,0.8-1.4,2.2-1.4,4.3v9.1L1409.6,806.5z"/>
	<path d="M1428,801.5l3.1-0.4c0.1,1,0.6,1.9,1.4,2.6c1,0.6,2.1,1,3.3,0.9c1.1,0.1,2.3-0.2,3.2-0.8c0.6-0.4,1-1.1,1-1.8
		c0-0.6-0.3-1.2-0.9-1.5c-1-0.4-2.1-0.8-3.2-1c-1.6-0.3-3.2-0.8-4.8-1.4c-0.8-0.3-1.5-0.9-2-1.6c-0.9-1.3-0.9-2.9-0.1-4.3
		c0.4-0.6,0.9-1.2,1.5-1.6c0.6-0.4,1.3-0.6,2-0.8c0.9-0.2,1.8-0.3,2.7-0.3c1.3,0,2.6,0.2,3.8,0.6c1,0.3,1.8,0.8,2.4,1.5
		c0.6,0.8,1,1.6,1.1,2.6l-3,0.4c-0.1-0.8-0.5-1.5-1.2-2c-0.8-0.5-1.8-0.8-2.8-0.7c-1.1-0.1-2.1,0.1-3.1,0.6
		c-0.6,0.3-0.9,0.9-0.9,1.5c0,0.4,0.1,0.7,0.4,1s0.7,0.6,1.2,0.8c0.3,0.1,1.2,0.3,2.7,0.7c1.6,0.4,3.1,0.8,4.6,1.3
		c0.8,0.3,1.5,0.8,2.1,1.5c0.5,0.7,0.8,1.6,0.7,2.4c0,0.9-0.3,1.9-0.9,2.7c-0.6,0.9-1.6,1.5-2.6,1.9c-1.2,0.5-2.5,0.7-3.9,0.7
		c-1.9,0.1-3.9-0.3-5.5-1.3C1429.1,804.5,1428.3,803.1,1428,801.5z"/>
	<path d="M1447.8,806.5v-14.4h-2.7v-2.2h2.7v-1.8c0-0.8,0.1-1.7,0.3-2.5c0.3-0.7,0.9-1.3,1.6-1.8c1-0.5,2.1-0.7,3.2-0.7
		c1,0,1.9,0.1,2.9,0.3l-0.5,2.5c-0.6-0.1-1.2-0.1-1.8-0.2c-0.7-0.1-1.4,0.1-2,0.5c-0.5,0.6-0.7,1.3-0.6,2v1.5h3.5v2.2h-3.6v14.4
		L1447.8,806.5z"/>
	<path d="M1455.7,798.2c0-3.1,0.9-5.3,2.8-6.8c1.6-1.2,3.7-1.9,5.8-1.8c2.3-0.1,4.6,0.7,6.2,2.2c1.7,1.7,2.6,3.9,2.4,6.2
		c0.1,1.7-0.3,3.4-1.1,5c-0.7,1.2-1.8,2.2-3.1,2.8c-1.4,0.7-2.9,1-4.4,1c-2.3,0.1-4.6-0.7-6.2-2.2
		C1456.4,802.8,1455.5,800.5,1455.7,798.2z M1458.9,798.2c-0.2,1.7,0.4,3.4,1.5,4.8c1.9,1.9,5.1,2.1,7.2,0.5
		c0.2-0.1,0.4-0.3,0.5-0.5c1.1-1.4,1.7-3.1,1.5-4.9c0.1-1.7-0.4-3.3-1.6-4.7c-1.9-1.9-5.1-2.1-7.3-0.5c-0.2,0.1-0.3,0.3-0.5,0.5
		C1459.3,794.8,1458.7,796.5,1458.9,798.2L1458.9,798.2z"/>
	<path d="M1476.6,806.5v-16.6h2.8v2.5c0.5-0.9,1.1-1.7,2-2.3c0.6-0.4,1.3-0.6,2-0.6c1.1,0,2.2,0.3,3.2,0.9l-1.1,2.6
		c-0.7-0.4-1.5-0.6-2.3-0.6c-0.7,0-1.3,0.2-1.8,0.6c-0.5,0.4-0.9,0.9-1.1,1.5c-0.4,1.1-0.5,2.2-0.5,3.3v8.7L1476.6,806.5z"/>
	<path d="M1488.4,806.5v-16.6h2.8v2.3c0.6-0.8,1.4-1.5,2.3-2c1-0.5,2.2-0.8,3.3-0.7c1.2,0,2.3,0.2,3.3,0.8c0.9,0.5,1.5,1.3,1.8,2.1
		c1.2-1.8,3.3-2.9,5.7-2.9c1.6-0.1,3.1,0.4,4.2,1.4c1.1,1.2,1.6,2.7,1.5,4.2v11.4h-3.1V796c0-0.8-0.1-1.6-0.3-2.4
		c-0.2-0.5-0.6-0.9-1.1-1.2c-0.6-0.3-1.2-0.5-1.9-0.5c-1.2,0-2.4,0.4-3.2,1.2c-1,1-1.4,2.4-1.3,3.7v9.6h-3.1v-10.8
		c0.1-1-0.2-2-0.8-2.8c-0.6-0.7-1.5-1-2.5-0.9c-0.9,0-1.7,0.2-2.4,0.6c-0.8,0.4-1.3,1.1-1.6,1.8c-0.4,1.1-0.6,2.3-0.5,3.5v8.6h-3.1
		V806.5z"/>
	<path d="M1530.5,801.1l3.2,0.4c-0.4,1.6-1.4,3-2.8,4c-1.5,1-3.4,1.5-5.3,1.4c-2.4,0.1-4.7-0.7-6.4-2.2c-1.7-1.7-2.5-4-2.4-6.3
		c-0.2-2.4,0.7-4.7,2.4-6.5c1.6-1.5,3.9-2.4,6.2-2.3c2.3-0.1,4.5,0.8,6,2.3c1.7,1.8,2.5,4.1,2.3,6.4c0,0.2,0,0.4,0,0.8H1520
		c0,1.5,0.6,3,1.7,4.2c1,1,2.4,1.5,3.8,1.5c1,0,2.1-0.3,2.9-0.8C1529.5,803.1,1530.2,802.2,1530.5,801.1z M1520.3,796.6h10.3
		c0-1.1-0.4-2.2-1.2-3.1c-0.9-1.1-2.4-1.7-3.9-1.6c-1.3,0-2.6,0.4-3.6,1.3C1520.9,794,1520.3,795.3,1520.3,796.6z"/>
	<path d="M1537.6,806.5v-16.6h2.8v2.5c0.5-0.9,1.1-1.7,2-2.3c0.6-0.4,1.3-0.6,2-0.6c1.1,0,2.2,0.3,3.2,0.9l-1.1,2.6
		c-0.7-0.4-1.5-0.6-2.3-0.6c-0.7,0-1.3,0.2-1.8,0.6c-0.5,0.4-0.9,0.9-1.1,1.5c-0.4,1.1-0.5,2.2-0.5,3.3v8.7L1537.6,806.5z"/>
	<path d="M1548.2,801.5l3.1-0.4c0.1,1,0.6,1.9,1.5,2.6c1,0.6,2.1,1,3.3,0.9c1.1,0.1,2.3-0.2,3.2-0.8c0.6-0.4,1-1.1,1-1.8
		c0-0.6-0.3-1.2-0.9-1.5c-1-0.4-2.1-0.8-3.2-1c-1.6-0.3-3.2-0.8-4.8-1.4c-1.7-0.7-2.7-2.2-2.7-3.8c0-0.7,0.2-1.4,0.6-2
		s0.9-1.2,1.5-1.6c0.6-0.4,1.3-0.6,2-0.8c0.9-0.2,1.8-0.3,2.7-0.3c1.3,0,2.6,0.2,3.8,0.6c0.9,0.3,1.8,0.8,2.4,1.5
		c0.6,0.8,1,1.6,1.1,2.6l-3,0.4c-0.1-0.8-0.5-1.5-1.2-2c-0.8-0.5-1.8-0.8-2.8-0.7c-1.1-0.1-2.1,0.1-3.1,0.6
		c-0.6,0.3-0.9,0.9-0.9,1.5c0,0.4,0.1,0.7,0.4,1s0.7,0.6,1.2,0.8c0.3,0.1,1.2,0.3,2.7,0.7c1.6,0.4,3.1,0.8,4.6,1.3
		c0.8,0.3,1.5,0.8,2,1.5s0.8,1.5,0.7,2.4c0,0.9-0.3,1.9-0.9,2.7c-0.6,0.9-1.6,1.5-2.6,1.9c-1.2,0.5-2.5,0.7-3.9,0.7
		c-1.9,0.1-3.9-0.4-5.5-1.3C1549.3,804.5,1548.4,803.1,1548.2,801.5z"/>
</g>
<g>
	<path d="M359.7,734.3v-20.2h-8.4v-2.7h20.1v2.7H363v20.2H359.7z"/>
	<path d="M369.5,726c0-3.1,0.9-5.4,2.8-6.8c1.6-1.2,3.7-1.9,5.8-1.8c2.3-0.1,4.6,0.7,6.2,2.2c1.7,1.7,2.6,3.9,2.4,6.2
		c0.1,1.7-0.3,3.4-1.1,5c-0.7,1.2-1.8,2.2-3.1,2.9c-1.4,0.7-2.9,1-4.4,1c-2.3,0.1-4.6-0.7-6.2-2.2
		C370.2,730.9,369.5,728.8,369.5,726z M372.7,726c-0.2,1.7,0.4,3.4,1.5,4.8c1.9,1.9,5.1,2.1,7.2,0.5c0.2-0.1,0.4-0.3,0.5-0.5
		c1.1-1.4,1.7-3.1,1.6-4.9c0.1-1.7-0.4-3.3-1.6-4.7c-1.9-1.9-5.1-2.1-7.3-0.4c-0.2,0.1-0.3,0.3-0.5,0.4
		C373.1,722.6,372.5,724.3,372.7,726L372.7,726z"/>
	<path d="M390.3,734.3v-22.9h3.1v13.1l7.4-6.8h4l-7,6.2l7.8,10.4h-3.8l-6.1-8.5l-2.2,1.9v6.6H390.3z"/>
	<path d="M420.6,728.9l3.2,0.4c-0.4,1.6-1.4,3-2.8,4c-1.5,1-3.4,1.5-5.3,1.4c-2.4,0.1-4.7-0.7-6.4-2.2c-1.7-1.7-2.5-4-2.4-6.3
		c-0.2-2.4,0.7-4.7,2.4-6.5c1.6-1.5,3.9-2.4,6.2-2.3c2.3-0.1,4.5,0.8,6,2.3c1.7,1.8,2.5,4.1,2.3,6.4c0,0.2,0,0.4,0,0.8h-13.7
		c0,1.5,0.6,3,1.7,4.2c1,1,2.4,1.5,3.8,1.5c1,0,2.1-0.3,2.9-0.8C419.6,730.9,420.3,730,420.6,728.9z M410.4,724.4h10.3
		c0-1.1-0.4-2.2-1.2-3.1c-0.9-1.1-2.4-1.7-3.9-1.6c-1.4,0-2.7,0.4-3.6,1.3C411,721.8,410.4,723.1,410.4,724.4L410.4,724.4z"/>
	<path d="M427.8,734.3v-16.6h2.8v2.3c1.3-1.8,3.5-2.8,5.8-2.7c1,0,2.1,0.2,3.1,0.5c0.8,0.3,1.5,0.8,2.1,1.4c0.5,0.6,0.8,1.3,1,2.1
		c0.1,0.9,0.2,1.8,0.2,2.7v10.2h-3.1v-10.1c0-0.9-0.1-1.7-0.4-2.6c-0.2-0.6-0.7-1-1.3-1.4c-0.7-0.3-1.4-0.5-2.2-0.5
		c-1.3,0-2.5,0.4-3.4,1.1c-1,0.8-1.5,2.2-1.5,4.3v9.1L427.8,734.3z"/>
	<path d="M446.3,727.4v-2.8h9.6v2.8H446.3z"/>
	<path d="M459.2,734.3v-22.9h3.1v22.9H459.2z"/>
	<path d="M479.7,728.9l3.2,0.4c-0.4,1.6-1.4,3-2.8,4c-1.5,1-3.4,1.5-5.3,1.4c-2.4,0.1-4.7-0.7-6.4-2.2c-1.7-1.7-2.5-4-2.4-6.3
		c-0.2-2.4,0.7-4.7,2.4-6.5c1.6-1.5,3.9-2.4,6.2-2.3c2.3-0.1,4.5,0.8,6,2.3c1.7,1.8,2.5,4.1,2.3,6.4c0,0.2,0,0.4,0,0.8h-13.7
		c0,1.5,0.6,3,1.7,4.2c1,1,2.4,1.5,3.8,1.5c1,0,2.1-0.3,2.9-0.8C478.7,730.9,479.4,730,479.7,728.9z M469.5,724.4h10.3
		c0-1.1-0.4-2.2-1.2-3.1c-0.9-1.1-2.4-1.7-3.9-1.6c-1.4,0-2.7,0.4-3.6,1.3C470.1,721.8,469.6,723.1,469.5,724.4L469.5,724.4z"/>
	<path d="M492,734.3l-7-16.6h3.3l4,9.9c0.4,1.1,0.8,2.2,1.2,3.3c0.3-0.9,0.6-1.9,1.1-3.2l4.1-10.1h3.2l-7,16.6L492,734.3L492,734.3z
		"/>
	<path d="M517.2,728.9l3.2,0.4c-0.4,1.6-1.4,3-2.8,4c-1.5,1-3.4,1.5-5.3,1.4c-2.4,0.1-4.7-0.7-6.4-2.2c-1.7-1.7-2.5-4-2.4-6.3
		c-0.2-2.4,0.7-4.7,2.4-6.5c1.6-1.5,3.9-2.4,6.2-2.3c2.3-0.1,4.5,0.8,6,2.3c1.7,1.8,2.5,4.1,2.3,6.4c0,0.2,0,0.4,0,0.8h-13.8
		c0,1.5,0.6,3,1.7,4.2c1,1,2.4,1.5,3.8,1.5c1,0,2.1-0.3,2.9-0.8C516.2,730.9,516.9,730,517.2,728.9z M507,724.4h10.2
		c0-1.1-0.4-2.2-1.2-3.1c-0.9-1.1-2.4-1.7-3.9-1.6c-1.4,0-2.7,0.4-3.6,1.3C507.6,721.8,507,723.1,507,724.4L507,724.4z"/>
	<path d="M524.2,734.3v-22.9h3.1v22.9H524.2z"/>
	<path d="M554,728.2l3.1,0.4c-0.2,1.7-1.1,3.3-2.6,4.5c-1.4,1.1-3.2,1.7-5.1,1.6c-2.3,0.1-4.5-0.7-6.1-2.2c-1.6-1.8-2.5-4.1-2.3-6.4
		c0-1.6,0.3-3.2,1-4.7c0.6-1.3,1.7-2.3,3-3c1.4-0.7,2.9-1,4.4-1c1.8-0.1,3.5,0.4,4.9,1.4c1.3,1,2.2,2.4,2.4,3.9l-3.1,0.4
		c-0.2-1-0.7-1.8-1.5-2.5c-0.7-0.6-1.7-0.9-2.7-0.8c-1.5,0-2.9,0.5-3.8,1.5c-1.1,1.4-1.6,3.1-1.5,4.8c0,2.2,0.5,3.8,1.4,4.9
		c0.9,1,2.3,1.6,3.7,1.5c1.1,0,2.2-0.3,3.1-1C553.4,730.5,554,729.4,554,728.2z"/>
	<path d="M559.7,734.3v-22.9h3.1v22.9H559.7z"/>
	<path d="M579.6,732.2c-1,0.8-2.1,1.4-3.3,1.9c-1.1,0.4-2.3,0.5-3.4,0.5c-1.7,0.1-3.3-0.4-4.7-1.3c-1.1-0.9-1.7-2.1-1.6-3.4
		c0-0.8,0.2-1.5,0.6-2.2c0.4-0.7,0.9-1.2,1.6-1.6c0.7-0.4,1.4-0.7,2.2-0.9c0.9-0.2,1.8-0.3,2.8-0.4c1.9-0.2,3.7-0.5,5.5-1
		c0-0.4,0-0.6,0-0.7c0.1-0.9-0.2-1.8-0.9-2.4c-1-0.7-2.3-1.1-3.6-1c-1.1-0.1-2.3,0.2-3.2,0.7c-0.8,0.6-1.3,1.5-1.5,2.5l-3-0.4
		c0.2-1,0.7-2,1.4-2.8s1.7-1.4,2.8-1.7c1.3-0.4,2.8-0.6,4.2-0.6c1.3,0,2.6,0.1,3.8,0.5c1.7,0.4,3,1.7,3.2,3.3
		c0.1,0.9,0.2,1.7,0.2,2.6v3.8c-0.1,1.7,0,3.3,0.2,5c0.1,0.7,0.4,1.4,0.8,2h-3.2C579.9,733.7,579.7,733,579.6,732.2z M579.4,726
		c-1.6,0.5-3.4,0.9-5.1,1.1c-0.9,0.1-1.8,0.3-2.7,0.6c-0.5,0.2-0.9,0.5-1.2,0.9s-0.4,0.9-0.4,1.3c0,0.7,0.3,1.4,0.9,1.9
		c0.8,0.5,1.8,0.8,2.8,0.8c1.1,0,2.2-0.2,3.2-0.7c0.9-0.5,1.6-1.2,2.1-2c0.4-0.9,0.6-1.9,0.5-2.8L579.4,726z"/>
	<path d="M586.1,729.3l3.1-0.4c0.1,1,0.6,1.9,1.4,2.6c1,0.6,2.1,1,3.3,0.9c1.1,0.1,2.3-0.2,3.2-0.8c0.6-0.4,1-1.1,1-1.8
		c0-0.6-0.3-1.2-0.9-1.5c-1-0.5-2.1-0.8-3.2-1c-1.6-0.3-3.2-0.8-4.7-1.4c-0.8-0.3-1.5-0.9-2-1.6c-0.5-0.7-0.7-1.4-0.7-2.2
		c0-0.7,0.2-1.4,0.6-2.1c0.4-0.6,0.9-1.2,1.5-1.6c0.6-0.4,1.3-0.6,2-0.8c0.9-0.2,1.8-0.3,2.7-0.3c1.3,0,2.6,0.2,3.8,0.6
		c1,0.3,1.8,0.8,2.4,1.5c0.6,0.8,1,1.6,1.1,2.6l-3,0.4c-0.1-0.8-0.5-1.5-1.2-2c-0.8-0.5-1.8-0.8-2.8-0.7c-1.1-0.1-2.1,0.1-3.1,0.6
		c-0.6,0.3-0.9,0.9-0.9,1.5c0,0.4,0.1,0.7,0.4,1c0.3,0.3,0.7,0.6,1.2,0.8c0.3,0.1,1.2,0.3,2.7,0.7c1.6,0.4,3.1,0.8,4.6,1.3
		c0.8,0.3,1.5,0.8,2.1,1.5c0.5,0.7,0.8,1.6,0.7,2.4c0,0.9-0.3,1.9-0.9,2.7c-0.6,0.9-1.6,1.5-2.6,1.9c-1.2,0.5-2.5,0.7-3.9,0.7
		c-1.9,0.1-3.9-0.4-5.5-1.3C587.2,732.3,586.4,730.9,586.1,729.3z"/>
	<path d="M603.8,729.3l3.1-0.4c0.1,1,0.6,1.9,1.4,2.6c1,0.6,2.1,1,3.3,0.9c1.1,0.1,2.3-0.2,3.2-0.8c0.6-0.4,1-1.1,1-1.8
		c0-0.6-0.3-1.2-0.9-1.5c-1-0.5-2.1-0.8-3.2-1c-1.6-0.3-3.2-0.8-4.7-1.4c-0.8-0.3-1.5-0.9-2-1.6c-0.5-0.7-0.7-1.4-0.7-2.2
		c0-0.7,0.2-1.4,0.6-2.1c0.4-0.6,0.9-1.2,1.5-1.6c0.6-0.4,1.3-0.6,2-0.8c0.9-0.2,1.8-0.3,2.7-0.3c1.3,0,2.6,0.2,3.8,0.6
		c1,0.3,1.8,0.8,2.4,1.5c0.6,0.8,1,1.6,1.1,2.6l-3,0.4c-0.1-0.8-0.5-1.5-1.2-2c-0.8-0.5-1.8-0.8-2.8-0.7c-1.1-0.1-2.1,0.1-3.1,0.6
		c-0.6,0.3-0.9,0.9-0.9,1.5c0,0.4,0.1,0.7,0.4,1c0.3,0.3,0.7,0.6,1.2,0.8c0.3,0.1,1.2,0.3,2.7,0.7c1.6,0.4,3.1,0.8,4.6,1.3
		c0.8,0.3,1.5,0.8,2.1,1.5c0.5,0.7,0.8,1.6,0.7,2.4c0,0.9-0.3,1.9-0.9,2.7c-0.6,0.9-1.6,1.5-2.6,1.9c-1.2,0.5-2.5,0.7-3.9,0.7
		c-1.9,0.1-3.9-0.4-5.5-1.3C604.9,732.3,604.1,730.9,603.8,729.3z"/>
	<path d="M622.8,714.6v-3.2h3.1v3.2H622.8z M622.8,734.3v-16.6h3.1v16.6H622.8z"/>
	<path d="M631.4,734.3v-14.4h-2.7v-2.2h2.7v-1.8c0-0.8,0.1-1.7,0.3-2.5c0.3-0.7,0.9-1.4,1.6-1.8c1-0.5,2.1-0.7,3.2-0.7
		c1,0,1.9,0.1,2.9,0.3l-0.5,2.5c-0.6-0.1-1.2-0.1-1.8-0.2c-0.7-0.1-1.4,0.1-2,0.5c-0.5,0.6-0.7,1.3-0.6,2v1.5h3.6v2.2h-3.6v14.4
		L631.4,734.3z"/>
	<path d="M640.6,714.6v-3.2h3.1v3.2H640.6z M640.6,734.3v-16.6h3.1v16.6H640.6z"/>
	<path d="M661,728.9l3.2,0.4c-0.4,1.6-1.4,3-2.8,4c-1.5,1-3.4,1.5-5.3,1.4c-2.4,0.1-4.7-0.7-6.4-2.2c-1.7-1.7-2.5-4-2.4-6.3
		c-0.2-2.4,0.7-4.7,2.4-6.5c1.6-1.5,3.9-2.4,6.2-2.3c2.3-0.1,4.5,0.8,6,2.3c1.7,1.8,2.5,4.1,2.3,6.4c0,0.2,0,0.4,0,0.8h-13.7
		c0,1.5,0.6,3,1.7,4.2c1,1,2.4,1.5,3.8,1.5c1,0,2.1-0.3,2.9-0.8C660,730.9,660.7,730,661,728.9z M650.8,724.4H661
		c0-1.1-0.4-2.2-1.2-3.1c-0.9-1.1-2.4-1.7-3.9-1.6c-1.4,0-2.7,0.4-3.6,1.3C651.4,721.8,650.8,723.1,650.8,724.4L650.8,724.4z"/>
	<path d="M668.1,734.3v-16.6h2.8v2.5c0.5-0.9,1.1-1.7,2-2.3c0.6-0.4,1.3-0.6,2-0.6c1.1,0,2.2,0.3,3.2,0.9l-1.1,2.6
		c-0.7-0.4-1.5-0.6-2.3-0.6c-0.7,0-1.3,0.2-1.8,0.6c-0.5,0.4-0.9,0.9-1.1,1.5c-0.4,1.1-0.5,2.2-0.5,3.3v8.7L668.1,734.3z"/>
	<path d="M690.5,734.3v-14.4h-2.8v-2.2h2.8v-1.8c0-0.8,0.1-1.7,0.3-2.5c0.3-0.7,0.9-1.4,1.6-1.8c1-0.5,2.1-0.7,3.2-0.7
		c1,0,2,0.1,2.9,0.3l-0.5,2.5c-0.6-0.1-1.2-0.1-1.8-0.2c-0.7-0.1-1.4,0.1-2,0.5c-0.5,0.6-0.7,1.3-0.6,2v1.5h3.6v2.2h-3.6v14.4
		L690.5,734.3z"/>
	<path d="M698.5,726c0-3.1,0.9-5.4,2.8-6.8c1.6-1.2,3.7-1.9,5.8-1.8c2.3-0.1,4.6,0.7,6.2,2.2c1.7,1.7,2.6,3.9,2.4,6.2
		c0.1,1.7-0.3,3.4-1.1,5c-0.7,1.2-1.8,2.2-3.1,2.9c-1.4,0.7-2.9,1-4.4,1c-2.3,0.1-4.6-0.7-6.2-2.2
		C699.3,730.9,698.5,728.8,698.5,726z M701.7,726c-0.2,1.7,0.4,3.4,1.5,4.8c1.9,1.9,5.1,2.1,7.2,0.5c0.2-0.1,0.4-0.3,0.5-0.5
		c1.1-1.4,1.7-3.1,1.6-4.9c0.1-1.7-0.4-3.3-1.6-4.7c-1.9-1.9-5.1-2.1-7.3-0.4c-0.2,0.1-0.3,0.3-0.5,0.4
		C702.1,722.6,701.5,724.3,701.7,726z"/>
	<path d="M719.3,734.3v-16.6h2.8v2.5c0.5-0.9,1.1-1.7,2-2.3c0.6-0.4,1.3-0.6,2-0.6c1.1,0,2.2,0.3,3.2,0.9l-1.1,2.6
		c-0.7-0.4-1.5-0.6-2.3-0.6c-0.7,0-1.3,0.2-1.8,0.6c-0.5,0.4-0.9,0.9-1.1,1.5c-0.4,1.1-0.5,2.2-0.5,3.3v8.7L719.3,734.3z"/>
	<path d="M747.8,731.8l0.5,2.5c-0.8,0.2-1.6,0.2-2.4,0.3c-0.9,0-1.8-0.1-2.7-0.5c-0.6-0.3-1-0.7-1.3-1.3c-0.3-1.1-0.5-2.2-0.4-3.3
		V720h-2.3v-2.2h2.3v-4.1l3.1-1.7v5.8h3.1v2.2h-3.1v9.7c0,0.5,0,1,0.2,1.5c0.1,0.2,0.3,0.4,0.5,0.5c0.3,0.2,0.7,0.2,1.1,0.2
		C746.9,731.9,747.4,731.8,747.8,731.8z"/>
	<path d="M762.8,732.2c-1,0.8-2.1,1.4-3.3,1.9c-1.1,0.4-2.3,0.5-3.4,0.5c-1.7,0.1-3.3-0.4-4.7-1.3c-1.1-0.9-1.7-2.1-1.6-3.4
		c0-0.8,0.2-1.5,0.6-2.2c0.4-0.6,0.9-1.2,1.6-1.6c0.7-0.4,1.4-0.7,2.2-0.9c0.9-0.2,1.8-0.3,2.8-0.4c1.9-0.2,3.7-0.5,5.5-1
		c0-0.4,0-0.6,0-0.7c0.1-0.9-0.2-1.8-0.9-2.4c-1-0.7-2.3-1.1-3.5-1c-1.1-0.1-2.3,0.2-3.2,0.7c-0.8,0.6-1.4,1.5-1.6,2.5l-3-0.4
		c0.2-1,0.7-2,1.4-2.8s1.7-1.4,2.7-1.7c1.3-0.4,2.8-0.6,4.2-0.6c1.3,0,2.6,0.1,3.8,0.5c0.8,0.2,1.6,0.7,2.2,1.3
		c0.5,0.6,0.8,1.2,1,1.9c0.1,0.9,0.2,1.7,0.2,2.6v3.8c-0.1,1.7,0,3.3,0.2,5c0.1,0.7,0.4,1.4,0.8,2h-3.3
		C763.1,733.6,762.9,732.9,762.8,732.2z M762.6,725.9c-1.6,0.5-3.4,0.9-5.1,1.1c-0.9,0.1-1.8,0.3-2.7,0.6c-0.5,0.2-0.9,0.5-1.2,0.9
		c-0.7,1-0.5,2.4,0.5,3.2c0.8,0.5,1.8,0.8,2.8,0.8c1.1,0,2.2-0.2,3.2-0.7c0.9-0.5,1.6-1.2,2.1-2c0.4-0.9,0.6-1.9,0.5-2.8
		L762.6,725.9L762.6,725.9z"/>
	<path d="M769.3,729.3l3.1-0.4c0.1,1,0.6,1.9,1.5,2.6c1,0.6,2.1,1,3.3,0.9c1.1,0.1,2.3-0.2,3.2-0.8c0.6-0.4,1-1.1,1-1.8
		c0-0.6-0.3-1.2-0.9-1.5c-1-0.5-2.1-0.8-3.2-1c-1.6-0.3-3.2-0.8-4.8-1.4c-0.8-0.3-1.5-0.9-2-1.6c-0.5-0.7-0.7-1.4-0.7-2.2
		c0-0.7,0.2-1.4,0.6-2.1c0.4-0.6,0.9-1.2,1.5-1.6c0.6-0.4,1.3-0.6,2-0.8c0.9-0.2,1.8-0.3,2.7-0.3c1.3,0,2.6,0.2,3.8,0.6
		c0.9,0.3,1.8,0.8,2.4,1.5c0.6,0.8,1,1.6,1.1,2.6l-3,0.4c-0.1-0.8-0.5-1.5-1.2-2c-0.8-0.5-1.8-0.8-2.8-0.7c-1.1-0.1-2.1,0.1-3.1,0.6
		c-0.6,0.3-0.9,0.9-0.9,1.5c0,0.4,0.1,0.7,0.4,1c0.3,0.3,0.7,0.6,1.2,0.8c0.3,0.1,1.2,0.3,2.8,0.7s3.1,0.8,4.6,1.3
		c0.8,0.3,1.5,0.8,2,1.5s0.8,1.5,0.7,2.4c0,0.9-0.3,1.9-0.9,2.7c-0.6,0.9-1.6,1.5-2.6,1.9c-1.2,0.5-2.5,0.7-3.9,0.7
		c-1.9,0.1-3.9-0.4-5.5-1.3C770.4,732.3,769.6,730.9,769.3,729.3z"/>
	<path d="M788.3,734.3v-22.9h3.1v13.1l7.4-6.8h4l-7,6.2l7.8,10.4h-3.8l-6.1-8.5l-2.2,1.9v6.6H788.3z"/>
	<path d="M826.7,734.3h-3.1v-17.9c-0.9,0.7-1.9,1.4-3,1.9c-1.1,0.6-2.2,1.1-3.3,1.5V717c1.7-0.7,3.2-1.6,4.6-2.7
		c1.1-0.9,2.1-1.9,2.8-3.1h2V734.3z"/>
</g>
<g>
	<path d="M1205.2,733.3v-20.2h-8.4v-2.7h20.1v2.7h-8.4v20.2H1205.2z"/>
	<path d="M1214.9,725c0-3.1,0.9-5.4,2.8-6.8c1.6-1.2,3.7-1.9,5.8-1.8c2.3-0.1,4.6,0.7,6.2,2.2c1.7,1.7,2.6,3.9,2.4,6.2
		c0.1,1.7-0.3,3.4-1.1,5c-0.7,1.2-1.8,2.2-3.1,2.9c-1.4,0.7-2.9,1-4.4,1c-2.3,0.1-4.6-0.7-6.2-2.2
		C1215.7,729.9,1214.9,727.8,1214.9,725z M1218.1,725c-0.2,1.7,0.4,3.4,1.5,4.8c1.9,1.9,5.1,2.1,7.2,0.5c0.2-0.1,0.4-0.3,0.5-0.5
		c1.1-1.4,1.7-3.1,1.6-4.9c0.1-1.7-0.4-3.3-1.6-4.7c-1.9-1.9-5.1-2.1-7.3-0.4c-0.2,0.1-0.3,0.3-0.5,0.4
		C1218.5,721.6,1218,723.3,1218.1,725L1218.1,725z"/>
	<path d="M1235.8,733.3v-22.9h3.1v13.1l7.4-6.8h4l-7,6.2l7.8,10.4h-3.8l-6.1-8.5l-2.2,1.9v6.6H1235.8z"/>
	<path d="M1266.1,727.9l3.2,0.4c-0.4,1.6-1.4,3-2.8,4c-1.5,1-3.4,1.5-5.3,1.4c-2.4,0.1-4.7-0.7-6.4-2.2c-1.7-1.7-2.5-4-2.4-6.3
		c-0.2-2.4,0.7-4.7,2.4-6.5c1.6-1.5,3.9-2.4,6.2-2.3c2.3-0.1,4.5,0.8,6,2.3c1.7,1.8,2.5,4.1,2.3,6.4c0,0.2,0,0.4,0,0.8h-13.7
		c0,1.5,0.6,3,1.7,4.2c1,1,2.4,1.5,3.8,1.5c1,0,2.1-0.3,2.9-0.8C1265.1,729.9,1265.8,729,1266.1,727.9z M1255.9,723.4h10.2
		c0-1.1-0.4-2.2-1.2-3.1c-0.9-1.1-2.4-1.7-3.9-1.6c-1.4,0-2.7,0.4-3.6,1.3S1255.9,722.1,1255.9,723.4z"/>
	<path d="M1273.2,733.3v-16.6h2.8v2.3c1.3-1.8,3.5-2.8,5.8-2.7c1,0,2.1,0.2,3.1,0.5c0.8,0.3,1.5,0.8,2.1,1.4c0.5,0.6,0.8,1.3,1,2.1
		c0.1,0.9,0.2,1.8,0.2,2.7v10.2h-3.1v-10.1c0-0.9-0.1-1.7-0.4-2.6c-0.2-0.6-0.7-1-1.3-1.4c-0.7-0.3-1.4-0.5-2.2-0.5
		c-1.3,0-2.5,0.4-3.4,1.1c-1,0.8-1.5,2.2-1.5,4.3v9.1L1273.2,733.3z"/>
	<path d="M1291.7,726.4v-2.8h9.6v2.8H1291.7z"/>
	<path d="M1304.7,733.3v-22.9h3.1v22.9H1304.7z"/>
	<path d="M1325.2,727.9l3.2,0.4c-0.4,1.6-1.4,3-2.8,4c-1.5,1-3.4,1.5-5.3,1.4c-2.4,0.1-4.7-0.7-6.4-2.2c-1.7-1.7-2.5-4-2.4-6.3
		c-0.2-2.4,0.7-4.7,2.4-6.5c1.6-1.5,3.9-2.4,6.2-2.3c2.3-0.1,4.5,0.8,6,2.3c1.7,1.8,2.5,4.1,2.3,6.4c0,0.2,0,0.4,0,0.8h-13.7
		c0,1.5,0.6,3,1.7,4.2c1,1,2.4,1.5,3.8,1.5c1,0,2.1-0.3,2.9-0.8C1324.2,729.9,1324.9,729,1325.2,727.9z M1315,723.4h10.3
		c0-1.1-0.4-2.2-1.2-3.1c-0.9-1.1-2.4-1.7-3.9-1.6c-1.4,0-2.7,0.4-3.6,1.3C1315.6,720.8,1315,722.1,1315,723.4z"/>
	<path d="M1337.5,733.3l-7-16.6h3.3l4,9.9c0.4,1.1,0.8,2.2,1.2,3.3c0.3-0.9,0.6-1.9,1.1-3.2l4.1-10.1h3.2l-7,16.6L1337.5,733.3
		L1337.5,733.3z"/>
	<path d="M1362.7,727.9l3.2,0.4c-0.4,1.6-1.4,3-2.8,4c-1.5,1-3.4,1.5-5.3,1.4c-2.4,0.1-4.7-0.7-6.4-2.2c-1.7-1.7-2.5-4-2.4-6.3
		c-0.2-2.4,0.7-4.7,2.4-6.5c1.6-1.5,3.9-2.4,6.2-2.3c2.3-0.1,4.5,0.8,6,2.3c1.7,1.8,2.5,4.1,2.3,6.4c0,0.2,0,0.4,0,0.8h-13.7
		c0,1.5,0.6,3,1.7,4.2c1,1,2.4,1.5,3.8,1.5c1,0,2.1-0.3,2.9-0.8C1361.7,729.9,1362.3,729,1362.7,727.9z M1352.4,723.4h10.3
		c0-1.1-0.4-2.2-1.2-3.1c-0.9-1.1-2.4-1.7-3.9-1.6c-1.3,0-2.7,0.4-3.6,1.3C1353,720.9,1352.5,722.1,1352.4,723.4z"/>
	<path d="M1369.7,733.3v-22.9h3.1v22.9H1369.7z"/>
	<path d="M1399.5,727.2l3.1,0.4c-0.2,1.7-1.1,3.3-2.6,4.5c-1.4,1.1-3.2,1.7-5.1,1.6c-2.3,0.1-4.5-0.7-6.1-2.2
		c-1.6-1.8-2.5-4.1-2.3-6.4c0-1.6,0.3-3.2,1-4.7c0.6-1.3,1.7-2.3,3-3c1.4-0.7,2.9-1,4.4-1c1.8-0.1,3.5,0.4,4.9,1.4
		c1.3,1,2.2,2.4,2.4,3.9l-3,0.4c-0.2-1-0.7-1.8-1.5-2.5c-0.7-0.6-1.7-0.9-2.7-0.8c-1.5,0-2.9,0.5-3.8,1.5c-1.1,1.4-1.6,3.1-1.5,4.8
		c0,2.2,0.5,3.8,1.4,4.9c0.9,1,2.3,1.6,3.7,1.5c1.1,0,2.2-0.3,3.1-1C1398.9,729.5,1399.4,728.4,1399.5,727.2z"/>
	<path d="M1405.2,733.3v-22.9h3.1v22.9H1405.2z"/>
	<path d="M1425.1,731.2c-1,0.8-2.1,1.4-3.3,1.9c-1.1,0.4-2.3,0.5-3.4,0.5c-1.7,0.1-3.3-0.4-4.7-1.3c-1.1-0.9-1.7-2.1-1.6-3.4
		c0-0.8,0.2-1.5,0.6-2.2s0.9-1.2,1.6-1.6c0.7-0.4,1.4-0.7,2.2-0.9c0.9-0.2,1.8-0.3,2.8-0.4c1.9-0.2,3.7-0.5,5.5-1c0-0.4,0-0.6,0-0.7
		c0.1-0.9-0.2-1.8-0.9-2.4c-1-0.7-2.3-1.1-3.6-1c-1.1-0.1-2.3,0.2-3.2,0.7c-0.8,0.6-1.3,1.5-1.5,2.5l-3-0.4c0.2-1,0.7-2,1.4-2.8
		c0.7-0.8,1.7-1.4,2.8-1.7c1.3-0.4,2.8-0.6,4.2-0.6c1.3,0,2.6,0.1,3.8,0.5c0.8,0.2,1.6,0.7,2.2,1.3c0.5,0.6,0.8,1.3,1,2
		c0.1,0.9,0.2,1.7,0.2,2.6v3.8c-0.1,1.7,0,3.3,0.2,5c0.1,0.7,0.4,1.4,0.8,2h-3.2C1425.4,732.7,1425.2,732,1425.1,731.2z
		 M1424.9,724.9c-1.6,0.5-3.3,0.9-5.1,1.1c-0.9,0.1-1.8,0.3-2.7,0.6c-0.5,0.2-0.9,0.5-1.2,0.9c-0.3,0.4-0.4,0.9-0.4,1.3
		c0,0.7,0.3,1.4,0.9,1.9c0.8,0.5,1.8,0.8,2.8,0.8c1.1,0,2.2-0.2,3.2-0.7c0.9-0.5,1.6-1.2,2.1-2c0.4-0.9,0.6-1.9,0.5-2.8v-1.1H1424.9
		z"/>
	<path d="M1431.6,728.3l3.1-0.4c0.1,1,0.6,1.9,1.4,2.6c1,0.6,2.1,1,3.3,0.9c1.1,0.1,2.3-0.2,3.2-0.8c0.6-0.4,1-1.1,1-1.8
		c0-0.6-0.3-1.2-0.9-1.5c-1-0.5-2.1-0.8-3.2-1c-1.6-0.3-3.2-0.8-4.7-1.4c-0.8-0.3-1.5-0.9-2-1.6c-0.5-0.7-0.7-1.4-0.7-2.2
		c0-0.7,0.2-1.4,0.6-2.1c0.4-0.6,0.9-1.2,1.5-1.6c0.6-0.4,1.3-0.6,2-0.8c0.9-0.2,1.8-0.3,2.7-0.3c1.3,0,2.6,0.2,3.8,0.6
		c1,0.3,1.8,0.8,2.4,1.5c0.6,0.8,1,1.6,1.1,2.6l-3,0.4c-0.1-0.8-0.5-1.5-1.2-2c-0.8-0.5-1.8-0.8-2.8-0.7c-1.1-0.1-2.1,0.1-3.1,0.6
		c-0.6,0.3-0.9,0.9-0.9,1.5c0,0.4,0.1,0.7,0.4,1s0.7,0.6,1.2,0.8c0.3,0.1,1.2,0.3,2.7,0.7c1.6,0.4,3.1,0.8,4.6,1.3
		c0.8,0.3,1.5,0.8,2.1,1.5c0.5,0.7,0.8,1.6,0.7,2.4c0,0.9-0.3,1.9-0.9,2.7c-0.6,0.9-1.6,1.6-2.6,2c-1.2,0.5-2.5,0.7-3.9,0.7
		c-1.9,0.1-3.9-0.4-5.5-1.3C1432.7,731.3,1431.8,729.9,1431.6,728.3z"/>
	<path d="M1449.3,728.3l3.1-0.4c0.1,1,0.6,1.9,1.4,2.6c1,0.6,2.1,1,3.3,0.9c1.1,0.1,2.3-0.2,3.2-0.8c0.6-0.4,1-1.1,1-1.8
		c0-0.6-0.3-1.2-0.9-1.5c-1-0.5-2.1-0.8-3.2-1c-1.6-0.3-3.2-0.8-4.7-1.4c-0.8-0.3-1.5-0.9-2-1.6c-0.5-0.7-0.7-1.4-0.7-2.2
		c0-0.7,0.2-1.4,0.6-2.1c0.4-0.6,0.9-1.2,1.5-1.6c0.6-0.4,1.3-0.6,2-0.8c0.9-0.2,1.8-0.3,2.7-0.3c1.3,0,2.6,0.2,3.8,0.6
		c1,0.3,1.8,0.8,2.4,1.5c0.6,0.8,1,1.6,1.1,2.6l-3,0.4c-0.1-0.8-0.5-1.5-1.2-2c-0.8-0.5-1.8-0.8-2.8-0.7c-1.1-0.1-2.1,0.1-3.1,0.6
		c-0.6,0.3-0.9,0.9-0.9,1.5c0,0.4,0.1,0.7,0.4,1s0.7,0.6,1.2,0.8c0.3,0.1,1.2,0.3,2.7,0.7c1.6,0.4,3.1,0.8,4.6,1.3
		c0.8,0.3,1.5,0.8,2.1,1.5c0.5,0.7,0.8,1.6,0.7,2.4c0,0.9-0.3,1.9-0.9,2.7c-0.6,0.9-1.6,1.6-2.6,2c-1.2,0.5-2.5,0.7-3.9,0.7
		c-1.9,0.1-3.9-0.4-5.5-1.3C1450.4,731.3,1449.5,729.9,1449.3,728.3z"/>
	<path d="M1468.3,713.6v-3.2h3.1v3.2H1468.3z M1468.3,733.3v-16.6h3.1v16.6H1468.3z"/>
	<path d="M1476.9,733.3v-14.4h-2.7v-2.2h2.7v-1.8c0-0.8,0.1-1.7,0.3-2.5c0.3-0.7,0.9-1.4,1.6-1.8c1-0.5,2.1-0.7,3.2-0.7
		c1,0,1.9,0.1,2.9,0.3l-0.5,2.5c-0.6-0.1-1.2-0.1-1.8-0.2c-0.7-0.1-1.4,0.1-2,0.5c-0.5,0.6-0.7,1.3-0.6,2v1.5h3.6v2.2h-3.6v14.4
		L1476.9,733.3z"/>
	<path d="M1486,713.6v-3.2h3.1v3.2H1486z M1486,733.3v-16.6h3.1v16.6H1486z"/>
	<path d="M1506.5,727.9l3.2,0.4c-0.4,1.6-1.4,3-2.8,4c-1.5,1-3.4,1.5-5.3,1.4c-2.4,0.1-4.7-0.7-6.4-2.2c-1.7-1.7-2.5-4-2.4-6.3
		c-0.2-2.4,0.7-4.7,2.4-6.5c1.6-1.5,3.9-2.4,6.2-2.3c2.3-0.1,4.5,0.8,6,2.3c1.7,1.8,2.5,4.1,2.3,6.4c0,0.2,0,0.4,0,0.8H1496
		c0,1.5,0.6,3,1.7,4.2c1,1,2.4,1.5,3.8,1.5c1,0,2.1-0.3,2.9-0.8C1505.5,729.9,1506.2,729,1506.5,727.9z M1496.3,723.4h10.2
		c0-1.1-0.4-2.2-1.2-3.1c-0.9-1.1-2.4-1.7-3.9-1.6c-1.4,0-2.7,0.4-3.6,1.3C1496.9,720.8,1496.3,722.1,1496.3,723.4L1496.3,723.4z"/>
	<path d="M1513.6,733.3v-16.6h2.8v2.5c0.5-0.9,1.1-1.7,2-2.3c0.6-0.4,1.3-0.6,2-0.6c1.1,0,2.2,0.3,3.2,0.9l-1.1,2.6
		c-0.7-0.4-1.5-0.6-2.3-0.6c-0.7,0-1.3,0.2-1.8,0.6c-0.5,0.4-0.9,0.9-1.1,1.5c-0.4,1.1-0.5,2.2-0.5,3.3v8.7L1513.6,733.3z"/>
	<path d="M1536,733.3v-14.4h-2.8v-2.2h2.8v-1.8c0-0.8,0.1-1.7,0.3-2.5c0.3-0.7,0.9-1.4,1.6-1.8c1-0.5,2.1-0.7,3.2-0.7
		c1,0,2,0.1,2.9,0.3l-0.5,2.5c-0.6-0.1-1.2-0.1-1.8-0.2c-0.7-0.1-1.4,0.1-2,0.5c-0.5,0.6-0.7,1.3-0.6,2v1.5h3.6v2.2h-3.6v14.4
		L1536,733.3z"/>
	<path d="M1543.9,725c0-3.1,0.9-5.4,2.8-6.8c1.6-1.2,3.7-1.9,5.8-1.8c2.3-0.1,4.6,0.7,6.2,2.2c1.7,1.7,2.6,3.9,2.4,6.2
		c0.1,1.7-0.3,3.4-1.1,5c-0.7,1.2-1.8,2.2-3.1,2.9c-1.4,0.7-2.9,1-4.4,1c-2.3,0.1-4.6-0.7-6.2-2.2
		C1544.7,729.9,1543.9,727.8,1543.9,725z M1547.1,725c-0.2,1.7,0.4,3.4,1.5,4.8c1.9,1.9,5.1,2.1,7.2,0.5c0.2-0.1,0.4-0.3,0.5-0.5
		c1.1-1.4,1.7-3.1,1.6-4.9c0.1-1.7-0.4-3.3-1.6-4.7c-1.9-1.9-5.1-2.1-7.3-0.4c-0.2,0.1-0.3,0.3-0.5,0.4
		C1547.6,721.6,1547,723.3,1547.1,725L1547.1,725z"/>
	<path d="M1564.8,733.3v-16.6h2.8v2.5c0.5-0.9,1.1-1.7,2-2.3c0.6-0.4,1.3-0.6,2-0.6c1.1,0,2.2,0.3,3.2,0.9l-1.1,2.6
		c-0.7-0.4-1.5-0.6-2.3-0.6c-0.7,0-1.3,0.2-1.8,0.6c-0.5,0.4-0.9,0.9-1.1,1.5c-0.4,1.1-0.5,2.2-0.5,3.3v8.7L1564.8,733.3z"/>
	<path d="M1593.3,730.8l0.5,2.5c-0.8,0.2-1.6,0.2-2.4,0.3c-0.9,0-1.8-0.1-2.6-0.5c-0.6-0.3-1-0.7-1.3-1.3c-0.3-1.1-0.5-2.2-0.4-3.3
		V719h-2.3v-2.2h2.3v-4.1l3.1-1.7v5.8h3.1v2.2h-3.1v9.7c0,0.5,0,1,0.2,1.5c0.1,0.2,0.3,0.4,0.5,0.5c0.3,0.2,0.7,0.2,1.1,0.2
		C1592.4,730.9,1592.8,730.8,1593.3,730.8z"/>
	<path d="M1608.3,731.2c-1,0.8-2.1,1.4-3.3,1.9c-1.1,0.4-2.3,0.5-3.4,0.5c-1.7,0.1-3.3-0.4-4.7-1.3c-1.1-0.9-1.7-2.1-1.6-3.4
		c0-0.8,0.2-1.5,0.6-2.2c0.4-0.6,0.9-1.2,1.6-1.6c0.7-0.4,1.4-0.7,2.2-0.9c0.9-0.2,1.8-0.3,2.8-0.4c1.9-0.2,3.7-0.5,5.5-1
		c0-0.4,0-0.6,0-0.7c0.1-0.9-0.2-1.8-0.9-2.4c-1-0.7-2.3-1.1-3.5-1c-1.1-0.1-2.3,0.2-3.2,0.7c-0.8,0.6-1.4,1.5-1.6,2.5l-3-0.4
		c0.2-1,0.7-2,1.4-2.8c0.7-0.8,1.7-1.4,2.7-1.7c1.3-0.4,2.8-0.6,4.2-0.6c1.3,0,2.6,0.1,3.8,0.5c0.9,0.2,1.6,0.7,2.2,1.3
		c0.5,0.6,0.8,1.2,1,1.9c0.1,0.9,0.2,1.7,0.2,2.6v3.8c-0.1,1.7,0,3.3,0.2,5c0.1,0.7,0.4,1.4,0.8,2h-3.3
		C1608.6,732.6,1608.4,731.9,1608.3,731.2z M1608.1,724.9c-1.6,0.5-3.4,0.9-5.1,1.1c-0.9,0.1-1.8,0.3-2.7,0.6
		c-0.5,0.2-0.9,0.5-1.2,0.9c-0.7,1-0.5,2.4,0.5,3.2c0.8,0.5,1.8,0.8,2.8,0.8c1.1,0,2.2-0.2,3.2-0.7c0.9-0.5,1.6-1.2,2.1-2
		c0.4-0.9,0.6-1.9,0.5-2.8v-1.1H1608.1z"/>
	<path d="M1614.8,728.3l3.1-0.4c0.1,1,0.6,1.9,1.5,2.6c1,0.6,2.1,1,3.3,0.9c1.1,0.1,2.3-0.2,3.2-0.8c0.6-0.4,1-1.1,1-1.8
		c0-0.6-0.3-1.2-0.9-1.5c-1-0.5-2.1-0.8-3.2-1c-1.6-0.3-3.2-0.8-4.8-1.4c-0.8-0.3-1.5-0.9-2-1.6c-0.5-0.7-0.7-1.4-0.7-2.2
		c0-0.7,0.2-1.4,0.6-2.1c0.4-0.6,0.9-1.2,1.5-1.6c0.6-0.4,1.3-0.6,2-0.8c0.9-0.2,1.8-0.3,2.7-0.3c1.3,0,2.6,0.2,3.8,0.6
		c0.9,0.3,1.8,0.8,2.4,1.5c0.6,0.8,1,1.6,1.1,2.6l-3,0.4c-0.1-0.8-0.5-1.5-1.2-2c-0.8-0.5-1.8-0.8-2.8-0.7c-1.1-0.1-2.1,0.1-3.1,0.6
		c-0.6,0.3-0.9,0.9-0.9,1.5c0,0.4,0.1,0.7,0.4,1s0.7,0.6,1.2,0.8c0.3,0.1,1.2,0.3,2.8,0.7c1.6,0.4,3.1,0.8,4.6,1.3
		c0.8,0.3,1.5,0.8,2,1.5s0.8,1.5,0.7,2.4c0,0.9-0.3,1.9-0.9,2.7c-0.6,0.9-1.6,1.5-2.6,1.9c-1.2,0.5-2.5,0.7-3.9,0.7
		c-1.9,0.1-3.9-0.4-5.5-1.3C1615.9,731.3,1615,729.9,1614.8,728.3z"/>
	<path d="M1633.8,733.3v-22.9h3.1v13.1l7.4-6.8h4l-7,6.2l7.8,10.4h-3.8l-6.1-8.5l-2.2,1.9v6.6H1633.8z"/>
	<path d="M1676.8,730.6v2.7H1660c0-0.7,0.1-1.4,0.4-2c0.5-1.1,1.2-2.1,2-3c1.2-1.3,2.6-2.4,4.1-3.5c2-1.4,3.9-3.1,5.5-4.8
		c0.9-1,1.4-2.1,1.5-3.4c0-1.1-0.5-2.1-1.3-2.8c-0.9-0.8-2.2-1.2-3.5-1.1c-1.3-0.1-2.6,0.4-3.6,1.2c-0.9,0.9-1.4,2.1-1.4,3.4
		l-3.2-0.3c0.1-1.9,1-3.6,2.5-4.9c1.6-1.2,3.7-1.8,5.8-1.7c2.1-0.1,4.2,0.6,5.8,1.8c1.4,1.2,2.2,2.8,2.1,4.5c0,0.9-0.2,1.8-0.6,2.7
		c-0.5,1-1.2,2-2.1,2.8c-1.5,1.4-3.1,2.8-4.8,4c-1.9,1.4-3.1,2.4-3.6,2.9s-0.9,1-1.3,1.5L1676.8,730.6z"/>
</g>
<g>
	<path d="M883.9,510.4v-20.2h-8.4v-2.7h20.1v2.7h-8.4v20.2H883.9z"/>
	<path d="M897.4,510.4v-16.6h2.8v2.5c0.5-0.9,1.1-1.7,2-2.3c0.6-0.4,1.3-0.6,2-0.6c1.1,0,2.2,0.3,3.2,0.9l-1.1,2.6
		c-0.7-0.4-1.5-0.6-2.3-0.6c-0.7,0-1.3,0.2-1.8,0.6s-0.9,0.9-1.1,1.5c-0.4,1.1-0.5,2.2-0.5,3.3v8.7H897.4z"/>
	<path d="M921.2,508.4c-1,0.8-2.1,1.4-3.3,1.9c-1.1,0.4-2.3,0.6-3.4,0.5c-1.7,0.1-3.4-0.4-4.7-1.3c-1.1-0.9-1.7-2.1-1.6-3.4
		c0-0.8,0.2-1.5,0.6-2.2c0.4-0.6,0.9-1.2,1.6-1.6c0.7-0.4,1.4-0.7,2.2-0.9c0.9-0.2,1.8-0.3,2.8-0.4c1.9-0.2,3.7-0.5,5.5-1
		c0-0.4,0-0.6,0-0.7c0.1-0.9-0.2-1.8-0.9-2.4c-1-0.7-2.3-1.1-3.5-1c-1.1-0.1-2.3,0.2-3.2,0.7c-0.8,0.6-1.4,1.5-1.6,2.5l-3-0.4
		c0.2-1,0.7-2,1.4-2.9c0.7-0.8,1.7-1.4,2.8-1.7c1.3-0.4,2.8-0.6,4.2-0.6c1.3,0,2.6,0.1,3.8,0.5c0.8,0.2,1.6,0.7,2.2,1.3
		c0.5,0.6,0.8,1.2,1,1.9c0.1,0.9,0.2,1.7,0.2,2.6v3.8c-0.1,1.7,0,3.3,0.2,5c0.1,0.7,0.4,1.4,0.8,2h-3.2
		C921.5,509.7,921.3,509.1,921.2,508.4z M921,502.1c-1.6,0.5-3.4,0.9-5.1,1.1c-0.9,0.1-1.8,0.3-2.7,0.6c-0.5,0.2-0.9,0.5-1.2,0.9
		s-0.4,0.9-0.4,1.3c0,0.7,0.3,1.4,1,1.9c0.8,0.5,1.8,0.8,2.8,0.8c1.1,0,2.2-0.2,3.2-0.7c0.9-0.4,1.6-1.1,2.1-2
		c0.4-0.9,0.6-1.9,0.5-2.8L921,502.1z"/>
	<path d="M928.9,510.4v-16.6h2.8v2.4c1.3-1.8,3.5-2.8,5.9-2.7c1,0,2.1,0.2,3,0.5c0.8,0.3,1.6,0.8,2.1,1.4s0.8,1.3,1,2.1
		c0.1,0.9,0.2,1.8,0.2,2.7v10.2h-3.1v-10.1c0-0.9-0.1-1.7-0.4-2.6c-0.2-0.6-0.7-1.1-1.3-1.4c-0.7-0.4-1.4-0.5-2.2-0.5
		c-1.3,0-2.5,0.4-3.4,1.1c-1,0.8-1.4,2.2-1.4,4.3v9.1L928.9,510.4z"/>
	<path d="M947.4,505.5l3.1-0.4c0.1,1,0.6,1.9,1.4,2.6c1,0.6,2.1,1,3.3,0.9c1.1,0.1,2.3-0.2,3.2-0.8c0.6-0.4,1-1.1,1-1.9
		c0-0.6-0.3-1.2-0.9-1.5c-1-0.4-2.1-0.8-3.2-1c-1.6-0.3-3.2-0.8-4.8-1.4c-0.8-0.3-1.5-0.9-2-1.6s-0.7-1.4-0.7-2.2
		c0-0.7,0.2-1.4,0.6-2.1c0.4-0.6,0.9-1.2,1.5-1.6s1.3-0.6,2-0.8c0.9-0.2,1.8-0.3,2.7-0.3c1.3,0,2.6,0.2,3.8,0.6
		c1,0.3,1.8,0.8,2.4,1.5c0.6,0.8,1,1.6,1.1,2.6l-3,0.4c-0.1-0.8-0.5-1.5-1.2-2c-0.8-0.5-1.8-0.8-2.8-0.7c-1.1-0.1-2.1,0.1-3.1,0.6
		c-0.6,0.3-0.9,0.9-0.9,1.5c0,0.4,0.1,0.7,0.4,1c0.3,0.3,0.7,0.6,1.2,0.8c0.3,0.1,1.2,0.4,2.8,0.7c1.6,0.3,3.1,0.8,4.6,1.3
		c0.8,0.3,1.5,0.8,2,1.5s0.8,1.6,0.8,2.4c0,0.9-0.3,1.9-0.9,2.6c-0.6,0.9-1.6,1.5-2.6,1.9c-1.2,0.5-2.5,0.7-3.9,0.7
		c-1.9,0.1-3.9-0.4-5.5-1.3C948.5,508.4,947.7,507,947.4,505.5z"/>
	<path d="M967.1,510.4V496h-2.7v-2.2h2.7V492c0-0.8,0.1-1.7,0.3-2.5c0.3-0.7,0.9-1.4,1.6-1.8c1-0.5,2.1-0.7,3.2-0.7
		c1,0,1.9,0.1,2.9,0.3l-0.5,2.5c-0.6-0.1-1.2-0.1-1.8-0.1c-0.7-0.1-1.4,0.1-2,0.5c-0.5,0.6-0.7,1.3-0.6,2v1.5h3.6v2.2h-3.6v14.4
		L967.1,510.4z"/>
	<path d="M975.1,502.1c0-3.1,0.9-5.3,2.8-6.8c1.6-1.2,3.7-1.9,5.8-1.8c2.3-0.1,4.6,0.7,6.2,2.2c1.7,1.7,2.6,3.9,2.4,6.2
		c0.1,1.7-0.3,3.4-1.1,5c-0.7,1.2-1.8,2.2-3.1,2.9c-1.4,0.7-2.9,1-4.4,1c-2.3,0.1-4.6-0.7-6.2-2.2
		C975.8,506.7,974.9,504.4,975.1,502.1z M978.3,502.1c-0.1,1.7,0.4,3.4,1.6,4.8c1.8,1.9,5.1,2.1,7.2,0.5c0.2-0.1,0.4-0.3,0.5-0.5
		c1.2-1.4,1.7-3.1,1.6-4.9c0.1-1.7-0.4-3.3-1.6-4.7c-1.8-1.9-5.1-2.1-7.2-0.5c-0.2,0.1-0.4,0.3-0.5,0.5
		C978.7,498.7,978.1,500.4,978.3,502.1z"/>
	<path d="M995.9,510.4v-16.6h2.8v2.5c0.5-0.9,1.1-1.7,2-2.3c0.6-0.4,1.3-0.6,2-0.6c1.1,0,2.2,0.3,3.2,0.9l-1.1,2.6
		c-0.7-0.4-1.5-0.6-2.3-0.6c-0.7,0-1.3,0.2-1.8,0.6s-0.9,0.9-1.1,1.5c-0.4,1.1-0.5,2.2-0.5,3.3v8.7H995.9z"/>
	<path d="M1007.8,510.4v-16.6h2.8v2.3c0.6-0.8,1.4-1.5,2.3-2c1-0.5,2.2-0.8,3.3-0.7c1.2,0,2.3,0.2,3.3,0.8c0.9,0.5,1.5,1.3,1.8,2.1
		c1.2-1.8,3.3-2.9,5.7-2.9c1.6-0.1,3.1,0.4,4.2,1.4c1.1,1.2,1.6,2.7,1.5,4.2v11.4h-3.1V500c0-0.8-0.1-1.6-0.3-2.4
		c-0.2-0.5-0.6-0.9-1.1-1.2c-0.6-0.3-1.2-0.5-1.9-0.5c-1.2,0-2.4,0.4-3.2,1.2c-1,1-1.4,2.4-1.3,3.7v9.6h-3.1v-10.8
		c0.1-1-0.2-2-0.8-2.8c-0.6-0.7-1.5-1-2.5-0.9c-0.9,0-1.7,0.2-2.4,0.6c-0.8,0.4-1.3,1.1-1.6,1.8c-0.4,1.1-0.6,2.3-0.5,3.5v8.6
		L1007.8,510.4z"/>
	<path d="M1049.9,505.1l3.2,0.4c-0.4,1.6-1.4,3-2.8,4c-3.6,2.2-8.4,1.8-11.7-0.8c-1.7-1.7-2.5-4-2.4-6.3c-0.2-2.4,0.7-4.7,2.4-6.5
		c1.6-1.5,3.9-2.4,6.2-2.3c2.3-0.1,4.5,0.8,6,2.3c1.7,1.8,2.5,4.1,2.3,6.4c0,0.2,0,0.4,0,0.8h-13.7c0,1.5,0.6,3,1.7,4.2
		c1,1,2.4,1.5,3.8,1.5c1.1,0,2.1-0.3,2.9-0.8C1048.9,507,1049.5,506.1,1049.9,505.1z M1039.7,500.5h10.3c0-1.1-0.4-2.2-1.2-3.1
		c-0.9-1.1-2.4-1.7-3.9-1.6c-1.3,0-2.6,0.4-3.6,1.3C1040.3,498,1039.7,499.2,1039.7,500.5L1039.7,500.5z"/>
	<path d="M1057,510.4v-16.6h2.8v2.5c0.5-0.9,1.1-1.7,2-2.3c0.6-0.4,1.3-0.6,2-0.6c1.1,0,2.2,0.3,3.2,0.9l-1.1,2.6
		c-0.7-0.4-1.5-0.6-2.3-0.6c-0.7,0-1.3,0.2-1.8,0.6s-0.9,0.9-1.1,1.5c-0.4,1.1-0.5,2.2-0.5,3.3v8.7H1057z"/>
	<path d="M1067.6,505.5l3.1-0.4c0.1,1,0.6,1.9,1.4,2.6c1,0.6,2.1,1,3.3,0.9c1.1,0.1,2.3-0.2,3.2-0.8c0.6-0.4,1-1.1,1-1.9
		c0-0.6-0.3-1.2-0.9-1.5c-1-0.5-2.1-0.8-3.2-1c-1.6-0.3-3.2-0.8-4.8-1.4c-1.7-0.7-2.7-2.2-2.7-3.8c0-0.7,0.2-1.4,0.6-2.1
		c0.4-0.6,0.9-1.2,1.5-1.6s1.3-0.6,2-0.8c0.9-0.2,1.8-0.3,2.7-0.3c1.3,0,2.6,0.2,3.8,0.6c1,0.3,1.8,0.8,2.4,1.5
		c0.6,0.8,1,1.6,1.1,2.6l-3,0.4c-0.1-0.8-0.5-1.5-1.2-2c-0.8-0.5-1.8-0.8-2.8-0.7c-1.1-0.1-2.1,0.1-3.1,0.6
		c-0.6,0.3-0.9,0.9-0.9,1.5c0,0.4,0.1,0.7,0.4,1s0.7,0.6,1.2,0.8c0.3,0.1,1.2,0.4,2.7,0.7c1.6,0.3,3.1,0.8,4.6,1.3
		c0.8,0.3,1.5,0.8,2,1.5s0.8,1.6,0.7,2.4c0,0.9-0.3,1.9-0.9,2.6c-0.6,0.9-1.6,1.5-2.6,1.9c-1.2,0.5-2.5,0.7-3.9,0.7
		c-1.9,0.1-3.9-0.4-5.5-1.3C1068.7,508.4,1067.8,507,1067.6,505.5z"/>
</g>
<g>
	<path d="M837.7,438.2v-22.9H856v2.7h-15v7h14.1v2.7H841v7.8h15.6v2.7L837.7,438.2z"/>
	<path d="M860.9,438.2v-16.6h2.8v2.4c0.6-0.8,1.4-1.5,2.3-2c1-0.5,2.2-0.8,3.3-0.7c1.2,0,2.3,0.2,3.3,0.8c0.9,0.5,1.5,1.3,1.8,2.1
		c1.2-1.8,3.3-2.9,5.7-2.9c1.6-0.1,3.1,0.4,4.2,1.4c1.1,1.2,1.6,2.7,1.5,4.2v11.4h-3.1v-10.5c0-0.8-0.1-1.6-0.3-2.4
		c-0.2-0.5-0.6-0.9-1.1-1.2c-0.6-0.3-1.2-0.5-1.9-0.5c-1.2,0-2.4,0.4-3.2,1.2c-1,1-1.4,2.4-1.3,3.7v9.6h-3.2v-10.8
		c0.1-1-0.2-2-0.8-2.8c-0.6-0.7-1.5-1-2.5-0.9c-0.9,0-1.7,0.2-2.4,0.6c-0.8,0.4-1.3,1.1-1.6,1.8c-0.4,1.1-0.6,2.3-0.5,3.5v8.6
		L860.9,438.2L860.9,438.2z"/>
	<path d="M893.3,438.2h-2.9v-22.9h3.1v8.2c1.2-1.4,3.1-2.3,5-2.2c1.1,0,2.2,0.2,3.2,0.6s1.8,1,2.5,1.7c0.7,0.8,1.2,1.7,1.5,2.7
		c0.4,1.1,0.6,2.2,0.6,3.4c0.2,2.4-0.7,4.7-2.3,6.6c-1.4,1.5-3.5,2.3-5.6,2.3s-4-0.9-5.1-2.5V438.2z M893.3,429.8
		c-0.1,1.5,0.2,3,0.9,4.3c1.1,2,3.8,2.8,6,1.8c0.6-0.3,1.1-0.7,1.6-1.2c1.9-2.9,1.9-6.6,0-9.6c-0.8-1-2.1-1.6-3.5-1.5
		c-1.4,0-2.7,0.6-3.5,1.6C893.6,426.5,893.1,428.1,893.3,429.8L893.3,429.8z"/>
	<path d="M922.7,432.9l3.2,0.4c-0.4,1.6-1.4,3-2.8,4c-3.6,2.2-8.4,1.8-11.7-0.8c-1.7-1.7-2.5-4-2.4-6.3c-0.2-2.4,0.7-4.7,2.4-6.5
		c1.6-1.5,3.9-2.4,6.2-2.3c2.3-0.1,4.5,0.8,6,2.3c1.7,1.8,2.5,4.1,2.3,6.4c0,0.2,0,0.4,0,0.8h-13.7c0,1.5,0.6,3,1.7,4.2
		c1,1,2.4,1.5,3.8,1.5c1,0,2.1-0.3,2.9-0.8C921.7,434.8,922.3,433.9,922.7,432.9z M912.5,428.3h10.2c0-1.1-0.4-2.2-1.2-3.1
		c-0.9-1.1-2.4-1.7-3.9-1.6c-1.4,0-2.7,0.4-3.6,1.3C913,425.8,912.5,427,912.5,428.3z"/>
	<path d="M941.7,438.2v-2.1c-1.1,1.6-3.1,2.6-5.1,2.5c-1.4,0-2.8-0.4-4-1.1c-1.3-0.8-2.2-1.8-2.9-3.1c-0.7-1.4-1-3-1-4.5
		s0.3-3.1,0.9-4.5c0.5-1.3,1.5-2.4,2.7-3.1s2.6-1.1,4.1-1.1c2,0,3.9,0.8,5.1,2.3v-8.2h3.1v22.9L941.7,438.2L941.7,438.2z
		 M931.9,429.9c-0.1,1.7,0.4,3.4,1.5,4.8c0.8,1,2.1,1.6,3.5,1.6s2.6-0.6,3.5-1.5c1.1-1.3,1.6-3,1.4-4.6c0-2.3-0.5-3.9-1.5-5
		c-0.8-1-2.2-1.6-3.6-1.6c-1.4,0-2.6,0.6-3.5,1.5C932.2,426.5,931.7,428.2,931.9,429.9z"/>
	<path d="M961.5,438.2v-2.1c-1.1,1.6-3.1,2.6-5.1,2.5c-1.4,0-2.8-0.4-4-1.1c-1.3-0.8-2.2-1.8-2.9-3.1c-0.7-1.4-1-3-1-4.5
		s0.3-3.1,0.9-4.5c0.5-1.3,1.5-2.4,2.8-3.1c1.2-0.7,2.6-1.1,4.1-1.1c2,0,3.9,0.8,5.1,2.3v-8.2h3.1v22.9L961.5,438.2L961.5,438.2z
		 M951.6,429.9c-0.1,1.7,0.4,3.4,1.5,4.8c0.8,1,2.1,1.6,3.5,1.6s2.6-0.6,3.5-1.5c1.1-1.3,1.6-3,1.4-4.6c0-2.3-0.5-3.9-1.5-5
		c-0.8-1-2.2-1.6-3.6-1.6c-1.4,0-2.7,0.6-3.5,1.5C952,426.5,951.5,428.2,951.6,429.9z"/>
	<path d="M969.2,418.5v-3.2h3.1v3.2H969.2z M969.2,438.2v-16.6h3.1v16.6H969.2z"/>
	<path d="M977.1,438.2v-16.6h2.8v2.4c1.3-1.8,3.5-2.8,5.8-2.7c1,0,2.1,0.2,3.1,0.5c0.8,0.3,1.5,0.8,2.1,1.4c0.5,0.6,0.8,1.3,1,2.1
		c0.1,0.9,0.2,1.8,0.2,2.7v10.2H989v-10.1c0-0.9-0.1-1.7-0.4-2.6c-0.2-0.6-0.7-1.1-1.3-1.4c-0.7-0.4-1.4-0.5-2.2-0.5
		c-1.3,0-2.5,0.4-3.4,1.1c-1,0.8-1.5,2.2-1.5,4.3v9.1h-3.1V438.2z"/>
	<path d="M996.3,439.6l3,0.4c0.1,0.7,0.5,1.4,1.1,1.8c0.9,0.6,2,0.8,3.2,0.8c1.2,0.1,2.3-0.2,3.3-0.8c0.8-0.5,1.4-1.3,1.6-2.2
		c0.2-1.2,0.3-2.4,0.2-3.6c-1.2,1.4-3.1,2.2-5.1,2.2c-2.3,0.1-4.5-0.8-5.9-2.5s-2.1-3.8-2.1-5.9c0-1.5,0.3-3,1-4.4
		c0.6-1.3,1.5-2.3,2.8-3.1c1.3-0.7,2.7-1.1,4.2-1.1c2.1,0,4.1,0.9,5.4,2.4v-2h2.9V436c0.1,1.9-0.2,3.7-0.9,5.5
		c-0.6,1.1-1.6,2-2.8,2.5c-1.4,0.7-3.1,1-4.7,1c-1.9,0.1-3.7-0.4-5.3-1.3C996.8,442.7,996.1,441.2,996.3,439.6z M998.9,429.6
		c-0.2,1.7,0.3,3.4,1.4,4.8c1.7,1.8,4.7,2,6.7,0.5c0.2-0.1,0.4-0.3,0.5-0.5c1.1-1.3,1.6-3,1.5-4.7c0.1-1.6-0.4-3.3-1.5-4.6
		c-0.9-1-2.2-1.5-3.6-1.5c-1.4,0-2.7,0.6-3.5,1.5C999.2,426.4,998.7,428,998.9,429.6L998.9,429.6z"/>
	<path d="M1015.3,433.3l3.1-0.4c0.1,1,0.6,1.9,1.4,2.6c1,0.6,2.1,1,3.3,0.9c1.1,0.1,2.3-0.2,3.2-0.8c0.6-0.4,1-1.1,1-1.9
		c0-0.6-0.3-1.2-0.9-1.5c-1-0.5-2.1-0.8-3.2-1c-1.6-0.3-3.2-0.8-4.7-1.4c-0.8-0.3-1.5-0.9-2-1.6s-0.7-1.4-0.7-2.2
		c0-0.7,0.2-1.4,0.6-2.1c0.4-0.6,0.9-1.2,1.5-1.6s1.3-0.6,2-0.8c0.9-0.2,1.8-0.3,2.7-0.3c1.3,0,2.6,0.2,3.8,0.6
		c1,0.3,1.8,0.8,2.4,1.5c0.6,0.8,1,1.6,1.1,2.6l-3,0.4c-0.1-0.8-0.5-1.5-1.2-2c-0.8-0.5-1.8-0.8-2.8-0.7c-1.1-0.1-2.1,0.1-3.1,0.6
		c-0.6,0.3-0.9,0.9-0.9,1.5c0,0.4,0.1,0.7,0.4,1c0.3,0.3,0.7,0.6,1.2,0.8c0.3,0.1,1.2,0.4,2.7,0.7c1.6,0.3,3.1,0.8,4.6,1.3
		c0.8,0.3,1.5,0.8,2.1,1.5c0.5,0.7,0.8,1.6,0.7,2.4c0,0.9-0.3,1.9-0.9,2.6c-0.6,0.9-1.6,1.5-2.6,1.9c-1.2,0.5-2.5,0.7-3.9,0.7
		c-1.9,0.1-3.9-0.4-5.5-1.3C1016.4,436.2,1015.5,434.8,1015.3,433.3z"/>
	<path d="M1044.4,438.2v-22.9h3.3v20.2h12.5v2.7L1044.4,438.2z"/>
	<path d="M1075.8,436.2c-1,0.8-2.1,1.4-3.3,1.9c-1.1,0.4-2.3,0.6-3.4,0.5c-1.7,0.1-3.4-0.4-4.7-1.3c-1.1-0.9-1.7-2.1-1.6-3.4
		c0-0.8,0.2-1.5,0.6-2.2c0.4-0.6,0.9-1.2,1.6-1.6s1.4-0.7,2.2-0.9c0.9-0.2,1.8-0.3,2.8-0.4c1.9-0.2,3.7-0.5,5.5-1c0-0.4,0-0.6,0-0.7
		c0.1-0.9-0.2-1.8-0.9-2.4c-1-0.7-2.3-1.1-3.5-1c-1.1-0.1-2.3,0.2-3.2,0.7c-0.8,0.6-1.4,1.5-1.6,2.5l-3-0.4c0.2-1,0.7-2,1.4-2.9
		c0.7-0.8,1.7-1.4,2.8-1.7c1.3-0.4,2.8-0.6,4.2-0.6c1.3,0,2.6,0.1,3.8,0.5c0.8,0.2,1.6,0.7,2.2,1.3c0.5,0.6,0.8,1.2,1,1.9
		c0.1,0.9,0.2,1.7,0.2,2.6v3.8c-0.1,1.7,0,3.3,0.2,5c0.1,0.7,0.4,1.4,0.8,2h-3.3C1076.1,437.6,1075.9,436.9,1075.8,436.2z
		 M1075.6,429.9c-1.6,0.5-3.4,0.9-5.1,1.1c-0.9,0.1-1.8,0.3-2.7,0.6c-0.5,0.2-0.9,0.5-1.2,0.9c-0.7,1-0.5,2.4,0.5,3.2
		c0.8,0.5,1.8,0.8,2.8,0.8c1.1,0,2.2-0.2,3.2-0.7c0.9-0.4,1.6-1.1,2.1-2c0.4-0.9,0.6-1.9,0.5-2.8v-1.1H1075.6z"/>
	<path d="M1083.4,444.6l-0.3-2.6c0.6,0.2,1.2,0.2,1.8,0.3c0.6,0,1.1-0.1,1.7-0.3c0.4-0.2,0.8-0.5,1-0.9c0.4-0.7,0.7-1.4,1-2.1
		c0-0.1,0.1-0.4,0.3-0.7l-7-16.6h3.3l3.8,9.6c0.5,1.2,0.9,2.5,1.3,3.8c0.4-1.3,0.8-2.5,1.3-3.8l3.9-9.7h3.1l-7,16.9
		c-0.5,1.3-1.1,2.5-1.8,3.8c-0.4,0.8-1.1,1.5-1.9,2c-0.8,0.4-1.7,0.7-2.6,0.6C1084.7,444.9,1084.1,444.8,1083.4,444.6z"/>
	<path d="M1113.9,432.9l3.2,0.4c-0.4,1.6-1.4,3-2.8,4c-3.6,2.2-8.4,1.8-11.7-0.8c-1.7-1.7-2.5-4-2.4-6.3c-0.2-2.4,0.7-4.7,2.4-6.5
		c1.6-1.5,3.9-2.4,6.2-2.3c2.3-0.1,4.5,0.8,6,2.3c1.7,1.8,2.5,4.1,2.3,6.4c0,0.2,0,0.4,0,0.8h-13.7c0,1.5,0.6,3,1.7,4.2
		c1,1,2.4,1.5,3.8,1.5c1,0,2.1-0.3,2.9-0.8C1112.9,434.8,1113.5,433.9,1113.9,432.9z M1103.6,428.3h10.3c0-1.1-0.4-2.2-1.2-3.1
		c-0.9-1.1-2.4-1.7-3.9-1.6c-1.3,0-2.7,0.4-3.6,1.3C1104.2,425.8,1103.7,427,1103.6,428.3z"/>
	<path d="M1121,438.2v-16.6h2.8v2.5c0.5-0.9,1.1-1.7,2-2.3c0.6-0.4,1.3-0.6,2-0.6c1.1,0,2.2,0.3,3.2,0.9l-1.1,2.6
		c-0.7-0.4-1.5-0.6-2.3-0.6c-0.7,0-1.3,0.2-1.8,0.6s-0.9,0.9-1.1,1.5c-0.4,1.1-0.5,2.2-0.5,3.3v8.7H1121z"/>
</g>
<g>
	<g>
		<path d="M44.7,757.3v-20.2h-7.5v-2.7h18.1v2.7h-7.6v20.2H44.7z"/>
		<path d="M53.5,749c0-3.1,0.8-5.3,2.6-6.8c1.5-1.2,3.3-1.9,5.2-1.8c2.1-0.1,4.1,0.7,5.6,2.2c1.5,1.7,2.3,3.9,2.2,6.2
			c0.1,1.7-0.3,3.4-1,5c-0.6,1.2-1.6,2.2-2.8,2.8c-1.2,0.7-2.6,1-4,1c-2.1,0.1-4.2-0.7-5.6-2.2C54.2,754,53.5,751.9,53.5,749z
			 M56.4,749c-0.1,1.7,0.4,3.4,1.4,4.8c0.9,1,2.2,1.6,3.5,1.6s2.6-0.6,3.5-1.6c1-1.4,1.5-3.1,1.4-4.9c0.1-1.7-0.4-3.3-1.4-4.7
			c-1.7-1.9-4.6-2.1-6.5-0.5c-0.2,0.1-0.3,0.3-0.5,0.5C56.7,745.7,56.2,747.4,56.4,749L56.4,749z"/>
		<path d="M72.3,757.3v-22.9h2.8v13.1l6.7-6.8h3.6l-6.4,6.2l7,10.4h-3.5l-5.5-8.5l-2,1.9v6.6H72.3z"/>
		<path d="M99.7,752l2.9,0.4c-0.4,1.6-1.3,3-2.6,4c-3.3,2.2-7.6,1.8-10.5-0.8c-1.5-1.7-2.3-4-2.1-6.3c-0.1-2.4,0.6-4.7,2.2-6.5
			c1.4-1.5,3.5-2.4,5.6-2.3c2.1-0.1,4,0.8,5.4,2.3c1.5,1.8,2.3,4.1,2.1,6.4c0,0.2,0,0.4,0,0.8H90.3c0,1.5,0.5,3,1.6,4.2
			c0.9,1,2.2,1.5,3.5,1.5c0.9,0,1.9-0.3,2.6-0.8C98.8,754,99.4,753,99.7,752z M90.4,747.5h9.3c0-1.1-0.4-2.2-1.1-3.1
			c-0.8-1.1-2.1-1.7-3.5-1.6c-1.2,0-2.4,0.4-3.3,1.3C91,744.9,90.5,746.2,90.4,747.5L90.4,747.5z"/>
		<path d="M106.1,757.3v-16.6h2.5v2.4c1.2-1.8,3.2-2.8,5.3-2.7c0.9,0,1.9,0.2,2.8,0.5c0.7,0.3,1.4,0.8,1.9,1.4
			c0.4,0.6,0.7,1.3,0.9,2.1c0.1,0.9,0.2,1.8,0.1,2.7v10.2h-2.8v-10.1c0-0.9-0.1-1.7-0.3-2.6c-0.2-0.6-0.6-1.1-1.2-1.4
			c-0.6-0.4-1.3-0.5-2-0.5c-1.1,0-2.2,0.4-3.1,1.1c-0.9,0.8-1.3,2.2-1.3,4.3v9.1L106.1,757.3z"/>
		<path d="M122.8,750.5v-2.8h8.6v2.8H122.8z"/>
		<path d="M134.8,757.3v-22.9h3v20.2h11.3v2.7H134.8z"/>
		<path d="M163.7,752l2.9,0.4c-0.4,1.6-1.3,3-2.5,4c-3.3,2.2-7.6,1.8-10.5-0.8c-1.5-1.7-2.3-4-2.1-6.3c-0.1-2.4,0.6-4.7,2.2-6.5
			c1.4-1.5,3.5-2.4,5.6-2.3c2.1-0.1,4,0.8,5.4,2.3c1.5,1.8,2.3,4.1,2.1,6.4c0,0.2,0,0.4,0,0.8h-12.4c0,1.5,0.5,3,1.5,4.2
			c0.9,1,2.2,1.5,3.5,1.5c0.9,0,1.9-0.3,2.6-0.8C162.8,754,163.4,753,163.7,752z M154.5,747.5h9.3c0-1.1-0.4-2.2-1.1-3.1
			c-0.8-1.1-2.1-1.7-3.5-1.6c-1.2,0-2.4,0.5-3.2,1.3C155.1,744.9,154.5,746.2,154.5,747.5L154.5,747.5z"/>
		<path d="M174.8,757.3l-6.3-16.6h3l3.6,9.9c0.4,1.1,0.7,2.2,1.1,3.3c0.3-0.9,0.6-1.9,1-3.2l3.7-10.1h2.9l-6.3,16.6L174.8,757.3
			L174.8,757.3z"/>
		<path d="M197.5,752l2.9,0.4c-0.4,1.6-1.3,3-2.5,4c-3.3,2.2-7.6,1.8-10.5-0.8c-1.5-1.7-2.3-4-2.1-6.3c-0.1-2.4,0.6-4.7,2.1-6.5
			c1.4-1.5,3.5-2.4,5.6-2.3c2.1-0.1,4,0.8,5.4,2.3c1.5,1.8,2.3,4.1,2.1,6.4c0,0.2,0,0.4,0,0.8h-12.4c0,1.5,0.5,3,1.5,4.2
			c0.9,1,2.2,1.5,3.5,1.5c0.9,0,1.9-0.3,2.6-0.8C196.6,754,197.2,753,197.5,752z M188.3,747.5h9.3c0-1.1-0.4-2.2-1.1-3.1
			c-0.8-1.1-2.1-1.7-3.5-1.6c-1.2,0-2.4,0.4-3.3,1.3C188.8,744.9,188.3,746.2,188.3,747.5L188.3,747.5z"/>
		<path d="M203.9,757.3v-22.9h2.8v22.9H203.9z"/>
	</g>
	<g>
		<path d="M77.4,795.8v-22.9H82l5.4,16.2c0.5,1.5,0.9,2.6,1.1,3.4c0.3-0.8,0.7-2,1.2-3.7l5.5-15.9h4.1v22.9h-2.9v-19.2l-6.7,19.2H87
			l-6.6-19.5v19.5H77.4z"/>
		<path d="M102.7,787.5c0-3.1,0.9-5.3,2.6-6.8c1.5-1.2,3.3-1.9,5.2-1.8c2.1-0.1,4.1,0.7,5.6,2.2c1.5,1.7,2.3,3.9,2.2,6.2
			c0.1,1.7-0.3,3.4-1,5c-0.6,1.2-1.6,2.2-2.8,2.8c-1.2,0.7-2.6,1-4,1c-2.1,0.1-4.2-0.7-5.6-2.2C103.4,792.4,102.7,790.3,102.7,787.5
			z M105.6,787.5c-0.1,1.7,0.4,3.4,1.4,4.8c1.7,1.9,4.6,2.1,6.5,0.5c0.2-0.1,0.3-0.3,0.5-0.5c1-1.4,1.5-3.1,1.4-4.9
			c0.1-1.7-0.4-3.3-1.4-4.7c-1.7-1.9-4.6-2.1-6.5-0.5c-0.2,0.1-0.3,0.3-0.5,0.5C106,784.1,105.5,785.8,105.6,787.5L105.6,787.5z"/>
		<path d="M132.3,795.8v-2.1c-1,1.6-2.8,2.5-4.6,2.5c-1.3,0-2.6-0.4-3.6-1.1c-1.1-0.7-2-1.8-2.6-3c-0.6-1.4-0.9-3-0.9-4.5
			s0.3-3.1,0.8-4.5c0.5-1.3,1.4-2.4,2.5-3.1c1.1-0.7,2.4-1.1,3.7-1.1c0.9,0,1.8,0.2,2.7,0.6c0.8,0.4,1.4,1,1.9,1.7V773h2.8v22.9
			L132.3,795.8z M123.4,787.5c-0.1,1.7,0.3,3.4,1.4,4.8c0.8,1,1.9,1.6,3.2,1.6c1.2,0,2.4-0.6,3.1-1.5c1-1.3,1.4-3,1.3-4.6
			c0.1-1.8-0.3-3.5-1.3-5c-0.8-1-2-1.6-3.2-1.6s-2.4,0.6-3.1,1.5C123.8,784.1,123.3,785.8,123.4,787.5z"/>
		<path d="M150.7,790.4l2.9,0.4c-0.4,1.6-1.3,3-2.6,4c-3.3,2.1-7.6,1.8-10.5-0.8c-1.5-1.7-2.3-4-2.1-6.3c-0.1-2.4,0.6-4.7,2.1-6.5
			c1.4-1.5,3.5-2.4,5.6-2.3c2.1-0.1,4,0.8,5.4,2.3c1.5,1.8,2.2,4.1,2.1,6.4c0,0.2,0,0.4,0,0.8h-12.4c0,1.5,0.5,3,1.6,4.2
			c0.9,1,2.2,1.5,3.5,1.5c1,0,1.9-0.3,2.6-0.9C149.8,792.3,150.4,791.4,150.7,790.4z M141.5,785.9h9.3c0-1.1-0.4-2.2-1.1-3.1
			c-0.8-1.1-2.1-1.7-3.5-1.6c-1.2,0-2.4,0.4-3.3,1.3C142.1,783.3,141.5,784.6,141.5,785.9z"/>
		<path d="M157.1,795.8v-22.9h2.8v22.9H157.1z"/>
	</g>
</g>
<g>
	<g>
		<path d="M93.1,440.7c0-3.8,1-6.8,3.1-8.9c2.1-2.2,4.9-3.3,7.9-3.2c2,0,4,0.5,5.7,1.5s3,2.5,3.9,4.2c0.9,1.9,1.4,4,1.3,6.1
			c0,2.2-0.4,4.3-1.4,6.2c-0.9,1.8-2.3,3.2-4,4.2c-1.7,0.9-3.6,1.4-5.6,1.4s-4-0.5-5.8-1.6c-1.7-1-3-2.5-3.9-4.3
			C93.5,444.7,93,442.7,93.1,440.7z M96.2,440.8c-0.1,2.4,0.7,4.7,2.2,6.5c3,3.1,7.9,3.2,11,0.2c0.1-0.1,0.1-0.1,0.2-0.2
			c1.6-1.9,2.4-4.4,2.2-6.8c0-1.7-0.3-3.3-1-4.9c-0.6-1.3-1.5-2.5-2.8-3.2c-1.2-0.8-2.6-1.2-4.1-1.1c-2.1,0-4.1,0.8-5.5,2.2
			C97,434.9,96.2,437.3,96.2,440.8L96.2,440.8z"/>
		<path d="M129.4,451.9v-2.4c-1.1,1.8-3.1,2.9-5.3,2.8c-0.9,0-1.9-0.2-2.7-0.6c-0.7-0.3-1.4-0.8-1.9-1.4c-0.4-0.6-0.7-1.3-0.9-2.1
			c-0.1-0.9-0.2-1.8-0.2-2.6v-10.3h2.8v9.2c0,1,0,2,0.2,3c0.2,0.7,0.6,1.3,1.1,1.8c0.6,0.4,1.4,0.7,2.1,0.6c0.8,0,1.7-0.2,2.4-0.6
			c0.7-0.4,1.3-1,1.6-1.8c0.4-1,0.5-2.1,0.5-3.2v-8.9h2.8V452h-2.5V451.9z"/>
		<path d="M136.3,451.9v-16.6h2.5v2.5c0.4-0.9,1-1.7,1.8-2.3c0.5-0.4,1.2-0.6,1.8-0.6c1,0,2,0.3,2.9,0.9l-1,2.6
			c-0.6-0.4-1.3-0.6-2.1-0.6c-0.6,0-1.2,0.2-1.7,0.6s-0.8,0.9-1,1.5c-0.3,1.1-0.5,2.2-0.5,3.3v8.7H136.3z"/>
	</g>
	<g>
		<path d="M54.9,490.3v-22.9h4.6l5.4,16.2c0.5,1.5,0.9,2.6,1.1,3.4c0.3-0.8,0.7-2.1,1.2-3.7l5.5-15.9h4.1v22.9h-2.9v-19.2l-6.7,19.2
			h-2.7l-6.6-19.5v19.5H54.9z"/>
		<path d="M80.2,482c0-3.1,0.9-5.3,2.6-6.8c1.5-1.2,3.3-1.9,5.2-1.8c2.1-0.1,4.1,0.7,5.6,2.2c1.5,1.7,2.3,3.9,2.2,6.2
			c0.1,1.7-0.3,3.4-1,5c-0.6,1.2-1.6,2.2-2.8,2.9c-1.2,0.7-2.6,1-4,1c-2.1,0.1-4.2-0.7-5.6-2.2C80.8,486.6,80.1,484.3,80.2,482z
			 M83.1,482c-0.1,1.7,0.4,3.4,1.4,4.8c1.7,1.9,4.6,2.1,6.5,0.5c0.2-0.1,0.3-0.3,0.5-0.5c1-1.4,1.5-3.1,1.4-4.9
			c0.1-1.7-0.4-3.3-1.4-4.7c-1.7-1.9-4.6-2.1-6.6-0.4c-0.2,0.1-0.3,0.3-0.4,0.4C83.5,478.6,83,480.3,83.1,482z"/>
		<path d="M109.8,490.3v-2.1c-1,1.6-2.8,2.6-4.6,2.5c-1.3,0-2.6-0.4-3.6-1.1c-1.1-0.8-2-1.8-2.6-3.1c-0.6-1.4-0.9-3-0.9-4.5
			s0.3-3.1,0.8-4.5c0.5-1.3,1.3-2.4,2.5-3.1c1.1-0.7,2.4-1.1,3.7-1.1c0.9,0,1.9,0.2,2.7,0.6c0.8,0.4,1.4,1,1.9,1.6v-8.2h2.8v22.9
			h-2.7V490.3z M100.9,482c-0.1,1.7,0.3,3.4,1.3,4.8c0.8,1,1.9,1.6,3.2,1.6c1.2,0,2.4-0.6,3.1-1.5c1-1.3,1.4-3,1.3-4.6
			c0-2.3-0.4-3.9-1.3-5c-0.8-1-2-1.6-3.2-1.6s-2.4,0.6-3.1,1.5C101.2,478.6,100.8,480.3,100.9,482z"/>
		<path d="M128.2,485l2.9,0.4c-0.4,1.6-1.3,3-2.6,4c-3.3,2.2-7.6,1.8-10.5-0.8c-1.5-1.7-2.3-4-2.1-6.3c-0.1-2.4,0.6-4.7,2.2-6.5
			c1.4-1.5,3.5-2.4,5.6-2.3c2.1-0.1,4,0.8,5.4,2.3c1.5,1.8,2.3,4.1,2.1,6.4c0,0.2,0,0.4,0,0.8h-12.4c0,1.5,0.5,3,1.6,4.2
			c0.9,1,2.2,1.5,3.5,1.5c0.9,0,1.9-0.3,2.6-0.8C127.3,486.9,127.9,486,128.2,485z M119,480.4h9.3c0-1.1-0.4-2.2-1.1-3.1
			c-0.8-1.1-2.1-1.7-3.5-1.6c-1.2,0-2.4,0.4-3.3,1.3C119.5,477.9,119,479.1,119,480.4z"/>
		<path d="M134.6,490.3v-22.9h2.8v22.9H134.6z"/>
		<path d="M141.8,470.6v-3.2h2.8v3.2H141.8z M141.8,490.3v-16.6h2.8v16.6H141.8z"/>
		<path d="M148.9,490.3v-16.6h2.5v2.4c1.2-1.8,3.2-2.8,5.3-2.7c0.9,0,1.9,0.2,2.8,0.5c0.7,0.3,1.4,0.8,1.9,1.4
			c0.4,0.6,0.7,1.3,0.9,2.1c0.1,0.9,0.2,1.8,0.2,2.7v10.2h-2.8v-10.1c0-0.9-0.1-1.7-0.3-2.6c-0.2-0.6-0.6-1-1.2-1.4
			c-0.6-0.4-1.3-0.5-2-0.5c-1.1,0-2.2,0.4-3.1,1.1c-0.9,0.8-1.3,2.2-1.3,4.3v9.1L148.9,490.3z"/>
		<path d="M166.2,491.7l2.7,0.4c0.1,0.7,0.4,1.4,1,1.8c0.8,0.6,1.8,0.8,2.9,0.8c1.1,0.1,2.1-0.2,3-0.8c0.7-0.5,1.2-1.3,1.4-2.2
			c0.2-1.2,0.3-2.4,0.2-3.6c-1.1,1.4-2.8,2.2-4.6,2.2c-2.1,0.1-4-0.8-5.3-2.5s-1.9-3.8-1.9-5.9c0-1.5,0.3-3,0.9-4.4
			c0.5-1.3,1.4-2.3,2.5-3.1c1.1-0.7,2.5-1.1,3.8-1.1c1.9,0,3.7,0.9,4.9,2.4v-2h2.6V488c0.1,1.9-0.2,3.7-0.8,5.5
			c-0.5,1.1-1.4,2-2.5,2.5c-1.3,0.7-2.7,1-4.2,0.9c-1.7,0.1-3.4-0.4-4.8-1.3C166.7,494.8,166,493.2,166.2,491.7z M168.5,481.7
			c-0.1,1.7,0.3,3.4,1.3,4.8c1.5,1.8,4.2,2,6,0.5c0.2-0.1,0.3-0.3,0.5-0.5c1-1.4,1.4-3,1.3-4.7c0.1-1.6-0.4-3.3-1.4-4.6
			c-0.8-1-2-1.5-3.3-1.5c-1.2,0-2.4,0.5-3.2,1.5C168.8,478.5,168.4,480.1,168.5,481.7L168.5,481.7z"/>
	</g>
</g>
<g>
	<path d="M313.2,263.9h-6.6v-2.4h16v2.4H316v19.2h-2.8V263.9z"/>
	<path d="M331.4,283.1l-0.2-2h-0.1c-0.9,1.2-2.5,2.3-4.7,2.3c-3.1,0-4.7-2.2-4.7-4.4c0-3.7,3.3-5.8,9.3-5.8v-0.3
		c0-1.3-0.4-3.6-3.5-3.6c-1.4,0-2.9,0.4-4,1.2l-0.6-1.9c1.3-0.8,3.1-1.4,5.1-1.4c4.7,0,5.9,3.2,5.9,6.3v5.8c0,1.3,0.1,2.7,0.3,3.7
		L331.4,283.1L331.4,283.1z M331,275.2c-3.1-0.1-6.6,0.5-6.6,3.5c0,1.8,1.2,2.7,2.7,2.7c2,0,3.3-1.3,3.7-2.6
		c0.1-0.3,0.2-0.6,0.2-0.9L331,275.2L331,275.2z"/>
	<path d="M337.9,280.2c0.8,0.5,2.3,1.1,3.7,1.1c2,0,3-1,3-2.3s-0.8-2.1-2.9-2.8c-2.8-1-4.1-2.5-4.1-4.4c0-2.5,2-4.5,5.3-4.5
		c1.6,0,2.9,0.4,3.8,1l-0.7,2c-0.6-0.4-1.7-0.9-3.2-0.9c-1.7,0-2.6,1-2.6,2.1c0,1.3,0.9,1.9,2.9,2.6c2.7,1,4.1,2.4,4.1,4.7
		c0,2.7-2.1,4.6-5.8,4.6c-1.7,0-3.3-0.4-4.4-1.1L337.9,280.2z"/>
	<path d="M353.7,274.7L353.7,274.7c0.4-0.5,1-1.2,1.4-1.8l4.5-5.3h3.4l-6,6.4l6.8,9.1h-3.4l-5.3-7.4l-1.4,1.6v5.8h-2.8v-22.7h2.8
		V274.7z"/>
	<path d="M377.9,264.9L377.9,264.9l-3.7,2l-0.5-2.1l4.5-2.4h2.4v20.8h-2.7L377.9,264.9L377.9,264.9z"/>
	<path d="M388.5,270.1c0-1.2,0.8-2,1.9-2s1.9,0.8,1.9,2c0,1.1-0.7,2-1.9,2S388.5,271.2,388.5,270.1z M388.5,281.4c0-1.2,0.8-2,1.9-2
		s1.9,0.8,1.9,2c0,1.1-0.7,2-1.9,2S388.5,282.5,388.5,281.4z"/>
	<path d="M402.3,279.7c1.2,0.8,3.1,1.4,5,1.4c2.8,0,4.5-1.5,4.5-3.7c0-2-1.2-3.2-4.1-4.3c-3.5-1.2-5.7-3.1-5.7-6.1
		c0-3.4,2.8-5.9,7-5.9c2.2,0,3.8,0.5,4.8,1.1l-0.8,2.3c-0.7-0.4-2.1-1-4.1-1c-2.9,0-4.1,1.8-4.1,3.2c0,2,1.3,3,4.3,4.2
		c3.6,1.4,5.5,3.2,5.5,6.3c0,3.3-2.5,6.2-7.6,6.2c-2.1,0-4.4-0.6-5.5-1.4L402.3,279.7z"/>
	<path d="M418.3,260.3h2.8V283h-2.8V260.3z"/>
	<path d="M439.9,275.2c0,5.7-4,8.2-7.7,8.2c-4.2,0-7.4-3.1-7.4-8c0-5.2,3.4-8.2,7.7-8.2C436.9,267.2,439.9,270.4,439.9,275.2z
		 M427.6,275.3c0,3.4,2,6,4.7,6s4.7-2.5,4.7-6c0-2.6-1.3-6-4.6-6C429,269.3,427.6,272.4,427.6,275.3z"/>
	<path d="M446.8,263.1v4.4h4v2.1h-4v8.4c0,1.9,0.5,3,2.1,3c0.7,0,1.3-0.1,1.6-0.2l0.1,2.1c-0.5,0.2-1.4,0.4-2.5,0.4
		c-1.3,0-2.4-0.4-3-1.2c-0.8-0.8-1.1-2.2-1.1-4v-8.4h-2.4v-2.1h2.4v-3.7L446.8,263.1z"/>
	<path d="M460.9,261.5h2.8v19.2h9.2v2.3h-12V261.5z"/>
	<path d="M484.5,283.1l-0.2-2h-0.1c-0.9,1.2-2.5,2.3-4.7,2.3c-3.1,0-4.7-2.2-4.7-4.4c0-3.7,3.3-5.8,9.3-5.8v-0.3
		c0-1.3-0.4-3.6-3.5-3.6c-1.4,0-2.9,0.4-4,1.2l-0.6-1.9c1.3-0.8,3.1-1.4,5.1-1.4c4.7,0,5.9,3.2,5.9,6.3v5.8c0,1.3,0.1,2.7,0.3,3.7
		L484.5,283.1L484.5,283.1z M484.1,275.2c-3.1-0.1-6.6,0.5-6.6,3.5c0,1.8,1.2,2.7,2.7,2.7c2,0,3.3-1.3,3.7-2.6
		c0.1-0.3,0.2-0.6,0.2-0.9L484.1,275.2L484.1,275.2z"/>
	<path d="M491.2,283.1c0.1-1.1,0.1-2.6,0.1-4v-18.7h2.8v9.7h0.1c1-1.7,2.8-2.8,5.3-2.8c3.8,0,6.6,3.2,6.5,7.9c0,5.5-3.5,8.3-6.9,8.3
		c-2.2,0-4-0.9-5.2-2.9h-0.1l-0.1,2.6h-2.5V283.1z M494.1,276.8c0,0.4,0.1,0.7,0.1,1c0.5,2,2.2,3.3,4.2,3.3c2.9,0,4.7-2.4,4.7-6
		c0-3.1-1.6-5.8-4.6-5.8c-1.9,0-3.7,1.3-4.3,3.5c-0.1,0.3-0.2,0.7-0.2,1.2L494.1,276.8L494.1,276.8z"/>
	<path d="M511.1,275.8c0.1,3.8,2.5,5.4,5.3,5.4c2,0,3.2-0.4,4.3-0.8l0.5,2c-1,0.4-2.7,1-5.2,1c-4.8,0-7.6-3.1-7.6-7.8
		c0-4.7,2.8-8.4,7.3-8.4c5.1,0,6.4,4.4,6.4,7.3c0,0.6-0.1,1-0.1,1.3H511.1z M519.4,273.8c0-1.8-0.7-4.6-3.9-4.6
		c-2.8,0-4.1,2.6-4.3,4.6H519.4z"/>
	<path d="M525.6,260.3h2.8V283h-2.8V260.3z"/>
	<path d="M536.3,263.2c0,1-0.7,1.7-1.8,1.7c-1,0-1.7-0.8-1.7-1.7c0-1,0.7-1.8,1.8-1.8C535.6,261.5,536.3,262.2,536.3,263.2z
		 M533.1,283.1v-15.5h2.8v15.5H533.1z"/>
	<path d="M540.6,271.8c0-1.6,0-2.9-0.1-4.2h2.5l0.2,2.6h0.1c0.8-1.5,2.6-2.9,5.1-2.9c2.1,0,5.5,1.3,5.5,6.6v9.2H551v-8.9
		c0-2.5-0.9-4.6-3.6-4.6c-1.9,0-3.3,1.3-3.8,2.9c-0.1,0.4-0.2,0.8-0.2,1.3v9.3h-2.8L540.6,271.8L540.6,271.8z"/>
	<path d="M571.7,267.6c-0.1,1.1-0.1,2.4-0.1,4.3v9c0,3.6-0.7,5.7-2.2,7.1s-3.7,1.9-5.6,1.9c-1.9,0-3.9-0.4-5.2-1.3l0.7-2.1
		c1,0.6,2.6,1.2,4.5,1.2c2.9,0,5-1.5,5-5.4v-1.7h-0.1c-0.9,1.4-2.5,2.6-4.9,2.6c-3.8,0-6.6-3.3-6.6-7.6c0-5.2,3.4-8.2,7-8.2
		c2.7,0,4.2,1.4,4.8,2.7h0.1l0.1-2.3h2.5V267.6z M568.8,273.7c0-0.5,0-0.9-0.2-1.3c-0.5-1.6-1.9-3-3.9-3c-2.7,0-4.6,2.3-4.6,5.9
		c0,3,1.5,5.6,4.6,5.6c1.7,0,3.3-1.1,3.9-2.9c0.2-0.5,0.2-1,0.2-1.5V273.7z"/>
	<path d="M591.6,283.1l-0.2-2h-0.1c-0.9,1.2-2.5,2.3-4.7,2.3c-3.1,0-4.7-2.2-4.7-4.4c0-3.7,3.3-5.8,9.3-5.8v-0.3
		c0-1.3-0.4-3.6-3.5-3.6c-1.4,0-2.9,0.4-4,1.2l-0.6-1.9c1.3-0.8,3.1-1.4,5.1-1.4c4.7,0,5.9,3.2,5.9,6.3v5.8c0,1.3,0.1,2.7,0.3,3.7
		L591.6,283.1L591.6,283.1z M591.2,275.2c-3.1-0.1-6.6,0.5-6.6,3.5c0,1.8,1.2,2.7,2.7,2.7c2,0,3.3-1.3,3.7-2.6
		c0.1-0.3,0.2-0.6,0.2-0.9L591.2,275.2L591.2,275.2z"/>
	<path d="M598.5,271.8c0-1.6,0-2.9-0.1-4.2h2.5l0.2,2.6h0.1c0.8-1.5,2.6-2.9,5.1-2.9c2.1,0,5.5,1.3,5.5,6.6v9.2H609v-8.9
		c0-2.5-0.9-4.6-3.6-4.6c-1.9,0-3.3,1.3-3.8,2.9c-0.1,0.4-0.2,0.8-0.2,1.3v9.3h-2.8v-11.3H598.5z"/>
	<path d="M629.6,260.3V279c0,1.4,0,2.9,0.1,4h-2.5l-0.1-2.7H627c-0.9,1.7-2.8,3-5.3,3c-3.7,0-6.6-3.2-6.6-7.9c0-5.2,3.2-8.3,6.9-8.3
		c2.4,0,4,1.1,4.7,2.4h0.1v-9.2H629.6z M626.8,273.9c0-0.4,0-0.8-0.1-1.2c-0.4-1.8-2-3.3-4.1-3.3c-2.9,0-4.6,2.6-4.6,6
		c0,3.1,1.5,5.7,4.6,5.7c1.9,0,3.6-1.2,4.1-3.4c0.1-0.4,0.1-0.8,0.1-1.2V273.9z"/>
	<path d="M643.9,261.5v21.6h-2.8v-21.6H643.9z"/>
	<path d="M649,271.8c0-1.6,0-2.9-0.1-4.2h2.5l0.2,2.6h0.1c0.8-1.5,2.6-2.9,5.1-2.9c2.1,0,5.5,1.3,5.5,6.6v9.2h-2.8v-8.9
		c0-2.5-0.9-4.6-3.6-4.6c-1.9,0-3.3,1.3-3.8,2.9c-0.1,0.4-0.2,0.8-0.2,1.3v9.3H649V271.8z"/>
	<path d="M670.1,263.1v4.4h4v2.1h-4v8.4c0,1.9,0.5,3,2.1,3c0.7,0,1.3-0.1,1.6-0.2l0.1,2.1c-0.5,0.2-1.4,0.4-2.5,0.4
		c-1.3,0-2.4-0.4-3-1.2c-0.8-0.8-1.1-2.2-1.1-4v-8.4h-2.4v-2.1h2.4v-3.7L670.1,263.1z"/>
	<path d="M678.6,275.8c0.1,3.8,2.5,5.4,5.3,5.4c2,0,3.2-0.4,4.3-0.8l0.5,2c-1,0.4-2.7,1-5.2,1c-4.8,0-7.6-3.1-7.6-7.8
		c0-4.7,2.8-8.4,7.3-8.4c5.1,0,6.4,4.4,6.4,7.3c0,0.6-0.1,1-0.1,1.3H678.6z M686.9,273.8c0-1.8-0.7-4.6-3.9-4.6
		c-2.8,0-4.1,2.6-4.3,4.6H686.9z"/>
	<path d="M693.1,271.8c0-1.6,0-2.9-0.1-4.2h2.5l0.2,2.6h0.1c0.8-1.5,2.6-2.9,5.1-2.9c2.1,0,5.5,1.3,5.5,6.6v9.2h-2.8v-8.9
		c0-2.5-0.9-4.6-3.6-4.6c-1.9,0-3.3,1.3-3.8,2.9c-0.1,0.4-0.2,0.8-0.2,1.3v9.3h-2.8v-11.3H693.1z"/>
	<path d="M714.1,263.1v4.4h4v2.1h-4v8.4c0,1.9,0.5,3,2.1,3c0.7,0,1.3-0.1,1.6-0.2l0.1,2.1c-0.5,0.2-1.4,0.4-2.5,0.4
		c-1.3,0-2.4-0.4-3-1.2c-0.8-0.8-1.1-2.2-1.1-4v-8.4H709v-2.1h2.4v-3.7L714.1,263.1z"/>
	<path d="M743.3,282.4c-1,0.5-3.1,1-5.7,1c-6.1,0-10.7-3.8-10.7-10.9c0-6.8,4.6-11.3,11.3-11.3c2.7,0,4.4,0.6,5.1,1l-0.7,2.3
		c-1.1-0.5-2.6-0.9-4.4-0.9c-5.1,0-8.4,3.2-8.4,8.9c0,5.3,3,8.7,8.3,8.7c1.7,0,3.4-0.4,4.5-0.9L743.3,282.4z"/>
	<path d="M746.7,260.3h2.8V283h-2.8V260.3z"/>
	<path d="M762.8,283.1l-0.2-2h-0.1c-0.9,1.2-2.5,2.3-4.7,2.3c-3.1,0-4.7-2.2-4.7-4.4c0-3.7,3.3-5.8,9.3-5.8v-0.3
		c0-1.3-0.4-3.6-3.5-3.6c-1.4,0-2.9,0.4-4,1.2l-0.6-1.9c1.3-0.8,3.1-1.4,5.1-1.4c4.7,0,5.9,3.2,5.9,6.3v5.8c0,1.3,0.1,2.7,0.3,3.7
		L762.8,283.1L762.8,283.1z M762.4,275.2c-3.1-0.1-6.6,0.5-6.6,3.5c0,1.8,1.2,2.7,2.7,2.7c2,0,3.3-1.3,3.7-2.6
		c0.1-0.3,0.2-0.6,0.2-0.9L762.4,275.2L762.4,275.2z"/>
	<path d="M769.3,280.2c0.8,0.5,2.3,1.1,3.7,1.1c2,0,3-1,3-2.3s-0.8-2.1-2.9-2.8c-2.8-1-4.1-2.5-4.1-4.4c0-2.5,2-4.5,5.3-4.5
		c1.6,0,2.9,0.4,3.8,1l-0.7,2c-0.6-0.4-1.7-0.9-3.2-0.9c-1.7,0-2.6,1-2.6,2.1c0,1.3,0.9,1.9,2.9,2.6c2.7,1,4.1,2.4,4.1,4.7
		c0,2.7-2.1,4.6-5.8,4.6c-1.7,0-3.3-0.4-4.4-1.1L769.3,280.2z"/>
	<path d="M781.9,280.2c0.8,0.5,2.3,1.1,3.7,1.1c2,0,3-1,3-2.3s-0.8-2.1-2.9-2.8c-2.8-1-4.1-2.5-4.1-4.4c0-2.5,2-4.5,5.3-4.5
		c1.6,0,2.9,0.4,3.8,1l-0.7,2c-0.6-0.4-1.7-0.9-3.2-0.9c-1.7,0-2.6,1-2.6,2.1c0,1.3,0.9,1.9,2.9,2.6c2.7,1,4.1,2.4,4.1,4.7
		c0,2.7-2.1,4.6-5.8,4.6c-1.7,0-3.3-0.4-4.4-1.1L781.9,280.2z"/>
	<path d="M798.1,263.2c0,1-0.7,1.7-1.8,1.7c-1,0-1.7-0.8-1.7-1.7c0-1,0.7-1.8,1.8-1.8C797.4,261.5,798.1,262.2,798.1,263.2z
		 M795,283.1v-15.5h2.8v15.5H795z"/>
	<path d="M802.8,283.1v-13.3h-2.2v-2.1h2.2v-0.8c0-4.1,2.4-6.8,6.8-6.8c1.4,0,3.1,0.4,3.9,1l-0.8,2.1c-0.7-0.5-1.9-0.9-3.3-0.9
		c-3,0-3.8,2.1-3.8,4.5v0.8h9v15.5h-2.8v-13.3h-6.2v13.3L802.8,283.1L802.8,283.1z"/>
	<path d="M830.2,282.5c-0.7,0.4-2.4,0.9-4.4,0.9c-4.7,0-7.7-3.2-7.7-7.9c0-4.8,3.3-8.2,8.3-8.2c1.7,0,3.1,0.4,3.9,0.8l-0.6,2.2
		c-0.7-0.4-1.7-0.7-3.3-0.7c-3.6,0-5.5,2.6-5.5,5.9c0,3.6,2.3,5.8,5.4,5.8c1.6,0,2.7-0.4,3.5-0.8L830.2,282.5z"/>
	<path d="M842.1,283.1l-0.2-2h-0.1c-0.9,1.2-2.5,2.3-4.7,2.3c-3.1,0-4.7-2.2-4.7-4.4c0-3.7,3.3-5.8,9.3-5.8v-0.3
		c0-1.3-0.4-3.6-3.5-3.6c-1.4,0-2.9,0.4-4,1.2l-0.6-1.9c1.3-0.8,3.1-1.4,5.1-1.4c4.7,0,5.9,3.2,5.9,6.3v5.8c0,1.3,0.1,2.7,0.3,3.7
		L842.1,283.1L842.1,283.1z M841.7,275.2c-3.1-0.1-6.6,0.5-6.6,3.5c0,1.8,1.2,2.7,2.7,2.7c2,0,3.3-1.3,3.7-2.6
		c0.1-0.3,0.2-0.6,0.2-0.9L841.7,275.2L841.7,275.2z"/>
	<path d="M852.2,263.1v4.4h4v2.1h-4v8.4c0,1.9,0.5,3,2.1,3c0.7,0,1.3-0.1,1.6-0.2l0.1,2.1c-0.5,0.2-1.4,0.4-2.5,0.4
		c-1.3,0-2.4-0.4-3-1.2c-0.8-0.8-1.1-2.2-1.1-4v-8.4H847v-2.1h2.4v-3.7L852.2,263.1z"/>
	<path d="M862.6,263.2c0,1-0.7,1.7-1.8,1.7c-1,0-1.7-0.8-1.7-1.7c0-1,0.7-1.8,1.8-1.8C861.9,261.5,862.6,262.2,862.6,263.2z
		 M859.4,283.1v-15.5h2.8v15.5H859.4z"/>
	<path d="M880.9,275.2c0,5.7-4,8.2-7.7,8.2c-4.2,0-7.4-3.1-7.4-8c0-5.2,3.4-8.2,7.7-8.2C877.9,267.2,880.9,270.4,880.9,275.2z
		 M868.6,275.3c0,3.4,2,6,4.7,6s4.7-2.5,4.7-6c0-2.6-1.3-6-4.6-6C870.1,269.3,868.6,272.4,868.6,275.3z"/>
	<path d="M884.5,271.8c0-1.6,0-2.9-0.1-4.2h2.5l0.2,2.6h0.1c0.8-1.5,2.6-2.9,5.1-2.9c2.1,0,5.5,1.3,5.5,6.6v9.2H895v-8.9
		c0-2.5-0.9-4.6-3.6-4.6c-1.9,0-3.3,1.3-3.8,2.9c-0.1,0.4-0.2,0.8-0.2,1.3v9.3h-2.8v-11.3H884.5z"/>
</g>
<g>
	<path d="M1224.6,263.9h-6.6v-2.4h16v2.4h-6.6v19.2h-2.8V263.9z"/>
	<path d="M1242.9,283.1l-0.2-2h-0.1c-0.9,1.2-2.5,2.3-4.7,2.3c-3.1,0-4.7-2.2-4.7-4.4c0-3.7,3.3-5.8,9.3-5.8v-0.3
		c0-1.3-0.4-3.6-3.5-3.6c-1.4,0-2.9,0.4-4,1.2l-0.6-1.9c1.3-0.8,3.1-1.4,5.1-1.4c4.7,0,5.9,3.2,5.9,6.3v5.8c0,1.3,0.1,2.7,0.3,3.7
		L1242.9,283.1L1242.9,283.1z M1242.5,275.2c-3.1-0.1-6.6,0.5-6.6,3.5c0,1.8,1.2,2.7,2.7,2.7c2,0,3.3-1.3,3.7-2.6
		c0.1-0.3,0.2-0.6,0.2-0.9L1242.5,275.2L1242.5,275.2z"/>
	<path d="M1249.3,280.2c0.8,0.5,2.3,1.1,3.7,1.1c2,0,3-1,3-2.3s-0.8-2.1-2.9-2.8c-2.8-1-4.1-2.5-4.1-4.4c0-2.5,2-4.5,5.3-4.5
		c1.6,0,2.9,0.4,3.8,1l-0.7,2c-0.6-0.4-1.7-0.9-3.2-0.9c-1.7,0-2.6,1-2.6,2.1c0,1.3,0.9,1.9,2.9,2.6c2.7,1,4.1,2.4,4.1,4.7
		c0,2.7-2.1,4.6-5.8,4.6c-1.7,0-3.3-0.4-4.4-1.1L1249.3,280.2z"/>
	<path d="M1265.2,274.7L1265.2,274.7c0.4-0.5,1-1.2,1.4-1.8l4.5-5.3h3.4l-6,6.4l6.8,9.1h-3.4l-5.3-7.4l-1.4,1.6v5.8h-2.8v-22.7h2.8
		V274.7z"/>
	<path d="M1283.3,283.1v-1.7l2.2-2.1c5.3-5.1,7.7-7.7,7.7-10.9c0-2.1-1-4.1-4.1-4.1c-1.9,0-3.5,1-4.4,1.8l-0.9-2
		c1.4-1.2,3.5-2.1,5.9-2.1c4.5,0,6.4,3.1,6.4,6c0,3.8-2.8,6.9-7.2,11.2l-1.7,1.5v0.1h9.3v2.3L1283.3,283.1L1283.3,283.1z"/>
	<path d="M1299.9,270.1c0-1.2,0.8-2,1.9-2s1.9,0.8,1.9,2c0,1.1-0.7,2-1.9,2C1300.7,272.1,1299.9,271.2,1299.9,270.1z M1299.9,281.4
		c0-1.2,0.8-2,1.9-2s1.9,0.8,1.9,2c0,1.1-0.7,2-1.9,2C1300.7,283.4,1299.9,282.5,1299.9,281.4z"/>
	<path d="M1314.1,283.1v-21.6h3l6.9,10.9c1.6,2.5,2.8,4.8,3.9,7h0.1c-0.3-2.9-0.3-5.5-0.3-8.9v-9h2.6v21.6h-2.8l-6.8-10.9
		c-1.5-2.4-2.9-4.9-4-7.2h-0.1c0.2,2.7,0.2,5.3,0.2,8.9v9.2H1314.1z"/>
	<path d="M1343.6,283.1l-0.2-2h-0.1c-0.9,1.2-2.5,2.3-4.7,2.3c-3.1,0-4.7-2.2-4.7-4.4c0-3.7,3.3-5.8,9.3-5.8v-0.3
		c0-1.3-0.4-3.6-3.5-3.6c-1.4,0-2.9,0.4-4,1.2l-0.6-1.9c1.3-0.8,3.1-1.4,5.1-1.4c4.7,0,5.9,3.2,5.9,6.3v5.8c0,1.3,0.1,2.7,0.3,3.7
		L1343.6,283.1L1343.6,283.1z M1343.2,275.2c-3.1-0.1-6.6,0.5-6.6,3.5c0,1.8,1.2,2.7,2.7,2.7c2,0,3.3-1.3,3.7-2.6
		c0.1-0.3,0.2-0.6,0.2-0.9L1343.2,275.2L1343.2,275.2z"/>
	<path d="M1350.5,271.8c0-1.6,0-2.9-0.1-4.2h2.5l0.1,2.5h0.1c0.9-1.5,2.3-2.8,4.9-2.8c2.1,0,3.7,1.3,4.4,3.1h0.1
		c0.5-0.9,1.1-1.5,1.7-2c0.9-0.7,2-1.1,3.4-1.1c2,0,5.1,1.3,5.1,6.7v9.1h-2.8v-8.8c0-3-1.1-4.8-3.4-4.8c-1.6,0-2.8,1.2-3.3,2.6
		c-0.1,0.4-0.2,0.9-0.2,1.4v9.6h-2.8v-9.3c0-2.5-1.1-4.3-3.2-4.3c-1.8,0-3,1.4-3.5,2.8c-0.2,0.4-0.2,0.9-0.2,1.4v9.3h-2.8
		L1350.5,271.8L1350.5,271.8z"/>
	<path d="M1378.7,275.8c0.1,3.8,2.5,5.4,5.3,5.4c2,0,3.2-0.4,4.3-0.8l0.5,2c-1,0.4-2.7,1-5.2,1c-4.8,0-7.6-3.1-7.6-7.8
		c0-4.7,2.8-8.4,7.3-8.4c5.1,0,6.4,4.4,6.4,7.3c0,0.6-0.1,1-0.1,1.3H1378.7z M1387,273.8c0-1.8-0.7-4.6-3.9-4.6
		c-2.8,0-4.1,2.6-4.3,4.6H1387z"/>
	<path d="M1406.6,260.3V279c0,1.4,0,2.9,0.1,4h-2.5l-0.1-2.7h-0.1c-0.9,1.7-2.8,3-5.3,3c-3.7,0-6.6-3.2-6.6-7.9
		c0-5.2,3.2-8.3,6.9-8.3c2.4,0,4,1.1,4.7,2.4h0.1v-9.2H1406.6z M1403.8,273.9c0-0.4,0-0.8-0.1-1.2c-0.4-1.8-2-3.3-4.1-3.3
		c-2.9,0-4.6,2.6-4.6,6c0,3.1,1.5,5.7,4.6,5.7c1.9,0,3.6-1.2,4.1-3.4c0.1-0.4,0.1-0.8,0.1-1.2V273.9z"/>
	<path d="M1429.3,272.9h-8.4v7.8h9.3v2.3h-12.1v-21.6h11.6v2.3h-8.9v6.8h8.4L1429.3,272.9L1429.3,272.9z"/>
	<path d="M1433.8,271.8c0-1.6,0-2.9-0.1-4.2h2.5l0.2,2.6h0.1c0.8-1.5,2.6-2.9,5.1-2.9c2.1,0,5.5,1.3,5.5,6.6v9.2h-2.8v-8.9
		c0-2.5-0.9-4.6-3.6-4.6c-1.9,0-3.3,1.3-3.8,2.9c-0.1,0.4-0.2,0.8-0.2,1.3v9.3h-2.8L1433.8,271.8L1433.8,271.8z"/>
	<path d="M1454.8,263.1v4.4h4v2.1h-4v8.4c0,1.9,0.5,3,2.1,3c0.7,0,1.3-0.1,1.6-0.2l0.1,2.1c-0.5,0.2-1.4,0.4-2.5,0.4
		c-1.3,0-2.4-0.4-3-1.2c-0.8-0.8-1.1-2.2-1.1-4v-8.4h-2.4v-2.1h2.4v-3.7L1454.8,263.1z"/>
	<path d="M1465.1,263.2c0,1-0.7,1.7-1.8,1.7c-1,0-1.7-0.8-1.7-1.7c0-1,0.7-1.8,1.8-1.8C1464.5,261.5,1465.1,262.2,1465.1,263.2z
		 M1462,283.1v-15.5h2.8v15.5H1462z"/>
	<path d="M1472.9,263.1v4.4h4v2.1h-4v8.4c0,1.9,0.5,3,2.1,3c0.7,0,1.3-0.1,1.6-0.2l0.1,2.1c-0.5,0.2-1.4,0.4-2.5,0.4
		c-1.3,0-2.4-0.4-3-1.2c-0.8-0.8-1.1-2.2-1.1-4v-8.4h-2.4v-2.1h2.4v-3.7L1472.9,263.1z"/>
	<path d="M1481.4,267.6l3.4,9.2c0.4,1,0.7,2.2,1,3.2h0.1c0.3-0.9,0.6-2.1,1-3.2l3.1-9.1h3l-4.2,11c-2,5.3-3.4,8-5.3,9.7
		c-1.4,1.2-2.8,1.7-3.5,1.8l-0.7-2.4c0.7-0.2,1.6-0.7,2.5-1.4c0.8-0.6,1.7-1.7,2.4-3.1c0.1-0.3,0.2-0.5,0.2-0.7s-0.1-0.4-0.2-0.7
		l-5.7-14.3H1481.4z"/>
	<path d="M1502.3,261.8c1.4-0.3,3.4-0.4,5.3-0.4c3,0,4.9,0.5,6.2,1.8c1.1,1,1.7,2.4,1.7,4.1c0,2.8-1.8,4.7-4.1,5.5v0.1
		c1.7,0.6,2.7,2.1,3.2,4.4c0.7,3,1.2,5.1,1.7,5.9h-2.9c-0.4-0.6-0.8-2.5-1.4-5.2c-0.6-3-1.8-4.1-4.3-4.2h-2.6v9.3h-2.8L1502.3,261.8
		L1502.3,261.8z M1505.1,271.6h2.8c3,0,4.9-1.6,4.9-4.1c0-2.8-2-4-5-4c-1.3,0-2.3,0.1-2.8,0.3L1505.1,271.6L1505.1,271.6z"/>
	<path d="M1521.1,275.8c0.1,3.8,2.5,5.4,5.3,5.4c2,0,3.2-0.4,4.3-0.8l0.5,2c-1,0.4-2.7,1-5.2,1c-4.8,0-7.6-3.1-7.6-7.8
		c0-4.7,2.8-8.4,7.3-8.4c5.1,0,6.4,4.4,6.4,7.3c0,0.6-0.1,1-0.1,1.3H1521.1z M1529.4,273.8c0-1.8-0.7-4.6-3.9-4.6
		c-2.8,0-4.1,2.6-4.3,4.6H1529.4z"/>
	<path d="M1546.6,282.5c-0.7,0.4-2.4,0.9-4.4,0.9c-4.7,0-7.7-3.2-7.7-7.9c0-4.8,3.3-8.2,8.3-8.2c1.7,0,3.1,0.4,3.9,0.8l-0.6,2.2
		c-0.7-0.4-1.7-0.7-3.3-0.7c-3.6,0-5.5,2.6-5.5,5.9c0,3.6,2.3,5.8,5.4,5.8c1.6,0,2.7-0.4,3.5-0.8L1546.6,282.5z"/>
	<path d="M1563.8,275.2c0,5.7-4,8.2-7.7,8.2c-4.2,0-7.4-3.1-7.4-8c0-5.2,3.4-8.2,7.7-8.2C1560.8,267.2,1563.8,270.4,1563.8,275.2z
		 M1551.5,275.3c0,3.4,2,6,4.7,6s4.7-2.5,4.7-6c0-2.6-1.3-6-4.6-6C1552.9,269.3,1551.5,272.4,1551.5,275.3z"/>
	<path d="M1580.7,267.6c-0.1,1.1-0.1,2.4-0.1,4.3v9c0,3.6-0.7,5.7-2.2,7.1s-3.7,1.9-5.6,1.9s-3.9-0.4-5.2-1.3l0.7-2.1
		c1,0.6,2.6,1.2,4.5,1.2c2.9,0,5-1.5,5-5.4v-1.7h-0.1c-0.9,1.4-2.5,2.6-4.9,2.6c-3.8,0-6.6-3.3-6.6-7.6c0-5.2,3.4-8.2,7-8.2
		c2.7,0,4.2,1.4,4.8,2.7h0.1l0.1-2.3h2.5V267.6z M1577.7,273.7c0-0.5,0-0.9-0.2-1.3c-0.5-1.6-1.9-3-3.9-3c-2.7,0-4.6,2.3-4.6,5.9
		c0,3,1.5,5.6,4.6,5.6c1.7,0,3.3-1.1,3.9-2.9c0.2-0.5,0.2-1,0.2-1.5V273.7z"/>
	<path d="M1585,271.8c0-1.6,0-2.9-0.1-4.2h2.5l0.2,2.6h0.1c0.8-1.5,2.6-2.9,5.1-2.9c2.1,0,5.5,1.3,5.5,6.6v9.2h-2.8v-8.9
		c0-2.5-0.9-4.6-3.6-4.6c-1.9,0-3.3,1.3-3.8,2.9c-0.1,0.4-0.2,0.8-0.2,1.3v9.3h-2.8L1585,271.8L1585,271.8z"/>
	<path d="M1605.9,263.2c0,1-0.7,1.7-1.8,1.7c-1,0-1.7-0.8-1.7-1.7c0-1,0.7-1.8,1.8-1.8C1605.2,261.5,1605.9,262.2,1605.9,263.2z
		 M1602.8,283.1v-15.5h2.8v15.5H1602.8z"/>
	<path d="M1613.7,263.1v4.4h4v2.1h-4v8.4c0,1.9,0.5,3,2.1,3c0.7,0,1.3-0.1,1.6-0.2l0.1,2.1c-0.5,0.2-1.4,0.4-2.5,0.4
		c-1.3,0-2.4-0.4-3-1.2c-0.8-0.8-1.1-2.2-1.1-4v-8.4h-2.4v-2.1h2.4v-3.7L1613.7,263.1z"/>
	<path d="M1624,263.2c0,1-0.7,1.7-1.8,1.7c-1,0-1.7-0.8-1.7-1.7c0-1,0.7-1.8,1.8-1.8C1623.3,261.5,1624,262.2,1624,263.2z
		 M1620.9,283.1v-15.5h2.8v15.5H1620.9z"/>
	<path d="M1642.4,275.2c0,5.7-4,8.2-7.7,8.2c-4.2,0-7.4-3.1-7.4-8c0-5.2,3.4-8.2,7.7-8.2C1639.3,267.2,1642.4,270.4,1642.4,275.2z
		 M1630.1,275.3c0,3.4,2,6,4.7,6s4.7-2.5,4.7-6c0-2.6-1.3-6-4.6-6C1631.5,269.3,1630.1,272.4,1630.1,275.3z"/>
	<path d="M1645.9,271.8c0-1.6,0-2.9-0.1-4.2h2.5l0.2,2.6h0.1c0.8-1.5,2.6-2.9,5.1-2.9c2.1,0,5.5,1.3,5.5,6.6v9.2h-2.8v-8.9
		c0-2.5-0.9-4.6-3.6-4.6c-1.9,0-3.3,1.3-3.8,2.9c-0.1,0.4-0.2,0.8-0.2,1.3v9.3h-2.8L1645.9,271.8L1645.9,271.8z"/>
</g>
</svg>
