<?xml version="1.0" encoding="utf-8"?>
<!-- Generator: Adobe Illustrator 24.2.3, SVG Export Plug-In . SVG Version: 6.00 Build 0)  -->
<svg version="1.1" id="Layer_1" xmlns="http://www.w3.org/2000/svg" xmlns:xlink="http://www.w3.org/1999/xlink" x="0px" y="0px"
	 viewBox="0 0 1800 1200" style="enable-background:new 0 0 1800 1200;" xml:space="preserve">
<style type="text/css">
	.st0{opacity:0.9;fill:#009D9C;}
	.st1{fill:#FFFFFF;}
	.st2{opacity:0.9;fill:#ED7161;}
	.st3{opacity:0.9;fill:#C9554C;}
	.st4{opacity:0.9;fill:#ECBA16;}
	.st5{opacity:0.9;}
	.st6{fill:#ED7161;}
</style>
<g id="Layer_2_1_">
	<path class="st0" d="M666.1,646.2h-224c-7.4,0-13.4-6-13.4-13.4l0,0l0,0V519.5c0-7.4,6-13.4,13.4-13.4H666c7.4,0,13.4,6,13.4,13.4
		l0,0l0,0v113.3c0.1,7.3-5.8,13.3-13.1,13.4c0,0,0,0,0,0H666.1z"/>
	<path class="st1" d="M521.9,562.6v2.2h-5.7v3.6h4.4v2.2h-4.4v5.8h-2.8v-13.8H521.9z"/>
	<path class="st1" d="M524,563.7c-0.3-0.3-0.5-0.7-0.5-1.2c0-0.4,0.2-0.9,0.5-1.2c0.3-0.3,0.8-0.5,1.2-0.5c0.5,0,0.9,0.2,1.2,0.5
		c0.3,0.3,0.5,0.7,0.5,1.2c0,0.4-0.2,0.9-0.5,1.2c-0.3,0.3-0.8,0.5-1.2,0.5C524.8,564.1,524.3,564,524,563.7z M526.6,565.4v11h-2.8
		v-11H526.6z"/>
	<path class="st1" d="M538.5,566.5c0.9,0.9,1.3,2.2,1.2,3.5v6.4H537v-6c0.1-0.7-0.2-1.4-0.7-2c-1-0.9-2.6-0.9-3.6,0
		c-0.5,0.6-0.7,1.3-0.7,2v6h-2.8v-11h2.8v1.4c0.4-0.5,0.9-0.9,1.4-1.1C535.2,564.9,537.2,565.2,538.5,566.5L538.5,566.5z"/>
	<path class="st1" d="M552.5,571.7h-8c0,0.7,0.3,1.4,0.8,1.8c0.5,0.4,1.1,0.7,1.8,0.7c0.9,0.1,1.8-0.5,2.2-1.3h3
		c-0.3,1-0.9,2-1.8,2.6c-1,0.7-2.1,1-3.3,1c-1,0-2-0.2-2.8-0.7c-0.8-0.5-1.5-1.2-2-2c-0.5-0.9-0.7-2-0.7-3c0-1,0.2-2.1,0.7-3
		c0.4-0.8,1.1-1.5,1.9-2c1.8-0.9,3.9-0.9,5.7,0c0.8,0.4,1.5,1.1,1.9,1.9c0.5,0.9,0.7,1.8,0.7,2.8
		C552.5,570.9,552.5,571.3,552.5,571.7z M549.7,569.9c0-0.7-0.3-1.3-0.8-1.7c-0.5-0.4-1.2-0.7-1.8-0.6c-0.6,0-1.2,0.2-1.7,0.6
		c-0.5,0.5-0.8,1.1-0.9,1.7L549.7,569.9z"/>
	<path class="st1" d="M557.8,567.7v5.3c0,0.3,0.1,0.6,0.3,0.8c0.3,0.2,0.6,0.3,0.9,0.3h1.3v2.4h-1.7c-2.3,0-3.5-1.1-3.5-3.4v-5.3
		h-1.3v-2.3h1.3v-2.7h2.8v2.7h2.5v2.3L557.8,567.7z"/>
	<path class="st1" d="M572.5,565.4v11h-2.8V575c-0.4,0.5-0.8,0.9-1.4,1.1c-0.6,0.3-1.2,0.4-1.9,0.4c-0.8,0-1.6-0.2-2.3-0.5
		c-0.7-0.4-1.2-0.9-1.5-1.6c-0.4-0.8-0.6-1.6-0.6-2.5v-6.5h2.8v6c0,0.7,0.2,1.4,0.7,2c1,0.9,2.6,0.9,3.6,0c0.5-0.6,0.7-1.3,0.7-2v-6
		L572.5,565.4z"/>
	<path class="st1" d="M584.4,566.5c0.8,0.9,1.3,2.2,1.2,3.5v6.4h-2.8v-6c0.1-0.7-0.2-1.4-0.7-2c-0.5-0.5-1.1-0.7-1.8-0.7
		c-0.7,0-1.3,0.2-1.8,0.7c-0.5,0.6-0.7,1.3-0.7,2v6h-2.8v-11h2.8v1.4c0.4-0.5,0.9-0.9,1.4-1.1c0.6-0.3,1.2-0.4,1.9-0.4
		C582.5,565.2,583.6,565.6,584.4,566.5z"/>
	<path class="st1" d="M598.3,571.7h-8c0,0.7,0.3,1.4,0.8,1.8c0.5,0.4,1.1,0.7,1.8,0.7c0.9,0.1,1.8-0.5,2.2-1.3h3
		c-0.3,1-0.9,2-1.8,2.6c-1,0.7-2.1,1-3.3,1c-1,0-2-0.2-2.8-0.7c-0.8-0.5-1.5-1.2-2-2c-0.5-0.9-0.7-2-0.7-3c0-1,0.2-2.1,0.7-3
		c0.4-0.8,1.1-1.5,1.9-2c1.8-0.9,3.9-0.9,5.7,0c0.8,0.4,1.5,1.1,1.9,1.9c0.5,0.9,0.7,1.8,0.7,2.8
		C598.4,570.9,598.4,571.3,598.3,571.7z M595.5,569.9c0-0.7-0.3-1.3-0.8-1.7c-0.5-0.4-1.2-0.7-1.8-0.6c-0.6,0-1.2,0.2-1.7,0.6
		c-0.5,0.5-0.8,1.1-0.9,1.7L595.5,569.9z"/>
	<path class="st1" d="M517.2,588.5v3.5h4.7v2.2h-4.6v3.7h5.2v2.2h-8v-13.8h8v2.3H517.2z"/>
	<path class="st1" d="M534.1,590.2c0.8,0.9,1.3,2.2,1.2,3.4v6.4h-2.8v-6c0.1-0.7-0.2-1.4-0.7-2c-0.5-0.5-1.1-0.7-1.8-0.7
		c-0.7,0-1.3,0.2-1.8,0.7c-0.5,0.6-0.7,1.3-0.7,2v6h-2.8v-10.9h2.8v1.4c0.4-0.5,0.9-0.9,1.4-1.1c0.6-0.3,1.2-0.4,1.9-0.4
		C532.1,588.9,533.3,589.3,534.1,590.2z"/>
	<path class="st1" d="M537.9,591.6c0.4-0.8,1.1-1.5,1.9-2c0.9-0.5,1.8-0.7,2.8-0.7c1.2-0.1,2.4,0.3,3.4,1c0.9,0.7,1.5,1.7,1.8,2.8
		h-3c-0.1-0.4-0.4-0.8-0.8-1.1c-1-0.7-2.4-0.5-3.3,0.5c-0.5,0.7-0.7,1.6-0.7,2.4c-0.1,0.9,0.2,1.7,0.7,2.4c0.5,0.6,1.2,0.9,1.9,0.9
		c1,0.1,1.9-0.5,2.2-1.5h3c-0.3,1.1-0.9,2.1-1.8,2.8c-1,0.7-2.2,1.1-3.3,1c-1,0-1.9-0.2-2.8-0.7c-0.8-0.5-1.5-1.2-1.9-2
		C537,595.6,537,593.4,537.9,591.6L537.9,591.6z"/>
	<path class="st1" d="M558.2,591.8v2.3h-8.4v-2.3H558.2z"/>
	<path class="st1" d="M569.9,587.1c1.1,0.5,2,1.4,2.5,2.4c0.6,1.1,0.9,2.4,0.9,3.6c0,1.3-0.3,2.5-0.9,3.6c-0.6,1-1.5,1.9-2.5,2.4
		c-1.2,0.6-2.5,0.9-3.8,0.8h-4.8v-13.8h4.8C567.4,586.2,568.7,586.5,569.9,587.1z M569.3,596.5c0.8-0.9,1.3-2.1,1.2-3.3
		c0.1-1.2-0.3-2.5-1.2-3.4c-0.9-0.9-2.1-1.3-3.4-1.2h-2v9.1h2C567.2,597.7,568.4,597.3,569.3,596.5z"/>
	<path class="st1" d="M585.5,595.4h-8c0,0.7,0.3,1.4,0.8,1.8c0.5,0.4,1.1,0.7,1.8,0.7c0.9,0.1,1.8-0.5,2.2-1.3h3
		c-0.3,1-0.9,1.9-1.8,2.6c-1,0.7-2.1,1-3.3,1c-1,0-2-0.2-2.8-0.7c-0.8-0.5-1.5-1.2-2-2c-0.5-0.9-0.7-2-0.7-3c0-1,0.2-2.1,0.7-3
		c0.4-0.8,1.1-1.5,1.9-2c0.9-0.5,1.9-0.7,2.9-0.7c1,0,1.9,0.2,2.8,0.7c0.8,0.4,1.5,1.1,1.9,1.9c0.5,0.9,0.7,1.8,0.7,2.8
		C585.6,594.6,585.6,595,585.5,595.4z M582.7,593.5c0-0.7-0.3-1.3-0.8-1.7c-0.5-0.4-1.2-0.7-1.8-0.7c-0.6,0-1.3,0.2-1.7,0.6
		c-0.5,0.5-0.8,1.1-0.9,1.7L582.7,593.5z"/>
	<path class="st1" d="M587.6,591.6c0.4-0.8,1.1-1.5,1.9-2c0.9-0.5,1.8-0.7,2.8-0.7c1.2-0.1,2.4,0.3,3.4,1c0.9,0.7,1.5,1.7,1.8,2.8
		h-3c-0.1-0.4-0.4-0.8-0.8-1.1c-0.4-0.3-0.9-0.4-1.4-0.4c-0.7,0-1.4,0.3-1.9,0.9c-0.5,0.7-0.7,1.6-0.7,2.4c-0.1,0.9,0.2,1.7,0.7,2.4
		c0.5,0.6,1.1,0.9,1.9,0.9c1,0.1,1.9-0.5,2.2-1.5h3c-0.3,1.1-0.9,2.1-1.8,2.8c-1,0.7-2.2,1.1-3.3,1c-1,0-1.9-0.2-2.8-0.7
		c-0.8-0.5-1.5-1.2-1.9-2C586.6,595.6,586.6,593.4,587.6,591.6L587.6,591.6z"/>
	<path class="st0" d="M666.1,973h-224c-7.4,0-13.4-6-13.4-13.4l0,0l0,0V846.3c0-7.4,6-13.4,13.4-13.4c0,0,0,0,0,0H666
		c7.4,0,13.4,6,13.4,13.4v0l0,0v113.3C679.5,966.9,673.5,972.9,666.1,973C666.2,973,666.2,973,666.1,973L666.1,973z"/>
	<path class="st1" d="M519,890v2.2h-5.7v3.5h4.4v2.2h-4.4v5.8h-2.8V890H519z"/>
	<path class="st1" d="M521.1,891c-0.6-0.6-0.6-1.7,0-2.3c0,0,0,0,0,0c0.7-0.6,1.7-0.6,2.4,0c0.6,0.6,0.6,1.7,0,2.3c0,0,0,0,0,0
		C522.8,891.6,521.8,891.6,521.1,891z M523.7,892.8v10.9h-2.8v-10.9L523.7,892.8z"/>
	<path class="st1" d="M535.6,893.9c0.8,0.9,1.3,2.2,1.2,3.4v6.4h-2.8v-6c0.1-0.7-0.2-1.4-0.7-2c-1-0.9-2.6-0.9-3.6,0
		c-0.5,0.6-0.7,1.3-0.7,2v6h-2.8v-10.9h2.8v1.4c0.4-0.5,0.9-0.9,1.4-1.1C532.3,892.3,534.2,892.6,535.6,893.9L535.6,893.9z"/>
	<path class="st1" d="M549.5,899.1h-8c0,0.7,0.3,1.4,0.8,1.8c0.5,0.4,1.1,0.7,1.8,0.7c0.9,0.1,1.8-0.5,2.2-1.3h3
		c-0.3,1-0.9,1.9-1.8,2.6c-1,0.7-2.1,1-3.3,1c-1,0-2-0.2-2.8-0.7c-0.8-0.5-1.5-1.2-2-2c-0.9-1.9-0.9-4.1,0-5.9
		c0.4-0.8,1.1-1.5,1.9-2c1.8-0.9,3.9-0.9,5.7,0c0.8,0.4,1.5,1.1,1.9,1.9c0.5,0.9,0.7,1.8,0.7,2.8
		C549.6,898.3,549.6,898.7,549.5,899.1z M546.7,897.2c0-0.7-0.3-1.3-0.8-1.7c-0.5-0.4-1.2-0.7-1.8-0.6c-0.6,0-1.3,0.2-1.7,0.6
		c-0.5,0.5-0.8,1.1-0.9,1.7L546.7,897.2z"/>
	<path class="st1" d="M554.8,895.1v5.3c0,0.3,0.1,0.6,0.3,0.8c0.3,0.2,0.6,0.3,0.9,0.2h1.3v2.3h-1.7c-2.3,0-3.5-1.1-3.5-3.4v-5.3
		h-1.3v-2.3h1.3v-2.7h2.8v2.7h2.5v2.3L554.8,895.1z"/>
	<path class="st1" d="M569.6,892.8v10.9h-2.8v-1.3c-0.4,0.5-0.8,0.9-1.4,1.1c-0.6,0.3-1.2,0.4-1.9,0.4c-0.8,0-1.6-0.2-2.3-0.5
		c-0.7-0.4-1.2-0.9-1.5-1.6c-0.4-0.8-0.6-1.6-0.6-2.5v-6.4h2.8v6c0,0.7,0.2,1.4,0.7,2c1,0.9,2.6,0.9,3.6,0c0.5-0.6,0.7-1.3,0.7-2v-6
		L569.6,892.8z"/>
	<path class="st1" d="M581.5,893.9c0.9,0.9,1.3,2.2,1.2,3.4v6.4H580v-6c0.1-0.7-0.2-1.4-0.7-2c-1-0.9-2.6-0.9-3.6,0
		c-0.5,0.6-0.7,1.3-0.7,2v6h-2.8v-10.9h2.8v1.4c0.4-0.5,0.9-0.9,1.4-1.1c0.6-0.3,1.2-0.4,1.9-0.4C579.5,892.6,580.7,893,581.5,893.9
		z"/>
	<path class="st1" d="M595.4,899.1h-8c0,0.7,0.3,1.4,0.8,1.8c0.5,0.4,1.1,0.7,1.8,0.7c0.9,0.1,1.8-0.5,2.2-1.3h3
		c-0.3,1-0.9,1.9-1.8,2.6c-1,0.7-2.1,1-3.3,1c-1,0-2-0.2-2.8-0.7c-0.8-0.5-1.5-1.2-2-2c-0.5-0.9-0.7-2-0.7-3c0-1,0.2-2.1,0.7-3
		c0.4-0.8,1.1-1.5,1.9-2c0.9-0.5,1.9-0.7,2.9-0.7c1,0,1.9,0.2,2.8,0.7c0.8,0.4,1.5,1.1,1.9,1.9c0.5,0.9,0.7,1.8,0.7,2.8
		C595.5,898.3,595.5,898.7,595.4,899.1z M592.6,897.2c0-0.7-0.3-1.3-0.8-1.7c-0.5-0.4-1.2-0.7-1.8-0.6c-0.6,0-1.2,0.2-1.7,0.6
		c-0.5,0.5-0.8,1.1-0.9,1.7L592.6,897.2z"/>
	<path class="st1" d="M514.2,915.8v3.5h4.6v2.2h-4.6v3.7h5.2v2.2h-8v-13.8h8v2.3H514.2z"/>
	<path class="st1" d="M531.2,917.5c0.8,0.9,1.3,2.2,1.2,3.5v6.4h-2.8v-6c0.1-0.7-0.2-1.4-0.7-2c-0.5-0.5-1.1-0.7-1.8-0.7
		c-0.7,0-1.3,0.2-1.8,0.7c-0.5,0.6-0.7,1.3-0.7,2v6H522v-10.9h2.8v1.4c0.4-0.5,0.9-0.9,1.4-1.1c0.6-0.3,1.2-0.4,1.9-0.4
		C529.2,916.3,530.3,916.7,531.2,917.5z"/>
	<path class="st1" d="M535,919c0.4-0.8,1.1-1.5,1.9-2c0.9-0.5,1.8-0.7,2.8-0.7c1.2-0.1,2.4,0.3,3.4,1c0.9,0.7,1.5,1.7,1.8,2.8h-3
		c-0.1-0.5-0.4-0.9-0.9-1.1c-1.1-0.7-2.4-0.5-3.3,0.5c-0.9,1.5-0.9,3.4,0,4.8c0.5,0.6,1.1,0.9,1.9,0.9c1,0.1,1.9-0.5,2.2-1.5h3
		c-0.3,1.1-0.9,2.1-1.8,2.8c-1,0.7-2.2,1.1-3.3,1c-1,0-1.9-0.2-2.8-0.7c-0.8-0.5-1.5-1.2-1.9-2c-0.9-1.9-0.9-4.1,0-5.9L535,919z"/>
	<path class="st1" d="M555.3,919.2v2.3h-8.4v-2.3H555.3z"/>
	<path class="st1" d="M567,914.5c1.1,0.5,2,1.4,2.5,2.4c1.2,2.3,1.2,5,0,7.3c-0.6,1-1.5,1.9-2.5,2.4c-1.2,0.6-2.5,0.9-3.8,0.8h-4.8
		v-13.8h4.8C564.5,913.6,565.8,913.9,567,914.5z M566.4,923.8c0.8-0.9,1.3-2.1,1.2-3.3c0.1-1.2-0.3-2.4-1.2-3.4
		c-0.9-0.9-2.1-1.3-3.3-1.2h-2v9.1h2C564.3,925.1,565.5,924.6,566.4,923.8L566.4,923.8z"/>
	<path class="st1" d="M582.6,922.8h-8c0,0.7,0.3,1.4,0.8,1.8c0.5,0.4,1.1,0.7,1.8,0.7c0.9,0,1.8-0.5,2.2-1.3h3c-0.3,1-0.9,2-1.8,2.6
		c-1,0.7-2.1,1-3.3,1c-1,0-2-0.2-2.8-0.7c-0.8-0.5-1.5-1.2-2-2c-0.9-1.9-0.9-4.1,0-6c0.4-0.8,1.1-1.5,1.9-2c0.9-0.5,1.9-0.7,2.9-0.7
		c1,0,1.9,0.2,2.8,0.7c0.8,0.4,1.5,1.1,1.9,1.9c0.5,0.9,0.7,1.8,0.7,2.8C582.7,922,582.6,922.4,582.6,922.8z M579.8,920.9
		c0-0.7-0.3-1.3-0.8-1.7c-0.5-0.4-1.2-0.7-1.8-0.6c-0.6,0-1.3,0.2-1.7,0.6c-0.5,0.5-0.8,1.1-0.9,1.7L579.8,920.9z"/>
	<path class="st1" d="M584.6,919c0.4-0.8,1.1-1.5,1.9-2c0.9-0.5,1.8-0.7,2.8-0.7c1.2-0.1,2.4,0.3,3.4,1c0.9,0.7,1.5,1.7,1.8,2.8h-3
		c-0.1-0.5-0.4-0.8-0.8-1.1c-1.1-0.7-2.4-0.5-3.3,0.5c-0.9,1.5-0.9,3.4,0,4.8c0.5,0.6,1.1,0.9,1.9,0.9c1,0.1,1.9-0.5,2.2-1.5h3
		c-0.3,1.1-0.9,2.1-1.8,2.8c-1,0.7-2.2,1.1-3.4,1c-1,0-1.9-0.2-2.8-0.7c-0.8-0.5-1.5-1.2-1.9-2c-0.9-1.9-0.9-4.1,0-5.9L584.6,919z"
		/>
	<path class="st0" d="M1712.8,976.6h-224c-7.4,0-13.4-6-13.4-13.4v0l0,0V849.9c0-7.4,6-13.4,13.4-13.4l0,0h224
		c7.4,0,13.4,6,13.4,13.4v0l0,0v113.3C1726.2,970.6,1720.2,976.6,1712.8,976.6L1712.8,976.6z"/>
	<path class="st1" d="M1525.5,879.9v2.2h-3.7v11.5h-2.8v-11.5h-3.7v-2.2H1525.5z"/>
	<path class="st1" d="M1531.7,883c0.6-0.3,1.3-0.5,2-0.5v2.9h-0.7c-1.3-0.2-2.4,0.6-2.6,1.9c0,0.3,0,0.6,0,0.8v5.4h-2.8v-10.9h2.8
		v1.7C1530.7,883.8,1531.1,883.4,1531.7,883z"/>
	<path class="st1" d="M1535.5,885.2c0.4-0.8,1-1.5,1.8-2c0.8-0.5,1.6-0.7,2.5-0.7c0.7,0,1.5,0.2,2.1,0.5c0.6,0.3,1.1,0.7,1.5,1.2
		v-1.6h2.8v10.9h-2.8V892c-0.4,0.5-0.9,1-1.5,1.3c-1.5,0.7-3.3,0.6-4.7-0.2c-0.8-0.5-1.4-1.2-1.8-2c-0.5-0.9-0.7-2-0.7-3
		C1534.8,887.1,1535,886.1,1535.5,885.2z M1543,886.5c-0.2-0.5-0.6-0.9-1.1-1.1c-0.4-0.2-0.9-0.4-1.4-0.4c-1,0-2,0.6-2.5,1.5
		c-0.3,0.5-0.4,1.1-0.4,1.7c0,0.6,0.1,1.2,0.4,1.7c0.2,0.5,0.6,0.9,1.1,1.1c0.4,0.3,0.9,0.4,1.4,0.4c0.5,0,1-0.1,1.5-0.4
		c0.5-0.3,0.8-0.6,1.1-1.1c0.3-0.5,0.4-1.1,0.4-1.7C1543.5,887.6,1543.3,887,1543,886.5L1543,886.5z"/>
	<path class="st1" d="M1549.1,881c-0.3-0.3-0.5-0.7-0.5-1.2c0-0.4,0.2-0.9,0.5-1.2c0.7-0.6,1.7-0.6,2.4,0c0.6,0.6,0.7,1.6,0,2.3
		c0,0,0,0,0,0C1550.8,881.6,1549.8,881.6,1549.1,881z M1551.6,882.8v10.9h-2.8v-11L1551.6,882.8z"/>
	<path class="st1" d="M1563.6,883.8c0.9,0.9,1.3,2.2,1.2,3.5v6.4h-2.8v-6c0.1-0.7-0.2-1.4-0.7-2c-0.5-0.5-1.1-0.7-1.8-0.7
		c-0.7,0-1.3,0.2-1.8,0.7c-0.5,0.6-0.7,1.3-0.7,2v6h-2.8v-10.9h2.8v1.4c0.4-0.5,0.9-0.9,1.4-1.1c0.6-0.3,1.2-0.4,1.9-0.4
		C1561.6,882.5,1562.7,882.9,1563.6,883.8z"/>
	<path class="st1" d="M1580.1,879.9v9.7c0.1,1.2-0.4,2.3-1.2,3.1c-0.9,0.8-2,1.2-3.1,1.1c-1.2,0-2.3-0.4-3.2-1.1
		c-0.8-0.8-1.3-2-1.2-3.2h2.8c0,0.5,0.1,1,0.4,1.4c0.3,0.3,0.7,0.5,1.2,0.5c0.4,0,0.9-0.1,1.1-0.5c0.3-0.4,0.4-0.8,0.4-1.3v-9.7
		H1580.1z"/>
	<path class="st1" d="M1585.3,893.1c-0.8-0.5-1.5-1.2-2-2c-1-1.9-1-4.1,0-6c0.5-0.8,1.2-1.5,2-2c1.8-0.9,3.9-0.9,5.7,0
		c0.8,0.5,1.5,1.2,2,2c0.5,0.9,0.8,2,0.7,3c0,1.1-0.2,2.1-0.8,3c-0.5,0.8-1.2,1.5-2,2c-0.9,0.5-1.9,0.7-2.9,0.7
		C1587.2,893.8,1586.2,893.6,1585.3,893.1z M1589.6,891c0.4-0.3,0.8-0.6,1.1-1.1c0.3-0.6,0.4-1.2,0.4-1.8c0.1-0.9-0.2-1.7-0.8-2.4
		c-0.5-0.6-1.2-0.9-2-0.8c-0.8,0-1.5,0.3-2,0.8c-0.6,0.7-0.9,1.5-0.8,2.4c-0.1,0.9,0.2,1.7,0.8,2.4c0.5,0.6,1.2,0.9,2,0.8
		C1588.7,891.4,1589.2,891.3,1589.6,891L1589.6,891z"/>
	<path class="st1" d="M1596.1,881c-0.3-0.3-0.5-0.7-0.5-1.2c0-0.4,0.2-0.9,0.5-1.2c0.7-0.6,1.7-0.6,2.4,0c0.3,0.3,0.5,0.7,0.5,1.2
		c0,0.4-0.2,0.9-0.5,1.2c-0.3,0.3-0.8,0.5-1.2,0.5C1596.9,881.5,1596.4,881.3,1596.1,881z M1598.7,882.8v10.9h-2.8v-11L1598.7,882.8
		z"/>
	<path class="st1" d="M1610.6,883.8c0.9,0.9,1.3,2.2,1.2,3.5v6.4h-2.8v-6c0.1-0.7-0.2-1.4-0.7-2c-1-0.9-2.6-0.9-3.6,0
		c-0.5,0.6-0.7,1.3-0.7,2v6h-2.8v-10.9h2.8v1.4c0.4-0.5,0.9-0.9,1.4-1.1c0.6-0.3,1.2-0.4,1.9-0.4
		C1608.6,882.5,1609.8,882.9,1610.6,883.8z"/>
	<path class="st1" d="M1617.7,885v5.3c0,0.3,0.1,0.6,0.3,0.8c0.3,0.2,0.6,0.3,0.9,0.3h1.3v2.3h-1.7c-2.3,0-3.5-1.1-3.5-3.4V885h-1.3
		v-2.3h1.3V880h2.8v2.7h2.4v2.3H1617.7z"/>
	<path class="st1" d="M1641.8,879.9v13.8h-2.8v-9l-3.7,9h-2.1l-3.7-9v9h-2.8v-13.8h3.1l4.4,10.2l4.4-10.2H1641.8z"/>
	<path class="st1" d="M1646.5,893.1c-0.8-0.5-1.5-1.2-2-2c-1-1.9-1-4.1,0-6c0.5-0.8,1.2-1.5,2-2c1.8-0.9,3.9-0.9,5.7,0
		c0.8,0.5,1.5,1.2,2,2c0.5,0.9,0.8,2,0.7,3c0,1.1-0.2,2.1-0.8,3c-0.5,0.8-1.2,1.5-2,2c-0.9,0.5-1.9,0.7-2.9,0.7
		C1648.3,893.8,1647.4,893.6,1646.5,893.1z M1650.8,891c0.4-0.3,0.8-0.6,1.1-1.1c0.3-0.6,0.4-1.2,0.4-1.8c0.1-0.9-0.2-1.7-0.8-2.4
		c-0.5-0.6-1.2-0.9-2-0.8c-0.8,0-1.5,0.3-2,0.8c-0.6,0.7-0.9,1.5-0.8,2.4c-0.1,0.9,0.2,1.7,0.8,2.4c0.5,0.6,1.2,0.9,2,0.8
		C1649.9,891.4,1650.4,891.3,1650.8,891L1650.8,891z"/>
	<path class="st1" d="M1657,885.2c0.4-0.8,1-1.5,1.8-2c0.8-0.5,1.6-0.7,2.5-0.7c0.7,0,1.4,0.2,2,0.5c0.6,0.3,1.1,0.7,1.5,1.2V879
		h2.8v14.6h-2.8V892c-0.4,0.6-0.9,1-1.4,1.3c-0.7,0.3-1.4,0.5-2.2,0.5c-0.9,0-1.8-0.2-2.5-0.7c-0.8-0.5-1.4-1.2-1.8-2
		c-0.5-0.9-0.7-2-0.7-3C1656.3,887.1,1656.5,886.1,1657,885.2z M1664.6,886.5c-0.2-0.5-0.6-0.8-1.1-1.1c-0.4-0.2-0.9-0.4-1.4-0.4
		c-0.5,0-1,0.1-1.4,0.4c-0.4,0.3-0.8,0.7-1,1.1c-0.3,0.5-0.4,1.1-0.4,1.7c0,0.6,0.1,1.2,0.4,1.7c0.2,0.5,0.6,0.9,1.1,1.1
		c0.4,0.3,0.9,0.4,1.4,0.4c0.5,0,1-0.1,1.4-0.4c0.5-0.3,0.8-0.6,1.1-1.1c0.3-0.5,0.4-1.1,0.4-1.7
		C1665,887.6,1664.9,887,1664.6,886.5L1664.6,886.5z"/>
	<path class="st1" d="M1680.5,889h-8c0,0.7,0.3,1.4,0.8,1.8c0.5,0.4,1.1,0.7,1.8,0.7c0.9,0.1,1.8-0.5,2.2-1.3h3
		c-0.3,1-0.9,2-1.8,2.6c-1,0.7-2.1,1-3.3,1c-1,0-2-0.2-2.8-0.7c-0.8-0.5-1.5-1.2-2-2c-0.9-1.9-0.9-4.1,0-6c0.4-0.8,1.1-1.5,1.9-2
		c1.8-0.9,3.9-0.9,5.7,0c0.8,0.4,1.5,1.1,1.9,1.9c0.5,0.9,0.7,1.8,0.7,2.8C1680.6,888.2,1680.6,888.6,1680.5,889z M1677.8,887.2
		c0-0.7-0.3-1.3-0.8-1.7c-0.5-0.4-1.2-0.7-1.8-0.6c-0.6,0-1.3,0.2-1.7,0.6c-0.5,0.5-0.8,1.1-0.9,1.7L1677.8,887.2z"/>
	<path class="st1" d="M1685.4,879v14.6h-2.8V879H1685.4z"/>
	<path class="st1" d="M1526.5,903.5v2.2h-5.7v3.5h4.4v2.2h-4.4v5.8h-2.7v-13.8H1526.5z"/>
	<path class="st1" d="M1530.4,916.8c-0.8-0.5-1.5-1.2-2-2c-1-1.9-1-4.1,0-6c0.5-0.8,1.2-1.5,2-2c1.8-0.9,3.9-0.9,5.7,0
		c0.8,0.5,1.5,1.2,2,2c0.5,0.9,0.8,2,0.7,3c0,1-0.2,2.1-0.8,3c-0.5,0.8-1.2,1.5-2.1,2c-0.9,0.5-1.9,0.7-2.9,0.7
		C1532.2,917.5,1531.3,917.2,1530.4,916.8z M1534.7,914.7c0.4-0.3,0.8-0.6,1-1.1c0.3-0.5,0.4-1.2,0.4-1.8c0.1-0.9-0.2-1.7-0.8-2.4
		c-1.1-1.1-2.9-1.1-4,0c0,0,0,0,0,0c-1.1,1.4-1.1,3.4,0,4.8c0.5,0.6,1.2,0.9,2,0.8C1533.8,915.1,1534.2,914.9,1534.7,914.7z"/>
	<path class="st1" d="M1545.2,906.7c0.6-0.3,1.3-0.5,2-0.5v2.9h-0.7c-1.3-0.2-2.4,0.6-2.6,1.9c0,0.3,0,0.6,0,0.8v5.4h-2.8v-10.9h2.8
		v1.7C1544.1,907.5,1544.6,907,1545.2,906.7z"/>
	<path class="st1" d="M1555.8,916.9c-0.7-0.3-1.4-0.8-1.8-1.4c-0.5-0.6-0.7-1.4-0.7-2.2h3c0,0.5,0.2,1,0.6,1.3
		c0.4,0.3,0.9,0.5,1.5,0.5c0.5,0,1.1-0.1,1.5-0.5c0.4-0.3,0.6-0.7,0.6-1.2c0-0.4-0.1-0.7-0.4-1c-0.3-0.3-0.6-0.5-0.9-0.6
		c-0.5-0.2-1-0.4-1.6-0.5c-0.7-0.2-1.5-0.5-2.2-0.8c-0.6-0.3-1.1-0.7-1.4-1.2c-0.4-0.6-0.6-1.3-0.6-2.1c0-0.8,0.2-1.5,0.6-2.1
		c0.4-0.6,1-1.1,1.7-1.4c0.8-0.3,1.7-0.5,2.5-0.5c1.2-0.1,2.5,0.3,3.5,1c0.9,0.7,1.4,1.8,1.5,2.9h-3c0-0.5-0.2-0.9-0.6-1.2
		c-0.4-0.3-1-0.5-1.5-0.5c-0.5,0-0.9,0.1-1.3,0.4c-0.3,0.3-0.5,0.7-0.5,1.2c0,0.3,0.1,0.7,0.4,0.9c0.3,0.2,0.6,0.4,0.9,0.6
		c0.5,0.2,1,0.4,1.5,0.5c0.7,0.2,1.5,0.5,2.2,0.8c0.6,0.3,1.1,0.7,1.5,1.2c0.4,0.6,0.7,1.3,0.6,2.1c0,0.7-0.2,1.4-0.6,2
		c-0.4,0.7-1,1.2-1.7,1.5c-0.8,0.4-1.7,0.6-2.6,0.6C1557.6,917.4,1556.7,917.3,1555.8,916.9z"/>
	<path class="st1" d="M1575.7,912.7h-8c0,0.7,0.3,1.4,0.8,1.8c0.5,0.4,1.1,0.7,1.8,0.7c0.9,0,1.8-0.5,2.2-1.3h3
		c-0.3,1-0.9,1.9-1.8,2.6c-1,0.7-2.1,1-3.3,1c-1,0-2-0.2-2.8-0.7c-0.8-0.5-1.5-1.2-2-2c-0.9-1.9-0.9-4.1,0-6c0.4-0.8,1.1-1.5,1.9-2
		c0.9-0.5,1.9-0.7,2.9-0.7c1,0,1.9,0.2,2.8,0.7c0.8,0.4,1.5,1.1,1.9,1.9c0.5,0.9,0.7,1.8,0.7,2.8
		C1575.8,911.9,1575.8,912.3,1575.7,912.7z M1573,910.8c0-0.7-0.3-1.3-0.8-1.7c-0.5-0.4-1.2-0.7-1.8-0.7c-0.6,0-1.3,0.2-1.7,0.6
		c-0.5,0.5-0.8,1.1-0.9,1.7L1573,910.8z"/>
	<path class="st1" d="M1577.8,908.9c0.4-0.8,1.1-1.5,1.8-2c0.8-0.5,1.7-0.7,2.6-0.7c0.7,0,1.4,0.1,2.1,0.4c0.6,0.3,1.1,0.6,1.4,1.1
		v-1.4h2.8v16.1h-2.8v-6.7c-0.4,0.5-0.9,0.9-1.5,1.2c-0.6,0.3-1.4,0.5-2.1,0.5c-0.9,0-1.8-0.3-2.5-0.7c-0.8-0.5-1.4-1.2-1.8-2
		C1576.9,912.9,1576.9,910.8,1577.8,908.9L1577.8,908.9z M1585.3,910.1c-0.3-0.5-0.6-0.8-1.1-1.1c-0.4-0.2-0.9-0.4-1.4-0.4
		c-1,0-2,0.6-2.5,1.5c-0.3,0.5-0.4,1.1-0.4,1.7c0,0.6,0.1,1.2,0.4,1.7c0.3,0.5,0.6,0.8,1.1,1.1c0.4,0.2,0.9,0.4,1.4,0.4
		c1,0,2-0.6,2.5-1.5C1585.9,912.5,1585.9,911.2,1585.3,910.1z"/>
	<path class="st1" d="M1591.2,917c-0.3-0.3-0.5-0.7-0.5-1.2c0-0.4,0.2-0.9,0.5-1.2c0.3-0.3,0.8-0.5,1.2-0.5c0.4,0,0.9,0.2,1.2,0.5
		c0.6,0.6,0.6,1.7,0,2.3c-0.3,0.3-0.8,0.5-1.2,0.5C1592,917.5,1591.5,917.3,1591.2,917z"/>
	<path class="st1" d="M1603.8,915.1h4.5v2.2h-7.3v-13.8h2.8L1603.8,915.1z"/>
	<path class="st1" d="M1610,908.9c0.4-0.8,1-1.5,1.8-2c0.8-0.5,1.6-0.7,2.5-0.7c1.4,0,2.8,0.6,3.6,1.7v-1.5h2.8v10.9h-2.7v-1.6
		c-0.4,0.5-0.9,1-1.5,1.3c-0.7,0.3-1.4,0.5-2.2,0.5c-0.9,0-1.8-0.2-2.5-0.7c-0.8-0.5-1.4-1.2-1.8-2c-0.5-0.9-0.7-2-0.7-3
		C1609.4,910.8,1609.6,909.8,1610,908.9z M1617.6,910.1c-0.5-0.9-1.5-1.5-2.5-1.5c-1,0-2,0.6-2.5,1.5c-0.3,0.5-0.4,1.1-0.4,1.7
		c0,0.6,0.1,1.2,0.4,1.7c0.2,0.5,0.6,0.9,1.1,1.1c1.3,0.8,3.1,0.3,3.9-1c0,0,0-0.1,0.1-0.1C1618.1,912.5,1618.1,911.2,1617.6,910.1
		L1617.6,910.1z"/>
	<path class="st1" d="M1627.7,906.7c0.7-0.3,1.4-0.5,2.1-0.5c0.9,0,1.8,0.2,2.5,0.7c0.8,0.5,1.4,1.2,1.8,2c0.5,0.9,0.7,2,0.7,3
		c0,1-0.2,2.1-0.7,3c-0.4,0.8-1,1.5-1.8,2c-0.8,0.5-1.6,0.7-2.5,0.7c-0.7,0-1.5-0.2-2.1-0.5c-0.6-0.3-1.1-0.7-1.5-1.3v1.6h-2.8
		v-14.7h2.8v5.3C1626.6,907.5,1627.1,907,1627.7,906.7z M1631.6,910.1c-0.5-0.9-1.5-1.5-2.5-1.5c-1,0-2,0.6-2.5,1.5
		c-0.5,1.1-0.5,2.4,0,3.4c0.5,0.9,1.4,1.5,2.5,1.5c0.5,0,1-0.1,1.4-0.4c0.4-0.3,0.8-0.7,1.1-1.1c0.3-0.5,0.4-1.1,0.4-1.7
		C1632,911.2,1631.9,910.6,1631.6,910.1L1631.6,910.1z"/>
	<path class="st1" d="M1646.9,912.7h-8c0,0.7,0.3,1.4,0.8,1.8c0.5,0.4,1.1,0.7,1.8,0.7c0.9,0,1.8-0.5,2.2-1.3h3
		c-0.3,1-0.9,1.9-1.8,2.6c-1,0.7-2.1,1-3.3,1c-1,0-2-0.2-2.8-0.7c-0.8-0.5-1.5-1.2-2-2c-0.9-1.9-0.9-4.1,0-5.9
		c0.4-0.8,1.1-1.5,1.9-2c1.8-0.9,3.9-0.9,5.7,0c0.8,0.4,1.5,1.1,1.9,1.9c0.5,0.9,0.7,1.8,0.7,2.8
		C1647,911.9,1646.9,912.3,1646.9,912.7z M1644.1,910.8c0-0.7-0.3-1.3-0.8-1.7c-0.5-0.4-1.2-0.7-1.8-0.7c-0.6,0-1.3,0.2-1.7,0.6
		c-0.5,0.5-0.8,1.1-0.9,1.7L1644.1,910.8z"/>
	<path class="st1" d="M1651.7,902.7v14.6h-2.7v-14.6H1651.7z"/>
	<path class="st1" d="M1654.7,904.6c-0.6-0.6-0.6-1.7,0-2.3c0,0,0,0,0,0c0.3-0.3,0.8-0.5,1.2-0.5c0.5,0,0.9,0.1,1.2,0.5
		c0.6,0.6,0.6,1.7,0,2.3c0,0,0,0,0,0c-0.3,0.3-0.8,0.5-1.2,0.5C1655.4,905.1,1655,904.9,1654.7,904.6z M1657.2,906.4v10.9h-2.8
		v-10.9L1657.2,906.4z"/>
	<path class="st1" d="M1669.2,907.5c0.9,0.9,1.3,2.2,1.2,3.4v6.4h-2.8v-6c0.1-0.7-0.2-1.4-0.7-2c-0.5-0.5-1.1-0.7-1.8-0.7
		c-0.7,0-1.3,0.2-1.8,0.7c-0.5,0.6-0.7,1.3-0.7,2v6h-2.7v-10.9h2.8v1.4c0.4-0.5,0.9-0.9,1.4-1.1c0.6-0.3,1.2-0.4,1.9-0.4
		C1667.2,906.2,1668.3,906.6,1669.2,907.5z"/>
	<path class="st1" d="M1679.4,906.7c0.6,0.3,1.1,0.7,1.5,1.3v-1.5h2.8v11c0,0.9-0.2,1.9-0.6,2.7c-0.4,0.8-1.1,1.5-1.8,1.9
		c-0.9,0.5-2,0.7-3,0.7c-1.4,0.1-2.7-0.3-3.8-1.1c-1-0.7-1.6-1.8-1.7-3h2.7c0.2,0.5,0.5,0.9,0.9,1.2c0.5,0.3,1.1,0.5,1.8,0.5
		c0.7,0,1.5-0.2,2-0.7c0.5-0.6,0.8-1.4,0.8-2.2v-1.7c-0.8,1.2-2.2,1.8-3.6,1.8c-0.9,0-1.8-0.2-2.5-0.7c-0.8-0.5-1.4-1.2-1.8-2
		c-0.5-0.9-0.7-2-0.7-3c0-1,0.2-2,0.7-2.9c0.8-1.7,2.5-2.7,4.3-2.7C1678,906.1,1678.8,906.3,1679.4,906.7z M1680.5,910.1
		c-0.2-0.5-0.6-0.8-1.1-1.1c-0.4-0.3-0.9-0.4-1.4-0.4c-0.5,0-1,0.1-1.4,0.4c-0.4,0.3-0.8,0.6-1.1,1.1c-0.3,0.5-0.4,1.1-0.4,1.7
		c0,0.6,0.1,1.2,0.4,1.7c0.3,0.5,0.6,0.9,1.1,1.1c0.4,0.3,0.9,0.4,1.4,0.4c0.5,0,1-0.1,1.4-0.4c0.4-0.3,0.8-0.6,1.1-1.1
		C1681,912.5,1681,911.2,1680.5,910.1L1680.5,910.1z"/>
	<path class="st1" d="M1511.3,932.5c0.4-0.8,1-1.5,1.8-2c0.8-0.5,1.6-0.7,2.5-0.7c0.7,0,1.5,0.1,2.1,0.5c0.6,0.3,1.1,0.7,1.5,1.2
		V930h2.8v10.9h-2.8v-1.5c-0.4,0.5-0.9,1-1.5,1.3c-0.7,0.3-1.4,0.5-2.2,0.5c-0.9,0-1.8-0.2-2.5-0.7c-0.8-0.5-1.4-1.2-1.8-2
		c-0.5-0.9-0.7-2-0.7-3C1510.6,934.4,1510.8,933.4,1511.3,932.5z M1518.8,933.8c-0.7-1.4-2.5-1.9-3.8-1.2c-0.5,0.3-0.9,0.7-1.2,1.2
		c-0.3,0.5-0.4,1.1-0.4,1.7c0,0.6,0.1,1.2,0.4,1.7c0.3,0.5,0.6,0.9,1.1,1.1c0.4,0.3,0.9,0.4,1.4,0.4c0.5,0,1-0.1,1.4-0.4
		c0.4-0.3,0.8-0.6,1.1-1.1C1519.3,936.1,1519.3,934.9,1518.8,933.8L1518.8,933.8z"/>
	<path class="st1" d="M1533.9,931.1c0.8,0.9,1.3,2.2,1.2,3.4v6.5h-2.8v-6c0.1-0.7-0.2-1.4-0.7-2c-1-0.9-2.6-0.9-3.6,0
		c-0.5,0.6-0.7,1.3-0.7,2v6h-2.8v-11h2.8v1.3c0.4-0.5,0.9-0.9,1.4-1.1C1530.5,929.5,1532.5,929.8,1533.9,931.1L1533.9,931.1z"/>
	<path class="st1" d="M1537.7,932.5c0.8-1.7,2.5-2.7,4.3-2.7c0.7,0,1.4,0.2,2,0.5c0.6,0.3,1.1,0.7,1.5,1.2v-5.2h2.8V941h-2.8v-1.6
		c-0.4,0.6-0.9,1-1.4,1.3c-0.7,0.3-1.4,0.5-2.2,0.5c-0.9,0-1.8-0.2-2.5-0.7c-0.8-0.5-1.4-1.2-1.8-2c-0.5-0.9-0.7-2-0.7-3
		C1537,934.5,1537.2,933.4,1537.7,932.5z M1545.2,933.8c-0.7-1.4-2.4-1.9-3.8-1.2c-0.5,0.3-0.9,0.7-1.2,1.2
		c-0.3,0.5-0.4,1.1-0.4,1.7c0,0.6,0.1,1.2,0.4,1.7c0.2,0.5,0.6,0.9,1.1,1.1c0.4,0.3,0.9,0.4,1.4,0.4c0.5,0,1-0.1,1.4-0.4
		c0.5-0.3,0.8-0.6,1.1-1.1c0.3-0.5,0.4-1.1,0.4-1.7C1545.6,934.9,1545.5,934.3,1545.2,933.8L1545.2,933.8z"/>
	<path class="st1" d="M1556,930.4c0.6-1.1,1.5-1.9,2.5-2.5c2.4-1.3,5.3-1.2,7.6,0.3c1.2,0.8,2,1.9,2.4,3.3h-3.2
		c-0.3-0.6-0.7-1.1-1.3-1.5c-0.6-0.3-1.3-0.5-2-0.5c-0.8,0-1.5,0.2-2.1,0.6c-0.6,0.4-1.1,0.9-1.5,1.6c-0.7,1.5-0.7,3.3,0,4.8
		c0.3,0.7,0.8,1.2,1.5,1.6c0.6,0.4,1.4,0.6,2.1,0.6c0.7,0,1.4-0.2,2-0.5c0.6-0.3,1.1-0.9,1.3-1.5h3.2c-0.4,1.3-1.3,2.5-2.4,3.3
		c-2.3,1.5-5.2,1.6-7.6,0.3c-1-0.6-1.9-1.4-2.5-2.5C1554.8,935.4,1554.8,932.7,1556,930.4L1556,930.4z"/>
	<path class="st1" d="M1573.7,926.4V941h-2.8v-14.6H1573.7z"/>
	<path class="st1" d="M1576.3,932.5c0.4-0.8,1-1.5,1.8-2c0.8-0.5,1.6-0.7,2.5-0.7c0.7,0,1.5,0.1,2.1,0.5c0.6,0.3,1.1,0.7,1.5,1.2
		V930h2.8v10.9h-2.8v-1.5c-0.4,0.5-0.9,1-1.5,1.3c-0.7,0.3-1.4,0.5-2.2,0.5c-0.9,0-1.8-0.2-2.5-0.7c-0.8-0.5-1.4-1.2-1.8-2
		c-0.5-0.9-0.7-2-0.7-3C1575.7,934.4,1575.9,933.4,1576.3,932.5z M1583.9,933.8c-0.5-0.9-1.5-1.5-2.5-1.5c-1,0-2,0.5-2.5,1.5
		c-0.3,0.5-0.4,1.1-0.4,1.7c0,0.6,0.1,1.2,0.4,1.7c0.2,0.5,0.6,0.9,1.1,1.1c0.4,0.3,0.9,0.4,1.4,0.4c0.5,0,1-0.1,1.4-0.3
		c0.5-0.3,0.8-0.6,1.1-1.1c0.3-0.5,0.4-1.1,0.4-1.7C1584.3,934.9,1584.2,934.3,1583.9,933.8L1583.9,933.8z"/>
	<path class="st1" d="M1591.6,940.7c-0.7-0.3-1.2-0.7-1.7-1.3c-0.4-0.5-0.6-1.2-0.7-1.8h2.8c0.1,0.4,0.3,0.8,0.6,1
		c0.4,0.3,0.9,0.4,1.3,0.4c0.4,0,0.9-0.1,1.2-0.3c0.3-0.2,0.4-0.5,0.4-0.8c0-0.4-0.2-0.7-0.5-0.8c-0.6-0.2-1.1-0.4-1.7-0.6
		c-0.7-0.2-1.3-0.4-2-0.6c-0.5-0.2-1-0.6-1.3-1c-0.4-0.5-0.6-1.1-0.6-1.8c0-0.6,0.2-1.2,0.5-1.7c0.4-0.5,0.9-0.9,1.5-1.2
		c0.7-0.3,1.5-0.5,2.3-0.4c1.1-0.1,2.2,0.3,3.1,1c0.8,0.7,1.2,1.6,1.3,2.6h-2.6c0-0.4-0.2-0.8-0.5-1c-0.4-0.3-0.8-0.4-1.3-0.4
		c-0.4,0-0.8,0.1-1.2,0.3c-0.4,0.3-0.5,0.9-0.2,1.3c0.1,0.1,0.2,0.2,0.4,0.3c0.6,0.3,1.1,0.4,1.7,0.6c0.7,0.2,1.4,0.4,2,0.6
		c0.5,0.2,1,0.6,1.3,1c0.4,0.5,0.6,1.1,0.6,1.8c0,0.6-0.2,1.2-0.5,1.7c-0.4,0.5-0.9,0.9-1.5,1.2
		C1594.8,941.3,1593.1,941.3,1591.6,940.7L1591.6,940.7z"/>
	<path class="st1" d="M1602.3,940.7c-0.7-0.3-1.2-0.7-1.7-1.3c-0.4-0.5-0.6-1.2-0.7-1.8h2.8c0.1,0.4,0.3,0.8,0.6,1
		c0.4,0.3,0.9,0.4,1.3,0.4c0.4,0,0.9-0.1,1.2-0.3c0.3-0.2,0.4-0.5,0.4-0.8c0-0.4-0.2-0.7-0.6-0.8c-0.6-0.2-1.1-0.4-1.7-0.6
		c-0.7-0.2-1.3-0.4-2-0.6c-0.5-0.2-1-0.6-1.3-1c-0.4-0.5-0.6-1.1-0.6-1.8c0-0.6,0.2-1.2,0.5-1.7c0.4-0.5,0.9-0.9,1.5-1.2
		c0.7-0.3,1.5-0.5,2.3-0.4c1.1-0.1,2.2,0.3,3.1,1c0.8,0.7,1.2,1.6,1.3,2.6h-2.6c0-0.4-0.2-0.8-0.5-1c-0.7-0.5-1.7-0.5-2.4-0.1
		c-0.4,0.3-0.5,0.9-0.2,1.3c0.1,0.1,0.2,0.2,0.4,0.3c0.5,0.3,1.1,0.4,1.7,0.6c0.7,0.2,1.3,0.4,2,0.6c0.5,0.2,1,0.6,1.3,1
		c0.4,0.5,0.6,1.1,0.6,1.8c0,0.6-0.2,1.2-0.5,1.7c-0.4,0.5-0.9,0.9-1.5,1.2c-0.7,0.3-1.5,0.4-2.3,0.4
		C1603.9,941.2,1603.1,941,1602.3,940.7z"/>
	<path class="st1" d="M1611.4,928.3c-0.6-0.6-0.6-1.7,0-2.3c0,0,0,0,0,0c0.3-0.3,0.8-0.5,1.2-0.5c0.4,0,0.9,0.2,1.2,0.5
		c0.6,0.6,0.6,1.7,0,2.3c0,0,0,0,0,0c-0.3,0.3-0.8,0.5-1.2,0.5C1612.2,928.7,1611.8,928.6,1611.4,928.3z M1614,930v11h-2.8v-11H1614
		z"/>
	<path class="st1" d="M1621.8,932.3h-2v8.7h-2.8v-8.7h-1.2V930h1.2v-0.5c-0.1-1.1,0.3-2.2,1.2-3c1-0.7,2.2-1,3.4-0.9v2.3
		c-0.5-0.1-1,0.1-1.4,0.3c-0.3,0.4-0.4,0.8-0.4,1.3v0.5h2L1621.8,932.3z"/>
	<path class="st1" d="M1623.7,928.3c-0.6-0.6-0.6-1.7,0-2.3c0,0,0,0,0,0c0.3-0.3,0.8-0.5,1.2-0.5c0.5,0,0.9,0.2,1.2,0.5
		c0.6,0.6,0.6,1.7,0,2.3c0,0,0,0,0,0C1625.5,928.9,1624.4,928.9,1623.7,928.3L1623.7,928.3z M1626.3,930v11h-2.8v-11L1626.3,930z"/>
	<path class="st1" d="M1629,932.5c0.4-0.8,1.1-1.5,1.9-2c0.9-0.5,1.8-0.7,2.8-0.7c1.2-0.1,2.4,0.3,3.4,1c0.9,0.7,1.5,1.7,1.8,2.8h-3
		c-0.1-0.4-0.4-0.8-0.8-1.1c-1.1-0.7-2.4-0.5-3.3,0.5c-0.5,0.7-0.7,1.6-0.7,2.4c-0.1,0.9,0.2,1.7,0.7,2.4c0.5,0.6,1.2,0.9,1.9,0.8
		c1,0.1,1.9-0.5,2.2-1.5h3c-0.3,1.1-0.9,2.1-1.8,2.8c-1,0.7-2.2,1.1-3.3,1c-1,0-1.9-0.2-2.8-0.7c-0.8-0.5-1.5-1.2-1.9-2
		c-0.9-1.9-0.9-4.1,0-5.9L1629,932.5z"/>
	<path class="st1" d="M1640.9,932.5c0.8-1.7,2.5-2.7,4.3-2.7c1.4,0,2.8,0.6,3.6,1.7V930h2.8v11h-2.8v-1.6c-0.4,0.5-0.9,1-1.5,1.3
		c-0.7,0.3-1.4,0.5-2.2,0.5c-0.9,0-1.8-0.2-2.5-0.7c-0.8-0.5-1.4-1.2-1.8-2c-0.5-0.9-0.7-2-0.7-3
		C1640.2,934.5,1640.4,933.4,1640.9,932.5z M1648.4,933.8c-0.5-0.9-1.5-1.5-2.5-1.5c-1,0-2,0.5-2.5,1.5c-0.3,0.5-0.4,1.1-0.4,1.7
		c0,0.6,0.1,1.2,0.4,1.7c0.2,0.5,0.6,0.9,1.1,1.1c1.3,0.8,3.1,0.3,3.9-1l0.1-0.1C1648.9,936.1,1648.9,934.9,1648.4,933.8
		L1648.4,933.8z"/>
	<path class="st1" d="M1657.5,932.3v5.3c0,0.3,0.1,0.6,0.3,0.8c0.3,0.2,0.6,0.3,0.9,0.2h1.3v2.4h-1.7c-2.3,0-3.5-1.1-3.5-3.4v-5.3
		h-1.3V930h1.3v-2.7h2.8v2.7h2.4v2.3L1657.5,932.3z"/>
	<path class="st1" d="M1662.1,928.3c-0.6-0.6-0.6-1.7,0-2.3c0,0,0,0,0,0c0.3-0.3,0.8-0.5,1.2-0.5c0.4,0,0.9,0.2,1.2,0.5
		c0.6,0.6,0.6,1.7,0,2.3c0,0,0,0,0,0c-0.3,0.3-0.8,0.5-1.2,0.5C1662.9,928.7,1662.4,928.6,1662.1,928.3z M1664.7,930v11h-2.8v-11
		L1664.7,930z"/>
	<path class="st1" d="M1669.4,940.4c-0.8-0.5-1.5-1.2-2-2c-0.5-0.9-0.7-2-0.7-3c0-1,0.2-2.1,0.7-3c0.5-0.8,1.2-1.5,2-2
		c1.8-0.9,3.9-0.9,5.7,0c0.8,0.5,1.5,1.2,2,2c0.5,0.9,0.8,2,0.7,3c0,1.1-0.2,2.1-0.8,3c-0.5,0.8-1.2,1.5-2.1,2
		c-0.9,0.5-1.9,0.7-2.9,0.7C1671.2,941.1,1670.3,940.9,1669.4,940.4z M1673.7,938.4c0.4-0.3,0.8-0.6,1-1.1c0.3-0.5,0.4-1.2,0.4-1.8
		c0.1-0.9-0.2-1.7-0.8-2.4c-1.1-1.1-2.9-1.1-4,0c0,0,0,0,0,0c-0.6,0.7-0.9,1.5-0.8,2.4c-0.1,0.9,0.2,1.7,0.8,2.4
		c0.5,0.6,1.2,0.9,2,0.8C1672.7,938.7,1673.2,938.6,1673.7,938.4L1673.7,938.4z"/>
	<path class="st1" d="M1689.2,931.1c0.8,0.9,1.3,2.2,1.2,3.4v6.5h-2.8v-6c0.1-0.7-0.2-1.4-0.7-2c-0.5-0.5-1.1-0.7-1.8-0.7
		c-0.7,0-1.3,0.2-1.8,0.7c-0.5,0.6-0.7,1.3-0.7,2v6h-2.7v-11h2.8v1.3c0.4-0.5,0.9-0.9,1.4-1.1
		C1685.9,929.5,1687.9,929.8,1689.2,931.1L1689.2,931.1z"/>
</g>
<g id="Layer_1-2">
	<path class="st2" d="M1086.2,217.9c0,13.1-47.3,23.6-105.7,23.6S874.8,231,874.8,217.9s47.3-23.6,105.7-23.6
		S1086.2,204.9,1086.2,217.9"/>
	<path class="st3" d="M980.5,241.6c-58.4,0-105.7-10.6-105.7-23.6v47.2c0,13.1,47.3,23.6,105.7,23.6s105.7-10.6,105.7-23.6V218
		C1086.2,231,1038.9,241.6,980.5,241.6"/>
	<path class="st4" d="M980.5,288.8c-58.4,0-105.7-10.6-105.7-23.6v47.2c0,13.1,47.3,23.6,105.7,23.6s105.7-10.6,105.7-23.6v-47.2
		C1086.2,278.2,1038.9,288.8,980.5,288.8"/>
	<path class="st0" d="M980.5,336c-58.4,0-105.7-10.6-105.7-23.6v47.2c0,13.1,47.3,23.6,105.7,23.6s105.7-10.6,105.7-23.6v-47.2
		C1086.2,325.5,1038.9,336,980.5,336"/>
	<path d="M896.8,411.8h4.5v2.2H894v-13.8h2.8L896.8,411.8z"/>
	<path d="M903.3,401.3c-0.3-0.3-0.5-0.7-0.5-1.2c0-0.4,0.2-0.9,0.5-1.1c0.7-0.6,1.7-0.6,2.4,0c0.3,0.3,0.5,0.7,0.5,1.1
		c0,0.4-0.2,0.9-0.5,1.2C905,401.9,904,401.9,903.3,401.3z M905.9,403v10.9h-2.8V403L905.9,403z"/>
	<path d="M925.4,404.1c0.9,0.9,1.3,2.2,1.2,3.4v6.4h-2.8v-6c0.1-0.7-0.2-1.4-0.7-2c-1-0.9-2.5-0.9-3.6,0c-0.5,0.5-0.7,1.3-0.7,2v6
		h-2.8v-6c0.1-0.7-0.2-1.5-0.7-2c-0.5-0.5-1.1-0.7-1.8-0.7c-0.7,0-1.3,0.2-1.8,0.7c-0.5,0.5-0.7,1.3-0.7,2v6h-2.8V403h2.8v1.4
		c0.4-0.5,0.8-0.8,1.4-1.1c0.6-0.3,1.2-0.4,1.8-0.4c0.8,0,1.6,0.2,2.3,0.5c0.7,0.3,1.2,0.9,1.5,1.6c0.4-0.6,0.9-1.2,1.5-1.5
		C921.7,402.5,923.9,402.8,925.4,404.1L925.4,404.1z"/>
	<path d="M929.4,401.3c-0.3-0.3-0.5-0.7-0.5-1.2c0-0.4,0.2-0.9,0.5-1.1c0.7-0.6,1.7-0.6,2.4,0c0.3,0.3,0.5,0.7,0.5,1.1
		c0,0.4-0.2,0.9-0.5,1.2C931.2,401.9,930.1,401.9,929.4,401.3z M932,403v10.9h-2.8V403H932z"/>
	<path d="M938,405.3v5.3c0,0.3,0.1,0.6,0.3,0.8c0.3,0.2,0.6,0.3,0.9,0.3h1.3v2.3h-1.7c-2.3,0-3.5-1.1-3.5-3.4v-5.3h-1.3V403h1.3
		v-2.7h2.8v2.7h2.4v2.3L938,405.3z"/>
	<path d="M952.5,409.3h-8c0,0.7,0.3,1.4,0.8,1.9c0.5,0.4,1.1,0.7,1.8,0.7c0.9,0,1.8-0.5,2.2-1.3h3c-0.3,1-0.9,2-1.8,2.6
		c-1,0.7-2.1,1-3.3,1c-1,0-2-0.2-2.8-0.7c-0.8-0.5-1.5-1.2-2-2c-0.9-1.9-0.9-4.1,0-5.9c0.4-0.8,1.1-1.5,1.9-2
		c0.9-0.5,1.9-0.7,2.9-0.7c1,0,1.9,0.2,2.8,0.7c0.8,0.4,1.5,1.1,1.9,1.9c0.5,0.9,0.7,1.8,0.7,2.8
		C952.5,408.6,952.5,408.9,952.5,409.3z M949.7,407.4c0-0.7-0.3-1.3-0.8-1.7c-0.5-0.4-1.2-0.7-1.8-0.6c-0.6,0-1.3,0.2-1.7,0.6
		c-0.5,0.5-0.8,1.1-0.9,1.7H949.7z"/>
	<path d="M954.5,405.5c0.4-0.8,1-1.5,1.8-2c0.8-0.5,1.7-0.7,2.5-0.7c0.7,0,1.4,0.2,2,0.5c0.6,0.3,1.1,0.7,1.5,1.2v-5.1h2.8V414h-2.8
		v-1.6c-0.4,0.6-0.9,1-1.4,1.3c-1.5,0.7-3.3,0.6-4.7-0.2c-0.8-0.5-1.4-1.2-1.8-2c-0.5-0.9-0.7-2-0.7-3
		C953.8,407.4,954,406.4,954.5,405.5z M962,406.8c-0.2-0.5-0.6-0.9-1.1-1.1c-0.4-0.2-0.9-0.4-1.4-0.4c-0.5,0-1,0.1-1.4,0.4
		c-0.4,0.3-0.8,0.6-1.1,1.1c-0.3,0.5-0.4,1.1-0.4,1.7c0,0.6,0.1,1.2,0.4,1.7c0.3,0.5,0.6,0.9,1.1,1.1c0.4,0.3,0.9,0.4,1.4,0.4
		c0.5,0,1-0.1,1.4-0.4c0.5-0.3,0.8-0.6,1.1-1.1c0.3-0.5,0.4-1.1,0.4-1.7C962.4,407.9,962.3,407.3,962,406.8L962,406.8z"/>
	<path d="M982,400.2v2.2h-3.7v11.5h-2.8v-11.5h-3.7v-2.2L982,400.2z"/>
	<path d="M988.1,403.4c0.6-0.3,1.3-0.5,2-0.5v2.9h-0.7c-1.2-0.2-2.4,0.6-2.6,1.9c0,0,0,0,0,0c-0.1,0.3-0.1,0.6,0,0.9v5.5H984v-11
		h2.8v1.7C987.1,404.2,987.6,403.7,988.1,403.4z"/>
	<path d="M991.9,405.5c0.4-0.8,1-1.5,1.8-2c0.8-0.5,1.6-0.7,2.5-0.7c1.4,0,2.8,0.6,3.6,1.7V403h2.8v10.9h-2.8v-1.5
		c-0.4,0.5-0.9,1-1.5,1.3c-0.7,0.3-1.4,0.5-2.2,0.5c-0.9,0-1.8-0.2-2.5-0.7c-0.8-0.5-1.4-1.2-1.8-2c-0.5-0.9-0.7-2-0.7-3
		C991.2,407.4,991.5,406.4,991.9,405.5z M999.4,406.8c-0.2-0.5-0.6-0.8-1.1-1.1c-0.4-0.2-0.9-0.4-1.4-0.4c-0.5,0-1,0.1-1.4,0.4
		c-0.4,0.3-0.8,0.6-1.1,1.1c-0.3,0.5-0.4,1.1-0.4,1.7c0,0.6,0.1,1.2,0.4,1.7c0.3,0.5,0.6,0.9,1.1,1.1c0.4,0.3,0.9,0.4,1.4,0.4
		c0.5,0,1-0.1,1.4-0.4c0.5-0.3,0.8-0.6,1.1-1.1c0.3-0.5,0.4-1.1,0.4-1.7C999.9,407.9,999.7,407.3,999.4,406.8z"/>
	<path d="M1005.5,401.3c-0.3-0.3-0.5-0.7-0.5-1.2c0-0.4,0.2-0.9,0.5-1.1c0.7-0.6,1.7-0.6,2.4,0c0.3,0.3,0.5,0.7,0.5,1.1
		c0,0.4-0.2,0.9-0.5,1.2C1007.2,401.9,1006.2,401.9,1005.5,401.3z M1008.1,403v10.9h-2.8V403L1008.1,403z"/>
	<path d="M1020,404.1c0.8,0.9,1.3,2.2,1.2,3.4v6.4h-2.8v-6c0.1-0.7-0.2-1.4-0.7-2c-0.5-0.5-1.1-0.7-1.8-0.7c-0.7,0-1.3,0.2-1.8,0.7
		c-0.5,0.6-0.7,1.3-0.7,2v6h-2.8V403h2.8v1.4c0.4-0.5,0.9-0.9,1.4-1.1c0.6-0.3,1.2-0.4,1.9-0.4C1018,402.8,1019.2,403.2,1020,404.1z
		"/>
	<path d="M1024,401.3c-0.3-0.3-0.5-0.7-0.5-1.2c0-0.4,0.2-0.9,0.5-1.1c0.7-0.6,1.7-0.6,2.4,0c0.3,0.3,0.5,0.7,0.5,1.1
		c0,0.4-0.2,0.9-0.5,1.2C1025.7,401.9,1024.7,401.9,1024,401.3z M1026.6,403v10.9h-2.8V403L1026.6,403z"/>
	<path d="M1038.5,404.1c0.8,0.9,1.3,2.2,1.2,3.4v6.4h-2.7v-6c0.1-0.7-0.2-1.4-0.7-2c-1-0.9-2.6-0.9-3.6,0c-0.5,0.6-0.7,1.3-0.7,2v6
		h-2.8V403h2.8v1.4c0.4-0.5,0.9-0.9,1.4-1.1c0.6-0.3,1.2-0.4,1.9-0.4C1036.6,402.8,1037.7,403.3,1038.5,404.1z"/>
	<path d="M1048.8,403.3c0.6,0.3,1.1,0.7,1.5,1.3V403h2.7v11c0,0.9-0.2,1.9-0.6,2.7c-0.4,0.8-1.1,1.5-1.8,1.9c-0.9,0.5-2,0.7-3,0.7
		c-1.4,0.1-2.7-0.3-3.8-1.1c-1-0.7-1.6-1.8-1.7-3h2.7c0.1,0.5,0.5,0.9,0.9,1.2c0.5,0.3,1.1,0.5,1.8,0.4c0.7,0,1.5-0.2,2-0.7
		c0.5-0.6,0.8-1.4,0.8-2.2v-1.7c-0.4,0.5-0.9,1-1.5,1.3c-0.7,0.3-1.4,0.5-2.1,0.5c-0.9,0-1.8-0.2-2.5-0.7c-0.8-0.5-1.4-1.2-1.8-2
		c-0.5-0.9-0.7-2-0.7-3c0-1,0.2-2,0.7-2.9c0.4-0.8,1-1.5,1.8-2c0.8-0.5,1.6-0.7,2.5-0.7C1047.4,402.7,1048.1,402.9,1048.8,403.3z
		 M1049.9,406.8c-0.2-0.5-0.6-0.8-1.1-1.1c-0.4-0.2-0.9-0.4-1.4-0.4c-0.5,0-1,0.1-1.4,0.4c-0.4,0.3-0.8,0.7-1,1.1
		c-0.3,0.5-0.4,1.1-0.4,1.7c0,0.6,0.1,1.2,0.4,1.7c0.2,0.5,0.6,0.9,1.1,1.1c0.4,0.3,0.9,0.4,1.4,0.4c0.5,0,1-0.1,1.4-0.4
		c0.5-0.3,0.8-0.6,1.1-1.1c0.3-0.5,0.4-1.1,0.4-1.7C1050.3,407.9,1050.2,407.3,1049.9,406.8L1049.9,406.8z"/>
	<path d="M961.6,424.7c1.1,0.5,2,1.4,2.5,2.4c1.2,2.3,1.2,5,0,7.3c-0.6,1-1.5,1.9-2.5,2.4c-1.2,0.6-2.5,0.9-3.8,0.9H953v-13.8h4.8
		C959.1,423.8,960.4,424.1,961.6,424.7z M961,434.1c1.6-2,1.6-4.7,0-6.7c-0.9-0.9-2.1-1.3-3.3-1.2h-2v9.1h2
		C958.9,435.3,960.1,434.9,961,434.1L961,434.1z"/>
	<path d="M967.1,429.2c0.8-1.6,2.5-2.7,4.3-2.7c1.4,0,2.8,0.6,3.6,1.7v-1.6h2.8v10.9H975V436c-0.4,0.5-0.9,1-1.5,1.3
		c-0.7,0.3-1.4,0.5-2.2,0.5c-0.9,0-1.8-0.2-2.5-0.7c-0.8-0.5-1.4-1.2-1.8-2c-0.5-0.9-0.7-2-0.7-3
		C966.4,431.1,966.6,430.1,967.1,429.2z M974.6,430.4c-0.2-0.5-0.6-0.8-1.1-1.1c-1.3-0.8-3-0.4-3.8,1c0,0,0,0,0,0l-0.1,0.1
		c-0.3,0.5-0.4,1.1-0.4,1.7c0,0.6,0.1,1.2,0.4,1.7c0.2,0.5,0.6,0.9,1.1,1.1c0.4,0.3,0.9,0.4,1.4,0.4c1,0,2-0.6,2.5-1.5
		c0.3-0.5,0.4-1.1,0.4-1.7C975,431.6,974.9,431,974.6,430.4z"/>
	<path d="M983.7,428.9v5.3c0,0.3,0.1,0.6,0.3,0.8c0.3,0.2,0.6,0.3,0.9,0.2h1.3v2.3h-1.7c-2.3,0-3.5-1.1-3.5-3.4v-5.3h-1.3v-2.3h1.3
		V424h2.8v2.7h2.4v2.3L983.7,428.9z"/>
	<path d="M988.1,429.2c0.8-1.6,2.5-2.7,4.3-2.7c1.4,0,2.8,0.6,3.6,1.7v-1.6h2.8v10.9H996V436c-0.4,0.5-0.9,1-1.5,1.3
		c-0.7,0.3-1.4,0.5-2.2,0.5c-0.9,0-1.8-0.2-2.5-0.7c-0.8-0.5-1.4-1.2-1.8-2c-0.5-0.9-0.7-2-0.7-3
		C987.4,431.1,987.6,430.1,988.1,429.2z M995.6,430.4c-0.2-0.5-0.6-0.8-1.1-1.1c-1.3-0.8-3-0.4-3.8,1c0,0,0,0,0,0l-0.1,0.1
		c-0.3,0.5-0.4,1.1-0.4,1.7c0,0.6,0.1,1.2,0.4,1.7c0.2,0.5,0.6,0.9,1.1,1.1c0.4,0.3,0.9,0.4,1.4,0.4c1,0,2-0.6,2.5-1.5
		c0.3-0.5,0.4-1.1,0.4-1.7C996,431.6,995.9,431,995.6,430.4z"/>
	<path d="M65.6,866h-5.5l-0.9,2.6h-2.9l5-13.8h3.2l5,13.8h-3L65.6,866z M64.9,863.8l-2-5.8l-2,5.8H64.9z"/>
	<path d="M71.3,860.2c0.8-1.7,2.5-2.7,4.3-2.7c0.7,0,1.4,0.2,2,0.5c0.6,0.3,1.1,0.7,1.5,1.2V854H82v14.6h-2.8V867
		c-0.4,0.6-0.9,1-1.4,1.3c-0.7,0.3-1.4,0.5-2.2,0.5c-0.9,0-1.8-0.2-2.5-0.7c-0.8-0.5-1.4-1.2-1.8-2c-0.5-0.9-0.7-2-0.7-3
		C70.6,862.1,70.8,861.1,71.3,860.2z M78.8,861.4c-0.5-0.9-1.5-1.5-2.5-1.5c-0.5,0-1,0.1-1.4,0.4c-0.5,0.3-0.8,0.6-1.1,1.1
		c-0.3,0.5-0.4,1.1-0.4,1.7c0,0.6,0.1,1.2,0.4,1.7c0.2,0.5,0.6,0.9,1.1,1.2c0.4,0.3,0.9,0.4,1.4,0.4c0.5,0,1-0.1,1.4-0.4
		c0.5-0.3,0.8-0.6,1.1-1.1c0.3-0.5,0.4-1.1,0.4-1.7C79.2,862.6,79.1,861.9,78.8,861.4z"/>
	<path d="M84.6,860.2c0.8-1.7,2.5-2.7,4.4-2.7c0.7,0,1.4,0.2,2,0.5c0.6,0.3,1.1,0.7,1.5,1.2V854h2.8v14.6h-2.8V867
		c-0.4,0.6-0.9,1-1.4,1.3c-0.7,0.3-1.4,0.5-2.2,0.5c-0.9,0-1.8-0.2-2.5-0.7c-0.8-0.5-1.4-1.2-1.8-2c-0.5-0.9-0.7-2-0.7-3
		C83.9,862.1,84.2,861.1,84.6,860.2z M92.2,861.4c-0.5-0.9-1.5-1.5-2.5-1.5c-0.5,0-1,0.1-1.4,0.4c-0.4,0.3-0.8,0.6-1,1.1
		c-0.3,0.5-0.4,1.1-0.4,1.7c0,0.6,0.1,1.2,0.4,1.7c0.2,0.5,0.6,0.9,1.1,1.2c0.4,0.3,0.9,0.4,1.4,0.4c0.5,0,1-0.1,1.4-0.4
		c0.5-0.3,0.8-0.6,1.1-1.1C92.8,863.8,92.8,862.5,92.2,861.4L92.2,861.4z"/>
	<path d="M106,859.9v5.3c0,0.3,0.1,0.6,0.3,0.8c0.3,0.2,0.6,0.3,0.9,0.2h1.3v2.3h-1.7c-2.3,0-3.5-1.1-3.5-3.4v-5.3h-1.3v-2.3h1.3
		V855h2.8v2.7h2.4v2.3L106,859.9z"/>
	<path d="M112.4,868.1c-0.8-0.5-1.5-1.2-2-2c-0.5-0.9-0.7-2-0.7-3c0-1,0.2-2.1,0.7-3c0.5-0.8,1.2-1.5,2-2c1.8-0.9,3.9-0.9,5.7,0
		c0.8,0.5,1.5,1.2,2,2c1,1.9,1,4.1,0,6c-0.5,0.8-1.2,1.5-2,2c-0.9,0.5-1.9,0.7-2.9,0.7C114.3,868.8,113.3,868.5,112.4,868.1z
		 M116.7,866c0.4-0.3,0.8-0.6,1-1.1c0.3-0.5,0.4-1.2,0.4-1.8c0.1-0.9-0.2-1.7-0.8-2.4c-1.1-1.1-2.9-1.1-4,0c0,0,0,0,0,0
		c-0.6,0.7-0.8,1.5-0.8,2.4c-0.1,0.9,0.2,1.7,0.8,2.4c0.5,0.5,1.2,0.8,2,0.8C115.7,866.4,116.2,866.2,116.7,866z"/>
	<path d="M137.2,861.2c-0.4,0.7-1,1.2-1.6,1.5c-0.9,0.4-1.8,0.6-2.8,0.6h-2.3v5.3h-2.8v-13.8h5.1c0.9,0,1.9,0.2,2.7,0.5
		c0.7,0.3,1.3,0.9,1.7,1.5c0.4,0.7,0.6,1.4,0.6,2.2C137.7,859.8,137.5,860.5,137.2,861.2z M134.3,860.6c0.4-0.4,0.6-0.9,0.6-1.5
		c0-1.3-0.8-2-2.3-2h-2.2v4h2.2C133.2,861.1,133.8,860.9,134.3,860.6z"/>
	<path d="M142.4,854v14.6h-2.8V854H142.4z"/>
	<path d="M145.1,860.2c0.4-0.8,1-1.5,1.8-2c0.8-0.5,1.6-0.7,2.5-0.7c0.7,0,1.5,0.1,2.1,0.5c0.6,0.3,1.1,0.7,1.5,1.2v-1.5h2.8v10.9
		H153V867c-0.4,0.5-0.9,1-1.5,1.3c-0.7,0.3-1.4,0.5-2.2,0.5c-0.9,0-1.8-0.2-2.5-0.7c-0.8-0.5-1.4-1.2-1.8-2
		C144.2,864.2,144.2,862,145.1,860.2L145.1,860.2z M152.6,861.4c-0.5-0.9-1.5-1.5-2.5-1.5c-0.5,0-1,0.1-1.4,0.4
		c-0.4,0.3-0.8,0.6-1,1.1c-0.3,0.5-0.4,1.1-0.4,1.7c0,0.6,0.1,1.2,0.4,1.7c0.2,0.5,0.6,0.9,1.1,1.1c0.4,0.3,0.9,0.4,1.4,0.4
		c0.5,0,1-0.1,1.4-0.4c0.5-0.3,0.8-0.6,1.1-1.1C153.2,863.8,153.2,862.5,152.6,861.4L152.6,861.4z"/>
	<path d="M169,857.7l-6.8,16.1h-2.9l2.4-5.4l-4.4-10.7h3.1l2.8,7.6l2.9-7.6H169z"/>
	<path d="M173.2,854v14.6h-2.8V854H173.2z"/>
	<path d="M176.1,855.9c-0.6-0.6-0.6-1.7,0-2.3c0,0,0,0,0,0c0.7-0.6,1.7-0.6,2.4,0c0.6,0.6,0.6,1.7,0,2.3c0,0,0,0,0,0
		C177.8,856.5,176.8,856.5,176.1,855.9z M178.7,857.7v10.9h-2.8v-10.9L178.7,857.7z"/>
	<path d="M183.2,868.3c-0.7-0.3-1.2-0.7-1.7-1.3c-0.4-0.5-0.6-1.2-0.7-1.8h2.8c0.1,0.4,0.3,0.8,0.6,1c0.4,0.3,0.9,0.4,1.4,0.4
		c0.4,0,0.9-0.1,1.2-0.3c0.3-0.2,0.4-0.5,0.4-0.8c0-0.4-0.2-0.7-0.5-0.8c-0.6-0.2-1.1-0.4-1.7-0.6c-0.7-0.2-1.3-0.4-2-0.6
		c-0.5-0.2-1-0.6-1.3-1c-0.4-0.5-0.6-1.1-0.6-1.8c0-0.6,0.2-1.2,0.5-1.7c0.4-0.5,0.9-0.9,1.5-1.2c0.7-0.3,1.5-0.5,2.3-0.4
		c1.1-0.1,2.2,0.3,3.1,1c0.8,0.6,1.2,1.6,1.3,2.6h-2.6c0-0.4-0.2-0.8-0.6-1c-0.7-0.5-1.7-0.5-2.4-0.1c-0.4,0.3-0.5,0.8-0.3,1.3
		c0.1,0.1,0.2,0.3,0.4,0.3c0.5,0.3,1.1,0.4,1.7,0.6c0.7,0.2,1.3,0.4,1.9,0.6c0.5,0.2,1,0.6,1.3,1c0.4,0.5,0.6,1.1,0.6,1.8
		c0,0.6-0.2,1.2-0.5,1.7c-0.4,0.5-0.9,0.9-1.5,1.2c-0.7,0.3-1.5,0.4-2.3,0.4C184.8,868.8,183.9,868.6,183.2,868.3z"/>
	<path d="M195.4,859.9v5.3c0,0.3,0.1,0.6,0.3,0.8c0.3,0.2,0.6,0.3,0.9,0.2h1.3v2.3h-1.7c-2.3,0-3.5-1.1-3.5-3.4v-5.3h-1.3v-2.3h1.3
		V855h2.8v2.7h2.4v2.3L195.4,859.9z"/>
	<path d="M64.3,892.3l-3-5.4H60v5.4h-2.8v-13.8h5.2c0.9,0,1.9,0.2,2.7,0.6c0.7,0.3,1.3,0.9,1.7,1.5c0.4,0.6,0.6,1.4,0.6,2.1
		c0,1.9-1.3,3.6-3.1,4l3.3,5.6L64.3,892.3z M60,884.8h2.3c0.6,0,1.2-0.2,1.7-0.5c0.4-0.4,0.6-1,0.5-1.5c0-0.5-0.2-1.1-0.5-1.5
		c-0.5-0.4-1.1-0.6-1.7-0.5H60V884.8z"/>
	<path d="M69.8,883.8c0.4-0.8,1-1.5,1.8-2c0.8-0.5,1.6-0.7,2.5-0.7c1.4,0,2.8,0.6,3.6,1.7v-1.5h2.8v10.9h-2.8v-1.6
		c-0.4,0.5-0.9,1-1.5,1.3c-0.7,0.3-1.4,0.5-2.2,0.5c-0.9,0-1.8-0.2-2.5-0.7c-0.8-0.5-1.4-1.2-1.8-2c-0.5-0.9-0.7-2-0.7-3
		C69.1,885.8,69.3,884.7,69.8,883.8z M77.4,885.1c-0.5-0.9-1.5-1.5-2.6-1.5c-0.5,0-1,0.1-1.4,0.4c-0.4,0.3-0.8,0.7-1,1.1
		c-0.3,0.5-0.4,1.1-0.4,1.7c0,0.6,0.1,1.2,0.4,1.7c0.2,0.5,0.6,0.9,1.1,1.1c0.4,0.3,0.9,0.4,1.4,0.4c0.5,0,1-0.1,1.4-0.4
		c0.5-0.3,0.8-0.6,1.1-1.1c0.3-0.5,0.4-1.1,0.4-1.7C77.8,886.2,77.6,885.6,77.4,885.1L77.4,885.1z"/>
	<path d="M86.4,883.6v5.3c0,0.3,0.1,0.6,0.3,0.8c0.3,0.2,0.6,0.3,0.9,0.3h1.3v2.3h-1.7c-2.3,0-3.5-1.1-3.5-3.4v-5.3h-1.3v-2.2h1.3
		v-2.7h2.8v2.7h2.4v2.3L86.4,883.6z"/>
	<path d="M100.9,887.6h-8c0,0.7,0.3,1.4,0.8,1.9c0.5,0.4,1.1,0.7,1.8,0.7c0.9,0.1,1.8-0.5,2.2-1.3h3c-0.3,1-0.9,2-1.8,2.6
		c-1,0.7-2.1,1-3.3,1c-1,0-2-0.2-2.8-0.7c-0.8-0.5-1.5-1.2-2-2c-0.9-1.9-0.9-4.1,0-5.9c0.4-0.8,1.1-1.5,1.9-2
		c0.9-0.5,1.9-0.7,2.9-0.7c1,0,1.9,0.2,2.8,0.7c0.8,0.4,1.5,1.1,1.9,1.9c0.5,0.9,0.7,1.8,0.7,2.8C101,886.9,101,887.3,100.9,887.6z
		 M98.2,885.8c0-0.7-0.3-1.3-0.8-1.7c-0.5-0.4-1.2-0.7-1.8-0.6c-0.6,0-1.3,0.2-1.7,0.6c-0.5,0.5-0.8,1.1-0.9,1.7L98.2,885.8z"/>
	<path d="M117.4,886.4c0.5,0.6,0.8,1.4,0.8,2.2c0,0.7-0.2,1.4-0.6,1.9c-0.4,0.6-0.9,1-1.6,1.3c-0.8,0.3-1.6,0.5-2.4,0.5h-5.9v-13.8
		h5.7c0.8,0,1.7,0.1,2.4,0.5c1.3,0.5,2.1,1.7,2.1,3.1c0,0.7-0.2,1.4-0.6,2c-0.4,0.5-1,0.9-1.7,1.2
		C116.3,885.3,117,885.7,117.4,886.4z M110.4,884.2h2.6c0.5,0,1.1-0.1,1.5-0.4c0.4-0.3,0.6-0.8,0.5-1.3c0-0.5-0.2-1-0.5-1.3
		c-0.4-0.3-1-0.5-1.5-0.5h-2.5L110.4,884.2z M114.8,889.5c0.4-0.3,0.6-0.8,0.6-1.3c0-0.5-0.2-1-0.6-1.4c-0.5-0.4-1-0.5-1.6-0.5h-2.7
		v3.7h2.8C113.8,890,114.4,889.9,114.8,889.5L114.8,889.5z"/>
	<path d="M122.4,891.7c-0.8-0.5-1.5-1.2-2-2c-0.5-0.9-0.7-2-0.7-3c0-1,0.2-2.1,0.7-3c0.5-0.8,1.2-1.5,2-2c1.8-0.9,3.9-0.9,5.7,0
		c0.8,0.5,1.5,1.2,2,2c1,1.9,1,4.1,0,6c-0.5,0.8-1.2,1.5-2,2c-0.9,0.5-1.9,0.7-2.9,0.7C124.3,892.4,123.3,892.2,122.4,891.7z
		 M126.7,889.7c0.5-0.3,0.8-0.6,1.1-1.1c0.3-0.6,0.4-1.2,0.4-1.8c0.1-0.9-0.2-1.7-0.8-2.4c-0.5-0.5-1.2-0.9-2-0.8
		c-0.8,0-1.5,0.3-2,0.8c-1.1,1.4-1.1,3.4,0,4.8c0.5,0.6,1.2,0.9,2,0.8C125.8,890,126.2,889.9,126.7,889.7L126.7,889.7z"/>
	<path d="M135,891.7c-0.8-0.5-1.5-1.2-2-2c-0.5-0.9-0.7-2-0.7-3c0-1,0.2-2.1,0.7-3c0.5-0.8,1.2-1.5,2-2c1.8-0.9,3.9-0.9,5.7,0
		c0.8,0.5,1.5,1.2,2,2c0.5,0.9,0.8,2,0.7,3c0,1-0.2,2.1-0.8,3c-0.5,0.8-1.2,1.5-2.1,2c-0.9,0.5-1.9,0.7-2.9,0.7
		C136.8,892.4,135.9,892.2,135,891.7z M139.3,889.7c0.4-0.3,0.8-0.6,1-1.1c0.3-0.6,0.4-1.2,0.4-1.8c0.1-0.9-0.2-1.7-0.8-2.4
		c-1.1-1.1-2.9-1.1-4,0c0,0,0,0,0,0c-1.1,1.4-1.1,3.4,0,4.8c0.5,0.6,1.2,0.9,2,0.8C138.3,890,138.8,889.9,139.3,889.7L139.3,889.7z"
		/>
	<path d="M152,892.3l-3.7-4.7v4.7h-2.8v-14.6h2.8v8.3l3.7-4.6h3.6l-4.8,5.5l4.9,5.5L152,892.3z"/>
	<path d="M66.8,934.8c-0.3-0.6-0.8-1-1.3-1.3c-0.6-0.3-1.3-0.5-1.9-0.5c-0.8,0-1.5,0.2-2.2,0.5c-0.6,0.4-1.1,0.9-1.5,1.6
		c-0.7,1.5-0.7,3.3,0,4.8c0.4,0.7,0.9,1.2,1.5,1.6c0.7,0.4,1.5,0.6,2.3,0.5c0.9,0,1.8-0.3,2.6-0.8c0.7-0.6,1.2-1.4,1.3-2.3h-4.8
		v-2.1h7.5v2.4c-0.2,1-0.6,1.9-1.2,2.7c-0.6,0.8-1.4,1.5-2.3,2c-1,0.5-2.1,0.8-3.2,0.7c-1.3,0-2.5-0.3-3.6-0.9
		c-1.1-0.6-1.9-1.5-2.5-2.5c-0.6-1.1-0.9-2.4-0.9-3.6c0-1.3,0.3-2.5,0.9-3.6c0.6-1.1,1.5-1.9,2.5-2.5c2.4-1.3,5.3-1.2,7.6,0.2
		c1.1,0.7,2,1.9,2.4,3.2L66.8,934.8z"/>
	<path d="M82.4,939.8h-8c0,0.7,0.3,1.4,0.8,1.8c0.5,0.4,1.1,0.7,1.8,0.7c0.9,0.1,1.8-0.5,2.2-1.3h3c-0.3,1-0.9,2-1.8,2.6
		c-1,0.7-2.1,1-3.3,1c-1,0-2-0.2-2.8-0.7c-0.9-0.5-1.5-1.1-2-2c-0.5-0.9-0.7-2-0.7-3c0-1,0.2-2.1,0.7-3c0.4-0.8,1.1-1.5,1.9-2
		c1.8-0.9,3.9-0.9,5.7,0c0.9,0.4,1.6,1.1,2,2c0.5,0.9,0.7,1.8,0.7,2.8C82.5,939.1,82.5,939.4,82.4,939.8z M79.6,937.9
		c0-0.7-0.3-1.3-0.8-1.7c-0.5-0.4-1.2-0.7-1.8-0.6c-0.6,0-1.3,0.2-1.7,0.6c-0.5,0.5-0.8,1.1-0.8,1.7L79.6,937.9z"/>
	<path d="M87.7,935.8v5.3c0,0.3,0.1,0.6,0.3,0.8c0.3,0.2,0.6,0.3,0.9,0.3h1.3v2.3h-1.7c-2.3,0-3.5-1.1-3.5-3.4v-5.3h-1.3v-2.3h1.3
		v-2.7h2.8v2.7h2.4v2.3L87.7,935.8z"/>
	<path d="M115.3,930.7l-3.8,13.7h-3.3l-2.6-9.8l-2.7,9.8h-3.2l-3.7-13.8h3l2.4,10.8l2.8-10.7h3.1l2.6,10.6l2.4-10.6H115.3z"/>
	<path d="M127.1,939.8h-8c0,0.7,0.3,1.4,0.8,1.8c0.5,0.4,1.1,0.7,1.8,0.7c0.9,0.1,1.8-0.5,2.2-1.3h3c-0.3,1-0.9,2-1.8,2.6
		c-1,0.7-2.1,1-3.3,1c-1,0-2-0.2-2.8-0.7c-0.8-0.5-1.5-1.2-2-2c-0.5-0.9-0.7-2-0.7-3c0-1,0.2-2.1,0.7-3c0.4-0.8,1.1-1.5,1.9-2
		c1.8-0.9,3.9-0.9,5.7,0c0.8,0.4,1.5,1.1,1.9,1.9c0.5,0.9,0.7,1.8,0.7,2.8C127.2,939,127.2,939.4,127.1,939.8z M124.3,937.9
		c0-0.7-0.3-1.3-0.8-1.7c-0.5-0.4-1.2-0.7-1.8-0.6c-0.6,0-1.3,0.2-1.7,0.6c-0.5,0.5-0.8,1.1-0.9,1.7L124.3,937.9z"/>
	<path d="M129.2,936c0.4-0.8,1-1.5,1.8-2c0.8-0.5,1.6-0.7,2.5-0.7c0.7,0,1.5,0.2,2.1,0.5c0.6,0.3,1.1,0.7,1.5,1.2v-1.6h2.8v10.9
		h-2.8v-1.6c-0.4,0.5-0.9,1-1.5,1.3c-1.5,0.7-3.3,0.7-4.7-0.2c-0.8-0.5-1.4-1.2-1.8-2c-0.5-0.9-0.7-2-0.7-3
		C128.5,937.8,128.7,936.9,129.2,936z M136.7,937.3c-0.2-0.5-0.6-0.8-1.1-1.1c-0.4-0.2-0.9-0.4-1.4-0.4c-0.5,0-1,0.1-1.4,0.4
		c-0.4,0.3-0.8,0.6-1.1,1.1c-0.3,0.5-0.4,1.1-0.4,1.7c0,0.6,0.1,1.2,0.4,1.7c0.3,0.5,0.6,0.9,1.1,1.1c0.4,0.3,0.9,0.4,1.4,0.4
		c0.5,0,1-0.1,1.4-0.4c0.5-0.3,0.8-0.6,1.1-1.1c0.3-0.5,0.4-1.1,0.4-1.7C137.1,938.4,137,937.8,136.7,937.3L136.7,937.3z"/>
	<path d="M145.8,935.8v5.3c0,0.3,0.1,0.6,0.3,0.8c0.3,0.2,0.6,0.3,0.9,0.3h1.3v2.3h-1.8c-2.3,0-3.5-1.1-3.5-3.4v-5.3h-1.3v-2.3h1.3
		v-2.7h2.8v2.7h2.4v2.3L145.8,935.8z"/>
	<path d="M158.6,933.9c0.7,0.4,1.2,0.9,1.5,1.6c0.4,0.8,0.6,1.7,0.5,2.5v6.4h-2.8v-6c0.1-0.7-0.2-1.4-0.6-2
		c-0.5-0.5-1.1-0.7-1.8-0.7c-0.7,0-1.3,0.2-1.8,0.7c-0.5,0.6-0.7,1.3-0.7,2v6h-2.8v-14.5h2.8v5c0.4-0.5,0.9-0.9,1.4-1.1
		c0.6-0.3,1.3-0.4,2-0.4C157.2,933.3,157.9,933.5,158.6,933.9z"/>
	<path d="M173.3,939.8h-8c0,0.7,0.3,1.4,0.8,1.8c0.5,0.4,1.1,0.7,1.8,0.7c0.9,0,1.8-0.5,2.2-1.3h3c-0.3,1-0.9,2-1.8,2.6
		c-1,0.7-2.1,1-3.3,1c-1,0-2-0.2-2.8-0.7c-0.8-0.5-1.5-1.2-2-2c-0.9-1.9-0.9-4.1,0-6c0.4-0.8,1.1-1.5,1.9-2c1.8-0.9,3.9-0.9,5.6,0
		c0.8,0.4,1.5,1.1,1.9,1.9C173.3,937,173.5,938.4,173.3,939.8L173.3,939.8z M170.6,937.9c0-0.7-0.3-1.3-0.8-1.7
		c-0.5-0.4-1.2-0.7-1.8-0.6c-0.6,0-1.3,0.2-1.7,0.6c-0.5,0.5-0.8,1.1-0.9,1.7L170.6,937.9z"/>
	<path d="M179.6,933.8c0.6-0.3,1.3-0.5,2-0.5v2.9h-0.8c-1.3-0.2-2.4,0.6-2.6,1.9c0,0.3,0,0.6,0,0.8v5.4h-2.8v-10.9h2.8v1.7
		C178.5,934.6,179,934.2,179.6,933.8z"/>
	<path d="M59.3,967.7c-0.7-0.3-1.4-0.8-1.8-1.4c-0.5-0.6-0.7-1.4-0.7-2.2h3c0,0.5,0.2,1,0.6,1.3c0.4,0.3,0.9,0.5,1.5,0.5
		c0.5,0,1.1-0.1,1.5-0.5c0.4-0.3,0.6-0.7,0.6-1.2c0-0.4-0.1-0.7-0.4-1c-0.3-0.3-0.6-0.5-0.9-0.6c-0.5-0.2-1-0.4-1.5-0.5
		c-0.7-0.2-1.5-0.5-2.2-0.8c-0.6-0.3-1.1-0.7-1.4-1.2c-0.4-0.6-0.6-1.3-0.6-2.1c0-0.8,0.2-1.5,0.6-2.1c0.4-0.6,1-1.1,1.7-1.4
		c0.8-0.3,1.7-0.5,2.5-0.5c1.2-0.1,2.5,0.3,3.5,1c0.9,0.7,1.4,1.7,1.5,2.9h-3c0-0.5-0.2-0.9-0.6-1.2c-0.4-0.3-1-0.5-1.5-0.5
		c-0.5,0-0.9,0.1-1.3,0.4c-0.3,0.3-0.5,0.7-0.5,1.2c0,0.3,0.1,0.7,0.4,0.9c0.3,0.3,0.6,0.5,0.9,0.6c0.4,0.2,0.9,0.3,1.5,0.5
		c0.7,0.2,1.5,0.5,2.2,0.8c0.6,0.3,1.1,0.7,1.5,1.2c0.4,0.6,0.7,1.3,0.6,2.1c0,0.7-0.2,1.4-0.6,2.1c-0.4,0.6-1,1.2-1.7,1.5
		c-0.8,0.4-1.7,0.6-2.6,0.6C61.1,968.2,60.2,968.1,59.3,967.7z"/>
	<path d="M79.3,963.5h-8c0,0.7,0.3,1.4,0.8,1.9c0.5,0.4,1.1,0.7,1.8,0.7c0.9,0.1,1.8-0.5,2.2-1.3h3c-0.3,1-0.9,1.9-1.8,2.6
		c-1,0.7-2.1,1-3.3,1c-1,0-2-0.2-2.8-0.7c-0.8-0.5-1.5-1.2-2-2c-0.5-0.9-0.7-2-0.7-3c0-1,0.2-2.1,0.7-3c0.4-0.8,1.1-1.5,1.9-2
		c0.9-0.5,1.9-0.7,2.9-0.7c1,0,1.9,0.2,2.8,0.7c0.8,0.4,1.5,1.1,1.9,1.9c0.5,0.9,0.7,1.8,0.7,2.8C79.3,962.7,79.3,963.1,79.3,963.5z
		 M76.5,961.6c0-0.7-0.3-1.3-0.8-1.7c-0.5-0.4-1.2-0.7-1.8-0.6c-0.6,0-1.3,0.2-1.7,0.6c-0.5,0.5-0.8,1.1-0.9,1.7L76.5,961.6z"/>
	<path d="M81.3,959.7c0.8-1.7,2.5-2.7,4.3-2.7c0.7,0,1.5,0.1,2.1,0.5c0.6,0.3,1.1,0.7,1.5,1.2v-1.6H92v10.9h-2.7v-1.6
		c-0.4,0.5-0.9,1-1.5,1.3c-0.7,0.3-1.4,0.5-2.2,0.5c-0.9,0-1.8-0.2-2.5-0.7c-0.8-0.5-1.4-1.2-1.8-2c-0.5-0.9-0.7-2-0.7-3
		C80.6,961.6,80.9,960.6,81.3,959.7z M88.9,960.9c-0.5-0.9-1.5-1.5-2.5-1.5c-1,0-2,0.6-2.5,1.5c-0.3,0.5-0.4,1.1-0.4,1.7
		c0,0.6,0.1,1.2,0.4,1.7c0.3,0.5,0.7,0.9,1.1,1.1c0.4,0.3,0.9,0.4,1.4,0.4c0.5,0,1-0.1,1.4-0.4c0.4-0.3,0.8-0.6,1.1-1.1
		C89.4,963.3,89.4,962,88.9,960.9L88.9,960.9z"/>
	<path d="M98.9,957.5c0.6-0.3,1.3-0.5,2-0.5v2.9h-0.7c-1.3-0.2-2.4,0.7-2.6,1.9c0,0.3,0,0.6,0,0.8v5.4h-2.7v-10.9h2.8v1.7
		C97.9,958.3,98.3,957.8,98.9,957.5z"/>
	<path d="M102.7,959.7c0.4-0.8,1.1-1.5,1.9-2c0.9-0.5,1.8-0.7,2.8-0.7c1.2-0.1,2.4,0.3,3.4,1c0.9,0.7,1.5,1.7,1.8,2.8h-3
		c-0.1-0.4-0.4-0.8-0.8-1.1c-0.4-0.3-0.9-0.4-1.4-0.4c-0.7,0-1.4,0.3-1.9,0.9c-0.9,1.5-0.9,3.4,0,4.8c0.5,0.6,1.1,0.9,1.9,0.9
		c1,0.1,1.9-0.5,2.2-1.5h3c-0.3,1.1-0.9,2.1-1.8,2.8c-1,0.7-2.2,1.1-3.3,1c-1,0-1.9-0.2-2.8-0.7c-0.8-0.5-1.5-1.2-1.9-2
		C101.8,963.6,101.8,961.5,102.7,959.7L102.7,959.7z"/>
	<path d="M122.9,957.5c0.7,0.4,1.2,0.9,1.5,1.6c0.4,0.8,0.6,1.7,0.5,2.5v6.4h-2.8v-6c0.1-0.7-0.2-1.4-0.7-2
		c-0.5-0.5-1.1-0.7-1.8-0.7c-0.7,0-1.3,0.2-1.8,0.7c-0.5,0.6-0.7,1.3-0.7,2v6h-2.8v-14.6h2.8v5c0.4-0.5,0.9-0.9,1.5-1.1
		c0.6-0.3,1.3-0.4,2-0.4C121.6,957,122.3,957.2,122.9,957.5z"/>
	<path d="M132.6,957.5c0.6-1.1,1.5-1.9,2.5-2.5c1.1-0.6,2.3-0.9,3.6-0.9c1.4,0,2.8,0.4,4,1.2c1.2,0.8,2,1.9,2.4,3.3h-3.2
		c-0.3-0.6-0.7-1.1-1.3-1.5c-0.6-0.3-1.3-0.5-2-0.5c-0.8,0-1.5,0.2-2.1,0.6c-0.6,0.4-1.1,0.9-1.5,1.6c-0.7,1.5-0.7,3.3,0,4.8
		c0.3,0.7,0.8,1.2,1.5,1.6c0.6,0.4,1.4,0.6,2.1,0.6c0.7,0,1.4-0.2,2-0.5c0.6-0.4,1-0.9,1.3-1.5h3.2c-0.4,1.3-1.3,2.5-2.4,3.3
		c-2.3,1.5-5.2,1.6-7.6,0.3c-1-0.6-1.9-1.5-2.5-2.5C131.3,962.5,131.3,959.8,132.6,957.5L132.6,957.5z"/>
	<path d="M151.6,957.5c0.6-0.3,1.3-0.5,2-0.5v2.9h-0.8c-1.3-0.2-2.4,0.7-2.6,1.9c0,0.3,0,0.6,0,0.8v5.4h-2.8v-10.9h2.8v1.7
		C150.5,958.3,151,957.8,151.6,957.5z"/>
	<path d="M165.5,963.5h-8c0,0.7,0.3,1.4,0.8,1.9c0.5,0.4,1.1,0.7,1.8,0.7c0.9,0,1.8-0.5,2.2-1.3h3c-0.3,1-1,1.9-1.8,2.6
		c-1,0.7-2.1,1-3.3,1c-1,0-2-0.2-2.8-0.7c-0.8-0.5-1.5-1.2-2-2c-0.5-0.9-0.7-2-0.7-3c0-1,0.2-2.1,0.7-3c0.4-0.8,1.1-1.5,1.9-2
		c0.9-0.5,1.9-0.7,2.9-0.7c1,0,1.9,0.2,2.8,0.7c0.8,0.4,1.5,1.1,1.9,1.9c0.5,0.9,0.7,1.8,0.7,2.8
		C165.6,962.7,165.5,963.1,165.5,963.5z M162.7,961.6c0-0.7-0.3-1.3-0.8-1.7c-0.5-0.4-1.2-0.7-1.8-0.6c-0.6,0-1.3,0.2-1.7,0.6
		c-0.5,0.5-0.8,1.1-0.9,1.7L162.7,961.6z"/>
	<path d="M167.5,959.7c0.8-1.6,2.5-2.7,4.3-2.7c1.4,0,2.8,0.6,3.6,1.7v-1.6h2.8v10.9h-2.8v-1.6c-0.4,0.5-0.9,1-1.5,1.3
		c-0.7,0.3-1.4,0.5-2.2,0.5c-0.9,0-1.8-0.2-2.5-0.7c-0.8-0.5-1.4-1.2-1.8-2c-0.5-0.9-0.7-2-0.7-3
		C166.9,961.6,167.1,960.6,167.5,959.7z M175.1,960.9c-0.2-0.5-0.6-0.8-1.1-1.1c-1.3-0.8-3-0.4-3.8,1c0,0,0,0,0,0l-0.1,0.1
		c-0.3,0.5-0.4,1.1-0.4,1.7c0,0.6,0.1,1.2,0.4,1.7c0.3,0.5,0.6,0.9,1.1,1.1c0.4,0.3,0.9,0.4,1.4,0.4c1,0,2-0.6,2.5-1.5
		C175.6,963.3,175.6,962,175.1,960.9L175.1,960.9z"/>
	<path d="M184.2,959.4v5.3c0,0.3,0.1,0.6,0.3,0.8c0.3,0.2,0.6,0.3,0.9,0.3h1.3v2.3h-1.7c-2.3,0-3.5-1.1-3.5-3.4v-5.3h-1.3v-2.3h1.3
		v-2.7h2.8v2.7h2.4v2.3L184.2,959.4z"/>
	<path d="M188.8,955.4c-0.6-0.6-0.6-1.7,0-2.3c0,0,0,0,0,0l0,0c0.7-0.6,1.7-0.6,2.4,0c0.6,0.6,0.6,1.7,0,2.3l0,0
		C190.5,956,189.5,956,188.8,955.4z M191.4,957.1v10.9h-2.8v-10.9L191.4,957.1z"/>
	<path d="M198.6,965.5l2.8-8.4h2.9l-4,10.9H197l-4-10.9h3L198.6,965.5z"/>
	<path d="M216,963.5h-8c0,0.7,0.3,1.4,0.8,1.9c0.5,0.4,1.1,0.7,1.8,0.7c0.9,0.1,1.8-0.5,2.2-1.3h3c-0.3,1-1,1.9-1.8,2.6
		c-1,0.7-2.1,1-3.3,1c-1,0-2-0.2-2.8-0.7c-0.8-0.5-1.5-1.2-1.9-2c-0.5-0.9-0.7-2-0.7-3c0-1,0.2-2.1,0.7-3c0.4-0.8,1.1-1.5,1.9-2
		c0.9-0.5,1.9-0.7,2.9-0.7c1,0,1.9,0.2,2.8,0.7c0.8,0.4,1.5,1.1,1.9,1.9c0.5,0.9,0.7,1.8,0.7,2.8C216.1,962.7,216.1,963.1,216,963.5
		z M213.2,961.6c0-0.7-0.3-1.3-0.8-1.7c-0.5-0.4-1.2-0.7-1.8-0.6c-0.6,0-1.2,0.2-1.7,0.6c-0.5,0.5-0.8,1.1-0.9,1.7L213.2,961.6z"/>
	<path d="M241.2,954.3l-3.9,13.8h-3.3l-2.6-9.8l-2.7,9.8h-3.2l-3.7-13.8h3l2.4,10.7l2.8-10.7h3.1l2.6,10.7l2.4-10.6L241.2,954.3z"/>
	<path d="M245,967.6c-0.8-0.5-1.5-1.2-2-2c-1-1.9-1-4.1,0-6c0.5-0.8,1.2-1.5,2-2c1.8-0.9,3.9-0.9,5.7,0c0.8,0.5,1.5,1.2,2,2
		c1,1.9,1,4.1,0,6c-0.5,0.8-1.2,1.5-2.1,2c-0.9,0.5-1.9,0.7-2.9,0.7C246.8,968.3,245.9,968,245,967.6z M249.3,965.5
		c0.5-0.3,0.8-0.6,1.1-1.1c0.3-0.5,0.4-1.2,0.4-1.8c0.1-0.9-0.2-1.7-0.8-2.4c-0.5-0.6-1.2-0.9-2-0.8c-0.8,0-1.5,0.3-2,0.8
		c-1.1,1.4-1.1,3.4,0,4.8c0.5,0.6,1.2,0.9,2,0.8C248.3,965.8,248.8,965.7,249.3,965.5L249.3,965.5z"/>
	<path d="M259.7,957.5c0.6-0.3,1.3-0.5,2-0.5v2.9H261c-1.3-0.2-2.4,0.7-2.6,1.9c0,0.3,0,0.6,0,0.8v5.4h-2.8v-10.9h2.8v1.7
		C258.7,958.3,259.1,957.8,259.7,957.5z"/>
	<path d="M270,968.1l-3.7-4.7v4.7h-2.8v-14.6h2.8v8.3l3.7-4.6h3.6l-4.8,5.5l4.9,5.4L270,968.1z"/>
</g>
<g id="Layer_3" class="st5">
	<path class="st6" d="M842.1,363.3c-0.9-1.4-2.4-2.3-4-2.5c-1.6-0.2-3.2,0.1-4.6,1L693.9,462.3l2-12.1c0.1-0.3,0.1-0.7,0.1-1
		c0-3-2.2-5.6-5.2-6c-1.6-0.2-3.2,0.1-4.6,1c-1.3,1-2.2,2.4-2.5,4l-4.4,26.7c-0.1,0.3-0.1,0.7-0.1,1c0,1.3,0.4,2.6,1.2,3.6
		c0.9,1.3,2.4,2.2,4,2.5l26.7,4.4c1.6,0.2,3.2-0.1,4.6-1c1.3-1,2.2-2.4,2.5-4c0.1-0.3,0.1-0.7,0.1-1c0-1.3-0.4-2.6-1.2-3.6
		c-0.9-1.3-2.4-2.2-4-2.5l-12.1-2l139.6-100.4c1.3-0.9,2.2-2.4,2.5-4C843.5,366.3,843.1,364.6,842.1,363.3z M840.9,367.5
		c-0.2,1-0.7,1.9-1.5,2.5L697.5,472c-0.2,0.2-0.4,0.4-0.5,0.7v0.4c0.1,0.4,0.5,0.8,0.9,0.9l14.8,2.5c1,0.2,1.9,0.7,2.5,1.5
		c0.6,0.8,0.9,1.9,0.7,2.9c-0.2,1-0.7,1.9-1.5,2.5c-0.8,0.6-1.9,0.9-2.9,0.7l-26.7-4.4c-1-0.2-1.9-0.7-2.5-1.5
		c-0.6-0.8-0.9-1.9-0.7-2.9l4.4-26.7c0.2-1,0.7-1.9,1.5-2.5c0.8-0.6,1.9-0.9,2.9-0.7c2.1,0.4,3.5,2.3,3.2,4.4l-2.5,14.8
		c-0.1,0.5,0.1,1,0.6,1.2c0.4,0.2,0.9,0.2,1.3-0.1l141.9-102c0.8-0.6,1.9-0.9,2.9-0.7c1,0.1,1.9,0.7,2.5,1.5
		C840.9,365.4,841.1,366.4,840.9,367.5L840.9,367.5z"/>
	<path class="st6" d="M840.9,367.5c-0.2,1-0.7,1.9-1.5,2.5L697.5,472c-0.2,0.2-0.4,0.4-0.5,0.7v0.4c0.1,0.4,0.5,0.8,0.9,0.9
		l14.8,2.5c1,0.2,1.9,0.7,2.5,1.5c0.6,0.8,0.9,1.9,0.7,2.9c-0.2,1-0.7,1.9-1.5,2.5c-0.8,0.6-1.9,0.9-2.9,0.7l-26.7-4.4
		c-1-0.2-1.9-0.7-2.5-1.5c-0.6-0.8-0.9-1.9-0.7-2.9l4.4-26.7c0.2-1,0.7-1.9,1.5-2.5c0.8-0.6,1.9-0.9,2.9-0.7
		c2.1,0.4,3.5,2.3,3.2,4.4l-2.5,14.8c-0.1,0.5,0.1,1,0.6,1.2c0.4,0.2,0.9,0.2,1.3-0.1l141.9-102c0.8-0.6,1.9-0.9,2.9-0.7
		c1,0.1,1.9,0.7,2.5,1.5C840.9,365.4,841.1,366.4,840.9,367.5z"/>
	<path class="st6" d="M556.4,677.1c-3.4,0-6.2,2.7-6.2,6.1c0,0,0,0,0,0v101.7l-8.7-8.6c-0.2-0.3-0.5-0.5-0.8-0.7
		c-2.8-1.9-6.7-1.2-8.6,1.7c-1.6,2.4-1.3,5.7,0.7,7.8l19.2,19.1c0.2,0.3,0.5,0.5,0.8,0.7c1.1,0.7,2.3,1.1,3.6,1.1
		c1.7,0,3.2-0.6,4.4-1.8L580,785c2.4-2.4,2.4-6.4,0-8.8c-0.2-0.2-0.5-0.4-0.8-0.7c-1.1-0.8-2.3-1.2-3.6-1.2c-1.7,0-3.2,0.6-4.4,1.8
		l-8.6,8.6V683.1c0-1.7-0.6-3.2-1.8-4.4C559.6,677.7,558,677.1,556.4,677.1z M559.1,680.4c0.7,0.7,1.1,1.7,1.1,2.7v104.3
		c0,0.3,0.1,0.6,0.4,0.8c0.1,0.1,0.2,0.2,0.4,0.2c0.4,0.2,0.9,0.1,1.2-0.2l10.6-10.6c1.5-1.4,4-1.4,5.4,0.2c1.4,1.5,1.4,3.8,0,5.2
		l-19.1,19.2c-1.5,1.5-3.9,1.5-5.4,0L534.5,783c-1.5-1.5-1.5-3.9,0-5.4c1.5-1.5,4-1.5,5.5,0l10.6,10.6c0.3,0.3,0.8,0.4,1.2,0.2
		c0.4-0.2,0.7-0.6,0.7-1V683.2c0-2.1,1.6-3.8,3.7-3.8c0,0,0,0,0,0h0.1C557.3,679.3,558.4,679.6,559.1,680.4L559.1,680.4z"/>
	<path class="st6" d="M559.1,680.4c0.7,0.7,1.1,1.7,1.1,2.7v104.3c0,0.3,0.1,0.6,0.4,0.8c0.1,0.1,0.2,0.2,0.4,0.2
		c0.4,0.2,0.9,0.1,1.2-0.2l10.6-10.6c1.5-1.4,4-1.4,5.4,0.2c1.4,1.5,1.4,3.8,0,5.2l-19.1,19.2c-1.5,1.5-3.9,1.5-5.4,0L534.5,783
		c-1.5-1.5-1.5-3.9,0-5.4c1.5-1.5,4-1.5,5.5,0l10.6,10.6c0.3,0.3,0.8,0.4,1.2,0.2c0.4-0.2,0.7-0.6,0.7-1V683.2
		c0-2.1,1.6-3.8,3.7-3.8c0,0,0,0,0,0h0.1C557.3,679.3,558.4,679.6,559.1,680.4z"/>
	<path class="st6" d="M265.8,907.5c0,3.4,2.8,6.1,6.2,6.1l0,0l101.6-1l-8.6,8.8c-0.2,0.2-0.4,0.5-0.7,0.8c-1.7,2.5-1.4,5.8,0.7,7.9
		c1.1,1.2,2.8,1.8,4.4,1.7c1.6,0,3.2-0.6,4.3-1.8l18.9-19.4c0.3-0.2,0.5-0.5,0.7-0.8c0.7-1.1,1.1-2.3,1.1-3.6c0-1.6-0.6-3.2-1.8-4.3
		L373.2,883c-1.1-1.2-2.8-1.8-4.4-1.7c-1.6,0-3.2,0.6-4.3,1.8c-0.2,0.2-0.4,0.5-0.6,0.8c-0.7,1.1-1.1,2.3-1.1,3.6
		c0,1.6,0.7,3.2,1.8,4.3l8.8,8.6l-101.6,0.9c-1.6,0-3.2,0.6-4.3,1.8C266.4,904.3,265.8,905.9,265.8,907.5z M269.2,904.8
		c0.7-0.7,1.7-1.2,2.7-1.2l104.3-1c0.3,0,0.6-0.1,0.8-0.4c0.1-0.1,0.2-0.2,0.2-0.4c0.2-0.4,0.1-0.9-0.2-1.2l-10.7-10.5
		c-0.7-0.7-1.2-1.7-1.2-2.7c0-1,0.4-2,1.1-2.7c0.7-0.7,1.7-1.2,2.7-1.2c1,0,2,0.4,2.7,1.1l19.4,18.9c0.7,0.7,1.2,1.7,1.2,2.7
		c0,1-0.4,2-1.1,2.7l-19,19.5c-0.7,0.7-1.7,1.2-2.7,1.2c-1,0-2-0.4-2.7-1.1c-1.5-1.5-1.5-3.9-0.1-5.5l10.5-10.7
		c0.3-0.3,0.4-0.8,0.2-1.2c-0.2-0.4-0.6-0.7-1-0.7l-104.3,1c-1,0-2-0.4-2.7-1.1c-0.7-0.7-1.2-1.7-1.2-2.7
		C268,906.5,268.4,905.5,269.2,904.8L269.2,904.8z"/>
	<path class="st6" d="M269.2,904.8c0.7-0.7,1.7-1.2,2.7-1.2l104.3-1c0.3,0,0.6-0.1,0.8-0.4c0.1-0.1,0.2-0.2,0.2-0.4
		c0.2-0.4,0.1-0.9-0.2-1.2l-10.7-10.5c-0.7-0.7-1.2-1.7-1.2-2.7c0-1,0.4-2,1.1-2.7c0.7-0.7,1.7-1.2,2.7-1.2c1,0,2,0.4,2.7,1.1
		l19.4,18.9c0.7,0.7,1.2,1.7,1.2,2.7c0,1-0.4,2-1.1,2.7l-19,19.5c-0.7,0.7-1.7,1.2-2.7,1.2c-1,0-2-0.4-2.7-1.1
		c-1.5-1.5-1.5-3.9-0.1-5.5l10.5-10.7c0.3-0.3,0.4-0.8,0.2-1.2c-0.2-0.4-0.6-0.7-1-0.7l-104.3,1c-1,0-2-0.4-2.7-1.1
		c-0.7-0.7-1.2-1.7-1.2-2.7C268,906.5,268.4,905.5,269.2,904.8z"/>
	<path class="st6" d="M1113.2,375.8c-2.6,2.2-3,6.1-0.8,8.7l349.1,417.9l-12.2-1c-0.3-0.1-0.7-0.1-1,0c-3.4,0.2-6,3.2-5.7,6.6
		c0.2,3,2.6,5.4,5.6,5.7l0,0l27,2.4c0.3,0.1,0.7,0.1,1,0c3-0.2,5.4-2.6,5.7-5.6l2.4-27c0.3-3.4-2.2-6.4-5.6-6.7c0,0,0,0,0,0h-1
		c-3,0.2-5.4,2.6-5.7,5.6l-1.1,12.2l-349.1-417.9c-1.1-1.2-2.6-2-4.2-2.2C1116,374.3,1114.4,374.8,1113.2,375.8z M1117.5,376.7
		c1,0.1,2,0.6,2.6,1.4L1471,798.2c0.2,0.2,0.5,0.4,0.8,0.4c0.1,0,0.3,0,0.4-0.1c0.4-0.2,0.7-0.6,0.8-1l1.3-15c0.1-1,0.6-2,1.4-2.6
		c0.8-0.7,1.8-1,2.8-0.9c1,0.1,2,0.6,2.6,1.4c0.7,0.8,1,1.8,0.9,2.8l-2.4,27c-0.1,1-0.6,2-1.4,2.6c-0.8,0.7-1.8,1-2.8,0.9l-27-2.4
		c-1-0.1-2-0.6-2.6-1.4c-0.7-0.8-1-1.8-0.9-2.8c0.2-2.1,2-3.7,4.1-3.5c0,0,0,0,0,0l0,0l15,1.3c0.5,0.1,0.9-0.2,1.1-0.6
		c0.2-0.4,0.2-0.9-0.1-1.3l-350.9-420c-0.7-0.8-1-1.8-0.9-2.8c0.1-1,0.6-2,1.4-2.6C1115.5,376.9,1116.5,376.6,1117.5,376.7
		L1117.5,376.7z"/>
	<path class="st6" d="M1117.5,376.7c1,0.1,2,0.6,2.6,1.4L1471,798.2c0.2,0.2,0.5,0.4,0.8,0.4c0.1,0,0.3,0,0.4-0.1
		c0.4-0.2,0.7-0.6,0.8-1l1.3-15c0.1-1,0.6-2,1.4-2.6c0.8-0.7,1.8-1,2.8-0.9c1,0.1,2,0.6,2.6,1.4c0.7,0.8,1,1.8,0.9,2.8l-2.4,27
		c-0.1,1-0.6,2-1.4,2.6c-0.8,0.7-1.8,1-2.8,0.9l-27-2.4c-1-0.1-2-0.6-2.6-1.4c-0.7-0.8-1-1.8-0.9-2.8c0.2-2.1,2-3.7,4.1-3.5
		c0,0,0,0,0,0l0,0l15,1.3c0.5,0.1,0.9-0.2,1.1-0.6c0.2-0.4,0.2-0.9-0.1-1.3l-350.9-420c-0.7-0.8-1-1.8-0.9-2.8c0.1-1,0.6-2,1.4-2.6
		C1115.5,376.9,1116.5,376.6,1117.5,376.7z"/>
</g>
</svg>
