<?xml version="1.0" encoding="utf-8"?>
<!-- Generator: Adobe Illustrator 24.2.3, SVG Export Plug-In . SVG Version: 6.00 Build 0)  -->
<svg version="1.1" id="Layer_1" xmlns="http://www.w3.org/2000/svg" xmlns:xlink="http://www.w3.org/1999/xlink" x="0px" y="0px"
	 viewBox="0 0 1800 1200" style="enable-background:new 0 0 1800 1200;" xml:space="preserve">
<style type="text/css">
	.st0{fill:#AAE8FF;}
	.st1{fill:#FFC77F;}
	.st2{fill:#FF7D54;}
	.st3{opacity:0.9;fill:#F7BE00;enable-background:new    ;}
	.st4{opacity:0.9;fill:#00ABB8;enable-background:new    ;}
</style>
<g id="Layer_2_1_">
	<path class="st0" d="M853.2,545.3h-310c-10.2,0-18.5-8.3-18.5-18.5l0,0l0,0V370c0-10.2,8.3-18.5,18.5-18.5H853
		c10.2,0,18.5,8.3,18.5,18.5l0,0l0,0v156.8c0.1,10.1-8,18.4-18.1,18.5l0,0H853.2z"/>
	<path d="M638.1,421.4v4h-10.5v6.7h8.1v4h-8.1v10.7h-5.2v-25.4h15.7L638.1,421.4L638.1,421.4z"/>
	<path d="M642,423.4c-0.5-0.5-0.9-1.3-0.9-2.3c0-0.8,0.4-1.6,0.9-2.3c0.5-0.7,1.5-0.9,2.3-0.9c0.9,0,1.6,0.4,2.3,0.9
		c0.7,0.5,0.9,1.3,0.9,2.3c0,0.8-0.4,1.6-0.9,2.3c-0.5,0.7-1.5,0.9-2.3,0.9C643.4,424.2,642.5,424,642,423.4z M646.8,426.6v20.2
		h-5.2v-20.2H646.8z"/>
	<path d="M668.6,428.6c1.6,1.6,2.4,4,2.3,6.4v11.9h-4.9v-11.1c0.1-1.3-0.4-2.5-1.3-3.7c-1.9-1.6-4.8-1.6-6.7,0
		c-0.9,1.1-1.3,2.4-1.3,3.7v11.1h-5.2v-20.2h5.2v2.5c0.8-0.9,1.6-1.6,2.5-2C662.6,425.6,666.2,426.2,668.6,428.6L668.6,428.6z"/>
	<path d="M694.4,438.2h-14.8c0,1.3,0.5,2.5,1.5,3.3c0.9,0.8,2,1.3,3.3,1.3c1.6,0.1,3.3-0.9,4-2.4h5.6c-0.5,1.9-1.6,3.7-3.3,4.8
		c-1.9,1.3-3.9,1.9-6.1,1.9c-1.9,0-3.7-0.4-5.2-1.3c-1.5-0.9-2.8-2.3-3.7-3.7c-0.9-1.6-1.3-3.7-1.3-5.6s0.4-3.9,1.3-5.6
		c0.8-1.5,2-2.8,3.5-3.7c3.3-1.6,7.2-1.6,10.5,0c1.5,0.8,2.8,2,3.5,3.5c0.9,1.6,1.3,3.3,1.3,5.2
		C694.4,436.7,694.4,437.5,694.4,438.2z M689.2,434.8c0-1.3-0.5-2.4-1.5-3.2c-0.9-0.8-2.3-1.3-3.3-1.1c-1.1,0-2.3,0.4-3.2,1.1
		c-0.9,0.9-1.5,2-1.6,3.2H689.2z"/>
	<path d="M704.2,430.8v9.7c0,0.5,0.1,1.1,0.5,1.5c0.5,0.4,1.1,0.5,1.6,0.5h2.4v4.4h-3.2c-4.3,0-6.4-2-6.4-6.3V431h-2.4v-4.3h2.4
		v-4.9h5.2v4.9h4.7v4.3L704.2,430.8z"/>
	<path d="M731.3,426.6v20.2h-5.2v-2.5c-0.8,0.9-1.5,1.6-2.5,2c-1.1,0.5-2.3,0.8-3.5,0.8c-1.5,0-2.9-0.4-4.3-0.9
		c-1.3-0.8-2.3-1.6-2.8-2.9c-0.8-1.5-1.1-2.9-1.1-4.7v-12h5.2v11.1c0,1.3,0.4,2.5,1.3,3.7c1.9,1.6,4.8,1.6,6.7,0
		c0.9-1.1,1.3-2.4,1.3-3.7v-11.1H731.3z"/>
	<path d="M753.2,428.6c1.5,1.6,2.4,4,2.3,6.4v11.9h-5.2v-11.1c0.1-1.3-0.4-2.5-1.3-3.7c-0.9-0.9-2-1.3-3.3-1.3
		c-1.3,0-2.4,0.4-3.3,1.3c-0.9,1.1-1.3,2.4-1.3,3.7v11.1h-5.2v-20.2h5.2v2.5c0.8-0.9,1.6-1.6,2.5-2c1.1-0.5,2.3-0.8,3.5-0.8
		C749.7,426.2,751.7,427,753.2,428.6z"/>
	<path d="M778.9,438.2h-14.8c0,1.3,0.5,2.5,1.5,3.3c0.9,0.8,2,1.3,3.3,1.3c1.6,0.1,3.3-0.9,4-2.4h5.6c-0.5,1.9-1.6,3.7-3.3,4.8
		c-1.9,1.3-3.9,1.9-6.1,1.9c-1.9,0-3.7-0.4-5.2-1.3c-1.5-0.9-2.8-2.3-3.7-3.7c-0.9-1.6-1.3-3.7-1.3-5.6s0.4-3.9,1.3-5.6
		c0.8-1.5,2-2.8,3.5-3.7c3.3-1.6,7.2-1.6,10.5,0c1.5,0.8,2.8,2,3.5,3.5c0.9,1.6,1.3,3.3,1.3,5.2C779,436.7,779,437.5,778.9,438.2z
		 M773.7,434.8c0-1.3-0.5-2.4-1.5-3.2c-0.9-0.8-2.3-1.3-3.3-1.1c-1.1,0-2.3,0.4-3.2,1.1c-0.9,0.9-1.5,2-1.6,3.2H773.7z"/>
	<path d="M629.4,469.2v6.4h8.7v4h-8.5v6.8h9.6v4h-14.8v-25.4h14.8v4.3H629.4L629.4,469.2z"/>
	<path d="M660.5,472.3c1.5,1.6,2.4,4,2.3,6.3v11.9h-5.2v-11.1c0.1-1.3-0.4-2.5-1.3-3.7c-0.9-0.9-2-1.3-3.3-1.3s-2.4,0.4-3.3,1.3
		c-0.9,1.1-1.3,2.4-1.3,3.7v11.1H643v-20.1h5.2v2.5c0.8-0.9,1.6-1.6,2.5-2c1.1-0.5,2.3-0.8,3.5-0.8
		C656.9,469.9,659,470.7,660.5,472.3z"/>
	<path d="M667.5,474.9c0.8-1.5,2-2.8,3.5-3.7c1.6-0.9,3.3-1.3,5.2-1.3c2.3-0.1,4.4,0.5,6.3,1.9c1.6,1.3,2.8,3.2,3.3,5.2h-5.6
		c-0.1-0.8-0.8-1.5-1.5-2c-1.9-1.3-4.4-0.9-6.1,0.9c-0.9,1.3-1.3,2.9-1.3,4.4c-0.1,1.6,0.4,3.2,1.3,4.4c0.9,1.1,2.3,1.6,3.5,1.6
		c1.9,0.1,3.5-0.9,4-2.8h5.6c-0.5,2-1.6,3.9-3.3,5.2c-1.9,1.3-4,2-6.1,1.9c-1.9,0-3.5-0.4-5.2-1.3c-1.5-0.9-2.8-2.3-3.5-3.7
		C665.9,482.3,665.9,478.1,667.5,474.9L667.5,474.9z"/>
	<path d="M705,475.2v4.3h-15.5v-4.3H705z"/>
	<path d="M726.5,466.5c2,0.9,3.7,2.5,4.7,4.4c1.1,2,1.6,4.4,1.6,6.7c0,2.4-0.5,4.7-1.6,6.7c-1.1,1.9-2.8,3.5-4.7,4.4
		c-2.3,1.1-4.7,1.6-7.1,1.5h-8.8v-25.4h8.8C721.9,464.9,724.3,465.5,726.5,466.5z M725.5,483.9c1.5-1.6,2.4-3.9,2.3-6.1
		c0.1-2.3-0.5-4.7-2.3-6.3c-1.6-1.6-3.9-2.4-6.3-2.3h-3.7V486h3.7C721.5,486.1,723.8,485.3,725.5,483.9z"/>
	<path d="M755.3,481.9h-14.8c0,1.3,0.5,2.5,1.5,3.3c0.9,0.8,2,1.3,3.3,1.3c1.6,0.1,3.3-0.9,4-2.4h5.6c-0.5,1.9-1.6,3.5-3.3,4.8
		c-1.9,1.3-3.9,1.9-6.1,1.9c-1.9,0-3.7-0.4-5.2-1.3c-1.5-0.9-2.8-2.3-3.7-3.7c-0.9-1.6-1.3-3.7-1.3-5.6s0.4-3.9,1.3-5.6
		c0.8-1.5,2-2.8,3.5-3.7c1.6-0.9,3.5-1.3,5.3-1.3c1.9,0,3.5,0.4,5.2,1.3c1.5,0.8,2.8,2,3.5,3.5c0.9,1.6,1.3,3.3,1.3,5.2
		C755.5,480.4,755.5,481.2,755.3,481.9z M750.1,478.4c0-1.3-0.5-2.4-1.5-3.2c-0.9-0.8-2.3-1.3-3.3-1.3c-1.1,0-2.4,0.4-3.2,1.1
		c-0.9,0.9-1.5,2-1.6,3.2L750.1,478.4z"/>
	<path d="M759.2,474.9c0.8-1.5,2-2.8,3.5-3.7c1.6-0.9,3.3-1.3,5.2-1.3c2.3-0.1,4.4,0.5,6.3,1.9c1.6,1.3,2.8,3.2,3.3,5.2h-5.6
		c-0.1-0.8-0.8-1.5-1.5-2c-0.8-0.5-1.6-0.8-2.5-0.8c-1.3,0-2.5,0.5-3.5,1.6c-0.9,1.3-1.3,2.9-1.3,4.4c-0.1,1.6,0.4,3.2,1.3,4.4
		c0.9,1.1,2,1.6,3.5,1.6c1.9,0.1,3.5-0.9,4-2.8h5.6c-0.5,2-1.6,3.9-3.3,5.2c-1.9,1.3-4,2-6.1,1.9c-1.9,0-3.5-0.4-5.2-1.3
		c-1.5-0.9-2.8-2.3-3.5-3.7C757.3,482.3,757.3,478.1,759.2,474.9L759.2,474.9z"/>
	<path class="st0" d="M851.5,936.3h-310c-10.2,0-18.5-8.3-18.5-18.5l0,0l0,0V761c0-10.2,8.3-18.5,18.5-18.5l0,0h309.8
		c10.2,0,18.5,8.3,18.5,18.5l0,0l0,0v156.8C870,927.9,861.7,936.2,851.5,936.3C851.6,936.3,851.6,936.3,851.5,936.3L851.5,936.3z"/>
	<path d="M634.1,814.2v3.9h-10.2v6.2h7.9v3.9h-7.9v10.3h-5V814h15.3L634.1,814.2L634.1,814.2z"/>
	<path d="M637.9,816c-1-1-1-3.1,0-4.1l0,0c1.3-1,3.1-1,4.3,0c1,1,1,3.1,0,4.1l0,0C641,817.1,639.2,817.1,637.9,816z M642.5,819.3
		v19.5h-5v-19.5H642.5z"/>
	<path d="M663.9,821.2c1.4,1.6,2.3,3.9,2.2,6.1v11.5h-5v-10.7c0.1-1.3-0.4-2.5-1.3-3.6c-1.8-1.6-4.7-1.6-6.5,0
		c-0.9,1-1.3,2.3-1.3,3.6v10.7h-5v-19.5h5v2.5c0.8-0.9,1.6-1.6,2.5-1.9C657.9,818.4,661.4,818.9,663.9,821.2L663.9,821.2z"/>
	<path d="M688.7,830.5h-14.4c0,1.3,0.5,2.5,1.4,3.2c0.9,0.8,1.9,1.3,3.2,1.3c1.6,0.1,3.2-0.9,3.9-2.3h5.4c-0.5,1.8-1.6,3.4-3.2,4.7
		c-1.8,1.3-3.8,1.8-5.9,1.8c-1.8,0-3.6-0.4-5-1.3c-1.4-0.9-2.7-2.2-3.6-3.6c-1.6-3.4-1.6-7.4,0-10.6c0.8-1.4,1.9-2.7,3.4-3.6
		c3.2-1.6,7-1.6,10.2,0c1.4,0.8,2.7,1.9,3.4,3.4c0.9,1.6,1.3,3.2,1.3,5C688.9,829.1,688.9,829.7,688.7,830.5z M683.8,827.1
		c0-1.3-0.5-2.3-1.4-3.1c-0.9-0.8-2.2-1.3-3.2-1c-1,0-2.3,0.4-3.1,1c-0.9,0.9-1.4,1.9-1.6,3.1H683.8z"/>
	<path d="M698.3,823.4v9.4c0,0.5,0.1,1,0.5,1.4c0.5,0.4,1,0.5,1.6,0.4h2.3v4.1h-3.1c-4.1,0-6.2-1.9-6.2-6.1v-9.4H691v-4.1h2.3v-4.8
		h5v4.8h4.5v4.1L698.3,823.4z"/>
	<path d="M724.6,819.3v19.5h-5v-2.3c-0.8,0.9-1.4,1.6-2.5,1.9c-1,0.5-2.2,0.8-3.4,0.8c-1.4,0-2.8-0.4-4.1-0.9
		c-1.3-0.8-2.2-1.6-2.7-2.8c-0.8-1.4-1-2.8-1-4.5v-11.5h5v10.7c0,1.3,0.4,2.5,1.3,3.6c1.8,1.6,4.7,1.6,6.5,0c0.9-1,1.3-2.3,1.3-3.6
		v-10.7L724.6,819.3z"/>
	<path d="M746,821.2c1.6,1.6,2.3,3.9,2.2,6.1v11.5h-4.8v-10.7c0.1-1.3-0.4-2.5-1.3-3.6c-1.8-1.6-4.7-1.6-6.5,0
		c-0.9,1-1.3,2.3-1.3,3.6v10.7h-5v-19.5h5v2.5c0.8-0.9,1.6-1.6,2.5-1.9c1-0.5,2.2-0.8,3.4-0.8C742.4,818.9,744.6,819.6,746,821.2z"
		/>
	<path d="M770.8,830.5h-14.4c0,1.3,0.5,2.5,1.4,3.2c0.9,0.8,1.9,1.3,3.2,1.3c1.6,0.1,3.2-0.9,3.9-2.3h5.4c-0.5,1.8-1.6,3.4-3.2,4.7
		c-1.8,1.3-3.8,1.8-5.9,1.8c-1.8,0-3.6-0.4-5-1.3c-1.4-0.9-2.7-2.2-3.6-3.6c-0.9-1.6-1.3-3.6-1.3-5.4s0.4-3.8,1.3-5.4
		c0.8-1.4,1.9-2.7,3.4-3.6c1.6-0.9,3.4-1.3,5.2-1.3c1.8,0,3.4,0.4,5,1.3c1.4,0.8,2.7,1.9,3.4,3.4c0.9,1.6,1.3,3.2,1.3,5
		C771.1,829.1,771.1,829.7,770.8,830.5z M765.9,827.1c0-1.3-0.5-2.3-1.4-3.1c-0.9-0.8-2.2-1.3-3.2-1c-1,0-2.2,0.4-3.1,1
		c-0.9,0.9-1.4,1.9-1.6,3.1H765.9z"/>
	<path d="M625.6,860.4v6.2h8.3v3.9h-8.3v6.6h9.3v3.9h-14.4v-24.7h14.4v4.1H625.6L625.6,860.4z"/>
	<path d="M656,863.5c1.4,1.6,2.3,3.9,2.2,6.2v11.5h-5v-10.7c0.1-1.3-0.4-2.5-1.3-3.6c-0.9-0.9-1.9-1.3-3.2-1.3
		c-1.3,0-2.3,0.4-3.2,1.3c-0.9,1-1.3,2.3-1.3,3.6v10.7h-4.7v-19.5h5v2.5c0.8-0.9,1.6-1.6,2.5-1.9c1-0.5,2.2-0.8,3.4-0.8
		C652.3,861.3,654.4,861.9,656,863.5z"/>
	<path d="M662.8,866.1c0.8-1.4,1.9-2.7,3.4-3.6c1.6-0.9,3.2-1.3,5-1.3c2.2-0.1,4.3,0.5,6.1,1.8c1.6,1.3,2.7,3.1,3.2,5h-5.4
		c-0.1-0.9-0.8-1.6-1.6-1.9c-1.9-1.3-4.3-0.9-5.9,0.9c-1.6,2.7-1.6,6.1,0,8.5c0.9,1,1.9,1.6,3.4,1.6c1.8,0.1,3.4-0.9,3.9-2.7h5.4
		c-0.5,1.9-1.6,3.8-3.2,5c-1.8,1.3-3.9,1.9-5.9,1.8c-1.8,0-3.4-0.4-5-1.3c-1.4-0.9-2.7-2.2-3.4-3.6c-1.6-3.4-1.6-7.4,0-10.6
		L662.8,866.1z"/>
	<path d="M699.2,866.5v4.1h-15v-4.1H699.2z"/>
	<path d="M720,858.1c1.9,0.9,3.6,2.5,4.5,4.3c2.2,4.1,2.2,8.9,0,13.1c-1,1.8-2.7,3.4-4.5,4.3c-2.2,1-4.5,1.6-6.9,1.4h-8.5v-24.7h8.5
		C715.6,856.5,717.9,857,720,858.1z M718.9,874.7c1.4-1.6,2.3-3.8,2.2-5.9c0.1-2.2-0.5-4.3-2.2-6.1c-1.6-1.6-3.8-2.3-5.9-2.2h-3.6
		v16.3h3.6C715.2,877.1,717.4,876.2,718.9,874.7L718.9,874.7z"/>
	<path d="M747.9,872.9h-14.4c0,1.3,0.5,2.5,1.4,3.2c0.9,0.8,1.9,1.3,3.2,1.3c1.6,0,3.2-0.9,3.9-2.3h5.4c-0.5,1.8-1.6,3.6-3.2,4.7
		c-1.8,1.3-3.8,1.8-5.9,1.8c-1.8,0-3.6-0.4-5-1.3c-1.4-0.9-2.7-2.2-3.6-3.6c-1.6-3.4-1.6-7.4,0-10.7c0.8-1.4,1.9-2.7,3.4-3.6
		c1.6-0.9,3.4-1.3,5.2-1.3c1.8,0,3.4,0.4,5,1.3c1.4,0.8,2.7,1.9,3.4,3.4c0.9,1.6,1.3,3.2,1.3,5C748.2,871.5,747.9,872.2,747.9,872.9
		z M743,869.6c0-1.3-0.5-2.3-1.4-3.1c-0.9-0.8-2.2-1.3-3.2-1c-1,0-2.3,0.4-3.1,1c-0.9,0.9-1.4,1.9-1.6,3.1H743z"/>
	<path d="M751.5,866.1c0.8-1.4,1.9-2.7,3.4-3.6c1.6-0.9,3.2-1.3,5-1.3c2.2-0.1,4.3,0.5,6.1,1.8c1.6,1.3,2.7,3.1,3.2,5h-5.4
		c-0.1-0.9-0.8-1.4-1.4-1.9c-1.9-1.3-4.3-0.9-5.9,0.9c-1.6,2.7-1.6,6.1,0,8.5c0.9,1,1.9,1.6,3.4,1.6c1.8,0.1,3.4-0.9,3.9-2.7h5.4
		c-0.5,1.9-1.6,3.8-3.2,5c-1.8,1.3-3.9,1.9-6.1,1.8c-1.8,0-3.4-0.4-5-1.3c-1.4-0.9-2.7-2.2-3.4-3.6c-1.6-3.4-1.6-7.4,0-10.6
		L751.5,866.1z"/>
	<path class="st0" d="M1534.3,942h-310c-10.2,0-18.5-8.3-18.5-18.5l0,0l0,0V766.7c0-10.2,8.3-18.5,18.5-18.5l0,0h310
		c10.2,0,18.5,8.3,18.5,18.5l0,0l0,0v156.8C1552.9,933.7,1544.6,942,1534.3,942L1534.3,942z"/>
	<path d="M1264.7,804v3.3h-5.6v17.5h-4.3v-17.5h-5.6V804H1264.7z"/>
	<path d="M1274.1,808.8c0.9-0.4,2-0.8,3.1-0.8v4.4h-1.1c-2-0.3-3.6,0.9-4,2.9c0,0.4,0,0.9,0,1.2v8.3h-4.3v-16.5h4.3v2.6
		C1272.6,810,1273.2,809.4,1274.1,808.8z"/>
	<path d="M1279.9,812.2c0.7-1.2,1.5-2.3,2.8-3.1s2.4-1.1,3.9-1.1c1.1,0,2.3,0.3,3.2,0.8c0.9,0.4,1.7,1.1,2.3,1.9v-2.4h4.3v16.5h-4.3
		v-2.2c-0.7,0.8-1.3,1.5-2.3,2c-2.3,1.1-5.1,0.9-7.2-0.3c-1.2-0.8-2.1-1.9-2.8-3.1c-0.8-1.3-1.1-3.1-1.1-4.6
		C1278.8,815,1279.1,813.5,1279.9,812.2z M1291.4,814.2c-0.3-0.8-0.9-1.3-1.7-1.7c-0.7-0.3-1.3-0.7-2.1-0.7c-1.5,0-3.1,0.9-3.9,2.3
		c-0.4,0.8-0.7,1.7-0.7,2.6c0,0.9,0.1,1.9,0.7,2.6c0.3,0.8,0.9,1.3,1.7,1.7c0.7,0.4,1.3,0.7,2.1,0.7s1.5-0.1,2.3-0.7
		c0.8-0.4,1.2-0.9,1.7-1.7c0.4-0.8,0.7-1.7,0.7-2.6C1292.1,815.8,1291.8,814.8,1291.4,814.2L1291.4,814.2z"/>
	<path d="M1300.6,805.7c-0.4-0.4-0.8-1.1-0.8-1.9c0-0.7,0.3-1.3,0.8-1.9c1.1-0.9,2.6-0.9,3.6,0c0.9,0.9,1.1,2.4,0,3.5l0,0
		C1303.3,806.7,1301.7,806.7,1300.6,805.7z M1304.5,808.4v16.6h-4.3v-16.7L1304.5,808.4z"/>
	<path d="M1322.7,810c1.3,1.3,2,3.3,1.9,5.3v9.8h-4.3v-9.1c0.1-1.1-0.3-2.1-1.1-3.1c-0.8-0.8-1.7-1.1-2.8-1.1c-1.1,0-2,0.3-2.8,1.1
		c-0.8,0.9-1.1,2-1.1,3.1v9.1h-4.3v-16.6h4.3v2.1c0.7-0.8,1.3-1.3,2.1-1.7c0.9-0.4,1.9-0.7,2.9-0.7
		C1319.7,808,1321.3,808.7,1322.7,810z"/>
	<path d="M1347.8,804v14.8c0.1,1.9-0.7,3.5-1.9,4.7c-1.3,1.2-3.1,1.9-4.7,1.7c-1.9,0-3.5-0.7-4.8-1.7c-1.2-1.2-2-3.1-1.9-4.8h4.3
		c0,0.8,0.1,1.5,0.7,2.1c0.4,0.4,1.1,0.8,1.9,0.8c0.7,0,1.3-0.1,1.7-0.8c0.4-0.7,0.7-1.2,0.7-2V804H1347.8z"/>
	<path d="M1355.8,824.2c-1.2-0.8-2.3-1.9-3.1-3.1c-1.5-2.9-1.5-6.3,0-9.1c0.8-1.2,1.9-2.3,3.1-3.1c2.8-1.3,5.9-1.3,8.7,0
		c1.2,0.8,2.3,1.9,3.1,3.1c0.8,1.3,1.2,3.1,1.1,4.6c0,1.7-0.3,3.2-1.2,4.6c-0.8,1.2-1.9,2.3-3.1,3.1c-1.3,0.8-2.9,1.1-4.4,1.1
		C1358.6,825.3,1357.2,824.9,1355.8,824.2z M1362.4,821c0.7-0.4,1.2-0.9,1.7-1.7c0.4-0.9,0.7-1.9,0.7-2.8c0.1-1.3-0.3-2.6-1.2-3.6
		c-0.8-0.9-1.9-1.3-3.1-1.2c-1.2,0-2.3,0.4-3.1,1.2c-0.9,1.1-1.3,2.3-1.2,3.6c-0.1,1.3,0.3,2.6,1.2,3.6c0.8,0.9,1.9,1.3,3.1,1.2
		C1361,821.5,1361.7,821.4,1362.4,821L1362.4,821z"/>
	<path d="M1372.3,805.7c-0.4-0.4-0.8-1.1-0.8-1.9c0-0.7,0.3-1.3,0.8-1.9c1.1-0.9,2.6-0.9,3.6,0c0.4,0.4,0.8,1.1,0.8,1.9
		c0,0.7-0.3,1.3-0.8,1.9c-0.4,0.6-1.2,0.8-1.9,0.8C1373.5,806.5,1372.7,806.2,1372.3,805.7z M1376.3,808.4v16.6h-4.3v-16.7
		L1376.3,808.4z"/>
	<path d="M1394.3,810c1.3,1.3,2,3.3,1.9,5.3v9.8h-4.3v-9.1c0.1-1.1-0.3-2.1-1.1-3.1c-1.5-1.3-4-1.3-5.5,0c-0.8,0.9-1.1,2-1.1,3.1
		v9.1h-4.3v-16.6h4.3v2.1c0.7-0.8,1.3-1.3,2.1-1.7c0.9-0.4,1.9-0.7,2.9-0.7C1391.3,808,1393.1,808.7,1394.3,810z"/>
	<path d="M1405.1,811.8v8c0,0.4,0.1,0.9,0.4,1.2c0.4,0.3,0.9,0.4,1.3,0.4h2v3.5h-2.6c-3.5,0-5.3-1.7-5.3-5.2v-8h-2v-3.5h2v-4.1h4.3
		v4.1h3.6v3.5H1405.1z"/>
	<path d="M1441.9,804v21h-4.3v-13.8l-5.6,13.8h-3.2l-5.6-13.8v13.8h-4.3v-21h4.7l6.7,15.5l6.7-15.5H1441.9z"/>
	<path d="M1449,824.2c-1.2-0.8-2.3-1.9-3.1-3.1c-1.5-2.9-1.5-6.3,0-9.1c0.8-1.2,1.9-2.3,3.1-3.1c2.8-1.3,5.9-1.3,8.7,0
		c1.2,0.8,2.3,1.9,3.1,3.1c0.8,1.3,1.2,3.1,1.1,4.6c0,1.7-0.3,3.2-1.2,4.6c-0.8,1.2-1.9,2.3-3.1,3.1c-1.3,0.8-2.9,1.1-4.4,1.1
		C1451.8,825.3,1450.4,824.9,1449,824.2z M1455.5,821c0.7-0.4,1.2-0.9,1.7-1.7c0.4-0.9,0.7-1.9,0.7-2.8c0.1-1.3-0.3-2.6-1.2-3.6
		c-0.8-0.9-1.9-1.3-3.1-1.2c-1.2,0-2.3,0.4-3.1,1.2c-0.9,1.1-1.3,2.3-1.2,3.6c-0.1,1.3,0.3,2.6,1.2,3.6c0.8,0.9,1.9,1.3,3.1,1.2
		C1454.2,821.5,1455,821.4,1455.5,821L1455.5,821z"/>
	<path d="M1465,812.2c0.7-1.2,1.5-2.3,2.8-3.1c1.2-0.8,2.4-1.1,3.9-1.1c1.1,0,2.1,0.3,3.1,0.8c1,0.4,1.7,1.1,2.3,1.9v-7.9h4.3v22.2
		h-4.3v-2.4c-0.7,0.9-1.3,1.5-2.1,2c-1.1,0.4-2.1,0.8-3.3,0.8c-1.3,0-2.8-0.3-3.9-1.1c-1.2-0.8-2.1-1.9-2.8-3.1
		c-0.8-1.3-1.1-3.1-1.1-4.6C1464,815,1464.2,813.5,1465,812.2z M1476.6,814.2c-0.3-0.8-0.9-1.2-1.7-1.7c-0.7-0.3-1.3-0.7-2.1-0.7
		s-1.5,0.1-2.1,0.7c-0.7,0.4-1.2,1.1-1.5,1.7c-0.4,0.8-0.7,1.7-0.7,2.6c0,0.9,0.1,1.9,0.7,2.6c0.3,0.8,0.9,1.3,1.7,1.7
		c0.7,0.4,1.3,0.7,2.1,0.7c0.8,0,1.5-0.1,2.1-0.7c0.8-0.4,1.2-0.9,1.7-1.7c0.4-0.8,0.7-1.7,0.7-2.6
		C1477.2,815.8,1477.1,814.8,1476.6,814.2L1476.6,814.2z"/>
	<path d="M1500.8,817.9h-12.2c0,1.1,0.4,2.1,1.2,2.8c0.8,0.7,1.7,1.1,2.8,1.1c1.3,0.1,2.8-0.8,3.3-2h4.6c-0.4,1.5-1.3,3.1-2.8,4
		c-1.5,1.1-3.2,1.5-5.1,1.5c-1.5,0-3.1-0.3-4.3-1.1c-1.2-0.8-2.3-1.9-3.1-3.1c-1.3-2.9-1.3-6.3,0-9.1c0.7-1.2,1.7-2.3,2.9-3.1
		c2.8-1.3,5.9-1.3,8.7,0c1.2,0.7,2.3,1.7,2.9,2.9c0.8,1.3,1.1,2.8,1.1,4.3C1501,816.7,1501,817.4,1500.8,817.9z M1496.7,815.1
		c0-1.1-0.4-2-1.2-2.6s-1.9-1.1-2.8-0.9c-0.9,0-2,0.3-2.6,0.9c-0.8,0.8-1.2,1.7-1.3,2.6H1496.7z"/>
	<path d="M1508.3,802.7v22.2h-4.3v-22.2H1508.3z"/>
	<path d="M1266.1,840v3.3h-8.7v5.3h6.7v3.3h-6.7v8.8h-4.1v-21h12.8V840z"/>
	<path d="M1272.1,860.3c-1.2-0.8-2.3-1.9-3.1-3.1c-1.5-2.9-1.5-6.3,0-9.1c0.8-1.2,1.9-2.3,3.1-3.1c2.8-1.3,5.9-1.3,8.7,0
		c1.2,0.8,2.3,1.9,3.1,3.1c0.8,1.3,1.2,3.1,1.1,4.6c0,1.5-0.3,3.2-1.2,4.6c-0.8,1.2-1.9,2.3-3.2,3.1c-1.3,0.8-2.9,1.1-4.4,1.1
		C1274.8,861.4,1273.5,860.8,1272.1,860.3z M1278.7,857.1c0.7-0.4,1.2-0.9,1.5-1.7c0.4-0.8,0.7-1.9,0.7-2.8c0.1-1.3-0.3-2.6-1.2-3.6
		c-1.7-1.7-4.4-1.7-6.1,0l0,0c-1.7,2.1-1.7,5.2,0,7.3c0.8,0.9,1.9,1.3,3.1,1.2C1277.3,857.7,1277.9,857.4,1278.7,857.1z"/>
	<path d="M1294.7,844.9c0.9-0.4,2-0.8,3.1-0.8v4.4h-1.1c-2-0.3-3.6,0.9-4,2.9c0,0.4,0,0.9,0,1.2v8.3h-4.3v-16.6h4.3v2.6
		C1293,846.1,1293.8,845.3,1294.7,844.9z"/>
	<path d="M1310.8,860.4c-1.1-0.4-2.1-1.2-2.8-2.1c-0.8-0.9-1.1-2.1-1.1-3.3h4.6c0,0.8,0.3,1.5,0.9,2c0.7,0.4,1.3,0.8,2.3,0.8
		c0.8,0,1.7-0.1,2.3-0.8c0.7-0.4,0.9-1.1,0.9-1.9c0-0.7-0.1-1.1-0.7-1.5c-0.4-0.4-0.9-0.8-1.3-0.9c-0.8-0.3-1.5-0.7-2.4-0.8
		c-1.1-0.3-2.3-0.8-3.3-1.2c-0.9-0.4-1.7-1.1-2.1-1.9c-0.7-0.9-0.9-2-0.9-3.2s0.3-2.3,0.9-3.2c0.7-0.9,1.5-1.7,2.6-2.1
		c1.2-0.4,2.6-0.8,3.9-0.8c1.9-0.1,3.9,0.4,5.3,1.5c1.3,1.1,2.1,2.8,2.3,4.4h-4.6c0-0.8-0.3-1.3-0.9-1.9c-0.7-0.4-1.5-0.8-2.3-0.8
		c-0.8,0-1.3,0.1-2,0.7c-0.4,0.4-0.8,1.1-0.8,1.9c0,0.4,0.1,1.1,0.7,1.3c0.4,0.3,0.9,0.7,1.3,0.9c0.8,0.3,1.5,0.7,2.3,0.8
		c1.1,0.3,2.3,0.8,3.3,1.2c0.9,0.4,1.7,1.1,2.3,1.9c0.7,0.9,1.1,2,0.9,3.2c0,1.1-0.3,2.1-0.9,3.1c-0.7,1.1-1.5,1.9-2.6,2.3
		c-1.2,0.7-2.6,0.9-4,0.9C1313.6,861.2,1312.2,861.1,1310.8,860.4z"/>
	<path d="M1341.1,854h-12.2c0,1.1,0.4,2.1,1.2,2.8s1.7,1.1,2.8,1.1c1.3,0,2.8-0.8,3.3-2h4.6c-0.4,1.5-1.3,2.9-2.8,4
		c-1.5,1.1-3.2,1.5-5.1,1.5c-1.5,0-3.1-0.3-4.3-1.1s-2.3-1.9-3.1-3.1c-1.3-2.9-1.3-6.3,0-9.1c0.7-1.2,1.7-2.3,2.9-3.1
		c1.3-0.8,2.9-1.1,4.4-1.1s2.9,0.3,4.3,1.1c1.2,0.7,2.3,1.7,2.9,2.9c0.8,1.3,1.1,2.8,1.1,4.3C1341.4,852.8,1341.4,853.5,1341.1,854z
		 M1337.1,851.2c0-1.1-0.4-2-1.2-2.6c-0.8-0.7-1.9-1.1-2.8-1.1s-2,0.3-2.6,0.9c-0.8,0.8-1.2,1.7-1.3,2.6L1337.1,851.2z"/>
	<path d="M1344.3,848.3c0.7-1.2,1.7-2.3,2.8-3.1c1.2-0.8,2.6-1.1,4-1.1c1.1,0,2.1,0.1,3.2,0.7c0.9,0.4,1.7,0.9,2.1,1.7v-2.1h4.3
		v24.4h-4.3v-10.2c-0.7,0.8-1.3,1.3-2.3,1.9c-0.9,0.4-2.1,0.8-3.2,0.8c-1.3,0-2.8-0.4-3.9-1.1c-1.2-0.8-2.1-1.9-2.8-3.1
		C1343,854.4,1343,851.2,1344.3,848.3L1344.3,848.3z M1355.8,850.1c-0.4-0.8-0.9-1.2-1.7-1.7c-0.7-0.3-1.3-0.7-2.1-0.7
		c-1.5,0-3.1,0.9-3.9,2.3c-0.4,0.8-0.7,1.7-0.7,2.6c0,0.9,0.1,1.9,0.7,2.6s0.9,1.2,1.7,1.7c0.7,0.3,1.3,0.7,2.1,0.7
		c1.5,0,3.1-0.9,3.9-2.3C1356.7,853.7,1356.7,851.7,1355.8,850.1z"/>
	<path d="M1364.8,860.6c-0.4-0.4-0.8-1.1-0.8-1.9c0-0.7,0.3-1.3,0.8-1.9c0.4-0.6,1.2-0.8,1.9-0.8s1.3,0.3,1.9,0.8
		c0.9,0.9,0.9,2.6,0,3.5c-0.4,0.4-1.2,0.8-1.9,0.8C1366,861.4,1365.2,861.1,1364.8,860.6z"/>
	<path d="M1384,857.7h6.8v3.3h-11.1v-21h4.3V857.7z"/>
	<path d="M1393.4,848.3c0.7-1.2,1.5-2.3,2.8-3.1c1.2-0.8,2.4-1.1,3.9-1.1c2.1,0,4.3,0.9,5.5,2.6v-2.3h4.3v16.6h-4.1v-2.4
		c-0.7,0.8-1.3,1.5-2.3,2c-1.1,0.4-2.1,0.8-3.3,0.8c-1.3,0-2.8-0.3-3.9-1.1c-1.2-0.8-2.1-1.9-2.8-3.1c-0.8-1.3-1.1-3.1-1.1-4.6
		C1392.6,851.2,1392.8,849.6,1393.4,848.3z M1405,850.1c-0.8-1.3-2.3-2.3-3.9-2.3s-3.1,0.9-3.9,2.3c-0.4,0.8-0.7,1.7-0.7,2.6
		c0,0.9,0.1,1.9,0.7,2.6c0.3,0.8,0.9,1.3,1.7,1.7c2,1.2,4.7,0.4,5.9-1.5c0,0,0-0.1,0.1-0.1C1405.8,853.7,1405.8,851.7,1405,850.1
		L1405,850.1z"/>
	<path d="M1420.4,844.9c1.1-0.4,2.1-0.8,3.2-0.8c1.3,0,2.8,0.3,3.9,1.1c1.2,0.8,2.1,1.9,2.8,3.1c0.8,1.3,1.1,3.1,1.1,4.6
		s-0.3,3.2-1.1,4.6c-0.7,1.2-1.5,2.3-2.8,3.1c-1.2,0.8-2.4,1.1-3.9,1.1c-1.1,0-2.3-0.3-3.2-0.8c-0.9-0.4-1.7-1.1-2.3-2v2.4h-4.3V839
		h4.3v8C1418.8,846.1,1419.4,845.3,1420.4,844.9z M1426.4,850.1c-0.8-1.3-2.3-2.3-3.9-2.3c-1.5,0-3.1,0.9-3.9,2.3
		c-0.8,1.7-0.8,3.6,0,5.2c0.8,1.3,2.1,2.3,3.9,2.3c0.8,0,1.5-0.1,2.1-0.7c0.7-0.4,1.2-1.1,1.7-1.7c0.4-0.8,0.7-1.7,0.7-2.6
		C1426.9,851.7,1426.8,850.8,1426.4,850.1L1426.4,850.1z"/>
	<path d="M1449.6,854h-12.2c0,1.1,0.4,2.1,1.2,2.8c0.8,0.7,1.7,1.1,2.8,1.1c1.3,0,2.8-0.8,3.3-2h4.6c-0.4,1.5-1.3,2.9-2.8,4
		c-1.5,1.1-3.2,1.5-5.1,1.5c-1.5,0-3.1-0.3-4.3-1.1c-1.2-0.8-2.3-1.9-3.1-3.1c-1.3-2.9-1.3-6.3,0-9c0.7-1.2,1.7-2.3,2.9-3.1
		c2.8-1.3,5.9-1.3,8.7,0c1.2,0.7,2.3,1.7,2.9,2.9c0.8,1.3,1.1,2.8,1.1,4.3C1449.8,852.8,1449.6,853.5,1449.6,854z M1445.4,851.2
		c0-1.1-0.4-2-1.2-2.6c-0.8-0.7-1.9-1.1-2.8-1.1c-0.9,0-2,0.3-2.6,0.9c-0.8,0.8-1.2,1.7-1.3,2.6L1445.4,851.2z"/>
	<path d="M1457,838.8v22.2h-4.1v-22.2H1457z"/>
	<path d="M1461.5,841.7c-0.9-0.9-0.9-2.6,0-3.5l0,0c0.4-0.4,1.2-0.8,1.9-0.8c0.8,0,1.3,0.1,1.9,0.8c0.9,0.9,0.9,2.6,0,3.5l0,0
		c-0.4,0.4-1.2,0.8-1.9,0.8C1462.6,842.5,1462,842.1,1461.5,841.7z M1465.3,844.4v16.6h-4.3v-16.6H1465.3z"/>
	<path d="M1483.6,846.1c1.3,1.3,2,3.3,1.9,5.2v9.8h-4.3v-9.1c0.1-1.1-0.3-2.1-1.1-3.1c-0.8-0.8-1.7-1.1-2.8-1.1
		c-1.1,0-2,0.3-2.8,1.1c-0.8,0.9-1.1,2-1.1,3.1v9.1h-4.1v-16.6h4.3v2.1c0.7-0.8,1.3-1.3,2.1-1.7c0.9-0.4,1.9-0.7,2.9-0.7
		C1480.5,844.1,1482.3,844.8,1483.6,846.1z"/>
	<path d="M1499.1,844.9c0.9,0.4,1.7,1.1,2.3,2v-2.3h4.3v16.7c0,1.3-0.3,2.9-0.9,4.1c-0.7,1.2-1.7,2.3-2.8,2.9
		c-1.3,0.8-3.1,1.1-4.6,1.1c-2.1,0.1-4.1-0.4-5.8-1.7c-1.5-1.1-2.4-2.8-2.6-4.6h4.1c0.3,0.8,0.8,1.3,1.3,1.9
		c0.8,0.4,1.7,0.8,2.8,0.8c1.1,0,2.3-0.3,3.1-1.1c0.8-0.9,1.2-2.1,1.2-3.3v-2.6c-1.2,1.9-3.3,2.8-5.5,2.8c-1.3,0-2.8-0.3-3.9-1.1
		c-1.2-0.8-2.1-1.9-2.8-3.1c-0.8-1.3-1.1-3.1-1.1-4.6s0.3-3.1,1.1-4.4c1.2-2.6,3.9-4.1,6.6-4.1
		C1497.1,844,1498.3,844.3,1499.1,844.9z M1500.8,850.1c-0.3-0.8-0.9-1.2-1.7-1.7c-0.7-0.4-1.3-0.7-2.1-0.7s-1.5,0.1-2.1,0.7
		c-0.7,0.4-1.2,0.9-1.7,1.7s-0.7,1.7-0.7,2.6c0,0.9,0.1,1.9,0.7,2.6c0.4,0.8,0.9,1.3,1.7,1.7c0.7,0.4,1.3,0.7,2.1,0.7
		s1.5-0.1,2.1-0.7c0.7-0.4,1.2-0.9,1.7-1.7C1501.6,853.7,1501.6,851.7,1500.8,850.1L1500.8,850.1z"/>
	<path d="M1243,884.2c0.7-1.2,1.5-2.3,2.8-3.1s2.4-1.1,3.9-1.1c1.1,0,2.3,0.1,3.2,0.8c0.9,0.4,1.7,1.1,2.3,1.9v-2.3h4.3V897h-4.3
		v-2.3c-0.7,0.8-1.3,1.5-2.3,2c-1.1,0.4-2.1,0.8-3.3,0.8c-1.3,0-2.8-0.3-3.9-1.1c-1.2-0.8-2.1-1.9-2.8-3.1c-0.8-1.3-1.1-3.1-1.1-4.6
		C1241.9,887.1,1242.2,885.6,1243,884.2z M1254.5,886.2c-1.1-2.1-3.9-2.9-5.8-1.9c-0.8,0.4-1.3,1.1-1.9,1.9
		c-0.4,0.8-0.7,1.7-0.7,2.6s0.1,1.9,0.7,2.6c0.4,0.8,0.9,1.3,1.7,1.7c0.7,0.4,1.3,0.7,2.1,0.7s1.5-0.1,2.1-0.7
		c0.7-0.4,1.2-0.9,1.7-1.7C1255.2,889.7,1255.2,887.8,1254.5,886.2L1254.5,886.2z"/>
	<path d="M1277.5,882.1c1.2,1.3,2,3.3,1.9,5.2v9.9h-4.3V888c0.1-1.1-0.3-2.1-1.1-3.1c-1.5-1.3-4-1.3-5.5,0c-0.8,0.9-1.1,2-1.1,3.1
		v9.1h-4.3v-16.7h4.3v2c0.7-0.8,1.3-1.3,2.1-1.7C1272.3,879.7,1275.3,880.1,1277.5,882.1L1277.5,882.1z"/>
	<path d="M1283.2,884.2c1.2-2.6,3.9-4.1,6.6-4.1c1.1,0,2.1,0.3,3.1,0.8c0.9,0.4,1.7,1.1,2.3,1.9v-7.9h4.3v22.4h-4.3v-2.4
		c-0.7,0.9-1.3,1.5-2.1,2c-1.1,0.4-2.1,0.8-3.3,0.8c-1.3,0-2.8-0.3-3.9-1.1c-1.2-0.8-2.1-1.9-2.8-3.1c-0.8-1.3-1.1-3.1-1.1-4.6
		C1282.2,887.3,1282.6,885.6,1283.2,884.2z M1294.7,886.2c-1.1-2.1-3.6-2.9-5.8-1.9c-0.8,0.4-1.3,1.1-1.9,1.9
		c-0.4,0.8-0.7,1.7-0.7,2.6s0.1,1.9,0.7,2.6c0.3,0.8,0.9,1.3,1.7,1.7c0.7,0.4,1.3,0.7,2.1,0.7c0.8,0,1.5-0.1,2.1-0.7
		c0.8-0.4,1.2-0.9,1.7-1.7c0.4-0.8,0.7-1.7,0.7-2.6C1295.3,887.8,1295.1,886.9,1294.7,886.2L1294.7,886.2z"/>
	<path d="M1311.2,881c0.9-1.7,2.3-2.9,3.9-3.9c3.6-2,8-1.9,11.6,0.4c1.9,1.2,3.1,2.9,3.6,5.1h-4.8c-0.4-0.9-1.1-1.7-2-2.3
		c-0.9-0.4-2-0.8-3.1-0.8c-1.2,0-2.3,0.3-3.2,0.9c-0.9,0.7-1.7,1.3-2.3,2.4c-1.1,2.3-1.1,5.1,0,7.3c0.4,1.1,1.2,1.9,2.3,2.4
		c0.9,0.7,2.1,0.9,3.2,0.9c1.1,0,2.1-0.3,3.1-0.8c1-0.4,1.7-1.3,2-2.3h4.8c-0.7,2-2,3.9-3.6,5.1c-3.5,2.3-7.9,2.4-11.6,0.4
		c-1.5-0.9-2.9-2.1-3.9-3.9C1309.3,888.6,1309.3,884.5,1311.2,881L1311.2,881z"/>
	<path d="M1338.2,874.9v22.2h-4.3v-22.2H1338.2z"/>
	<path d="M1342.1,884.2c0.7-1.2,1.5-2.3,2.8-3.1s2.4-1.1,3.9-1.1c1.1,0,2.3,0.1,3.2,0.8c0.9,0.4,1.7,1.1,2.3,1.9v-2.3h4.3V897h-4.3
		v-2.3c-0.7,0.8-1.3,1.5-2.3,2c-1.1,0.4-2.1,0.8-3.3,0.8c-1.3,0-2.8-0.3-3.9-1.1c-1.2-0.8-2.1-1.9-2.8-3.1c-0.8-1.3-1.1-3.1-1.1-4.6
		C1341.1,887.1,1341.5,885.6,1342.1,884.2z M1353.7,886.2c-0.8-1.3-2.3-2.3-3.9-2.3s-3.1,0.8-3.9,2.3c-0.4,0.8-0.7,1.7-0.7,2.6
		s0.1,1.9,0.7,2.6c0.3,0.8,0.9,1.3,1.7,1.7c0.7,0.4,1.3,0.7,2.1,0.7s1.5-0.1,2.1-0.4c0.8-0.4,1.2-0.9,1.7-1.7
		c0.4-0.8,0.7-1.7,0.7-2.6C1354.2,887.8,1354.1,886.9,1353.7,886.2L1353.7,886.2z"/>
	<path d="M1365.4,896.7c-1.1-0.4-1.9-1.1-2.6-2c-0.7-0.8-0.9-1.9-1.1-2.8h4.3c0.1,0.7,0.4,1.2,0.9,1.5c0.7,0.4,1.3,0.7,2,0.7
		c0.7,0,1.3-0.1,1.9-0.4c0.4-0.3,0.7-0.8,0.7-1.2c0-0.7-0.3-1.1-0.8-1.2c-0.9-0.3-1.7-0.7-2.6-0.9c-1.1-0.3-2-0.7-3.1-0.9
		c-0.8-0.3-1.5-0.9-2-1.5c-0.7-0.8-0.9-1.7-0.9-2.8c0-0.9,0.3-1.9,0.8-2.6c0.7-0.8,1.3-1.3,2.3-1.9c1.1-0.4,2.3-0.8,3.5-0.7
		c1.7-0.1,3.3,0.4,4.7,1.5c1.2,1.1,1.9,2.4,2,4h-4c0-0.7-0.3-1.2-0.8-1.5c-0.7-0.4-1.2-0.7-2-0.7c-0.7,0-1.2,0.1-1.9,0.4
		c-0.7,0.4-0.8,1.3-0.3,2c0.1,0.1,0.3,0.3,0.7,0.4c0.9,0.4,1.7,0.7,2.6,0.9c1.1,0.3,2.1,0.7,3.1,0.9c0.8,0.3,1.5,0.9,2,1.5
		c0.7,0.8,0.9,1.7,0.9,2.8c0,0.9-0.3,1.9-0.8,2.6c-0.7,0.8-1.3,1.3-2.3,1.9C1370.3,897.6,1367.7,897.6,1365.4,896.7L1365.4,896.7z"
		/>
	<path d="M1381.7,896.7c-1.1-0.4-1.9-1.1-2.6-2c-0.7-0.8-0.9-1.9-1.1-2.8h4.3c0.1,0.7,0.4,1.2,0.9,1.5c0.7,0.4,1.3,0.7,2,0.7
		c0.7,0,1.3-0.1,1.9-0.4c0.4-0.3,0.7-0.8,0.7-1.2c0-0.7-0.3-1.1-0.9-1.2c-0.9-0.3-1.7-0.7-2.6-0.9c-1.1-0.3-2-0.7-3.1-0.9
		c-0.8-0.3-1.5-0.9-2-1.5c-0.7-0.8-0.9-1.7-0.9-2.8c0-0.9,0.3-1.9,0.8-2.6c0.7-0.8,1.3-1.3,2.3-1.9c1.1-0.4,2.3-0.8,3.5-0.7
		c1.7-0.1,3.3,0.4,4.7,1.5c1.2,1.1,1.9,2.4,2,4h-4c0-0.7-0.3-1.2-0.8-1.5c-1.1-0.8-2.6-0.8-3.6-0.1c-0.7,0.4-0.8,1.3-0.3,2
		c0.1,0.1,0.3,0.3,0.7,0.4c0.8,0.4,1.7,0.7,2.6,0.9c1.1,0.3,2,0.7,3.1,0.9c0.8,0.3,1.5,0.9,2,1.5c0.7,0.8,0.9,1.7,0.9,2.8
		c0,0.9-0.3,1.9-0.8,2.6c-0.7,0.8-1.3,1.3-2.3,1.9c-1.1,0.4-2.3,0.7-3.5,0.7C1384.1,897.4,1382.9,897.2,1381.7,896.7z"/>
	<path d="M1395.5,877.8c-0.9-0.9-0.9-2.6,0-3.5l0,0c0.4-0.4,1.2-0.8,1.9-0.8c0.7,0,1.3,0.3,1.9,0.8c0.9,0.9,0.9,2.6,0,3.5l0,0
		c-0.4,0.4-1.2,0.8-1.9,0.8C1396.7,878.5,1396.2,878.2,1395.5,877.8z M1399.5,880.3v16.7h-4.3v-16.7H1399.5z"/>
	<path d="M1411.4,883.9h-3.1v13.2h-4.3v-13.2h-1.9v-3.5h1.9v-0.8c-0.1-1.7,0.4-3.3,1.9-4.6c1.5-1.1,3.3-1.5,5.2-1.3v3.5
		c-0.8-0.1-1.5,0.1-2.1,0.4c-0.4,0.7-0.7,1.2-0.7,2v0.8h3.1L1411.4,883.9z"/>
	<path d="M1414.2,877.8c-0.9-0.9-0.9-2.6,0-3.5l0,0c0.4-0.4,1.2-0.8,1.9-0.8c0.8,0,1.3,0.3,1.9,0.8c0.9,0.9,0.9,2.6,0,3.5l0,0
		C1417,878.7,1415.3,878.7,1414.2,877.8L1414.2,877.8z M1418.2,880.3v16.7h-4.3v-16.7H1418.2z"/>
	<path d="M1422.4,884.2c0.7-1.2,1.7-2.3,2.9-3.1c1.3-0.8,2.8-1.1,4.3-1.1c1.9-0.1,3.6,0.4,5.2,1.5c1.3,1.1,2.3,2.6,2.8,4.3h-4.6
		c-0.1-0.7-0.7-1.2-1.2-1.7c-1.7-1.1-3.6-0.8-5.1,0.8c-0.8,1.1-1.1,2.4-1.1,3.6c-0.1,1.3,0.3,2.6,1.1,3.6c0.8,0.9,1.9,1.3,2.9,1.2
		c1.5,0.1,2.9-0.8,3.3-2.3h4.6c-0.4,1.7-1.3,3.2-2.8,4.3c-1.5,1.1-3.3,1.7-5.1,1.5c-1.5,0-2.9-0.3-4.3-1.1c-1.2-0.8-2.3-1.9-2.9-3.1
		c-1.3-2.9-1.3-6.3,0-9V884.2z"/>
	<path d="M1440.5,884.2c1.2-2.6,3.9-4.1,6.6-4.1c2.1,0,4.3,0.9,5.5,2.6v-2.3h4.3v16.7h-4.3v-2.4c-0.7,0.8-1.3,1.5-2.3,2
		c-1.1,0.4-2.1,0.8-3.3,0.8c-1.3,0-2.8-0.3-3.9-1.1c-1.2-0.8-2.1-1.9-2.8-3.1c-0.8-1.3-1.1-3.1-1.1-4.6
		C1439.5,887.3,1439.8,885.6,1440.5,884.2z M1451.9,886.2c-0.8-1.3-2.3-2.3-3.9-2.3s-3.1,0.8-3.9,2.3c-0.4,0.8-0.7,1.7-0.7,2.6
		s0.1,1.9,0.7,2.6c0.3,0.8,0.9,1.3,1.7,1.7c2,1.2,4.7,0.4,5.9-1.5l0.1-0.1C1452.7,889.7,1452.7,887.8,1451.9,886.2L1451.9,886.2z"/>
	<path d="M1465.8,883.9v8c0,0.4,0.1,0.9,0.4,1.2c0.4,0.3,0.9,0.4,1.3,0.3h2v3.6h-2.6c-3.5,0-5.3-1.7-5.3-5.2v-8h-2v-3.5h2v-4.1h4.3
		v4.1h3.6v3.5L1465.8,883.9L1465.8,883.9z"/>
	<path d="M1472.8,877.8c-0.9-0.9-0.9-2.6,0-3.5l0,0c0.4-0.4,1.2-0.8,1.9-0.8s1.3,0.3,1.9,0.8c0.9,0.9,0.9,2.6,0,3.5l0,0
		c-0.4,0.4-1.2,0.8-1.9,0.8C1474,878.5,1473.3,878.2,1472.8,877.8z M1476.8,880.3v16.7h-4.3v-16.7H1476.8z"/>
	<path d="M1483.9,896.2c-1.2-0.8-2.3-1.9-3.1-3.1c-0.8-1.3-1.1-3.1-1.1-4.6s0.3-3.2,1.1-4.6c0.8-1.2,1.9-2.3,3.1-3.1
		c2.8-1.3,5.9-1.3,8.7,0c1.2,0.8,2.3,1.9,3.1,3.1c0.8,1.3,1.2,3.1,1.1,4.6c0,1.7-0.3,3.2-1.2,4.6c-0.8,1.2-1.9,2.3-3.2,3.1
		c-1.3,0.8-2.9,1.1-4.4,1.1C1486.7,897.3,1485.3,897,1483.9,896.2z M1490.4,893.2c0.7-0.4,1.2-0.9,1.5-1.7c0.4-0.8,0.7-1.9,0.7-2.8
		c0.1-1.3-0.3-2.6-1.2-3.6c-1.7-1.7-4.4-1.7-6.1,0l0,0c-0.9,1.1-1.3,2.3-1.2,3.6c-0.1,1.3,0.3,2.6,1.2,3.6c0.8,0.9,1.9,1.3,3.1,1.2
		C1488.9,893.7,1489.7,893.4,1490.4,893.2L1490.4,893.2z"/>
	<path d="M1514.1,882.1c1.2,1.3,2,3.3,1.9,5.2v9.9h-4.3V888c0.1-1.1-0.3-2.1-1.1-3.1c-0.8-0.8-1.7-1.1-2.8-1.1s-2,0.3-2.8,1.1
		c-0.8,0.9-1.1,2-1.1,3.1v9.1h-4.1v-16.7h4.3v2c0.7-0.8,1.3-1.3,2.1-1.7C1509.1,879.7,1512.1,880.1,1514.1,882.1L1514.1,882.1z"/>
</g>
<g id="Layer_1-2">
	<path class="st1" d="M1524.8,325.7c0,18.1-65.5,32.7-146.3,32.7s-146.3-14.5-146.3-32.7s65.5-32.7,146.3-32.7
		C1459.3,293.1,1524.8,307.7,1524.8,325.7"/>
	<path class="st2" d="M1378.5,358.5c-80.8,0-146.3-14.7-146.3-32.7v65.3c0,18.1,65.5,32.7,146.3,32.7s146.3-14.7,146.3-32.7v-65.3
		C1524.8,343.9,1459.3,358.5,1378.5,358.5"/>
	<path class="st3" d="M1378.5,423.8c-80.8,0-146.3-14.7-146.3-32.7v65.3c0,18.1,65.5,32.7,146.3,32.7s146.3-14.7,146.3-32.7v-65.3
		C1524.8,409.2,1459.3,423.8,1378.5,423.8"/>
	<path class="st4" d="M1378.5,489.1c-80.8,0-146.3-14.7-146.3-32.7v65.3c0,18.1,65.5,32.7,146.3,32.7s146.3-14.7,146.3-32.7v-65.3
		C1524.8,474.6,1459.3,489.1,1378.5,489.1"/>
	<path d="M1244.1,216.1h7.5v3.6h-12.2v-23h4.7V216.1z"/>
	<path d="M1254.9,198.6c-0.5-0.5-0.8-1.2-0.8-2c0-0.7,0.4-1.4,0.8-1.8c1.2-1,2.9-1,4,0c0.5,0.5,0.8,1.2,0.8,1.8c0,0.7-0.4,1.4-0.8,2
		C1257.8,199.7,1256.1,199.7,1254.9,198.6z M1259.3,201.5v18.2h-4.7v-18.2H1259.3z"/>
	<path d="M1291.8,203.3c1.4,1.4,2.2,3.6,2,5.7v10.7h-4.7v-10c0.1-1.2-0.4-2.3-1.2-3.4c-1.7-1.4-4.2-1.4-6,0
		c-0.8,0.8-1.2,2.2-1.2,3.4v10h-4.7v-10c0.1-1.2-0.4-2.5-1.2-3.4c-0.8-0.8-1.8-1.2-3-1.2c-1.2,0-2.2,0.4-3,1.2
		c-0.8,0.8-1.2,2.2-1.2,3.4v10h-4.7v-18.2h4.7v2.3c0.7-0.8,1.3-1.3,2.3-1.8c1-0.5,2-0.7,3-0.7c1.3,0,2.7,0.4,3.9,0.8
		c1.2,0.5,2,1.4,2.5,2.7c0.7-1,1.4-2,2.5-2.5C1285.7,200.7,1289.3,201.2,1291.8,203.3L1291.8,203.3z"/>
	<path d="M1298.4,198.6c-0.5-0.5-0.8-1.2-0.8-2c0-0.7,0.4-1.4,0.8-1.8c1.2-1,2.9-1,4,0c0.5,0.5,0.8,1.2,0.8,1.8c0,0.7-0.4,1.4-0.8,2
		C1301.4,199.7,1299.6,199.7,1298.4,198.6z M1302.8,201.5v18.2h-4.7v-18.2H1302.8z"/>
	<path d="M1312.8,205.4v8.8c0,0.5,0.1,1,0.5,1.3c0.5,0.4,1,0.5,1.4,0.5h2.2v3.9h-2.9c-3.9,0-5.8-1.8-5.8-5.7v-8.8h-2.2v-3.9h2.2
		v-4.5h4.7v4.5h4v3.9H1312.8z"/>
	<path d="M1337,212h-13.4c0,1.2,0.5,2.3,1.3,3.1c0.8,0.7,1.8,1.2,3,1.2c1.4,0,3-0.8,3.6-2.2h5.1c-0.5,1.7-1.4,3.4-3,4.3
		c-1.7,1.2-3.5,1.7-5.5,1.7c-1.7,0-3.4-0.4-4.7-1.2s-2.5-2-3.4-3.4c-1.4-3.1-1.4-6.9,0-9.9c0.7-1.3,1.8-2.5,3.1-3.4
		c1.4-0.8,3.1-1.2,4.8-1.2s3.1,0.4,4.7,1.2c1.3,0.7,2.5,1.8,3.1,3.1c0.8,1.4,1.2,3,1.2,4.7C1337,210.8,1337,211.3,1337,212z
		 M1332.3,208.9c0-1.2-0.5-2.2-1.3-2.9c-0.8-0.7-2-1.2-3-1c-1,0-2.2,0.4-2.9,1c-0.8,0.8-1.3,1.8-1.4,2.9H1332.3z"/>
	<path d="M1340.3,205.6c0.7-1.3,1.7-2.5,3-3.4s2.9-1.2,4.2-1.2c1.2,0,2.3,0.4,3.4,0.8c1,0.5,1.8,1.2,2.5,2v-8.4h4.7v24.3h-4.7v-2.7
		c-0.7,1-1.4,1.7-2.3,2.2c-2.5,1.2-5.5,1-7.8-0.4c-1.3-0.8-2.3-2-3-3.4c-0.8-1.4-1.2-3.4-1.2-5.1
		C1339.1,208.9,1339.5,207.2,1340.3,205.6z M1352.9,207.8c-0.4-0.8-1-1.4-1.8-1.8c-0.7-0.4-1.4-0.7-2.3-0.7c-0.8,0-1.7,0.1-2.3,0.7
		c-0.7,0.5-1.3,1-1.8,1.8c-0.5,0.8-0.7,1.8-0.7,2.9c0,1,0.1,2,0.7,2.9c0.5,0.8,1,1.4,1.8,1.8c0.7,0.5,1.4,0.7,2.3,0.7
		c0.8,0,1.7-0.1,2.3-0.7c0.8-0.5,1.3-1,1.8-1.8c0.5-0.8,0.7-1.8,0.7-2.9C1353.5,209.7,1353.4,208.6,1352.9,207.8L1352.9,207.8z"/>
	<path d="M1386.1,196.8v3.6h-6.1v19.2h-4.7v-19.2h-6.1v-3.6H1386.1z"/>
	<path d="M1396.4,202.1c1-0.5,2.2-0.8,3.4-0.8v4.8h-1.2c-2-0.4-4,1-4.3,3.1l0,0c-0.1,0.5-0.1,1,0,1.4v9.2h-4.7v-18.3h4.7v2.9
		C1394.7,203.5,1395.5,202.6,1396.4,202.1z"/>
	<path d="M1402.6,205.6c0.7-1.3,1.7-2.5,3-3.4s2.7-1.2,4.2-1.2c2.3,0,4.7,1,6,2.9v-2.4h4.7v18.2h-4.7v-2.5c-0.7,0.8-1.4,1.7-2.5,2.2
		c-1.2,0.5-2.3,0.8-3.6,0.8c-1.4,0-3-0.4-4.2-1.2c-1.3-0.8-2.3-2-3-3.4c-0.8-1.4-1.2-3.4-1.2-5.1
		C1401.5,208.9,1402,207.2,1402.6,205.6z M1415.1,207.8c-0.4-0.8-1-1.3-1.8-1.8c-0.7-0.4-1.4-0.7-2.3-0.7s-1.7,0.1-2.3,0.7
		c-0.7,0.5-1.3,1-1.8,1.8c-0.5,0.8-0.7,1.8-0.7,2.9c0,1,0.1,2,0.7,2.9c0.5,0.8,1,1.4,1.8,1.8c0.7,0.5,1.4,0.7,2.3,0.7
		c0.8,0,1.7-0.1,2.3-0.7c0.8-0.5,1.3-1,1.8-1.8c0.5-0.8,0.7-1.8,0.7-2.9C1416,209.7,1415.6,208.6,1415.1,207.8z"/>
	<path d="M1425.4,198.6c-0.5-0.5-0.8-1.2-0.8-2c0-0.7,0.4-1.4,0.8-1.8c1.2-1,2.9-1,4,0c0.5,0.5,0.8,1.2,0.8,1.8c0,0.7-0.4,1.4-0.8,2
		C1428.2,199.7,1426.5,199.7,1425.4,198.6z M1429.6,201.5v18.2h-4.7v-18.2H1429.6z"/>
	<path d="M1449.5,203.3c1.3,1.4,2.2,3.6,2,5.7v10.7h-4.7v-10c0.1-1.2-0.4-2.3-1.2-3.4c-0.8-0.8-1.8-1.2-3-1.2c-1.2,0-2.2,0.4-3,1.2
		c-0.8,1-1.2,2.2-1.2,3.4v10h-4.7v-18.2h4.7v2.3c0.7-0.8,1.4-1.4,2.3-1.8c1-0.5,2-0.7,3.1-0.7
		C1446.1,201.2,1448.2,201.8,1449.5,203.3z"/>
	<path d="M1456.1,198.6c-0.5-0.5-0.8-1.2-0.8-2c0-0.7,0.4-1.4,0.8-1.8c1.2-1,2.9-1,4,0c0.5,0.5,0.8,1.2,0.8,1.8c0,0.7-0.4,1.4-0.8,2
		C1459,199.7,1457.3,199.7,1456.1,198.6z M1460.4,201.5v18.2h-4.7v-18.2H1460.4z"/>
	<path d="M1480.3,203.3c1.3,1.4,2.2,3.6,2,5.7v10.7h-4.5v-10c0.1-1.2-0.4-2.3-1.2-3.4c-1.7-1.4-4.3-1.4-6,0c-0.8,1-1.2,2.2-1.2,3.4
		v10h-4.7v-18.2h4.7v2.3c0.7-0.8,1.4-1.4,2.3-1.8c1-0.5,2-0.7,3.1-0.7C1477.2,201.2,1479,202,1480.3,203.3z"/>
	<path d="M1497.5,202c1,0.5,1.8,1.2,2.5,2.2v-2.7h4.5v18.3c0,1.4-0.4,3.1-1,4.5c-0.7,1.3-1.8,2.5-3,3.1c-1.4,0.8-3.4,1.2-5.1,1.2
		c-2.3,0.1-4.5-0.5-6.4-1.8c-1.7-1.2-2.7-3-2.9-5.1h4.5c0.1,0.8,0.8,1.4,1.4,2c0.8,0.5,1.8,0.8,3,0.7c1.2,0,2.5-0.4,3.4-1.2
		c0.8-1,1.3-2.3,1.3-3.6v-2.9c-0.7,0.8-1.4,1.7-2.5,2.2c-1.2,0.5-2.3,0.8-3.5,0.8c-1.4,0-3-0.4-4.2-1.2c-1.3-0.8-2.3-2-3-3.4
		c-0.8-1.4-1.2-3.4-1.2-5.1c0-1.7,0.4-3.4,1.2-4.8c0.7-1.3,1.7-2.5,3-3.4s2.7-1.2,4.2-1.2C1495.1,201,1496.3,201.3,1497.5,202z
		 M1499.4,207.8c-0.4-0.8-1-1.3-1.8-1.8c-0.7-0.4-1.4-0.7-2.3-0.7s-1.7,0.1-2.3,0.7c-0.7,0.5-1.3,1.2-1.7,1.8
		c-0.5,0.8-0.7,1.8-0.7,2.9c0,1,0.1,2,0.7,2.9c0.4,0.8,1,1.4,1.8,1.8c0.7,0.5,1.4,0.7,2.3,0.7c0.8,0,1.7-0.1,2.3-0.7
		c0.8-0.5,1.3-1,1.8-1.8c0.5-0.8,0.7-1.8,0.7-2.9C1500,209.7,1499.8,208.6,1499.4,207.8L1499.4,207.8z"/>
	<path d="M1352.1,237.7c1.8,0.8,3.4,2.3,4.2,4c2,3.9,2,8.3,0,12.2c-1,1.7-2.5,3.1-4.2,4c-2,1-4.2,1.4-6.4,1.4h-8v-23h8
		C1347.9,236.2,1350.1,236.7,1352.1,237.7z M1351.2,253.3c2.7-3.4,2.7-7.8,0-11.2c-1.4-1.4-3.5-2.2-5.5-2h-3.4v15.2h3.4
		C1347.7,255.4,1349.6,254.6,1351.2,253.3L1351.2,253.3z"/>
	<path d="M1361.3,245.1c1.3-2.7,4.2-4.5,7.2-4.5c2.3,0,4.7,1,6,2.9v-2.7h4.7v18.2h-4.7v-2.5c-0.7,0.8-1.4,1.7-2.5,2.2
		c-1.2,0.5-2.3,0.8-3.6,0.8c-1.4,0-3-0.4-4.2-1.2c-1.3-0.8-2.3-2-3-3.4c-0.8-1.4-1.2-3.4-1.2-5.1
		C1360.1,248.4,1360.5,246.7,1361.3,245.1z M1373.8,247.2c-0.4-0.8-1-1.3-1.8-1.8c-2.2-1.3-5.1-0.7-6.4,1.7l0,0l-0.1,0.1
		c-0.5,0.8-0.7,1.8-0.7,2.9c0,1,0.1,2,0.7,2.9c0.4,0.8,1,1.4,1.8,1.8c0.7,0.5,1.4,0.7,2.3,0.7c1.7,0,3.4-1,4.2-2.5
		c0.5-0.8,0.7-1.8,0.7-2.9C1374.4,249.1,1374.3,248.1,1373.8,247.2z"/>
	<path d="M1389,244.7v8.8c0,0.5,0.1,1,0.5,1.3c0.5,0.4,1,0.5,1.4,0.4h2.2v3.9h-2.9c-3.9,0-5.8-1.8-5.8-5.7v-8.8h-2.2v-3.9h2.2v-4.2
		h4.7v4.5h4v3.9L1389,244.7z"/>
	<path d="M1396.4,245.1c1.3-2.7,4.2-4.5,7.2-4.5c2.3,0,4.7,1,6,2.9v-2.7h4.7v18.2h-4.7v-2.5c-0.7,0.8-1.4,1.7-2.5,2.2
		c-1.2,0.5-2.3,0.8-3.6,0.8c-1.4,0-3-0.4-4.2-1.2c-1.3-0.8-2.3-2-3-3.4c-0.8-1.4-1.2-3.4-1.2-5.1
		C1395.2,248.4,1395.5,246.7,1396.4,245.1z M1408.9,247.2c-0.4-0.8-1-1.3-1.8-1.8c-2.2-1.3-5.1-0.7-6.4,1.7l0,0l-0.1,0.1
		c-0.5,0.8-0.7,1.8-0.7,2.9c0,1,0.1,2,0.7,2.9c0.4,0.8,1,1.4,1.8,1.8c0.7,0.5,1.4,0.7,2.3,0.7c1.7,0,3.4-1,4.2-2.5
		c0.5-0.8,0.7-1.8,0.7-2.9C1409.5,249.1,1409.4,248.1,1408.9,247.2z"/>
	<path d="M133.9,755.1h-8.6l-1.4,4.1h-4.5l7.8-21.7h5l7.8,21.7h-4.8L133.9,755.1z M132.7,751.6l-3.2-9.1l-3.2,9.1H132.7z"/>
	<path d="M142.8,746c1.2-2.7,4-4.2,6.8-4.2c1.1,0,2.2,0.3,3.2,0.8c0.9,0.5,1.7,1.1,2.4,1.9v-8.3h4.5v22.9h-4.4v-2.5
		c-0.7,0.9-1.4,1.6-2.2,2c-1.1,0.5-2.2,0.8-3.4,0.8c-1.4,0-2.8-0.3-4-1.1c-1.2-0.8-2.2-1.9-2.8-3.2c-0.8-1.4-1.1-3.2-1.1-4.8
		C141.7,749,142,747.4,142.8,746z M154.6,747.8c-0.8-1.4-2.4-2.4-4-2.4c-0.8,0-1.6,0.1-2.2,0.7c-0.8,0.5-1.2,0.9-1.7,1.7
		c-0.5,0.8-0.7,1.7-0.7,2.7c0,0.9,0.1,1.9,0.7,2.7c0.3,0.8,0.9,1.4,1.7,1.9c0.7,0.5,1.4,0.7,2.2,0.7c0.8,0,1.6-0.1,2.2-0.7
		c0.8-0.5,1.2-0.9,1.7-1.7c0.5-0.8,0.7-1.7,0.7-2.7C155.2,749.8,155.1,748.6,154.6,747.8z"/>
	<path d="M163.7,746c1.2-2.7,4-4.2,6.9-4.2c1.1,0,2.2,0.3,3.2,0.8c0.9,0.5,1.7,1.1,2.4,1.9v-8.3h4.4v22.9h-4.4v-2.5
		c-0.7,0.9-1.4,1.6-2.2,2c-1.1,0.5-2.2,0.8-3.4,0.8c-1.4,0-2.8-0.3-4-1.1c-1.2-0.8-2.2-1.9-2.8-3.2c-0.8-1.4-1.1-3.2-1.1-4.8
		C162.6,749,163,747.4,163.7,746z M175.6,747.8c-0.8-1.4-2.4-2.4-4-2.4c-0.8,0-1.6,0.1-2.2,0.7c-0.7,0.5-1.2,0.9-1.6,1.7
		c-0.5,0.8-0.7,1.7-0.7,2.7c0,0.9,0.1,1.9,0.7,2.7c0.3,0.8,0.9,1.4,1.7,1.9c0.7,0.5,1.4,0.7,2.2,0.7c0.8,0,1.6-0.1,2.2-0.7
		c0.8-0.5,1.2-0.9,1.7-1.7C176.5,751.6,176.5,749.5,175.6,747.8L175.6,747.8z"/>
	<path d="M197.3,745.6v8.3c0,0.5,0.1,0.9,0.5,1.2c0.5,0.3,0.9,0.5,1.4,0.3h2v3.6h-2.7c-3.6,0-5.4-1.7-5.4-5.3v-8.4h-2v-3.6h2v-4h4.4
		v4.2h3.7v3.6H197.3z"/>
	<path d="M207.4,758.4c-1.2-0.8-2.4-1.9-3.2-3.2c-0.8-1.4-1.1-3.2-1.1-4.8c0-1.6,0.3-3.3,1.1-4.8c0.8-1.2,1.9-2.4,3.2-3.2
		c2.8-1.4,6.1-1.4,9,0c1.2,0.8,2.4,1.9,3.2,3.2c1.6,3,1.6,6.5,0,9.4c-0.8,1.2-1.9,2.4-3.2,3.2c-1.4,0.8-3,1.1-4.5,1.1
		C210.3,759.5,208.8,759.1,207.4,758.4z M214.1,755.1c0.7-0.5,1.2-0.9,1.6-1.7c0.5-0.8,0.7-1.9,0.7-2.8c0.1-1.4-0.3-2.7-1.2-3.7
		c-1.7-1.7-4.5-1.7-6.2,0l0,0c-0.9,1.1-1.2,2.4-1.2,3.7c-0.1,1.4,0.3,2.7,1.2,3.7c0.8,0.8,1.9,1.2,3.2,1.2
		C212.5,755.7,213.3,755.4,214.1,755.1z"/>
	<path d="M246.3,747.5c-0.7,1.1-1.6,1.9-2.5,2.4c-1.4,0.7-2.8,0.9-4.4,0.9h-3.6v8.3h-4.4v-21.7h8.1c1.4,0,3,0.3,4.2,0.8
		c1.1,0.5,2,1.4,2.7,2.4c0.7,1.1,0.9,2.2,0.9,3.4C247.1,745.4,246.8,746.5,246.3,747.5z M241.8,746.6c0.7-0.7,0.9-1.4,0.9-2.4
		c0-2-1.2-3.2-3.6-3.2h-3.4v6.2h3.4C240.1,747.4,241,747.1,241.8,746.6z"/>
	<path d="M254.5,736.3v22.9h-4.4v-22.9H254.5z"/>
	<path d="M258.7,746c0.7-1.2,1.6-2.4,2.8-3.2c1.2-0.8,2.5-1.1,4-1.1c1.1,0,2.4,0.1,3.3,0.8c0.9,0.5,1.7,1.1,2.4,1.9v-2.4h4.4v17.1
		h-4.4v-2.5c-0.7,0.8-1.4,1.6-2.4,2c-1.1,0.5-2.2,0.8-3.4,0.8c-1.4,0-2.8-0.3-4-1.1c-1.2-0.8-2.2-1.9-2.8-3.2
		C257.3,752.3,257.3,748.9,258.7,746L258.7,746z M270.5,747.8c-0.8-1.4-2.4-2.4-4-2.4c-0.8,0-1.6,0.1-2.2,0.7
		c-0.7,0.5-1.2,0.9-1.6,1.7c-0.5,0.8-0.7,1.7-0.7,2.7c0,0.9,0.1,1.9,0.7,2.7c0.3,0.8,0.9,1.4,1.7,1.7c0.7,0.5,1.4,0.7,2.2,0.7
		c0.8,0,1.6-0.1,2.2-0.7c0.8-0.5,1.2-0.9,1.7-1.7C271.4,751.6,271.4,749.5,270.5,747.8L270.5,747.8z"/>
	<path d="M296.2,742.1l-10.7,25.3H281l3.7-8.5l-6.9-16.8h4.9l4.4,11.9l4.5-11.9H296.2L296.2,742.1z"/>
	<path d="M302.8,736.3v22.9h-4.4v-22.9H302.8z"/>
	<path d="M307.4,739.2c-0.9-0.9-0.9-2.7,0-3.6l0,0c1.1-0.9,2.7-0.9,3.7,0c0.9,0.9,0.9,2.7,0,3.6l0,0
		C310.1,740.1,308.5,740.1,307.4,739.2z M311.4,742.1v17.1H307v-17.1H311.4z"/>
	<path d="M318.5,758.7c-1.1-0.5-1.9-1.1-2.7-2c-0.7-0.8-0.9-1.9-1.1-2.8h4.4c0.1,0.7,0.5,1.2,0.9,1.6c0.7,0.5,1.4,0.7,2.2,0.7
		c0.7,0,1.4-0.1,1.9-0.5c0.5-0.3,0.7-0.8,0.7-1.2c0-0.7-0.3-1.1-0.8-1.2c-0.9-0.3-1.7-0.7-2.7-0.9c-1.1-0.3-2-0.7-3.2-0.9
		c-0.8-0.3-1.6-0.9-2-1.6c-0.7-0.8-0.9-1.7-0.9-2.8c0-0.9,0.3-1.9,0.8-2.7c0.7-0.8,1.4-1.4,2.4-1.9c1.1-0.5,2.4-0.8,3.6-0.7
		c1.7-0.1,3.4,0.5,4.9,1.6c1.2,0.9,1.9,2.5,2,4.1h-4.1c0-0.7-0.3-1.2-0.9-1.6c-1.1-0.8-2.7-0.8-3.7-0.1c-0.7,0.5-0.8,1.2-0.5,2
		c0.1,0.1,0.3,0.5,0.7,0.5c0.8,0.5,1.7,0.7,2.7,0.9c1.1,0.3,2,0.7,3,0.9c0.8,0.3,1.6,0.9,2,1.6c0.7,0.8,0.9,1.7,0.9,2.8
		c0,0.9-0.3,1.9-0.8,2.7c-0.7,0.8-1.4,1.4-2.4,1.9c-1.1,0.5-2.4,0.7-3.6,0.7C321.1,759.5,319.6,759.2,318.5,758.7z"/>
	<path d="M337.7,745.6v8.3c0,0.5,0.1,0.9,0.5,1.2c0.5,0.3,0.9,0.5,1.4,0.3h2v3.6h-2.7c-3.6,0-5.4-1.7-5.4-5.3v-8.4h-2v-3.6h2v-4h4.4
		v4.2h3.7v3.6H337.7z"/>
	<path d="M131.8,796.4l-4.8-8.5h-2v8.5h-4.4v-21.7h8.2c1.4,0,3,0.3,4.2,0.9c1.1,0.5,2,1.4,2.7,2.4c0.7,0.9,0.9,2.2,0.9,3.3
		c0,3-2,5.7-4.9,6.2l5.2,8.7L131.8,796.4z M125.1,784.6h3.6c0.9,0,1.9-0.3,2.7-0.8c0.7-0.7,0.9-1.6,0.8-2.4c0-0.8-0.3-1.7-0.8-2.4
		c-0.8-0.7-1.7-0.9-2.7-0.8h-3.6V784.6z"/>
	<path d="M140.5,783c0.7-1.2,1.6-2.4,2.8-3.2c1.2-0.8,2.5-1.1,4-1.1c2.2,0,4.4,0.9,5.7,2.7v-2.4h4.4v17.1h-4.4v-2.5
		c-0.7,0.8-1.4,1.6-2.4,2c-1.1,0.5-2.2,0.8-3.4,0.8c-1.4,0-2.8-0.3-4-1.1c-1.2-0.8-2.2-1.9-2.8-3.2c-0.8-1.4-1.1-3.2-1.1-4.8
		C139.4,786.2,139.7,784.5,140.5,783z M152.4,785.1c-0.8-1.4-2.4-2.4-4.1-2.4c-0.8,0-1.6,0.1-2.2,0.7c-0.7,0.5-1.2,1.1-1.6,1.7
		c-0.5,0.8-0.7,1.7-0.7,2.7c0,0.9,0.1,1.9,0.7,2.7c0.3,0.8,0.9,1.4,1.7,1.7c0.7,0.5,1.4,0.7,2.2,0.7c0.8,0,1.6-0.1,2.2-0.7
		c0.8-0.5,1.2-0.9,1.7-1.7c0.5-0.8,0.7-1.7,0.7-2.7C153,786.8,152.7,785.9,152.4,785.1L152.4,785.1z"/>
	<path d="M166.5,782.7v8.3c0,0.5,0.1,0.9,0.5,1.2c0.5,0.3,0.9,0.5,1.4,0.5h2v3.6h-2.7c-3.6,0-5.4-1.7-5.4-5.3v-8.3h-2v-3.4h2v-4.2
		h4.4v4.2h3.7v3.6L166.5,782.7z"/>
	<path d="M189.4,789h-12.6c0,1.1,0.5,2.2,1.2,3c0.8,0.7,1.7,1.1,2.8,1.1c1.4,0.1,2.8-0.8,3.4-2h4.8c-0.5,1.6-1.4,3.2-2.8,4.1
		c-1.6,1.1-3.3,1.6-5.2,1.6c-1.6,0-3.2-0.3-4.4-1.1c-1.2-0.8-2.4-1.9-3.2-3.2c-1.4-3-1.4-6.5,0-9.3c0.7-1.2,1.7-2.4,3-3.2
		c1.4-0.8,3-1.1,4.5-1.1c1.6,0,3,0.3,4.4,1.1c1.2,0.7,2.4,1.7,3,3c0.8,1.4,1.1,2.8,1.1,4.4C189.5,787.9,189.5,788.6,189.4,789z
		 M185,786.2c0-1.1-0.5-2-1.2-2.7c-0.8-0.7-1.9-1.1-2.8-0.9c-0.9,0-2,0.3-2.7,0.9c-0.8,0.8-1.2,1.7-1.4,2.7H185z"/>
	<path d="M215.2,787.1c0.8,0.9,1.2,2.2,1.2,3.4c0,1.1-0.3,2.2-0.9,3c-0.7,0.9-1.4,1.6-2.5,2c-1.2,0.5-2.5,0.8-3.7,0.8H200v-21.7h9
		c1.2,0,2.7,0.1,3.7,0.8c2,0.8,3.3,2.7,3.3,4.9c0,1.1-0.3,2.2-0.9,3.2c-0.7,0.8-1.6,1.4-2.7,1.9
		C213.5,785.4,214.5,786.1,215.2,787.1z M204.2,783.7h4.1c0.8,0,1.7-0.1,2.4-0.7c0.7-0.5,0.9-1.2,0.8-2c0-0.8-0.3-1.6-0.8-2
		c-0.7-0.5-1.6-0.8-2.4-0.8h-4L204.2,783.7z M211.1,792c0.7-0.5,0.9-1.2,0.9-2s-0.3-1.6-0.9-2.2c-0.8-0.7-1.6-0.8-2.5-0.8h-4.2v5.8
		h4.4C209.6,792.8,210.5,792.7,211.1,792L211.1,792z"/>
	<path d="M223.1,795.5c-1.2-0.8-2.4-1.9-3.2-3.2c-0.8-1.4-1.1-3.2-1.1-4.8c0-1.6,0.3-3.3,1.1-4.8c0.8-1.2,1.9-2.4,3.2-3.2
		c2.8-1.4,6.1-1.4,9,0c1.2,0.8,2.4,1.9,3.2,3.2c1.6,3,1.6,6.5,0,9.4c-0.8,1.2-1.9,2.4-3.2,3.2c-1.4,0.8-3,1.1-4.5,1.1
		C226,796.5,224.5,796.2,223.1,795.5z M229.9,792.3c0.8-0.5,1.2-0.9,1.7-1.7c0.5-0.9,0.7-1.9,0.7-2.8c0.1-1.4-0.3-2.7-1.2-3.7
		c-0.8-0.8-1.9-1.4-3.2-1.2c-1.2,0-2.4,0.5-3.2,1.2c-1.7,2.2-1.7,5.3,0,7.5c0.8,0.9,1.9,1.4,3.2,1.2
		C228.4,792.8,229.1,792.7,229.9,792.3L229.9,792.3z"/>
	<path d="M242.8,795.5c-1.2-0.8-2.4-1.9-3.2-3.2c-0.8-1.4-1.1-3.2-1.1-4.8c0-1.6,0.3-3.3,1.1-4.8c0.8-1.2,1.9-2.4,3.2-3.2
		c2.8-1.4,6.1-1.4,9,0c1.2,0.8,2.4,1.9,3.2,3.2c0.8,1.4,1.2,3.2,1.1,4.8c0,1.6-0.3,3.3-1.2,4.8c-0.8,1.2-1.9,2.4-3.3,3.2
		c-1.4,0.8-3,1.1-4.5,1.1C245.6,796.5,244.3,796.2,242.8,795.5z M249.6,792.3c0.7-0.5,1.2-0.9,1.6-1.7c0.5-0.9,0.7-1.9,0.7-2.8
		c0.1-1.4-0.3-2.7-1.2-3.7c-1.7-1.7-4.5-1.7-6.2,0l0,0c-1.7,2.2-1.7,5.3,0,7.5c0.8,0.9,1.9,1.4,3.2,1.2
		C248,792.8,248.8,792.7,249.6,792.3L249.6,792.3z"/>
	<path d="M269.6,796.4l-5.8-7.4v7.4h-4.4v-22.9h4.4v13l5.8-7.3h5.7l-7.5,8.6l7.7,8.6L269.6,796.4z"/>
	<path d="M135.8,863.1c-0.5-0.9-1.2-1.6-2-2c-0.9-0.5-2-0.8-3-0.8c-1.2,0-2.4,0.3-3.4,0.8c-0.9,0.7-1.7,1.4-2.4,2.5
		c-1.1,2.4-1.1,5.2,0,7.5c0.7,1.1,1.4,1.9,2.4,2.5c1.1,0.7,2.4,0.9,3.6,0.8c1.4,0,2.8-0.5,4.1-1.2c1.1-0.9,1.9-2.2,2-3.6h-7.5v-3.3
		h11.6v3.7c-0.3,1.6-0.9,3-1.9,4.2c-0.9,1.2-2.2,2.4-3.6,3.2c-1.6,0.8-3.3,1.2-5,1.1c-2,0-4-0.5-5.7-1.4c-1.7-0.9-3-2.4-4-4
		c-0.9-1.7-1.4-3.7-1.4-5.7c0-2,0.5-4,1.4-5.7c0.9-1.7,2.4-3,4-4c3.7-2,8.3-1.9,11.9,0.3c1.7,1.1,3.2,3,3.7,5H135.8z"/>
	<path d="M160.3,871h-12.6c0,1.1,0.5,2.2,1.2,2.8c0.8,0.7,1.7,1.1,2.8,1.1c1.4,0.1,2.8-0.8,3.4-2h4.8c-0.5,1.6-1.4,3.2-2.8,4.1
		c-1.6,1.1-3.3,1.6-5.2,1.6c-1.6,0-3.2-0.3-4.4-1.1c-1.4-0.8-2.4-1.7-3.2-3.2c-0.8-1.4-1.1-3.2-1.1-4.8c0-1.6,0.3-3.3,1.1-4.8
		c0.7-1.2,1.7-2.4,3-3.2c2.8-1.4,6.1-1.4,9,0c1.4,0.7,2.5,1.7,3.2,3.2c0.8,1.4,1.1,2.8,1.1,4.4C160.4,869.8,160.4,870.4,160.3,871z
		 M155.9,868c0-1.1-0.5-2-1.2-2.7c-0.8-0.7-1.9-1.1-2.8-0.9c-0.9,0-2,0.3-2.7,0.9c-0.8,0.8-1.2,1.7-1.2,2.7H155.9z"/>
	<path d="M168.6,864.7v8.3c0,0.5,0.1,0.9,0.5,1.2c0.5,0.3,0.9,0.5,1.4,0.5h2v3.6h-2.7c-3.6,0-5.4-1.7-5.4-5.3v-8.3h-2v-3.6h2v-4.2
		h4.4v4.2h3.7v3.6H168.6z"/>
	<path d="M211.9,856.7l-6,21.6h-5.2l-4.1-15.4l-4.2,15.4h-5l-5.8-21.7h4.8l3.7,16.9l4.4-16.8h4.9l4.1,16.7l3.7-16.7L211.9,856.7
		L211.9,856.7z"/>
	<path d="M230.4,871h-12.6c0,1.1,0.5,2.2,1.2,2.8c0.8,0.7,1.7,1.1,2.8,1.1c1.4,0.1,2.8-0.8,3.4-2h4.8c-0.5,1.6-1.4,3.2-2.8,4.1
		c-1.6,1.1-3.3,1.6-5.2,1.6c-1.6,0-3.2-0.3-4.4-1.1c-1.2-0.8-2.4-1.9-3.2-3.2c-0.8-1.4-1.1-3.2-1.1-4.8c0-1.6,0.3-3.3,1.1-4.8
		c0.7-1.2,1.7-2.4,3-3.2c2.8-1.4,6.1-1.4,9,0c1.2,0.7,2.4,1.7,3,3c0.8,1.4,1.1,2.8,1.1,4.4C230.5,869.7,230.5,870.4,230.4,871z
		 M226,868c0-1.1-0.5-2-1.2-2.7c-0.8-0.7-1.9-1.1-2.8-0.9c-0.9,0-2,0.3-2.7,0.9c-0.8,0.8-1.2,1.7-1.4,2.7H226z"/>
	<path d="M233.7,865.1c0.7-1.2,1.6-2.4,2.8-3.2c1.2-0.8,2.5-1.1,4-1.1c1.1,0,2.4,0.3,3.3,0.8s1.7,1.1,2.4,1.9V861h4.4v17.1h-4.4
		v-2.5c-0.7,0.8-1.4,1.6-2.4,2c-2.4,1.1-5.2,1.1-7.4-0.3c-1.2-0.8-2.2-1.9-2.8-3.2c-0.8-1.4-1.1-3.2-1.1-4.8
		C232.6,867.8,232.9,866.4,233.7,865.1z M245.5,867.1c-0.3-0.8-0.9-1.2-1.7-1.7c-0.7-0.3-1.4-0.7-2.2-0.7s-1.6,0.1-2.2,0.7
		c-0.7,0.5-1.2,0.9-1.7,1.7s-0.7,1.7-0.7,2.7c0,0.9,0.1,1.9,0.7,2.7c0.5,0.8,0.9,1.4,1.7,1.7c0.7,0.5,1.4,0.7,2.2,0.7
		s1.6-0.1,2.2-0.7c0.8-0.5,1.2-0.9,1.7-1.7s0.7-1.7,0.7-2.7C246.1,868.8,246,867.8,245.5,867.1L245.5,867.1z"/>
	<path d="M259.8,864.7v8.3c0,0.5,0.1,0.9,0.5,1.2c0.5,0.3,0.9,0.5,1.4,0.5h2v3.6h-2.8c-3.6,0-5.4-1.7-5.4-5.3v-8.3h-2v-3.6h2v-4.2
		h4.4v4.2h3.7v3.6H259.8z"/>
	<path d="M279.9,861.7c1.1,0.7,1.9,1.4,2.4,2.5c0.7,1.2,0.9,2.7,0.8,4v10.1h-4.4v-9.4c0.1-1.1-0.3-2.2-0.9-3.2
		c-0.8-0.8-1.7-1.1-2.8-1.1s-2,0.3-2.8,1.1c-0.8,0.9-1.1,2-1.1,3.2v9.4h-4.4v-22.8h4.4v7.8c0.7-0.8,1.4-1.4,2.2-1.7
		c0.9-0.5,2-0.7,3.2-0.7C277.7,860.7,278.8,861.1,279.9,861.7z"/>
	<path d="M302.9,871h-12.6c0,1.1,0.5,2.2,1.2,2.8c0.8,0.7,1.7,1.1,2.8,1.1c1.4,0,2.8-0.8,3.4-2h4.8c-0.5,1.6-1.4,3.2-2.8,4.1
		c-1.6,1.1-3.3,1.6-5.2,1.6c-1.6,0-3.2-0.3-4.4-1.1c-1.2-0.8-2.4-1.9-3.2-3.2c-1.4-3-1.4-6.5,0-9.4c0.7-1.2,1.7-2.4,3-3.2
		c2.8-1.4,6.1-1.4,8.7,0c1.2,0.7,2.4,1.7,3,3C302.9,866.5,303.3,868.8,302.9,871L302.9,871z M298.7,868c0-1.1-0.5-2-1.2-2.7
		c-0.8-0.7-1.9-1.1-2.8-0.9c-0.9,0-2,0.3-2.7,0.9c-0.8,0.8-1.2,1.7-1.4,2.7H298.7z"/>
	<path d="M312.9,861.5c0.9-0.5,2-0.8,3.2-0.8v4.5h-1.2c-2-0.3-3.7,0.9-4.1,3c0,0.5,0,0.9,0,1.2v8.5h-4.4v-17.1h4.4v2.7
		C311.1,862.8,311.9,862.2,312.9,861.5z"/>
	<path d="M124,914.8c-1.1-0.5-2.2-1.2-2.8-2.2c-0.8-0.9-1.1-2.2-1.1-3.4h4.8c0,0.8,0.3,1.6,0.9,2s1.4,0.8,2.4,0.8
		c0.8,0,1.7-0.1,2.4-0.8c0.7-0.5,0.9-1.1,0.9-1.9c0-0.7-0.1-1.1-0.7-1.6c-0.6-0.5-0.9-0.8-1.4-0.9c-0.8-0.3-1.6-0.7-2.4-0.8
		c-1.1-0.3-2.4-0.8-3.4-1.2c-0.9-0.5-1.7-1.1-2.2-1.9c-0.7-0.9-0.9-2-0.9-3.3c0-1.2,0.3-2.4,0.9-3.3c0.7-0.9,1.6-1.7,2.7-2.2
		c1.2-0.5,2.7-0.8,4-0.8c1.9-0.1,4,0.5,5.4,1.6c1.4,1.1,2.2,2.7,2.4,4.5H131c0-0.8-0.3-1.4-0.9-1.9c-0.7-0.5-1.6-0.8-2.4-0.8
		c-0.8,0-1.4,0.1-2,0.7c-0.5,0.5-0.8,1.1-0.8,1.9c0,0.5,0.1,1.1,0.7,1.4c0.5,0.5,0.9,0.8,1.4,0.9c0.7,0.3,1.4,0.5,2.4,0.8
		c1.1,0.3,2.4,0.8,3.4,1.2c0.9,0.5,1.7,1.1,2.4,1.9c0.7,0.9,1.1,2,0.9,3.3c0,1.1-0.3,2.2-0.9,3.3c-0.7,0.9-1.6,1.9-2.7,2.4
		c-1.2,0.7-2.7,0.9-4.1,0.9C126.8,915.5,125.4,915.4,124,914.8z"/>
	<path d="M155.4,908.2h-12.6c0,1.1,0.5,2.2,1.2,3c0.8,0.7,1.7,1.1,2.8,1.1c1.4,0.1,2.8-0.8,3.4-2h4.8c-0.5,1.6-1.4,3-2.8,4.1
		c-1.6,1.1-3.3,1.6-5.2,1.6c-1.6,0-3.2-0.3-4.4-1.1c-1.2-0.8-2.4-1.9-3.2-3.2c-0.8-1.4-1.1-3.2-1.1-4.8c0-1.6,0.3-3.3,1.1-4.8
		c0.7-1.2,1.7-2.4,3-3.2c1.4-0.8,3-1.1,4.5-1.1c1.6,0,3,0.3,4.4,1.1c1.2,0.7,2.4,1.7,3,3c0.8,1.4,1.1,2.8,1.1,4.4
		C155.4,906.9,155.4,907.6,155.4,908.2z M151,905.2c0-1.1-0.5-2-1.2-2.7s-1.9-1.1-2.8-0.9c-0.9,0-2,0.3-2.7,0.9
		c-0.8,0.8-1.2,1.7-1.4,2.7H151z"/>
	<path d="M158.5,902.2c1.2-2.7,4-4.2,6.8-4.2c1.1,0,2.4,0.1,3.3,0.8c0.9,0.5,1.7,1.1,2.4,1.9v-2.5h4.4v17.1h-4.2v-2.5
		c-0.7,0.8-1.4,1.6-2.4,2c-1.1,0.5-2.2,0.8-3.4,0.8c-1.4,0-2.8-0.3-4-1.1c-1.2-0.8-2.2-1.9-2.8-3.2c-0.8-1.4-1.1-3.2-1.1-4.8
		C157.5,905.2,157.9,903.6,158.5,902.2z M170.5,904.1c-0.8-1.4-2.4-2.4-4-2.4s-3.2,0.9-4,2.4c-0.5,0.8-0.7,1.7-0.7,2.7
		c0,1,0.1,1.9,0.7,2.7c0.5,0.8,1.1,1.4,1.7,1.7c0.7,0.5,1.4,0.7,2.2,0.7c0.8,0,1.6-0.1,2.2-0.7c0.7-0.5,1.2-0.9,1.7-1.7
		C171.2,907.8,171.2,905.8,170.5,904.1L170.5,904.1z"/>
	<path d="M186.2,898.8c0.9-0.5,2-0.8,3.2-0.8v4.5h-1.1c-2-0.3-3.7,1.1-4.1,3c0,0.5,0,0.9,0,1.2v8.5h-4.2v-17.1h4.4v2.7
		C184.6,900,185.3,899.2,186.2,898.8z"/>
	<path d="M192.1,902.2c0.7-1.2,1.7-2.4,3-3.2c1.4-0.8,2.8-1.1,4.4-1.1c1.9-0.1,3.7,0.5,5.3,1.6c1.4,1.1,2.4,2.7,2.8,4.4h-4.8
		c-0.1-0.7-0.7-1.2-1.2-1.7c-0.6-0.5-1.4-0.7-2.2-0.7c-1.1,0-2.2,0.5-3,1.4c-1.4,2.4-1.4,5.3,0,7.5c0.8,0.9,1.7,1.4,3,1.4
		c1.6,0.1,3-0.8,3.4-2.4h4.8c-0.5,1.7-1.4,3.3-2.8,4.4c-1.6,1.1-3.4,1.7-5.2,1.6c-1.6,0-3-0.3-4.4-1.1c-1.2-0.8-2.4-1.9-3-3.2
		C190.7,908.3,190.7,905,192.1,902.2L192.1,902.2z"/>
	<path d="M223.8,898.8c1.1,0.7,1.9,1.4,2.4,2.5c0.7,1.2,0.9,2.7,0.8,4v10.1h-4.4v-9.4c0.1-1.1-0.3-2.2-1.1-3.2
		c-0.8-0.8-1.7-1.1-2.8-1.1s-2,0.3-2.8,1.1c-0.8,0.9-1.1,2-1.1,3.2v9.4h-4.4v-22.9h4.4v7.8c0.7-0.8,1.4-1.4,2.4-1.7
		c0.9-0.5,2-0.7,3.2-0.7C221.8,898,222.9,898.3,223.8,898.8z"/>
	<path d="M239.1,898.8c0.9-1.7,2.4-3,4-4c1.7-0.9,3.6-1.4,5.7-1.4c2.2,0,4.4,0.7,6.2,1.9c1.9,1.2,3.2,3,3.7,5.2h-5
		c-0.5-0.9-1.1-1.7-2-2.4c-0.9-0.5-2-0.8-3.2-0.8c-1.2,0-2.4,0.3-3.3,0.9c-0.9,0.7-1.7,1.4-2.4,2.5c-1.1,2.4-1.1,5.2,0,7.5
		c0.5,1.1,1.2,1.9,2.4,2.5c0.9,0.7,2.2,0.9,3.3,0.9s2.2-0.3,3.2-0.8c0.9-0.7,1.6-1.4,2-2.4h5c-0.7,2-2,4-3.7,5.2
		c-3.6,2.4-8.2,2.5-11.9,0.5c-1.6-0.9-3-2.4-4-4C237,906.6,237,902.4,239.1,898.8L239.1,898.8z"/>
	<path d="M268.9,898.8c0.9-0.5,2-0.8,3.2-0.8v4.5h-1.2c-2-0.3-3.7,1.1-4.1,3c0,0.5,0,0.9,0,1.2v8.5h-4.4v-17.1h4.4v2.7
		C267.2,900,268,899.2,268.9,898.8z"/>
	<path d="M290.7,908.2h-12.6c0,1.1,0.5,2.2,1.2,3c0.8,0.7,1.7,1.1,2.8,1.1c1.4,0,2.8-0.8,3.4-2h4.8c-0.5,1.6-1.6,3-2.8,4.1
		c-1.6,1.1-3.3,1.6-5.2,1.6c-1.6,0-3.2-0.3-4.4-1.1c-1.2-0.8-2.4-1.9-3.2-3.2c-0.8-1.4-1.1-3.2-1.1-4.8c0-1.6,0.3-3.3,1.1-4.8
		c0.7-1.2,1.7-2.4,3-3.2c1.4-0.8,3-1.1,4.5-1.1c1.6,0,3,0.3,4.4,1.1c1.2,0.7,2.4,1.7,3,3c0.8,1.4,1.1,2.8,1.1,4.4
		C290.9,906.9,290.7,907.6,290.7,908.2z M286.4,905.2c0-1.1-0.5-2-1.2-2.7c-0.8-0.7-1.9-1.1-2.8-0.9c-0.9,0-2,0.3-2.7,0.9
		c-0.8,0.8-1.2,1.7-1.4,2.7H286.4z"/>
	<path d="M293.9,902.2c1.2-2.5,4-4.2,6.8-4.2c2.2,0,4.4,0.9,5.7,2.7v-2.5h4.4v17.1h-4.4v-2.5c-0.7,0.8-1.4,1.6-2.4,2
		c-1.1,0.5-2.2,0.8-3.4,0.8c-1.4,0-2.8-0.3-4-1.1c-1.2-0.8-2.2-1.9-2.8-3.2c-0.8-1.4-1.1-3.2-1.1-4.8
		C292.9,905.2,293.3,903.6,293.9,902.2z M305.8,904.1c-0.3-0.8-0.9-1.2-1.7-1.7c-2-1.2-4.8-0.7-6,1.6l0,0l-0.1,0.1
		c-0.5,0.8-0.7,1.7-0.7,2.7c0,1,0.1,1.9,0.7,2.7c0.5,0.8,0.9,1.4,1.7,1.7c0.7,0.5,1.4,0.7,2.2,0.7c1.6,0,3.2-0.9,4-2.4
		C306.6,907.8,306.6,905.8,305.8,904.1L305.8,904.1z"/>
	<path d="M320.1,901.7v8.3c0,0.5,0.1,0.9,0.5,1.2c0.5,0.3,0.9,0.5,1.4,0.5h2v3.6h-2.7c-3.6,0-5.4-1.7-5.4-5.3v-8.3h-2v-3.6h2v-4.2
		h4.4v4.2h3.7v3.6H320.1z"/>
	<path d="M327.3,895.5c-0.9-0.9-0.9-2.7,0-3.6l0,0l0,0c1.1-0.9,2.7-0.9,3.7,0c0.9,0.9,0.9,2.7,0,3.6l0,0
		C329.9,896.4,328.5,896.4,327.3,895.5z M331.4,898.2v17.1H327v-17.1H331.4z"/>
	<path d="M342.6,911.3l4.4-13.2h4.5l-6.2,17.1h-5.2l-6.2-17.1h4.8L342.6,911.3z"/>
	<path d="M370,908.2h-12.6c0,1.1,0.5,2.2,1.2,3c0.8,0.7,1.7,1.1,2.8,1.1c1.4,0.1,2.8-0.8,3.4-2h4.8c-0.5,1.6-1.6,3-2.8,4.1
		c-1.6,1.1-3.3,1.6-5.2,1.6c-1.6,0-3.2-0.3-4.4-1.1c-1.2-0.8-2.4-1.9-3-3.2c-0.8-1.4-1.1-3.2-1.1-4.8c0-1.6,0.3-3.3,1.1-4.8
		c0.7-1.2,1.7-2.4,3-3.2c1.4-0.8,3-1.1,4.5-1.1c1.6,0,3,0.3,4.4,1.1c1.2,0.7,2.4,1.7,3,3c0.8,1.4,1.1,2.8,1.1,4.4
		C370.2,906.9,370.2,907.6,370,908.2z M365.7,905.2c0-1.1-0.5-2-1.2-2.7s-1.9-1.1-2.8-0.9c-0.9,0-1.9,0.3-2.7,0.9
		c-0.8,0.8-1.2,1.7-1.4,2.7H365.7z"/>
	<path d="M409.6,893.8l-6.1,21.7h-5.2l-4.1-15.4l-4.2,15.4h-5l-5.8-21.7h4.8l3.7,16.8l4.4-16.8h4.9l4.1,16.8l3.7-16.7L409.6,893.8z"
		/>
	<path d="M415.6,914.6c-1.2-0.8-2.4-1.9-3.2-3.2c-1.6-3-1.6-6.5,0-9.4c0.8-1.2,1.9-2.4,3.2-3.2c2.8-1.4,6.1-1.4,9,0
		c1.2,0.8,2.4,1.9,3.2,3.2c1.6,3,1.6,6.5,0,9.4c-0.8,1.2-1.9,2.4-3.3,3.2s-3,1.1-4.5,1.1C418.3,915.7,417,915.2,415.6,914.6z
		 M422.3,911.3c0.8-0.5,1.2-0.9,1.7-1.7c0.5-0.8,0.7-1.9,0.7-2.8c0.1-1.4-0.3-2.7-1.2-3.7c-0.8-0.9-1.9-1.4-3.2-1.2
		c-1.2,0-2.4,0.5-3.2,1.2c-1.7,2.2-1.7,5.3,0,7.5c0.8,0.9,1.9,1.4,3.2,1.2C420.7,911.8,421.5,911.7,422.3,911.3L422.3,911.3z"/>
	<path d="M438.6,898.8c0.9-0.5,2-0.8,3.2-0.8v4.5h-1.1c-2-0.3-3.7,1.1-4.1,3c0,0.5,0,0.9,0,1.2v8.5h-4.4v-17.1h4.4v2.7
		C437,900,437.7,899.2,438.6,898.8z"/>
	<path d="M454.7,915.4l-5.8-7.4v7.4h-4.4v-22.9h4.4v13l5.8-7.3h5.7l-7.5,8.6l7.7,8.5L454.7,915.4z"/>
</g>
<g id="Layer_3">
	<g>
		<path class="st2" d="M1194.6,441.3c0.1-1.5-0.5-2.9-1.6-3.9c-1-1-2.4-1.6-3.8-1.7H927.8l7.8-7.7c0.2-0.2,0.4-0.5,0.6-0.7
			c1.6-2.2,1.4-5.2-0.6-7.1c-1-1-2.4-1.6-3.8-1.7c-1.5,0-2.8,0.6-3.9,1.6L910.6,437c-0.2,0.2-0.4,0.5-0.6,0.7
			c-0.7,0.9-1.1,2.1-1,3.2c0,1.4,0.6,2.8,1.6,3.9l16.9,17.2c1,1,2.4,1.6,3.8,1.7c1.5,0,2.8-0.6,3.9-1.6c0.2-0.2,0.4-0.5,0.6-0.7
			c0.7-0.9,1.1-2.1,1-3.2c0-1.4-0.6-2.8-1.6-3.9l-7.7-7.8l261.4,0.1c1.4,0,2.8-0.6,3.9-1.6C1194,444.2,1194.6,442.7,1194.6,441.3z
			 M1191.5,443.7c-0.7,0.6-1.5,1-2.4,1l-263.9-0.1c-0.2,0-0.5,0.1-0.7,0.2l-0.2,0.3c-0.1,0.3-0.1,0.8,0.2,1.1l9.3,9.6
			c0.6,0.7,1,1.5,1,2.4s-0.4,1.8-1,2.5c-0.7,0.6-1.5,1-2.4,1s-1.8-0.4-2.5-1L912,443.4c-0.6-0.7-1-1.5-1-2.4s0.4-1.8,1-2.5
			l17.2-16.9c0.7-0.6,1.5-1,2.4-1s1.8,0.4,2.5,1c1.3,1.4,1.3,3.5,0,4.9l-9.6,9.3c-0.3,0.3-0.5,0.8-0.2,1.2c0.2,0.4,0.5,0.6,1,0.6
			l263.9,0.1c0.9,0,1.8,0.4,2.5,1s1,1.5,1,2.4C1192.6,442.2,1192.2,443,1191.5,443.7L1191.5,443.7z"/>
		<path class="st2" d="M1191.5,443.7c-0.7,0.6-1.5,1-2.4,1l-263.9-0.1c-0.2,0-0.5,0.1-0.7,0.2l-0.2,0.3c-0.1,0.3-0.1,0.8,0.2,1.1
			l9.3,9.6c0.6,0.7,1,1.5,1,2.4s-0.4,1.8-1,2.5c-0.7,0.6-1.5,1-2.4,1s-1.8-0.4-2.5-1L912,443.4c-0.6-0.7-1-1.5-1-2.4s0.4-1.8,1-2.5
			l17.2-16.9c0.7-0.6,1.5-1,2.4-1s1.8,0.4,2.5,1c1.3,1.4,1.3,3.5,0,4.9l-9.6,9.3c-0.3,0.3-0.5,0.8-0.2,1.2c0.2,0.4,0.5,0.6,1,0.6
			l263.9,0.1c0.9,0,1.8,0.4,2.5,1s1,1.5,1,2.4C1192.6,442.2,1192.2,443,1191.5,443.7z"/>
		<path class="st2" d="M697.8,587.6c-3,0-5.5,2.4-5.5,5.4l0,0v90.7l-7.8-7.7c-0.2-0.3-0.4-0.4-0.7-0.6c-2.5-1.7-6-1.1-7.7,1.5
			c-1.4,2.1-1.2,5.1,0.6,7l17.1,17c0.2,0.3,0.4,0.4,0.7,0.6c1,0.6,2.1,1,3.2,1c1.5,0,2.9-0.5,3.9-1.6l17.1-17.1
			c2.1-2.1,2.1-5.7,0-7.9c-0.2-0.2-0.4-0.4-0.7-0.6c-1-0.7-2.1-1.1-3.2-1.1c-1.5,0-2.9,0.5-3.9,1.6l-7.7,7.7V593
			c0-1.5-0.5-2.9-1.6-3.9C700.6,588.2,699.2,587.6,697.8,587.6z M700.2,590.6c0.6,0.6,1,1.5,1,2.4v93c0,0.3,0.1,0.5,0.4,0.7
			c0.1,0.1,0.2,0.2,0.4,0.2c0.4,0.2,0.8,0.1,1.1-0.2l9.5-9.5c1.3-1.2,3.6-1.2,4.8,0.2c1.2,1.3,1.2,3.4,0,4.6l-17,17.1
			c-1.3,1.3-3.5,1.3-4.8,0L678.5,682c-1.3-1.3-1.3-3.5,0-4.8s3.6-1.3,4.9,0l9.5,9.5c0.3,0.3,0.7,0.4,1.1,0.2s0.6-0.5,0.6-0.9v-93
			c0-1.9,1.4-3.4,3.3-3.4l0,0h0.1C698.6,589.6,699.6,589.8,700.2,590.6L700.2,590.6z"/>
		<path class="st2" d="M700.2,590.6c0.6,0.6,1,1.5,1,2.4v93c0,0.3,0.1,0.5,0.4,0.7c0.1,0.1,0.2,0.2,0.4,0.2c0.4,0.2,0.8,0.1,1.1-0.2
			l9.5-9.5c1.3-1.2,3.6-1.2,4.8,0.2c1.2,1.3,1.2,3.4,0,4.6l-17,17.1c-1.3,1.3-3.5,1.3-4.8,0L678.5,682c-1.3-1.3-1.3-3.5,0-4.8
			s3.6-1.3,4.9,0l9.5,9.5c0.3,0.3,0.7,0.4,1.1,0.2s0.6-0.5,0.6-0.9v-93c0-1.9,1.4-3.4,3.3-3.4l0,0h0.1
			C698.6,589.6,699.6,589.8,700.2,590.6z"/>
		<path class="st2" d="M373.2,813.1c0,3,2.5,5.4,5.5,5.4l0,0l90.7-0.9l-7.7,7.9c-0.2,0.2-0.4,0.4-0.6,0.7c-1.5,2.2-1.2,5.2,0.6,7
			c1,1.1,2.5,1.6,3.9,1.5c1.4,0,2.9-0.5,3.8-1.6l16.9-17.3c0.3-0.2,0.4-0.4,0.6-0.7c0.6-1,1-2.1,1-3.2c0-1.4-0.5-2.9-1.6-3.8
			L469,791.2c-1-1.1-2.5-1.6-3.9-1.5c-1.4,0-2.9,0.5-3.8,1.6c-0.2,0.2-0.4,0.4-0.5,0.7c-0.6,1-1,2.1-1,3.2c0,1.4,0.6,2.9,1.6,3.8
			l7.9,7.7l-90.7,0.8c-1.4,0-2.9,0.5-3.8,1.6C373.8,810.3,373.2,811.7,373.2,813.1z M376.3,810.7c0.6-0.6,1.5-1.1,2.4-1.1l93.1-0.9
			c0.3,0,0.5-0.1,0.7-0.4c0.1-0.1,0.2-0.2,0.2-0.4c0.2-0.4,0.1-0.8-0.2-1.1l-9.5-9.4c-0.6-0.6-1.1-1.5-1.1-2.4s0.4-1.8,1-2.4
			s1.5-1.1,2.4-1.1s1.8,0.4,2.4,1l17.3,16.9c0.6,0.6,1.1,1.5,1.1,2.4s-0.4,1.8-1,2.4l-17,17.4c-0.6,0.6-1.5,1.1-2.4,1.1
			s-1.8-0.4-2.4-1c-1.3-1.3-1.3-3.5-0.1-4.9l9.4-9.5c0.3-0.3,0.4-0.7,0.2-1.1c-0.2-0.4-0.5-0.6-0.9-0.6l-93.1,0.9
			c-0.9,0-1.8-0.4-2.4-1s-1.1-1.5-1.1-2.4C375.2,812.2,375.6,811.3,376.3,810.7L376.3,810.7z"/>
		<path class="st2" d="M376.3,810.7c0.6-0.6,1.5-1.1,2.4-1.1l93.1-0.9c0.3,0,0.5-0.1,0.7-0.4c0.1-0.1,0.2-0.2,0.2-0.4
			c0.2-0.4,0.1-0.8-0.2-1.1l-9.5-9.4c-0.6-0.6-1.1-1.5-1.1-2.4s0.4-1.8,1-2.4s1.5-1.1,2.4-1.1s1.8,0.4,2.4,1l17.3,16.9
			c0.6,0.6,1.1,1.5,1.1,2.4s-0.4,1.8-1,2.4l-17,17.4c-0.6,0.6-1.5,1.1-2.4,1.1s-1.8-0.4-2.4-1c-1.3-1.3-1.3-3.5-0.1-4.9l9.4-9.5
			c0.3-0.3,0.4-0.7,0.2-1.1c-0.2-0.4-0.5-0.6-0.9-0.6l-93.1,0.9c-0.9,0-1.8-0.4-2.4-1s-1.1-1.5-1.1-2.4
			C375.2,812.2,375.6,811.3,376.3,810.7z"/>
		<path class="st2" d="M1380.2,587.4c-3,0-5.5,2.4-5.5,5.4l0,0v90.7l-7.8-7.7c-0.2-0.3-0.4-0.4-0.7-0.6c-2.5-1.7-6-1.1-7.7,1.5
			c-1.4,2.1-1.2,5.1,0.6,7l17.1,17c0.2,0.3,0.4,0.4,0.7,0.6c1,0.6,2.1,1,3.2,1c1.5,0,2.9-0.5,3.9-1.6l17.1-17.1
			c2.1-2.1,2.1-5.7,0-7.9c-0.2-0.2-0.4-0.4-0.7-0.6c-1-0.7-2.1-1.1-3.2-1.1c-1.5,0-2.9,0.5-3.9,1.6l-7.7,7.7v-90.7
			c0-1.5-0.5-2.9-1.6-3.9C1383.1,588,1381.7,587.4,1380.2,587.4z M1382.6,590.4c0.6,0.6,1,1.5,1,2.4v93.1c0,0.3,0.1,0.5,0.4,0.7
			c0.1,0.1,0.2,0.2,0.4,0.2c0.4,0.2,0.8,0.1,1.1-0.2l9.5-9.5c1.3-1.2,3.6-1.2,4.8,0.2c1.2,1.3,1.2,3.4,0,4.6l-17,17.1
			c-1.3,1.3-3.5,1.3-4.8,0l-17.1-17.1c-1.3-1.3-1.3-3.5,0-4.8s3.6-1.3,4.9,0l9.5,9.5c0.3,0.3,0.7,0.4,1.1,0.2s0.6-0.5,0.6-0.9v-93
			c0-1.9,1.4-3.4,3.3-3.4l0,0h0.1C1381,589.4,1382,589.7,1382.6,590.4L1382.6,590.4z"/>
		<path class="st2" d="M1382.6,590.4c0.6,0.6,1,1.5,1,2.4v93.1c0,0.3,0.1,0.5,0.4,0.7c0.1,0.1,0.2,0.2,0.4,0.2
			c0.4,0.2,0.8,0.1,1.1-0.2l9.5-9.5c1.3-1.2,3.6-1.2,4.8,0.2c1.2,1.3,1.2,3.4,0,4.6l-17,17.1c-1.3,1.3-3.5,1.3-4.8,0l-17.1-17.1
			c-1.3-1.3-1.3-3.5,0-4.8s3.6-1.3,4.9,0l9.5,9.5c0.3,0.3,0.7,0.4,1.1,0.2s0.6-0.5,0.6-0.9v-93c0-1.9,1.4-3.4,3.3-3.4l0,0h0.1
			C1381,589.4,1382,589.7,1382.6,590.4z"/>
	</g>
</g>
</svg>
