<?xml version="1.0" encoding="utf-8"?>
<!-- Generator: Adobe Illustrator 24.2.3, SVG Export Plug-In . SVG Version: 6.00 Build 0)  -->
<svg version="1.1" id="Layer_1" xmlns="http://www.w3.org/2000/svg" xmlns:xlink="http://www.w3.org/1999/xlink" x="0px" y="0px"
	 viewBox="0 0 1800 1200" style="enable-background:new 0 0 1800 1200;" xml:space="preserve">
<style type="text/css">
	.st0{fill:#AAE8FF;}
	.st1{fill:#FFC77F;}
	.st2{fill:#FF7D54;}
	.st3{opacity:0.9;fill:#F7BE00;enable-background:new    ;}
	.st4{opacity:0.9;fill:#00ABB8;enable-background:new    ;}
</style>
<g id="Layer_2_1_">
	<path class="st0" d="M853.2,545.3h-310c-10.2,0-18.5-8.3-18.5-18.5l0,0l0,0V370c0-10.2,8.3-18.5,18.5-18.5H853
		c10.2,0,18.5,8.3,18.5,18.5l0,0l0,0v156.8c0.1,10.1-8,18.4-18.1,18.5l0,0H853.2z"/>
	<path d="M653.7,429.6v3h-7.9v5h6.1v3h-6.1v8h-3.9v-19.1h11.8V429.6z"/>
	<path d="M656.6,431.1c-0.4-0.4-0.7-1-0.7-1.7c0-0.6,0.3-1.2,0.7-1.7s1.1-0.7,1.7-0.7c0.7,0,1.2,0.3,1.7,0.7s0.7,1,0.7,1.7
		c0,0.6-0.3,1.2-0.7,1.7s-1.1,0.7-1.7,0.7C657.7,431.7,657,431.6,656.6,431.1z M660.2,433.5v15.2h-3.9v-15.2H660.2z"/>
	<path d="M676.6,435c1.2,1.2,1.8,3,1.7,4.8v8.9h-3.7v-8.3c0.1-1-0.3-1.9-1-2.8c-1.4-1.2-3.6-1.2-5,0c-0.7,0.8-1,1.8-1,2.8v8.3h-3.9
		v-15.2h3.9v1.9c0.6-0.7,1.2-1.2,1.9-1.5C672.1,432.8,674.8,433.2,676.6,435L676.6,435z"/>
	<path d="M696,442.2h-11.1c0,1,0.4,1.9,1.1,2.5c0.7,0.6,1.5,1,2.5,1c1.2,0.1,2.5-0.7,3-1.8h4.2c-0.4,1.4-1.2,2.8-2.5,3.6
		c-1.4,1-2.9,1.4-4.6,1.4c-1.4,0-2.8-0.3-3.9-1c-1.1-0.7-2.1-1.7-2.8-2.8c-0.7-1.2-1-2.8-1-4.2c0-1.4,0.3-2.9,1-4.2
		c0.6-1.1,1.5-2.1,2.6-2.8c2.5-1.2,5.4-1.2,7.9,0c1.1,0.6,2.1,1.5,2.6,2.6c0.7,1.2,1,2.5,1,3.9C696,441.1,696,441.7,696,442.2z
		 M692.1,439.7c0-1-0.4-1.8-1.1-2.4c-0.7-0.6-1.7-1-2.5-0.8c-0.8,0-1.7,0.3-2.4,0.8c-0.7,0.7-1.1,1.5-1.2,2.4H692.1z"/>
	<path d="M703.3,436.7v7.3c0,0.4,0.1,0.8,0.4,1.1c0.4,0.3,0.8,0.4,1.2,0.4h1.8v3.3h-2.4c-3.2,0-4.8-1.5-4.8-4.7v-7.3h-1.8v-3.2h1.8
		v-3.7h3.9v3.7h3.5v3.2L703.3,436.7z"/>
	<path d="M723.7,433.5v15.2h-3.9v-1.9c-0.6,0.7-1.1,1.2-1.9,1.5c-0.8,0.4-1.7,0.6-2.6,0.6c-1.1,0-2.2-0.3-3.2-0.7
		c-1-0.6-1.7-1.2-2.1-2.2c-0.6-1.1-0.8-2.2-0.8-3.5v-9h3.9v8.3c0,1,0.3,1.9,1,2.8c1.4,1.2,3.6,1.2,5,0c0.7-0.8,1-1.8,1-2.8v-8.3
		H723.7z"/>
	<path d="M740.1,435c1.1,1.2,1.8,3,1.7,4.8v8.9h-3.9v-8.3c0.1-1-0.3-1.9-1-2.8c-0.7-0.7-1.5-1-2.5-1s-1.8,0.3-2.5,1
		c-0.7,0.8-1,1.8-1,2.8v8.3H727v-15.2h3.9v1.9c0.6-0.7,1.2-1.2,1.9-1.5c0.8-0.4,1.7-0.6,2.6-0.6C737.5,433.2,739,433.8,740.1,435z"
		/>
	<path d="M759.4,442.2h-11.1c0,1,0.4,1.9,1.1,2.5c0.7,0.6,1.5,1,2.5,1c1.2,0.1,2.5-0.7,3-1.8h4.2c-0.4,1.4-1.2,2.8-2.5,3.6
		c-1.4,1-2.9,1.4-4.6,1.4c-1.4,0-2.8-0.3-3.9-1c-1.1-0.7-2.1-1.7-2.8-2.8c-0.7-1.2-1-2.8-1-4.2c0-1.4,0.3-2.9,1-4.2
		c0.6-1.1,1.5-2.1,2.6-2.8c2.5-1.2,5.4-1.2,7.9,0c1.1,0.6,2.1,1.5,2.6,2.6c0.7,1.2,1,2.5,1,3.9C759.5,441.1,759.5,441.7,759.4,442.2
		z M755.5,439.7c0-1-0.4-1.8-1.1-2.4s-1.7-1-2.5-0.8c-0.8,0-1.7,0.3-2.4,0.8c-0.7,0.7-1.1,1.5-1.2,2.4H755.5z"/>
	<path d="M647.2,465.5v4.8h6.5v3h-6.4v5.1h7.2v3h-11.1v-19.1h11.1v3.2H647.2L647.2,465.5z"/>
	<path d="M670.5,467.8c1.1,1.2,1.8,3,1.7,4.7v8.9h-3.9v-8.3c0.1-1-0.3-1.9-1-2.8c-0.7-0.7-1.5-1-2.5-1s-1.8,0.3-2.5,1
		c-0.7,0.8-1,1.8-1,2.8v8.3h-3.9v-15.1h3.9v1.9c0.6-0.7,1.2-1.2,1.9-1.5c0.8-0.4,1.7-0.6,2.6-0.6C667.8,466,669.4,466.6,670.5,467.8
		z"/>
	<path d="M675.8,469.8c0.6-1.1,1.5-2.1,2.6-2.8c1.2-0.7,2.5-1,3.9-1c1.7-0.1,3.3,0.4,4.7,1.4c1.2,1,2.1,2.4,2.5,3.9h-4.2
		c-0.1-0.6-0.6-1.1-1.1-1.5c-1.4-1-3.3-0.7-4.6,0.7c-0.7,1-1,2.2-1,3.3c-0.1,1.2,0.3,2.4,1,3.3c0.7,0.8,1.7,1.2,2.6,1.2
		c1.4,0.1,2.6-0.7,3-2.1h4.2c-0.4,1.5-1.2,2.9-2.5,3.9c-1.4,1-3,1.5-4.6,1.4c-1.4,0-2.6-0.3-3.9-1c-1.1-0.7-2.1-1.7-2.6-2.8
		C674.6,475.3,674.6,472.2,675.8,469.8L675.8,469.8z"/>
	<path d="M703.9,470v3.2h-11.6V470H703.9z"/>
	<path d="M720.1,463.5c1.5,0.7,2.8,1.9,3.5,3.3c0.8,1.5,1.2,3.3,1.2,5c0,1.8-0.4,3.5-1.2,5c-0.8,1.4-2.1,2.6-3.5,3.3
		c-1.7,0.8-3.5,1.2-5.3,1.1h-6.6v-19.1h6.6C716.6,462.3,718.4,462.7,720.1,463.5z M719.3,476.5c1.1-1.2,1.8-2.9,1.7-4.6
		c0.1-1.7-0.4-3.5-1.7-4.7c-1.2-1.2-2.9-1.8-4.7-1.7h-2.8v12.6h2.8C716.3,478.2,718,477.6,719.3,476.5z"/>
	<path d="M741.7,475h-11.1c0,1,0.4,1.9,1.1,2.5c0.7,0.6,1.5,1,2.5,1c1.2,0.1,2.5-0.7,3-1.8h4.2c-0.4,1.4-1.2,2.6-2.5,3.6
		c-1.4,1-2.9,1.4-4.6,1.4c-1.4,0-2.8-0.3-3.9-1c-1.1-0.7-2.1-1.7-2.8-2.8c-0.7-1.2-1-2.8-1-4.2c0-1.4,0.3-2.9,1-4.2
		c0.6-1.1,1.5-2.1,2.6-2.8c1.2-0.7,2.6-1,4-1s2.6,0.3,3.9,1c1.1,0.6,2.1,1.5,2.6,2.6c0.7,1.2,1,2.5,1,3.9
		C741.8,473.9,741.8,474.5,741.7,475z M737.8,472.4c0-1-0.4-1.8-1.1-2.4c-0.7-0.6-1.7-1-2.5-1s-1.8,0.3-2.4,0.8
		c-0.7,0.7-1.1,1.5-1.2,2.4L737.8,472.4z"/>
	<path d="M744.6,469.8c0.6-1.1,1.5-2.1,2.6-2.8c1.2-0.7,2.5-1,3.9-1c1.7-0.1,3.3,0.4,4.7,1.4c1.2,1,2.1,2.4,2.5,3.9h-4.2
		c-0.1-0.6-0.6-1.1-1.1-1.5c-0.6-0.4-1.2-0.6-1.9-0.6c-1,0-1.9,0.4-2.6,1.2c-0.7,1-1,2.2-1,3.3c-0.1,1.2,0.3,2.4,1,3.3
		c0.7,0.8,1.5,1.2,2.6,1.2c1.4,0.1,2.6-0.7,3-2.1h4.2c-0.4,1.5-1.2,2.9-2.5,3.9c-1.4,1-3,1.5-4.6,1.4c-1.4,0-2.6-0.3-3.9-1
		c-1.1-0.7-2.1-1.7-2.6-2.8C743.2,475.3,743.2,472.2,744.6,469.8L744.6,469.8z"/>
	<path class="st0" d="M851.5,936.3h-310c-10.2,0-18.5-8.3-18.5-18.5l0,0l0,0V761c0-10.2,8.3-18.5,18.5-18.5l0,0h309.8
		c10.2,0,18.5,8.3,18.5,18.5l0,0l0,0v156.8C870,927.9,861.7,936.2,851.5,936.3C851.6,936.3,851.6,936.3,851.5,936.3L851.5,936.3z"/>
	<path d="M647.9,821.5v3H640v4.8h6.1v3H640v8h-3.9v-19h11.8V821.5z"/>
	<path d="M650.8,822.9c-0.8-0.8-0.8-2.4,0-3.2l0,0c1-0.8,2.4-0.8,3.3,0c0.8,0.8,0.8,2.4,0,3.2l0,0
		C653.2,823.7,651.8,823.7,650.8,822.9z M654.4,825.4v15.1h-3.9v-15.1H654.4z"/>
	<path d="M670.9,826.9c1.1,1.2,1.8,3,1.7,4.7v8.9h-3.9v-8.3c0.1-1-0.3-1.9-1-2.8c-1.4-1.2-3.6-1.2-5,0c-0.7,0.8-1,1.8-1,2.8v8.3
		h-3.9v-15.1h3.9v1.9c0.6-0.7,1.2-1.2,1.9-1.5C666.3,824.7,669,825.1,670.9,826.9L670.9,826.9z"/>
	<path d="M690.1,834.1H679c0,1,0.4,1.9,1.1,2.5c0.7,0.6,1.5,1,2.5,1c1.2,0.1,2.5-0.7,3-1.8h4.2c-0.4,1.4-1.2,2.6-2.5,3.6
		c-1.4,1-2.9,1.4-4.6,1.4c-1.4,0-2.8-0.3-3.9-1c-1.1-0.7-2.1-1.7-2.8-2.8c-1.2-2.6-1.2-5.7,0-8.2c0.6-1.1,1.5-2.1,2.6-2.8
		c2.5-1.2,5.4-1.2,7.9,0c1.1,0.6,2.1,1.5,2.6,2.6c0.7,1.2,1,2.5,1,3.9C690.3,833,690.3,833.5,690.1,834.1z M686.3,831.5
		c0-1-0.4-1.8-1.1-2.4s-1.7-1-2.5-0.8c-0.8,0-1.8,0.3-2.4,0.8c-0.7,0.7-1.1,1.5-1.2,2.4H686.3z"/>
	<path d="M697.5,828.6v7.3c0,0.4,0.1,0.8,0.4,1.1c0.4,0.3,0.8,0.4,1.2,0.3h1.8v3.2h-2.4c-3.2,0-4.8-1.5-4.8-4.7v-7.3h-1.8v-3.2h1.8
		v-3.7h3.9v3.7h3.5v3.2L697.5,828.6z"/>
	<path d="M717.9,825.4v15.1H714v-1.8c-0.6,0.7-1.1,1.2-1.9,1.5c-0.8,0.4-1.7,0.6-2.6,0.6c-1.1,0-2.2-0.3-3.2-0.7
		c-1-0.6-1.7-1.2-2.1-2.2c-0.6-1.1-0.8-2.2-0.8-3.5v-8.9h3.9v8.3c0,1,0.3,1.9,1,2.8c1.4,1.2,3.6,1.2,5,0c0.7-0.8,1-1.8,1-2.8v-8.3
		L717.9,825.4z"/>
	<path d="M734.4,826.9c1.2,1.2,1.8,3,1.7,4.7v8.9h-3.7v-8.3c0.1-1-0.3-1.9-1-2.8c-1.4-1.2-3.6-1.2-5,0c-0.7,0.8-1,1.8-1,2.8v8.3
		h-3.9v-15.1h3.9v1.9c0.6-0.7,1.2-1.2,1.9-1.5c0.8-0.4,1.7-0.6,2.6-0.6C731.6,825.1,733.3,825.7,734.4,826.9z"/>
	<path d="M753.6,834.1h-11.1c0,1,0.4,1.9,1.1,2.5c0.7,0.6,1.5,1,2.5,1c1.2,0.1,2.5-0.7,3-1.8h4.2c-0.4,1.4-1.2,2.6-2.5,3.6
		c-1.4,1-2.9,1.4-4.6,1.4c-1.4,0-2.8-0.3-3.9-1c-1.1-0.7-2.1-1.7-2.8-2.8c-0.7-1.2-1-2.8-1-4.2s0.3-2.9,1-4.2
		c0.6-1.1,1.5-2.1,2.6-2.8c1.2-0.7,2.6-1,4-1s2.6,0.3,3.9,1c1.1,0.6,2.1,1.5,2.6,2.6c0.7,1.2,1,2.5,1,3.9
		C753.8,833,753.8,833.5,753.6,834.1z M749.8,831.5c0-1-0.4-1.8-1.1-2.4c-0.7-0.6-1.7-1-2.5-0.8c-0.8,0-1.7,0.3-2.4,0.8
		c-0.7,0.7-1.1,1.5-1.2,2.4H749.8z"/>
	<path d="M641.3,857.2v4.8h6.4v3h-6.4v5.1h7.2v3h-11.1V854h11.1v3.2H641.3L641.3,857.2z"/>
	<path d="M664.8,859.6c1.1,1.2,1.8,3,1.7,4.8v8.9h-3.9V865c0.1-1-0.3-1.9-1-2.8c-0.7-0.7-1.5-1-2.5-1s-1.8,0.3-2.5,1
		c-0.7,0.8-1,1.8-1,2.8v8.3H652v-15.1h3.9v1.9c0.6-0.7,1.2-1.2,1.9-1.5c0.8-0.4,1.7-0.6,2.6-0.6C662,857.9,663.6,858.4,664.8,859.6z
		"/>
	<path d="M670.1,861.6c0.6-1.1,1.5-2.1,2.6-2.8c1.2-0.7,2.5-1,3.9-1c1.7-0.1,3.3,0.4,4.7,1.4c1.2,1,2.1,2.4,2.5,3.9h-4.2
		c-0.1-0.7-0.6-1.2-1.2-1.5c-1.5-1-3.3-0.7-4.6,0.7c-1.2,2.1-1.2,4.7,0,6.6c0.7,0.8,1.5,1.2,2.6,1.2c1.4,0.1,2.6-0.7,3-2.1h4.2
		c-0.4,1.5-1.2,2.9-2.5,3.9c-1.4,1-3,1.5-4.6,1.4c-1.4,0-2.6-0.3-3.9-1c-1.1-0.7-2.1-1.7-2.6-2.8c-1.2-2.6-1.2-5.7,0-8.2
		L670.1,861.6z"/>
	<path d="M698.2,861.9v3.2h-11.6v-3.2H698.2z"/>
	<path d="M714.3,855.4c1.5,0.7,2.8,1.9,3.5,3.3c1.7,3.2,1.7,6.9,0,10.1c-0.8,1.4-2.1,2.6-3.5,3.3c-1.7,0.8-3.5,1.2-5.3,1.1h-6.6
		v-19.1h6.6C710.9,854.2,712.7,854.6,714.3,855.4z M713.5,868.3c1.1-1.2,1.8-2.9,1.7-4.6c0.1-1.7-0.4-3.3-1.7-4.7
		c-1.2-1.2-2.9-1.8-4.6-1.7h-2.8v12.6h2.8C710.6,870.1,712.3,869.4,713.5,868.3L713.5,868.3z"/>
	<path d="M735.9,866.9h-11.1c0,1,0.4,1.9,1.1,2.5c0.7,0.6,1.5,1,2.5,1c1.2,0,2.5-0.7,3-1.8h4.2c-0.4,1.4-1.2,2.8-2.5,3.6
		c-1.4,1-2.9,1.4-4.6,1.4c-1.4,0-2.8-0.3-3.9-1c-1.1-0.7-2.1-1.7-2.8-2.8c-1.2-2.6-1.2-5.7,0-8.3c0.6-1.1,1.5-2.1,2.6-2.8
		c1.2-0.7,2.6-1,4-1s2.6,0.3,3.9,1c1.1,0.6,2.1,1.5,2.6,2.6c0.7,1.2,1,2.5,1,3.9C736.1,865.8,735.9,866.3,735.9,866.9z M732.1,864.3
		c0-1-0.4-1.8-1.1-2.4c-0.7-0.6-1.7-1-2.5-0.8c-0.8,0-1.8,0.3-2.4,0.8c-0.7,0.7-1.1,1.5-1.2,2.4H732.1z"/>
	<path d="M738.7,861.6c0.6-1.1,1.5-2.1,2.6-2.8c1.2-0.7,2.5-1,3.9-1c1.7-0.1,3.3,0.4,4.7,1.4c1.2,1,2.1,2.4,2.5,3.9h-4.2
		c-0.1-0.7-0.6-1.1-1.1-1.5c-1.5-1-3.3-0.7-4.6,0.7c-1.2,2.1-1.2,4.7,0,6.6c0.7,0.8,1.5,1.2,2.6,1.2c1.4,0.1,2.6-0.7,3-2.1h4.2
		c-0.4,1.5-1.2,2.9-2.5,3.9c-1.4,1-3,1.5-4.7,1.4c-1.4,0-2.6-0.3-3.9-1c-1.1-0.7-2.1-1.7-2.6-2.8c-1.2-2.6-1.2-5.7,0-8.2
		L738.7,861.6z"/>
	<path class="st0" d="M1534.3,942h-310c-10.2,0-18.5-8.3-18.5-18.5l0,0l0,0V766.7c0-10.2,8.3-18.5,18.5-18.5l0,0h310
		c10.2,0,18.5,8.3,18.5,18.5l0,0l0,0v156.8C1552.9,933.7,1544.6,942,1534.3,942L1534.3,942z"/>
	<path d="M1275.2,808.2v3h-5.1v15.9h-3.9v-15.9h-5.1v-3H1275.2z"/>
	<path d="M1283.7,812.5c0.8-0.4,1.8-0.7,2.8-0.7v4h-1c-1.8-0.3-3.3,0.8-3.6,2.6c0,0.4,0,0.8,0,1.1v7.5h-3.9v-15h3.9v2.4
		C1282.4,813.6,1282.9,813.1,1283.7,812.5z"/>
	<path d="M1289,815.6c0.6-1.1,1.4-2.1,2.5-2.8s2.2-1,3.5-1c1,0,2.1,0.3,2.9,0.7s1.5,1,2.1,1.7V812h3.9v15h-3.9v-2
		c-0.6,0.7-1.2,1.4-2.1,1.8c-2.1,1-4.6,0.8-6.5-0.3c-1.1-0.7-1.9-1.7-2.5-2.8c-0.7-1.2-1-2.8-1-4.2
		C1288,818.2,1288.3,816.8,1289,815.6z M1299.4,817.4c-0.3-0.7-0.8-1.2-1.5-1.5c-0.6-0.3-1.2-0.6-1.9-0.6c-1.4,0-2.8,0.8-3.5,2.1
		c-0.4,0.7-0.6,1.5-0.6,2.4c0,0.8,0.1,1.7,0.6,2.4c0.3,0.7,0.8,1.2,1.5,1.5c0.6,0.4,1.2,0.6,1.9,0.6s1.4-0.1,2.1-0.6
		c0.7-0.4,1.1-0.8,1.5-1.5s0.6-1.5,0.6-2.4S1299.8,818,1299.4,817.4L1299.4,817.4z"/>
	<path d="M1307.8,809.7c-0.4-0.4-0.7-1-0.7-1.7c0-0.6,0.3-1.2,0.7-1.7c1-0.8,2.4-0.8,3.3,0c0.8,0.8,1,2.2,0,3.2l0,0
		C1310.2,810.6,1308.8,810.6,1307.8,809.7z M1311.3,812.2v15.1h-3.9v-15.2L1311.3,812.2z"/>
	<path d="M1327.9,813.6c1.2,1.2,1.8,3,1.7,4.8v8.9h-3.9V819c0.1-1-0.3-1.9-1-2.8c-0.7-0.7-1.5-1-2.5-1s-1.8,0.3-2.5,1
		c-0.7,0.8-1,1.8-1,2.8v8.3h-3.9v-15.1h3.9v1.9c0.6-0.7,1.2-1.2,1.9-1.5c0.8-0.4,1.7-0.6,2.6-0.6
		C1325.1,811.8,1326.6,812.4,1327.9,813.6z"/>
	<path d="M1350.7,808.2v13.4c0.1,1.7-0.6,3.2-1.7,4.3c-1.2,1.1-2.8,1.7-4.3,1.5c-1.7,0-3.2-0.6-4.4-1.5c-1.1-1.1-1.8-2.8-1.7-4.4
		h3.9c0,0.7,0.1,1.4,0.6,1.9c0.4,0.4,1,0.7,1.7,0.7c0.6,0,1.2-0.1,1.5-0.7c0.4-0.6,0.6-1.1,0.6-1.8v-13.4H1350.7z"/>
	<path d="M1357.9,826.5c-1.1-0.7-2.1-1.7-2.8-2.8c-1.4-2.6-1.4-5.7,0-8.3c0.7-1.1,1.7-2.1,2.8-2.8c2.5-1.2,5.4-1.2,7.9,0
		c1.1,0.7,2.1,1.7,2.8,2.8c0.7,1.2,1.1,2.8,1,4.2c0,1.5-0.3,2.9-1.1,4.2c-0.7,1.1-1.7,2.1-2.8,2.8c-1.2,0.7-2.6,1-4,1
		C1360.5,827.5,1359.2,827.2,1357.9,826.5z M1363.9,823.6c0.6-0.4,1.1-0.8,1.5-1.5c0.4-0.8,0.6-1.7,0.6-2.5c0.1-1.2-0.3-2.4-1.1-3.3
		c-0.7-0.8-1.7-1.2-2.8-1.1c-1.1,0-2.1,0.4-2.8,1.1c-0.8,1-1.2,2.1-1.1,3.3c-0.1,1.2,0.3,2.4,1.1,3.3c0.7,0.8,1.7,1.2,2.8,1.1
		C1362.6,824.1,1363.3,824,1363.9,823.6L1363.9,823.6z"/>
	<path d="M1372.9,809.7c-0.4-0.4-0.7-1-0.7-1.7c0-0.6,0.3-1.2,0.7-1.7c1-0.8,2.4-0.8,3.3,0c0.4,0.4,0.7,1,0.7,1.7
		c0,0.6-0.3,1.2-0.7,1.7s-1.1,0.7-1.7,0.7C1374,810.4,1373.3,810.2,1372.9,809.7z M1376.5,812.2v15.1h-3.9v-15.2L1376.5,812.2z"/>
	<path d="M1392.9,813.6c1.2,1.2,1.8,3,1.7,4.8v8.9h-3.9V819c0.1-1-0.3-1.9-1-2.8c-1.4-1.2-3.6-1.2-5,0c-0.7,0.8-1,1.8-1,2.8v8.3
		h-3.9v-15.1h3.9v1.9c0.6-0.7,1.2-1.2,1.9-1.5c0.8-0.4,1.7-0.6,2.6-0.6C1390.2,811.8,1391.8,812.4,1392.9,813.6z"/>
	<path d="M1402.7,815.3v7.3c0,0.4,0.1,0.8,0.4,1.1c0.4,0.3,0.8,0.4,1.2,0.4h1.8v3.2h-2.4c-3.2,0-4.8-1.5-4.8-4.7v-7.3h-1.8v-3.2h1.8
		v-3.7h3.9v3.7h3.3v3.2H1402.7z"/>
	<path d="M1436.1,808.2v19.1h-3.9v-12.5l-5.1,12.5h-2.9l-5.1-12.5v12.5h-3.9v-19.1h4.3l6.1,14.1l6.1-14.1H1436.1z"/>
	<path d="M1442.6,826.5c-1.1-0.7-2.1-1.7-2.8-2.8c-1.4-2.6-1.4-5.7,0-8.3c0.7-1.1,1.7-2.1,2.8-2.8c2.5-1.2,5.4-1.2,7.9,0
		c1.1,0.7,2.1,1.7,2.8,2.8c0.7,1.2,1.1,2.8,1,4.2c0,1.5-0.3,2.9-1.1,4.2c-0.7,1.1-1.7,2.1-2.8,2.8c-1.2,0.7-2.6,1-4,1
		C1445.1,827.5,1443.8,827.2,1442.6,826.5z M1448.5,823.6c0.6-0.4,1.1-0.8,1.5-1.5c0.4-0.8,0.6-1.7,0.6-2.5c0.1-1.2-0.3-2.4-1.1-3.3
		c-0.7-0.8-1.7-1.2-2.8-1.1c-1.1,0-2.1,0.4-2.8,1.1c-0.8,1-1.2,2.1-1.1,3.3c-0.1,1.2,0.3,2.4,1.1,3.3c0.7,0.8,1.7,1.2,2.8,1.1
		C1447.3,824.1,1448,824,1448.5,823.6L1448.5,823.6z"/>
	<path d="M1457.1,815.6c0.6-1.1,1.4-2.1,2.5-2.8s2.2-1,3.5-1c1,0,1.9,0.3,2.8,0.7s1.5,1,2.1,1.7V807h3.9v20.2h-3.9V825
		c-0.6,0.8-1.2,1.4-1.9,1.8c-1,0.4-1.9,0.7-3,0.7c-1.2,0-2.5-0.3-3.5-1c-1.1-0.7-1.9-1.7-2.5-2.8c-0.7-1.2-1-2.8-1-4.2
		C1456.2,818.2,1456.4,816.8,1457.1,815.6z M1467.6,817.4c-0.3-0.7-0.8-1.1-1.5-1.5c-0.6-0.3-1.2-0.6-1.9-0.6s-1.4,0.1-1.9,0.6
		c-0.6,0.4-1.1,1-1.4,1.5c-0.4,0.7-0.6,1.5-0.6,2.4c0,0.8,0.1,1.7,0.6,2.4c0.3,0.7,0.8,1.2,1.5,1.5c0.6,0.4,1.2,0.6,1.9,0.6
		c0.7,0,1.4-0.1,1.9-0.6c0.7-0.4,1.1-0.8,1.5-1.5s0.6-1.5,0.6-2.4C1468.2,818.9,1468.1,818,1467.6,817.4L1467.6,817.4z"/>
	<path d="M1489.6,820.8h-11.1c0,1,0.4,1.9,1.1,2.5s1.5,1,2.5,1c1.2,0.1,2.5-0.7,3-1.8h4.2c-0.4,1.4-1.2,2.8-2.5,3.6
		c-1.4,1-2.9,1.4-4.6,1.4c-1.4,0-2.8-0.3-3.9-1s-2.1-1.7-2.8-2.8c-1.2-2.6-1.2-5.7,0-8.3c0.6-1.1,1.5-2.1,2.6-2.8
		c2.5-1.2,5.4-1.2,7.9,0c1.1,0.6,2.1,1.5,2.6,2.6c0.7,1.2,1,2.5,1,3.9C1489.8,819.7,1489.8,820.3,1489.6,820.8z M1485.9,818.3
		c0-1-0.4-1.8-1.1-2.4s-1.7-1-2.5-0.8c-0.8,0-1.8,0.3-2.4,0.8c-0.7,0.7-1.1,1.5-1.2,2.4H1485.9z"/>
	<path d="M1496.4,807v20.2h-3.9V807H1496.4z"/>
	<path d="M1276.5,840.9v3h-7.9v4.8h6.1v3h-6.1v8h-3.7v-19.1h11.6V840.9z"/>
	<path d="M1281.9,859.3c-1.1-0.7-2.1-1.7-2.8-2.8c-1.4-2.6-1.4-5.7,0-8.3c0.7-1.1,1.7-2.1,2.8-2.8c2.5-1.2,5.4-1.2,7.9,0
		c1.1,0.7,2.1,1.7,2.8,2.8c0.7,1.2,1.1,2.8,1,4.2c0,1.4-0.3,2.9-1.1,4.2c-0.7,1.1-1.7,2.1-2.9,2.8c-1.2,0.7-2.6,1-4,1
		C1284.4,860.3,1283.2,859.8,1281.9,859.3z M1287.9,856.4c0.6-0.4,1.1-0.8,1.4-1.5c0.4-0.7,0.6-1.7,0.6-2.5c0.1-1.2-0.3-2.4-1.1-3.3
		c-1.5-1.5-4-1.5-5.5,0l0,0c-1.5,1.9-1.5,4.7,0,6.6c0.7,0.8,1.7,1.2,2.8,1.1C1286.6,856.9,1287.2,856.7,1287.9,856.4z"/>
	<path d="M1302.4,845.3c0.8-0.4,1.8-0.7,2.8-0.7v4h-1c-1.8-0.3-3.3,0.8-3.6,2.6c0,0.4,0,0.8,0,1.1v7.5h-3.9v-15.1h3.9v2.4
		C1300.9,846.4,1301.6,845.7,1302.4,845.3z"/>
	<path d="M1317.1,859.4c-1-0.4-1.9-1.1-2.5-1.9c-0.7-0.8-1-1.9-1-3h4.2c0,0.7,0.3,1.4,0.8,1.8c0.6,0.4,1.2,0.7,2.1,0.7
		c0.7,0,1.5-0.1,2.1-0.7c0.6-0.4,0.8-1,0.8-1.7c0-0.6-0.1-1-0.6-1.4c-0.4-0.4-0.8-0.7-1.2-0.8c-0.7-0.3-1.4-0.6-2.2-0.7
		c-1-0.3-2.1-0.7-3-1.1c-0.8-0.4-1.5-1-1.9-1.7c-0.6-0.8-0.8-1.8-0.8-2.9c0-1.1,0.3-2.1,0.8-2.9c0.6-0.8,1.4-1.5,2.4-1.9
		c1.1-0.4,2.4-0.7,3.5-0.7c1.7-0.1,3.5,0.4,4.8,1.4c1.2,1,1.9,2.5,2.1,4h-4.2c0-0.7-0.3-1.2-0.8-1.7c-0.6-0.4-1.4-0.7-2.1-0.7
		s-1.2,0.1-1.8,0.6c-0.4,0.4-0.7,1-0.7,1.7c0,0.4,0.1,1,0.6,1.2c0.4,0.3,0.8,0.6,1.2,0.8c0.7,0.3,1.4,0.6,2.1,0.7
		c1,0.3,2.1,0.7,3,1.1c0.8,0.4,1.5,1,2.1,1.7c0.6,0.8,1,1.8,0.8,2.9c0,1-0.3,1.9-0.8,2.8c-0.6,1-1.4,1.7-2.4,2.1
		c-1.1,0.6-2.4,0.8-3.6,0.8C1319.6,860.1,1318.3,860,1317.1,859.4z"/>
	<path d="M1344.6,853.6h-11.1c0,1,0.4,1.9,1.1,2.5s1.5,1,2.5,1c1.2,0,2.5-0.7,3-1.8h4.2c-0.4,1.4-1.2,2.6-2.5,3.6
		c-1.4,1-2.9,1.4-4.6,1.4c-1.4,0-2.8-0.3-3.9-1s-2.1-1.7-2.8-2.8c-1.2-2.6-1.2-5.7,0-8.3c0.6-1.1,1.5-2.1,2.6-2.8c1.2-0.7,2.6-1,4-1
		s2.6,0.3,3.9,1c1.1,0.6,2.1,1.5,2.6,2.6c0.7,1.2,1,2.5,1,3.9C1344.8,852.5,1344.8,853.1,1344.6,853.6z M1340.9,851
		c0-1-0.4-1.8-1.1-2.4c-0.7-0.6-1.7-1-2.5-1s-1.8,0.3-2.4,0.8c-0.7,0.7-1.1,1.5-1.2,2.4L1340.9,851z"/>
	<path d="M1347.5,848.4c0.6-1.1,1.5-2.1,2.5-2.8c1.1-0.7,2.4-1,3.6-1c1,0,1.9,0.1,2.9,0.6c0.8,0.4,1.5,0.8,1.9,1.5v-1.9h3.9V867
		h-3.9v-9.3c-0.6,0.7-1.2,1.2-2.1,1.7c-0.8,0.4-1.9,0.7-2.9,0.7c-1.2,0-2.5-0.4-3.5-1c-1.1-0.7-1.9-1.7-2.5-2.8
		C1346.3,853.9,1346.3,851,1347.5,848.4L1347.5,848.4z M1357.9,850c-0.4-0.7-0.8-1.1-1.5-1.5c-0.6-0.3-1.2-0.6-1.9-0.6
		c-1.4,0-2.8,0.8-3.5,2.1c-0.4,0.7-0.6,1.5-0.6,2.4c0,0.8,0.1,1.7,0.6,2.4s0.8,1.1,1.5,1.5c0.6,0.3,1.2,0.6,1.9,0.6
		c1.4,0,2.8-0.8,3.5-2.1C1358.7,853.3,1358.7,851.5,1357.9,850z"/>
	<path d="M1366.1,859.6c-0.4-0.4-0.7-1-0.7-1.7c0-0.6,0.3-1.2,0.7-1.7s1.1-0.7,1.7-0.7s1.2,0.3,1.7,0.7c0.8,0.8,0.8,2.4,0,3.2
		c-0.4,0.4-1.1,0.7-1.7,0.7C1367.2,860.3,1366.5,860,1366.1,859.6z"/>
	<path d="M1383.5,856.9h6.2v3h-10.1v-19.1h3.9V856.9z"/>
	<path d="M1392.1,848.4c0.6-1.1,1.4-2.1,2.5-2.8s2.2-1,3.5-1c1.9,0,3.9,0.8,5,2.4v-2.1h3.9V860h-3.7v-2.2c-0.6,0.7-1.2,1.4-2.1,1.8
		c-1,0.4-1.9,0.7-3,0.7c-1.2,0-2.5-0.3-3.5-1c-1.1-0.7-1.9-1.7-2.5-2.8c-0.7-1.2-1-2.8-1-4.2C1391.3,851,1391.5,849.6,1392.1,848.4z
		 M1402.6,850c-0.7-1.2-2.1-2.1-3.5-2.1s-2.8,0.8-3.5,2.1c-0.4,0.7-0.6,1.5-0.6,2.4c0,0.8,0.1,1.7,0.6,2.4c0.3,0.7,0.8,1.2,1.5,1.5
		c1.8,1.1,4.3,0.4,5.4-1.4c0,0,0-0.1,0.1-0.1C1403.3,853.3,1403.3,851.5,1402.6,850L1402.6,850z"/>
	<path d="M1416.6,845.3c1-0.4,1.9-0.7,2.9-0.7c1.2,0,2.5,0.3,3.5,1c1.1,0.7,1.9,1.7,2.5,2.8c0.7,1.2,1,2.8,1,4.2s-0.3,2.9-1,4.2
		c-0.6,1.1-1.4,2.1-2.5,2.8s-2.2,1-3.5,1c-1,0-2.1-0.3-2.9-0.7s-1.5-1-2.1-1.8v2.2h-3.9V840h3.9v7.3
		C1415.1,846.4,1415.7,845.7,1416.6,845.3z M1422,850c-0.7-1.2-2.1-2.1-3.5-2.1s-2.8,0.8-3.5,2.1c-0.7,1.5-0.7,3.3,0,4.7
		c0.7,1.2,1.9,2.1,3.5,2.1c0.7,0,1.4-0.1,1.9-0.6c0.6-0.4,1.1-1,1.5-1.5c0.4-0.7,0.6-1.5,0.6-2.4
		C1422.5,851.5,1422.4,850.7,1422,850L1422,850z"/>
	<path d="M1443.1,853.6H1432c0,1,0.4,1.9,1.1,2.5s1.5,1,2.5,1c1.2,0,2.5-0.7,3-1.8h4.2c-0.4,1.4-1.2,2.6-2.5,3.6
		c-1.4,1-2.9,1.4-4.6,1.4c-1.4,0-2.8-0.3-3.9-1s-2.1-1.7-2.8-2.8c-1.2-2.6-1.2-5.7,0-8.2c0.6-1.1,1.5-2.1,2.6-2.8
		c2.5-1.2,5.4-1.2,7.9,0c1.1,0.6,2.1,1.5,2.6,2.6c0.7,1.2,1,2.5,1,3.9C1443.3,852.5,1443.1,853.1,1443.1,853.6z M1439.3,851
		c0-1-0.4-1.8-1.1-2.4s-1.7-1-2.5-1s-1.8,0.3-2.4,0.8c-0.7,0.7-1.1,1.5-1.2,2.4L1439.3,851z"/>
	<path d="M1449.8,839.8V860h-3.7v-20.2H1449.8z"/>
	<path d="M1453.9,842.4c-0.8-0.8-0.8-2.4,0-3.2l0,0c0.4-0.4,1.1-0.7,1.7-0.7c0.7,0,1.2,0.1,1.7,0.7c0.8,0.8,0.8,2.4,0,3.2l0,0
		c-0.4,0.4-1.1,0.7-1.7,0.7C1454.9,843.1,1454.4,842.8,1453.9,842.4z M1457.4,844.9V860h-3.9v-15.1H1457.4z"/>
	<path d="M1474,846.4c1.2,1.2,1.8,3,1.7,4.7v8.9h-3.9v-8.3c0.1-1-0.3-1.9-1-2.8c-0.7-0.7-1.5-1-2.5-1s-1.8,0.3-2.5,1
		c-0.7,0.8-1,1.8-1,2.8v8.3h-3.7v-15.1h3.9v1.9c0.6-0.7,1.2-1.2,1.9-1.5c0.8-0.4,1.7-0.6,2.6-0.6
		C1471.2,844.6,1472.8,845.2,1474,846.4z"/>
	<path d="M1488.1,845.3c0.8,0.4,1.5,1,2.1,1.8V845h3.9v15.2c0,1.2-0.3,2.6-0.8,3.7c-0.6,1.1-1.5,2.1-2.5,2.6c-1.2,0.7-2.8,1-4.2,1
		c-1.9,0.1-3.7-0.4-5.3-1.5c-1.4-1-2.2-2.5-2.4-4.2h3.7c0.3,0.7,0.7,1.2,1.2,1.7c0.7,0.4,1.5,0.7,2.5,0.7s2.1-0.3,2.8-1
		c0.7-0.8,1.1-1.9,1.1-3v-2.4c-1.1,1.7-3,2.5-5,2.5c-1.2,0-2.5-0.3-3.5-1c-1.1-0.7-1.9-1.7-2.5-2.8c-0.7-1.2-1-2.8-1-4.2
		s0.3-2.8,1-4c1.1-2.4,3.5-3.7,6-3.7C1486.2,844.5,1487.3,844.8,1488.1,845.3z M1489.6,850c-0.3-0.7-0.8-1.1-1.5-1.5
		c-0.6-0.4-1.2-0.6-1.9-0.6s-1.4,0.1-1.9,0.6c-0.6,0.4-1.1,0.8-1.5,1.5s-0.6,1.5-0.6,2.4c0,0.8,0.1,1.7,0.6,2.4
		c0.4,0.7,0.8,1.2,1.5,1.5c0.6,0.4,1.2,0.6,1.9,0.6s1.4-0.1,1.9-0.6c0.6-0.4,1.1-0.8,1.5-1.5C1490.3,853.3,1490.3,851.5,1489.6,850
		L1489.6,850z"/>
	<path d="M1255.5,881c0.6-1.1,1.4-2.1,2.5-2.8s2.2-1,3.5-1c1,0,2.1,0.1,2.9,0.7c0.8,0.4,1.5,1,2.1,1.7v-2.1h3.9v15.1h-3.9v-2.1
		c-0.6,0.7-1.2,1.4-2.1,1.8c-1,0.4-1.9,0.7-3,0.7c-1.2,0-2.5-0.3-3.5-1c-1.1-0.7-1.9-1.7-2.5-2.8c-0.7-1.2-1-2.8-1-4.2
		C1254.5,883.6,1254.8,882.3,1255.5,881z M1265.9,882.8c-1-1.9-3.5-2.6-5.3-1.7c-0.7,0.4-1.2,1-1.7,1.7c-0.4,0.7-0.6,1.5-0.6,2.4
		s0.1,1.7,0.6,2.4c0.4,0.7,0.8,1.2,1.5,1.5c0.6,0.4,1.2,0.6,1.9,0.6s1.4-0.1,1.9-0.6c0.6-0.4,1.1-0.8,1.5-1.5
		C1266.6,886,1266.6,884.3,1265.9,882.8L1265.9,882.8z"/>
	<path d="M1286.8,879.1c1.1,1.2,1.8,3,1.7,4.7v9h-3.9v-8.3c0.1-1-0.3-1.9-1-2.8c-1.4-1.2-3.6-1.2-5,0c-0.7,0.8-1,1.8-1,2.8v8.3h-3.9
		v-15.2h3.9v1.8c0.6-0.7,1.2-1.2,1.9-1.5C1282.1,876.9,1284.8,877.3,1286.8,879.1L1286.8,879.1z"/>
	<path d="M1292,881c1.1-2.4,3.5-3.7,6-3.7c1,0,1.9,0.3,2.8,0.7c0.8,0.4,1.5,1,2.1,1.7v-7.2h3.9v20.3h-3.9v-2.2
		c-0.6,0.8-1.2,1.4-1.9,1.8c-1,0.4-1.9,0.7-3,0.7c-1.2,0-2.5-0.3-3.5-1c-1.1-0.7-1.9-1.7-2.5-2.8c-0.7-1.2-1-2.8-1-4.2
		C1291.1,883.8,1291.4,882.3,1292,881z M1302.4,882.8c-1-1.9-3.3-2.6-5.3-1.7c-0.7,0.4-1.2,1-1.7,1.7c-0.4,0.7-0.6,1.5-0.6,2.4
		s0.1,1.7,0.6,2.4c0.3,0.7,0.8,1.2,1.5,1.5c0.6,0.4,1.2,0.6,1.9,0.6c0.7,0,1.4-0.1,1.9-0.6c0.7-0.4,1.1-0.8,1.5-1.5s0.6-1.5,0.6-2.4
		C1303,884.3,1302.8,883.5,1302.4,882.8L1302.4,882.8z"/>
	<path d="M1317.4,878.1c0.8-1.5,2.1-2.6,3.5-3.5c3.3-1.8,7.3-1.7,10.5,0.4c1.7,1.1,2.8,2.6,3.3,4.6h-4.4c-0.4-0.8-1-1.5-1.8-2.1
		c-0.8-0.4-1.8-0.7-2.8-0.7c-1.1,0-2.1,0.3-2.9,0.8c-0.8,0.6-1.5,1.2-2.1,2.2c-1,2.1-1,4.6,0,6.6c0.4,1,1.1,1.7,2.1,2.2
		c0.8,0.6,1.9,0.8,2.9,0.8s1.9-0.3,2.8-0.7s1.5-1.2,1.8-2.1h4.4c-0.6,1.8-1.8,3.5-3.3,4.6c-3.2,2.1-7.2,2.2-10.5,0.4
		c-1.4-0.8-2.6-1.9-3.5-3.5C1315.7,885,1315.7,881.3,1317.4,878.1L1317.4,878.1z"/>
	<path d="M1341.9,872.6v20.2h-3.9v-20.2H1341.9z"/>
	<path d="M1345.5,881c0.6-1.1,1.4-2.1,2.5-2.8s2.2-1,3.5-1c1,0,2.1,0.1,2.9,0.7c0.8,0.4,1.5,1,2.1,1.7v-2.1h3.9v15.1h-3.9v-2.1
		c-0.6,0.7-1.2,1.4-2.1,1.8c-1,0.4-1.9,0.7-3,0.7c-1.2,0-2.5-0.3-3.5-1c-1.1-0.7-1.9-1.7-2.5-2.8c-0.7-1.2-1-2.8-1-4.2
		C1344.6,883.6,1344.9,882.3,1345.5,881z M1356,882.8c-0.7-1.2-2.1-2.1-3.5-2.1s-2.8,0.7-3.5,2.1c-0.4,0.7-0.6,1.5-0.6,2.4
		s0.1,1.7,0.6,2.4c0.3,0.7,0.8,1.2,1.5,1.5c0.6,0.4,1.2,0.6,1.9,0.6s1.4-0.1,1.9-0.4c0.7-0.4,1.1-0.8,1.5-1.5s0.6-1.5,0.6-2.4
		C1356.5,884.3,1356.4,883.5,1356,882.8L1356,882.8z"/>
	<path d="M1366.6,892.4c-1-0.4-1.7-1-2.4-1.8c-0.6-0.7-0.8-1.7-1-2.5h3.9c0.1,0.6,0.4,1.1,0.8,1.4c0.6,0.4,1.2,0.6,1.8,0.6
		c0.6,0,1.2-0.1,1.7-0.4c0.4-0.3,0.6-0.7,0.6-1.1c0-0.6-0.3-1-0.7-1.1c-0.8-0.3-1.5-0.6-2.4-0.8c-1-0.3-1.8-0.6-2.8-0.8
		c-0.7-0.3-1.4-0.8-1.8-1.4c-0.6-0.7-0.8-1.5-0.8-2.5c0-0.8,0.3-1.7,0.7-2.4c0.6-0.7,1.2-1.2,2.1-1.7c1-0.4,2.1-0.7,3.2-0.6
		c1.5-0.1,3,0.4,4.3,1.4c1.1,1,1.7,2.2,1.8,3.6h-3.6c0-0.6-0.3-1.1-0.7-1.4c-0.6-0.4-1.1-0.6-1.8-0.6c-0.6,0-1.1,0.1-1.7,0.4
		c-0.6,0.4-0.7,1.2-0.3,1.8c0.1,0.1,0.3,0.3,0.6,0.4c0.8,0.4,1.5,0.6,2.4,0.8c1,0.3,1.9,0.6,2.8,0.8c0.7,0.3,1.4,0.8,1.8,1.4
		c0.6,0.7,0.8,1.5,0.8,2.5c0,0.8-0.3,1.7-0.7,2.4c-0.6,0.7-1.2,1.2-2.1,1.7C1371.1,893.2,1368.7,893.2,1366.6,892.4L1366.6,892.4z"
		/>
	<path d="M1381.4,892.4c-1-0.4-1.7-1-2.4-1.8c-0.6-0.7-0.8-1.7-1-2.5h3.9c0.1,0.6,0.4,1.1,0.8,1.4c0.6,0.4,1.2,0.6,1.8,0.6
		c0.6,0,1.2-0.1,1.7-0.4c0.4-0.3,0.6-0.7,0.6-1.1c0-0.6-0.3-1-0.8-1.1c-0.8-0.3-1.5-0.6-2.4-0.8c-1-0.3-1.8-0.6-2.8-0.8
		c-0.7-0.3-1.4-0.8-1.8-1.4c-0.6-0.7-0.8-1.5-0.8-2.5c0-0.8,0.3-1.7,0.7-2.4c0.6-0.7,1.2-1.2,2.1-1.7c1-0.4,2.1-0.7,3.2-0.6
		c1.5-0.1,3,0.4,4.3,1.4c1.1,1,1.7,2.2,1.8,3.6h-3.6c0-0.6-0.3-1.1-0.7-1.4c-1-0.7-2.4-0.7-3.3-0.1c-0.6,0.4-0.7,1.2-0.3,1.8
		c0.1,0.1,0.3,0.3,0.6,0.4c0.7,0.4,1.5,0.6,2.4,0.8c1,0.3,1.8,0.6,2.8,0.8c0.7,0.3,1.4,0.8,1.8,1.4c0.6,0.7,0.8,1.5,0.8,2.5
		c0,0.8-0.3,1.7-0.7,2.4c-0.6,0.7-1.2,1.2-2.1,1.7c-1,0.4-2.1,0.6-3.2,0.6C1383.6,893,1382.5,892.8,1381.4,892.4z"/>
	<path d="M1394,875.2c-0.8-0.8-0.8-2.4,0-3.2l0,0c0.4-0.4,1.1-0.7,1.7-0.7s1.2,0.3,1.7,0.7c0.8,0.8,0.8,2.4,0,3.2l0,0
		c-0.4,0.4-1.1,0.7-1.7,0.7C1395.1,875.8,1394.6,875.6,1394,875.2z M1397.6,877.5v15.2h-3.9v-15.2H1397.6z"/>
	<path d="M1408.4,880.7h-2.8v12h-3.9v-12h-1.7v-3.2h1.7v-0.7c-0.1-1.5,0.4-3,1.7-4.2c1.4-1,3-1.4,4.7-1.2v3.2
		c-0.7-0.1-1.4,0.1-1.9,0.4c-0.4,0.6-0.6,1.1-0.6,1.8v0.7h2.8L1408.4,880.7z"/>
	<path d="M1411,875.2c-0.8-0.8-0.8-2.4,0-3.2l0,0c0.4-0.4,1.1-0.7,1.7-0.7c0.7,0,1.2,0.3,1.7,0.7c0.8,0.8,0.8,2.4,0,3.2l0,0
		C1413.5,876,1412,876,1411,875.2L1411,875.2z M1414.6,877.5v15.2h-3.9v-15.2H1414.6z"/>
	<path d="M1418.4,881c0.6-1.1,1.5-2.1,2.6-2.8c1.2-0.7,2.5-1,3.9-1c1.7-0.1,3.3,0.4,4.7,1.4c1.2,1,2.1,2.4,2.5,3.9h-4.2
		c-0.1-0.6-0.6-1.1-1.1-1.5c-1.5-1-3.3-0.7-4.6,0.7c-0.7,1-1,2.2-1,3.3c-0.1,1.2,0.3,2.4,1,3.3c0.7,0.8,1.7,1.2,2.6,1.1
		c1.4,0.1,2.6-0.7,3-2.1h4.2c-0.4,1.5-1.2,2.9-2.5,3.9c-1.4,1-3,1.5-4.6,1.4c-1.4,0-2.6-0.3-3.9-1c-1.1-0.7-2.1-1.7-2.6-2.8
		c-1.2-2.6-1.2-5.7,0-8.2V881z"/>
	<path d="M1434.8,881c1.1-2.4,3.5-3.7,6-3.7c1.9,0,3.9,0.8,5,2.4v-2.1h3.9v15.2h-3.9v-2.2c-0.6,0.7-1.2,1.4-2.1,1.8
		c-1,0.4-1.9,0.7-3,0.7c-1.2,0-2.5-0.3-3.5-1c-1.1-0.7-1.9-1.7-2.5-2.8c-0.7-1.2-1-2.8-1-4.2C1433.9,883.8,1434.2,882.3,1434.8,881z
		 M1445.2,882.8c-0.7-1.2-2.1-2.1-3.5-2.1s-2.8,0.7-3.5,2.1c-0.4,0.7-0.6,1.5-0.6,2.4s0.1,1.7,0.6,2.4c0.3,0.7,0.8,1.2,1.5,1.5
		c1.8,1.1,4.3,0.4,5.4-1.4l0.1-0.1C1445.9,886,1445.9,884.3,1445.2,882.8L1445.2,882.8z"/>
	<path d="M1457.8,880.7v7.3c0,0.4,0.1,0.8,0.4,1.1c0.4,0.3,0.8,0.4,1.2,0.3h1.8v3.3h-2.4c-3.2,0-4.8-1.5-4.8-4.7v-7.3h-1.8v-3.2h1.8
		v-3.7h3.9v3.7h3.3v3.2L1457.8,880.7L1457.8,880.7z"/>
	<path d="M1464.2,875.2c-0.8-0.8-0.8-2.4,0-3.2l0,0c0.4-0.4,1.1-0.7,1.7-0.7s1.2,0.3,1.7,0.7c0.8,0.8,0.8,2.4,0,3.2l0,0
		c-0.4,0.4-1.1,0.7-1.7,0.7C1465.3,875.8,1464.6,875.6,1464.2,875.2z M1467.8,877.5v15.2h-3.9v-15.2H1467.8z"/>
	<path d="M1474.3,891.9c-1.1-0.7-2.1-1.7-2.8-2.8c-0.7-1.2-1-2.8-1-4.2s0.3-2.9,1-4.2c0.7-1.1,1.7-2.1,2.8-2.8
		c2.5-1.2,5.4-1.2,7.9,0c1.1,0.7,2.1,1.7,2.8,2.8c0.7,1.2,1.1,2.8,1,4.2c0,1.5-0.3,2.9-1.1,4.2c-0.7,1.1-1.7,2.1-2.9,2.8
		c-1.2,0.7-2.6,1-4,1C1476.8,892.9,1475.5,892.6,1474.3,891.9z M1480.2,889.2c0.6-0.4,1.1-0.8,1.4-1.5c0.4-0.7,0.6-1.7,0.6-2.5
		c0.1-1.2-0.3-2.4-1.1-3.3c-1.5-1.5-4-1.5-5.5,0l0,0c-0.8,1-1.2,2.1-1.1,3.3c-0.1,1.2,0.3,2.4,1.1,3.3c0.7,0.8,1.7,1.2,2.8,1.1
		C1478.8,889.6,1479.5,889.4,1480.2,889.2L1480.2,889.2z"/>
	<path d="M1501.7,879.1c1.1,1.2,1.8,3,1.7,4.7v9h-3.9v-8.3c0.1-1-0.3-1.9-1-2.8c-0.7-0.7-1.5-1-2.5-1s-1.8,0.3-2.5,1
		c-0.7,0.8-1,1.8-1,2.8v8.3h-3.7v-15.2h3.9v1.8c0.6-0.7,1.2-1.2,1.9-1.5C1497.1,876.9,1499.9,877.3,1501.7,879.1L1501.7,879.1z"/>
</g>
<g id="Layer_1-2">
	<path class="st1" d="M1524.8,325.7c0,18.1-65.5,32.7-146.3,32.7s-146.3-14.5-146.3-32.7s65.5-32.7,146.3-32.7
		C1459.3,293.1,1524.8,307.7,1524.8,325.7"/>
	<path class="st2" d="M1378.5,358.5c-80.8,0-146.3-14.7-146.3-32.7v65.3c0,18.1,65.5,32.7,146.3,32.7s146.3-14.7,146.3-32.7v-65.3
		C1524.8,343.9,1459.3,358.5,1378.5,358.5"/>
	<path class="st3" d="M1378.5,423.8c-80.8,0-146.3-14.7-146.3-32.7v65.3c0,18.1,65.5,32.7,146.3,32.7s146.3-14.7,146.3-32.7v-65.3
		C1524.8,409.2,1459.3,423.8,1378.5,423.8"/>
	<path class="st4" d="M1378.5,489.1c-80.8,0-146.3-14.7-146.3-32.7v65.3c0,18.1,65.5,32.7,146.3,32.7s146.3-14.7,146.3-32.7v-65.3
		C1524.8,474.6,1459.3,489.1,1378.5,489.1"/>
	<path d="M1258,216.1h6.2v3h-10.1V200h3.9V216.1z"/>
	<path d="M1267,201.6c-0.4-0.4-0.7-1-0.7-1.7c0-0.6,0.3-1.2,0.7-1.5c1-0.8,2.4-0.8,3.3,0c0.4,0.4,0.7,1,0.7,1.5
		c0,0.6-0.3,1.2-0.7,1.7C1269.4,202.5,1268,202.5,1267,201.6z M1270.6,204v15.1h-3.9V204H1270.6z"/>
	<path d="M1297.6,205.5c1.2,1.2,1.8,3,1.7,4.7v8.9h-3.9v-8.3c0.1-1-0.3-1.9-1-2.8c-1.4-1.2-3.5-1.2-5,0c-0.7,0.7-1,1.8-1,2.8v8.3
		h-3.9v-8.3c0.1-1-0.3-2.1-1-2.8s-1.5-1-2.5-1s-1.8,0.3-2.5,1s-1,1.8-1,2.8v8.3h-3.9V204h3.9v1.9c0.6-0.7,1.1-1.1,1.9-1.5
		s1.7-0.6,2.5-0.6c1.1,0,2.2,0.3,3.2,0.7s1.7,1.2,2.1,2.2c0.6-0.8,1.2-1.7,2.1-2.1C1292.5,203.3,1295.5,203.7,1297.6,205.5
		L1297.6,205.5z"/>
	<path d="M1303.1,201.6c-0.4-0.4-0.7-1-0.7-1.7c0-0.6,0.3-1.2,0.7-1.5c1-0.8,2.4-0.8,3.3,0c0.4,0.4,0.7,1,0.7,1.5
		c0,0.6-0.3,1.2-0.7,1.7C1305.6,202.5,1304.1,202.5,1303.1,201.6z M1306.7,204v15.1h-3.9V204H1306.7z"/>
	<path d="M1315,207.2v7.3c0,0.4,0.1,0.8,0.4,1.1c0.4,0.3,0.8,0.4,1.2,0.4h1.8v3.2h-2.4c-3.2,0-4.8-1.5-4.8-4.7v-7.3h-1.8V204h1.8
		v-3.7h3.9v3.7h3.3v3.2H1315z"/>
	<path d="M1335.1,212.7H1324c0,1,0.4,1.9,1.1,2.6c0.7,0.6,1.5,1,2.5,1c1.2,0,2.5-0.7,3-1.8h4.2c-0.4,1.4-1.2,2.8-2.5,3.6
		c-1.4,1-2.9,1.4-4.6,1.4c-1.4,0-2.8-0.3-3.9-1s-2.1-1.7-2.8-2.8c-1.2-2.6-1.2-5.7,0-8.2c0.6-1.1,1.5-2.1,2.6-2.8c1.2-0.7,2.6-1,4-1
		s2.6,0.3,3.9,1c1.1,0.6,2.1,1.5,2.6,2.6c0.7,1.2,1,2.5,1,3.9C1335.1,211.7,1335.1,212.1,1335.1,212.7z M1331.2,210.1
		c0-1-0.4-1.8-1.1-2.4c-0.7-0.6-1.7-1-2.5-0.8c-0.8,0-1.8,0.3-2.4,0.8c-0.7,0.7-1.1,1.5-1.2,2.4H1331.2z"/>
	<path d="M1337.9,207.4c0.6-1.1,1.4-2.1,2.5-2.8s2.4-1,3.5-1c1,0,1.9,0.3,2.8,0.7c0.8,0.4,1.5,1,2.1,1.7v-7h3.9v20.2h-3.9V217
		c-0.6,0.8-1.2,1.4-1.9,1.8c-2.1,1-4.6,0.8-6.5-0.3c-1.1-0.7-1.9-1.7-2.5-2.8c-0.7-1.2-1-2.8-1-4.2S1337.2,208.7,1337.9,207.4z
		 M1348.3,209.2c-0.3-0.7-0.8-1.2-1.5-1.5c-0.6-0.3-1.2-0.6-1.9-0.6s-1.4,0.1-1.9,0.6c-0.6,0.4-1.1,0.8-1.5,1.5s-0.6,1.5-0.6,2.4
		c0,0.8,0.1,1.7,0.6,2.4c0.4,0.7,0.8,1.2,1.5,1.5c0.6,0.4,1.2,0.6,1.9,0.6s1.4-0.1,1.9-0.6c0.7-0.4,1.1-0.8,1.5-1.5s0.6-1.5,0.6-2.4
		C1348.8,210.8,1348.7,209.9,1348.3,209.2L1348.3,209.2z"/>
	<path d="M1375.9,200.1v3h-5.1V219h-3.9v-15.9h-5.1v-3H1375.9z"/>
	<path d="M1384.4,204.5c0.8-0.4,1.8-0.7,2.8-0.7v4h-1c-1.7-0.3-3.3,0.8-3.6,2.6l0,0c-0.1,0.4-0.1,0.8,0,1.2v7.6h-3.9V204h3.9v2.4
		C1383,205.6,1383.7,204.9,1384.4,204.5z"/>
	<path d="M1389.6,207.4c0.6-1.1,1.4-2.1,2.5-2.8s2.2-1,3.5-1c1.9,0,3.9,0.8,5,2.4v-2h3.9v15.1h-3.9V217c-0.6,0.7-1.2,1.4-2.1,1.8
		c-1,0.4-1.9,0.7-3,0.7c-1.2,0-2.5-0.3-3.5-1c-1.1-0.7-1.9-1.7-2.5-2.8c-0.7-1.2-1-2.8-1-4.2
		C1388.7,210.1,1389.1,208.7,1389.6,207.4z M1400,209.2c-0.3-0.7-0.8-1.1-1.5-1.5c-0.6-0.3-1.2-0.6-1.9-0.6c-0.7,0-1.4,0.1-1.9,0.6
		c-0.6,0.4-1.1,0.8-1.5,1.5s-0.6,1.5-0.6,2.4c0,0.8,0.1,1.7,0.6,2.4c0.4,0.7,0.8,1.2,1.5,1.5c0.6,0.4,1.2,0.6,1.9,0.6
		c0.7,0,1.4-0.1,1.9-0.6c0.7-0.4,1.1-0.8,1.5-1.5s0.6-1.5,0.6-2.4C1400.7,210.8,1400.4,209.9,1400,209.2z"/>
	<path d="M1408.5,201.6c-0.4-0.4-0.7-1-0.7-1.7c0-0.6,0.3-1.2,0.7-1.5c1-0.8,2.4-0.8,3.3,0c0.4,0.4,0.7,1,0.7,1.5
		c0,0.6-0.3,1.2-0.7,1.7C1410.8,202.5,1409.4,202.5,1408.5,201.6z M1412,204v15.1h-3.9V204H1412z"/>
	<path d="M1428.5,205.5c1.1,1.2,1.8,3,1.7,4.7v8.9h-3.9v-8.3c0.1-1-0.3-1.9-1-2.8c-0.7-0.7-1.5-1-2.5-1s-1.8,0.3-2.5,1
		c-0.7,0.8-1,1.8-1,2.8v8.3h-3.9V204h3.9v1.9c0.6-0.7,1.2-1.2,1.9-1.5c0.8-0.4,1.7-0.6,2.6-0.6
		C1425.7,203.7,1427.4,204.2,1428.5,205.5z"/>
	<path d="M1434,201.6c-0.4-0.4-0.7-1-0.7-1.7c0-0.6,0.3-1.2,0.7-1.5c1-0.8,2.4-0.8,3.3,0c0.4,0.4,0.7,1,0.7,1.5
		c0,0.6-0.3,1.2-0.7,1.7C1436.4,202.5,1435,202.5,1434,201.6z M1437.6,204v15.1h-3.9V204H1437.6z"/>
	<path d="M1454.1,205.5c1.1,1.2,1.8,3,1.7,4.7v8.9h-3.7v-8.3c0.1-1-0.3-1.9-1-2.8c-1.4-1.2-3.6-1.2-5,0c-0.7,0.8-1,1.8-1,2.8v8.3
		h-3.9V204h3.9v1.9c0.6-0.7,1.2-1.2,1.9-1.5c0.8-0.4,1.7-0.6,2.6-0.6C1451.5,203.7,1453,204.4,1454.1,205.5z"/>
	<path d="M1468.4,204.4c0.8,0.4,1.5,1,2.1,1.8V204h3.7v15.2c0,1.2-0.3,2.6-0.8,3.7c-0.6,1.1-1.5,2.1-2.5,2.6c-1.2,0.7-2.8,1-4.2,1
		c-1.9,0.1-3.7-0.4-5.3-1.5c-1.4-1-2.2-2.5-2.4-4.2h3.7c0.1,0.7,0.7,1.2,1.2,1.7c0.7,0.4,1.5,0.7,2.5,0.6c1,0,2.1-0.3,2.8-1
		c0.7-0.8,1.1-1.9,1.1-3v-2.4c-0.6,0.7-1.2,1.4-2.1,1.8c-1,0.4-1.9,0.7-2.9,0.7c-1.2,0-2.5-0.3-3.5-1c-1.1-0.7-1.9-1.7-2.5-2.8
		c-0.7-1.2-1-2.8-1-4.2s0.3-2.8,1-4c0.6-1.1,1.4-2.1,2.5-2.8s2.2-1,3.5-1C1466.4,203.6,1467.4,203.8,1468.4,204.4z M1469.9,209.2
		c-0.3-0.7-0.8-1.1-1.5-1.5c-0.6-0.3-1.2-0.6-1.9-0.6c-0.7,0-1.4,0.1-1.9,0.6c-0.6,0.4-1.1,1-1.4,1.5c-0.4,0.7-0.6,1.5-0.6,2.4
		c0,0.8,0.1,1.7,0.6,2.4c0.3,0.7,0.8,1.2,1.5,1.5c0.6,0.4,1.2,0.6,1.9,0.6s1.4-0.1,1.9-0.6c0.7-0.4,1.1-0.8,1.5-1.5s0.6-1.5,0.6-2.4
		C1470.4,210.8,1470.3,209.9,1469.9,209.2L1469.9,209.2z"/>
	<path d="M1347.7,234c1.5,0.7,2.8,1.9,3.5,3.3c1.7,3.2,1.7,6.9,0,10.1c-0.8,1.4-2.1,2.6-3.5,3.3c-1.7,0.8-3.5,1.2-5.3,1.2h-6.6
		v-19.1h6.6C1344.2,232.8,1346,233.2,1347.7,234z M1346.9,247c2.2-2.8,2.2-6.5,0-9.3c-1.2-1.2-2.9-1.8-4.6-1.7h-2.8v12.6h2.8
		C1344,248.7,1345.6,248.1,1346.9,247L1346.9,247z"/>
	<path d="M1355.3,240.2c1.1-2.2,3.5-3.7,6-3.7c1.9,0,3.9,0.8,5,2.4v-2.2h3.9v15.1h-3.9v-2.1c-0.6,0.7-1.2,1.4-2.1,1.8
		c-1,0.4-1.9,0.7-3,0.7c-1.2,0-2.5-0.3-3.5-1c-1.1-0.7-1.9-1.7-2.5-2.8c-0.7-1.2-1-2.8-1-4.2
		C1354.3,242.9,1354.6,241.5,1355.3,240.2z M1365.7,241.9c-0.3-0.7-0.8-1.1-1.5-1.5c-1.8-1.1-4.2-0.6-5.3,1.4l0,0l-0.1,0.1
		c-0.4,0.7-0.6,1.5-0.6,2.4c0,0.8,0.1,1.7,0.6,2.4c0.3,0.7,0.8,1.2,1.5,1.5c0.6,0.4,1.2,0.6,1.9,0.6c1.4,0,2.8-0.8,3.5-2.1
		c0.4-0.7,0.6-1.5,0.6-2.4C1366.2,243.5,1366.1,242.7,1365.7,241.9z"/>
	<path d="M1378.3,239.8v7.3c0,0.4,0.1,0.8,0.4,1.1c0.4,0.3,0.8,0.4,1.2,0.3h1.8v3.2h-2.4c-3.2,0-4.8-1.5-4.8-4.7v-7.3h-1.8v-3.2h1.8
		V233h3.9v3.7h3.3v3.2L1378.3,239.8z"/>
	<path d="M1384.4,240.2c1.1-2.2,3.5-3.7,6-3.7c1.9,0,3.9,0.8,5,2.4v-2.2h3.9v15.1h-3.9v-2.1c-0.6,0.7-1.2,1.4-2.1,1.8
		c-1,0.4-1.9,0.7-3,0.7c-1.2,0-2.5-0.3-3.5-1c-1.1-0.7-1.9-1.7-2.5-2.8c-0.7-1.2-1-2.8-1-4.2
		C1383.4,242.9,1383.7,241.5,1384.4,240.2z M1394.8,241.9c-0.3-0.7-0.8-1.1-1.5-1.5c-1.8-1.1-4.2-0.6-5.3,1.4l0,0l-0.1,0.1
		c-0.4,0.7-0.6,1.5-0.6,2.4c0,0.8,0.1,1.7,0.6,2.4c0.3,0.7,0.8,1.2,1.5,1.5c0.6,0.4,1.2,0.6,1.9,0.6c1.4,0,2.8-0.8,3.5-2.1
		c0.4-0.7,0.6-1.5,0.6-2.4C1395.3,243.5,1395.2,242.7,1394.8,241.9z"/>
	<path d="M164.5,760.6h-7.6l-1.2,3.6h-4l6.9-19.1h4.4l6.9,19.1h-4.2L164.5,760.6z M163.5,757.5l-2.8-8l-2.8,8H163.5z"/>
	<path d="M172.4,752.6c1.1-2.4,3.5-3.7,6-3.7c1,0,1.9,0.3,2.8,0.7c0.8,0.4,1.5,1,2.1,1.7V744h4v20.2h-3.9V762
		c-0.6,0.8-1.2,1.4-1.9,1.8c-1,0.4-1.9,0.7-3,0.7c-1.2,0-2.5-0.3-3.5-1c-1.1-0.7-1.9-1.7-2.5-2.8c-0.7-1.2-1-2.8-1-4.2
		C171.4,755.2,171.7,753.8,172.4,752.6z M182.8,754.2c-0.7-1.2-2.1-2.1-3.5-2.1c-0.7,0-1.4,0.1-1.9,0.6c-0.7,0.4-1.1,0.8-1.5,1.5
		c-0.4,0.7-0.6,1.5-0.6,2.4c0,0.8,0.1,1.7,0.6,2.4c0.3,0.7,0.8,1.2,1.5,1.7c0.6,0.4,1.2,0.6,1.9,0.6s1.4-0.1,1.9-0.6
		c0.7-0.4,1.1-0.8,1.5-1.5c0.4-0.7,0.6-1.5,0.6-2.4S183.2,754.9,182.8,754.2z"/>
	<path d="M190.8,752.6c1.1-2.4,3.5-3.7,6.1-3.7c1,0,1.9,0.3,2.8,0.7c0.8,0.4,1.5,1,2.1,1.7V744h3.9v20.2h-3.9V762
		c-0.6,0.8-1.2,1.4-1.9,1.8c-1,0.4-1.9,0.7-3,0.7c-1.2,0-2.5-0.3-3.5-1c-1.1-0.7-1.9-1.7-2.5-2.8c-0.7-1.2-1-2.8-1-4.2
		C189.8,755.2,190.2,753.8,190.8,752.6z M201.3,754.2c-0.7-1.2-2.1-2.1-3.5-2.1c-0.7,0-1.4,0.1-1.9,0.6c-0.6,0.4-1.1,0.8-1.4,1.5
		c-0.4,0.7-0.6,1.5-0.6,2.4c0,0.8,0.1,1.7,0.6,2.4c0.3,0.7,0.8,1.2,1.5,1.7c0.6,0.4,1.2,0.6,1.9,0.6c0.7,0,1.4-0.1,1.9-0.6
		c0.7-0.4,1.1-0.8,1.5-1.5C202.1,757.5,202.1,755.7,201.3,754.2L201.3,754.2z"/>
	<path d="M220.4,752.2v7.3c0,0.4,0.1,0.8,0.4,1.1c0.4,0.3,0.8,0.4,1.2,0.3h1.8v3.2h-2.4c-3.2,0-4.8-1.5-4.8-4.7V752h-1.8v-3.2h1.8
		v-3.5h3.9v3.7h3.3v3.2H220.4z"/>
	<path d="M229.3,763.5c-1.1-0.7-2.1-1.7-2.8-2.8c-0.7-1.2-1-2.8-1-4.2s0.3-2.9,1-4.2c0.7-1.1,1.7-2.1,2.8-2.8c2.5-1.2,5.4-1.2,7.9,0
		c1.1,0.7,2.1,1.7,2.8,2.8c1.4,2.6,1.4,5.7,0,8.3c-0.7,1.1-1.7,2.1-2.8,2.8c-1.2,0.7-2.6,1-4,1C231.9,764.5,230.5,764.1,229.3,763.5
		z M235.2,760.6c0.6-0.4,1.1-0.8,1.4-1.5c0.4-0.7,0.6-1.7,0.6-2.5c0.1-1.2-0.3-2.4-1.1-3.3c-1.5-1.5-4-1.5-5.5,0l0,0
		c-0.8,1-1.1,2.1-1.1,3.3c-0.1,1.2,0.3,2.4,1.1,3.3c0.7,0.7,1.7,1.1,2.8,1.1C233.8,761.1,234.5,760.9,235.2,760.6z"/>
	<path d="M263.6,753.9c-0.6,1-1.4,1.7-2.2,2.1c-1.2,0.6-2.5,0.8-3.9,0.8h-3.2v7.3h-3.9V745h7.1c1.2,0,2.6,0.3,3.7,0.7
		c1,0.4,1.8,1.2,2.4,2.1c0.6,1,0.8,1.9,0.8,3C264.3,752,264,753,263.6,753.9z M259.6,753.1c0.6-0.6,0.8-1.2,0.8-2.1
		c0-1.8-1.1-2.8-3.2-2.8h-3v5.5h3C258.1,753.8,258.9,753.5,259.6,753.1z"/>
	<path d="M270.8,744v20.2h-3.9V744H270.8z"/>
	<path d="M274.5,752.6c0.6-1.1,1.4-2.1,2.5-2.8s2.2-1,3.5-1c1,0,2.1,0.1,2.9,0.7c0.8,0.4,1.5,1,2.1,1.7v-2.1h3.9v15.1h-3.9V762
		c-0.6,0.7-1.2,1.4-2.1,1.8c-1,0.4-1.9,0.7-3,0.7c-1.2,0-2.5-0.3-3.5-1c-1.1-0.7-1.9-1.7-2.5-2.8
		C273.3,758.1,273.3,755.1,274.5,752.6L274.5,752.6z M284.9,754.2c-0.7-1.2-2.1-2.1-3.5-2.1c-0.7,0-1.4,0.1-1.9,0.6
		c-0.6,0.4-1.1,0.8-1.4,1.5c-0.4,0.7-0.6,1.5-0.6,2.4c0,0.8,0.1,1.7,0.6,2.4c0.3,0.7,0.8,1.2,1.5,1.5c0.6,0.4,1.2,0.6,1.9,0.6
		s1.4-0.1,1.9-0.6c0.7-0.4,1.1-0.8,1.5-1.5C285.7,757.5,285.7,755.7,284.9,754.2L284.9,754.2z"/>
	<path d="M307.6,749.1l-9.4,22.3h-4l3.3-7.5l-6.1-14.8h4.3l3.9,10.5l4-10.5H307.6L307.6,749.1z"/>
	<path d="M313.4,744v20.2h-3.9V744H313.4z"/>
	<path d="M317.4,746.6c-0.8-0.8-0.8-2.4,0-3.2l0,0c1-0.8,2.4-0.8,3.3,0c0.8,0.8,0.8,2.4,0,3.2l0,0
		C319.8,747.4,318.4,747.4,317.4,746.6z M321,749.1v15.1h-3.9v-15.1H321z"/>
	<path d="M327.2,763.8c-1-0.4-1.7-1-2.4-1.8c-0.6-0.7-0.8-1.7-1-2.5h3.9c0.1,0.6,0.4,1.1,0.8,1.4c0.6,0.4,1.2,0.6,1.9,0.6
		c0.6,0,1.2-0.1,1.7-0.4c0.4-0.3,0.6-0.7,0.6-1.1c0-0.6-0.3-1-0.7-1.1c-0.8-0.3-1.5-0.6-2.4-0.8c-1-0.3-1.8-0.6-2.8-0.8
		c-0.7-0.3-1.4-0.8-1.8-1.4c-0.6-0.7-0.8-1.5-0.8-2.5c0-0.8,0.3-1.7,0.7-2.4c0.6-0.7,1.2-1.2,2.1-1.7c1-0.4,2.1-0.7,3.2-0.6
		c1.5-0.1,3,0.4,4.3,1.4c1.1,0.8,1.7,2.2,1.8,3.6h-3.6c0-0.6-0.3-1.1-0.8-1.4c-1-0.7-2.4-0.7-3.3-0.1c-0.6,0.4-0.7,1.1-0.4,1.8
		c0.1,0.1,0.3,0.4,0.6,0.4c0.7,0.4,1.5,0.6,2.4,0.8c1,0.3,1.8,0.6,2.6,0.8c0.7,0.3,1.4,0.8,1.8,1.4c0.6,0.7,0.8,1.5,0.8,2.5
		c0,0.8-0.3,1.7-0.7,2.4c-0.6,0.7-1.2,1.2-2.1,1.7c-1,0.4-2.1,0.6-3.2,0.6C329.5,764.5,328.2,764.2,327.2,763.8z"/>
	<path d="M344.1,752.2v7.3c0,0.4,0.1,0.8,0.4,1.1c0.4,0.3,0.8,0.4,1.2,0.3h1.8v3.2h-2.4c-3.2,0-4.8-1.5-4.8-4.7V752h-1.8v-3.2h1.8
		v-3.5h3.9v3.7h3.3v3.2H344.1z"/>
	<path d="M162.7,797l-4.2-7.5h-1.8v7.5h-3.9v-19.1h7.2c1.2,0,2.6,0.3,3.7,0.8c1,0.4,1.8,1.2,2.4,2.1c0.6,0.8,0.8,1.9,0.8,2.9
		c0,2.6-1.8,5-4.3,5.5l4.6,7.7L162.7,797z M156.8,786.6h3.2c0.8,0,1.7-0.3,2.4-0.7c0.6-0.6,0.8-1.4,0.7-2.1c0-0.7-0.3-1.5-0.7-2.1
		c-0.7-0.6-1.5-0.8-2.4-0.7h-3.2V786.6z"/>
	<path d="M170.3,785.2c0.6-1.1,1.4-2.1,2.5-2.8s2.2-1,3.5-1c1.9,0,3.9,0.8,5,2.4v-2.1h3.9v15.1h-3.9v-2.2c-0.6,0.7-1.2,1.4-2.1,1.8
		c-1,0.4-1.9,0.7-3,0.7c-1.2,0-2.5-0.3-3.5-1c-1.1-0.7-1.9-1.7-2.5-2.8c-0.7-1.2-1-2.8-1-4.2C169.4,788,169.6,786.5,170.3,785.2z
		 M180.8,787c-0.7-1.2-2.1-2.1-3.6-2.1c-0.7,0-1.4,0.1-1.9,0.6c-0.6,0.4-1.1,1-1.4,1.5c-0.4,0.7-0.6,1.5-0.6,2.4
		c0,0.8,0.1,1.7,0.6,2.4c0.3,0.7,0.8,1.2,1.5,1.5c0.6,0.4,1.2,0.6,1.9,0.6s1.4-0.1,1.9-0.6c0.7-0.4,1.1-0.8,1.5-1.5
		c0.4-0.7,0.6-1.5,0.6-2.4C181.4,788.5,181.1,787.7,180.8,787L180.8,787z"/>
	<path d="M193.3,784.9v7.3c0,0.4,0.1,0.8,0.4,1.1c0.4,0.3,0.8,0.4,1.2,0.4h1.8v3.2h-2.4c-3.2,0-4.8-1.5-4.8-4.7v-7.3h-1.8v-3h1.8
		v-3.7h3.9v3.7h3.3v3.2L193.3,784.9z"/>
	<path d="M213.4,790.5h-11.1c0,1,0.4,1.9,1.1,2.6c0.7,0.6,1.5,1,2.5,1c1.2,0.1,2.5-0.7,3-1.8h4.2c-0.4,1.4-1.2,2.8-2.5,3.6
		c-1.4,1-2.9,1.4-4.6,1.4c-1.4,0-2.8-0.3-3.9-1c-1.1-0.7-2.1-1.7-2.8-2.8c-1.2-2.6-1.2-5.7,0-8.2c0.6-1.1,1.5-2.1,2.6-2.8
		c1.2-0.7,2.6-1,4-1s2.6,0.3,3.9,1c1.1,0.6,2.1,1.5,2.6,2.6c0.7,1.2,1,2.5,1,3.9C213.5,789.5,213.5,790.1,213.4,790.5z M209.6,788
		c0-1-0.4-1.8-1.1-2.4s-1.7-1-2.5-0.8c-0.8,0-1.8,0.3-2.4,0.8c-0.7,0.7-1.1,1.5-1.2,2.4H209.6z"/>
	<path d="M236.2,788.8c0.7,0.8,1.1,1.9,1.1,3c0,1-0.3,1.9-0.8,2.6c-0.6,0.8-1.2,1.4-2.2,1.8c-1.1,0.4-2.2,0.7-3.3,0.7h-8.2v-19.1
		h7.9c1.1,0,2.4,0.1,3.3,0.7c1.8,0.7,2.9,2.4,2.9,4.3c0,1-0.3,1.9-0.8,2.8c-0.6,0.7-1.4,1.2-2.4,1.7
		C234.7,787.3,235.6,787.9,236.2,788.8z M226.5,785.8h3.6c0.7,0,1.5-0.1,2.1-0.6c0.6-0.4,0.8-1.1,0.7-1.8c0-0.7-0.3-1.4-0.7-1.8
		c-0.6-0.4-1.4-0.7-2.1-0.7h-3.5L226.5,785.8z M232.6,793.1c0.6-0.4,0.8-1.1,0.8-1.8s-0.3-1.4-0.8-1.9c-0.7-0.6-1.4-0.7-2.2-0.7
		h-3.7v5.1h3.9C231.2,793.8,232,793.7,232.6,793.1L232.6,793.1z"/>
	<path d="M243.1,796.2c-1.1-0.7-2.1-1.7-2.8-2.8c-0.7-1.2-1-2.8-1-4.2s0.3-2.9,1-4.2c0.7-1.1,1.7-2.1,2.8-2.8c2.5-1.2,5.4-1.2,7.9,0
		c1.1,0.7,2.1,1.7,2.8,2.8c1.4,2.6,1.4,5.7,0,8.3c-0.7,1.1-1.7,2.1-2.8,2.8c-1.2,0.7-2.6,1-4,1C245.7,797.1,244.4,796.8,243.1,796.2
		z M249.1,793.4c0.7-0.4,1.1-0.8,1.5-1.5c0.4-0.8,0.6-1.7,0.6-2.5c0.1-1.2-0.3-2.4-1.1-3.3c-0.7-0.7-1.7-1.2-2.8-1.1
		c-1.1,0-2.1,0.4-2.8,1.1c-1.5,1.9-1.5,4.7,0,6.6c0.7,0.8,1.7,1.2,2.8,1.1C247.8,793.8,248.4,793.7,249.1,793.4L249.1,793.4z"/>
	<path d="M260.5,796.2c-1.1-0.7-2.1-1.7-2.8-2.8c-0.7-1.2-1-2.8-1-4.2s0.3-2.9,1-4.2c0.7-1.1,1.7-2.1,2.8-2.8c2.5-1.2,5.4-1.2,7.9,0
		c1.1,0.7,2.1,1.7,2.8,2.8c0.7,1.2,1.1,2.8,1,4.2c0,1.4-0.3,2.9-1.1,4.2c-0.7,1.1-1.7,2.1-2.9,2.8c-1.2,0.7-2.6,1-4,1
		C263,797.1,261.8,796.8,260.5,796.2z M266.5,793.4c0.6-0.4,1.1-0.8,1.4-1.5c0.4-0.8,0.6-1.7,0.6-2.5c0.1-1.2-0.3-2.4-1.1-3.3
		c-1.5-1.5-4-1.5-5.5,0l0,0c-1.5,1.9-1.5,4.7,0,6.6c0.7,0.8,1.7,1.2,2.8,1.1C265.1,793.8,265.8,793.7,266.5,793.4L266.5,793.4z"/>
	<path d="M284.1,797l-5.1-6.5v6.5h-3.9v-20.2h3.9v11.5l5.1-6.4h5l-6.6,7.6l6.8,7.6L284.1,797z"/>
	<path d="M166.2,855.8c-0.4-0.8-1.1-1.4-1.8-1.8c-0.8-0.4-1.8-0.7-2.6-0.7c-1.1,0-2.1,0.3-3,0.7c-0.8,0.6-1.5,1.2-2.1,2.2
		c-1,2.1-1,4.6,0,6.6c0.6,1,1.2,1.7,2.1,2.2c1,0.6,2.1,0.8,3.2,0.7c1.2,0,2.5-0.4,3.6-1.1c1-0.8,1.7-1.9,1.8-3.2h-6.6v-2.9H171v3.3
		c-0.3,1.4-0.8,2.6-1.7,3.7c-0.8,1.1-1.9,2.1-3.2,2.8c-1.4,0.7-2.9,1.1-4.4,1c-1.8,0-3.5-0.4-5-1.2s-2.6-2.1-3.5-3.5
		c-0.8-1.5-1.2-3.3-1.2-5c0-1.8,0.4-3.5,1.2-5c0.8-1.5,2.1-2.6,3.5-3.5c3.3-1.8,7.3-1.7,10.5,0.3c1.5,1,2.8,2.6,3.3,4.4H166.2z"/>
	<path d="M187.8,862.7h-11.1c0,1,0.4,1.9,1.1,2.5c0.7,0.6,1.5,1,2.5,1c1.2,0.1,2.5-0.7,3-1.8h4.2c-0.4,1.4-1.2,2.8-2.5,3.6
		c-1.4,1-2.9,1.4-4.6,1.4c-1.4,0-2.8-0.3-3.9-1c-1.2-0.7-2.1-1.5-2.8-2.8c-0.7-1.2-1-2.8-1-4.2s0.3-2.9,1-4.2
		c0.6-1.1,1.5-2.1,2.6-2.8c2.5-1.2,5.4-1.2,7.9,0c1.2,0.6,2.2,1.5,2.8,2.8c0.7,1.2,1,2.5,1,3.9C187.9,861.7,187.9,862.2,187.8,862.7
		z M183.9,860.1c0-1-0.4-1.8-1.1-2.4s-1.7-1-2.5-0.8c-0.8,0-1.8,0.3-2.4,0.8c-0.7,0.7-1.1,1.5-1.1,2.4H183.9z"/>
	<path d="M195.1,857.2v7.3c0,0.4,0.1,0.8,0.4,1.1c0.4,0.3,0.8,0.4,1.2,0.4h1.8v3.2h-2.4c-3.2,0-4.8-1.5-4.8-4.7v-7.3h-1.8V854h1.8
		v-3.7h3.9v3.7h3.3v3.2H195.1z"/>
	<path d="M233.3,850.1l-5.3,19h-4.6l-3.6-13.6l-3.7,13.6h-4.4l-5.1-19.1h4.2l3.3,14.9l3.9-14.8h4.3l3.6,14.7l3.3-14.7L233.3,850.1
		L233.3,850.1z"/>
	<path d="M249.6,862.7h-11.1c0,1,0.4,1.9,1.1,2.5c0.7,0.6,1.5,1,2.5,1c1.2,0.1,2.5-0.7,3-1.8h4.2c-0.4,1.4-1.2,2.8-2.5,3.6
		c-1.4,1-2.9,1.4-4.6,1.4c-1.4,0-2.8-0.3-3.9-1c-1.1-0.7-2.1-1.7-2.8-2.8c-0.7-1.2-1-2.8-1-4.2s0.3-2.9,1-4.2
		c0.6-1.1,1.5-2.1,2.6-2.8c2.5-1.2,5.4-1.2,7.9,0c1.1,0.6,2.1,1.5,2.6,2.6c0.7,1.2,1,2.5,1,3.9C249.7,861.6,249.7,862.2,249.6,862.7
		z M245.7,860.1c0-1-0.4-1.8-1.1-2.4c-0.7-0.6-1.7-1-2.5-0.8c-0.8,0-1.8,0.3-2.4,0.8c-0.7,0.7-1.1,1.5-1.2,2.4H245.7z"/>
	<path d="M252.5,857.5c0.6-1.1,1.4-2.1,2.5-2.8s2.2-1,3.5-1c1,0,2.1,0.3,2.9,0.7c0.8,0.4,1.5,1,2.1,1.7v-2.2h3.9V869h-3.9v-2.2
		c-0.6,0.7-1.2,1.4-2.1,1.8c-2.1,1-4.6,1-6.5-0.3c-1.1-0.7-1.9-1.7-2.5-2.8c-0.7-1.2-1-2.8-1-4.2
		C251.5,859.9,251.8,858.7,252.5,857.5z M262.9,859.3c-0.3-0.7-0.8-1.1-1.5-1.5c-0.6-0.3-1.2-0.6-1.9-0.6s-1.4,0.1-1.9,0.6
		c-0.6,0.4-1.1,0.8-1.5,1.5s-0.6,1.5-0.6,2.4c0,0.8,0.1,1.7,0.6,2.4c0.4,0.7,0.8,1.2,1.5,1.5c0.6,0.4,1.2,0.6,1.9,0.6
		s1.4-0.1,1.9-0.6c0.7-0.4,1.1-0.8,1.5-1.5s0.6-1.5,0.6-2.4C263.4,860.8,263.3,859.9,262.9,859.3L262.9,859.3z"/>
	<path d="M275.5,857.2v7.3c0,0.4,0.1,0.8,0.4,1.1c0.4,0.3,0.8,0.4,1.2,0.4h1.8v3.2h-2.5c-3.2,0-4.8-1.5-4.8-4.7v-7.3h-1.8V854h1.8
		v-3.7h3.9v3.7h3.3v3.2H275.5z"/>
	<path d="M293.2,854.5c1,0.6,1.7,1.2,2.1,2.2c0.6,1.1,0.8,2.4,0.7,3.5v8.9h-3.9v-8.3c0.1-1-0.3-1.9-0.8-2.8c-0.7-0.7-1.5-1-2.5-1
		s-1.8,0.3-2.5,1c-0.7,0.8-1,1.8-1,2.8v8.3h-3.9V849h3.9v6.9c0.6-0.7,1.2-1.2,1.9-1.5c0.8-0.4,1.8-0.6,2.8-0.6
		C291.3,853.7,292.2,854,293.2,854.5z"/>
	<path d="M313.5,862.7h-11.1c0,1,0.4,1.9,1.1,2.5s1.5,1,2.5,1c1.2,0,2.5-0.7,3-1.8h4.2c-0.4,1.4-1.2,2.8-2.5,3.6
		c-1.4,1-2.9,1.4-4.6,1.4c-1.4,0-2.8-0.3-3.9-1c-1.1-0.7-2.1-1.7-2.8-2.8c-1.2-2.6-1.2-5.7,0-8.3c0.6-1.1,1.5-2.1,2.6-2.8
		c2.5-1.2,5.4-1.2,7.7,0c1.1,0.6,2.1,1.5,2.6,2.6C313.5,858.8,313.8,860.8,313.5,862.7L313.5,862.7z M309.8,860.1
		c0-1-0.4-1.8-1.1-2.4c-0.7-0.6-1.7-1-2.5-0.8c-0.8,0-1.8,0.3-2.4,0.8c-0.7,0.7-1.1,1.5-1.2,2.4H309.8z"/>
	<path d="M322.3,854.4c0.8-0.4,1.8-0.7,2.8-0.7v4H324c-1.8-0.3-3.3,0.8-3.6,2.6c0,0.4,0,0.8,0,1.1v7.5h-3.9v-15.1h3.9v2.4
		C320.7,855.5,321.4,855,322.3,854.4z"/>
	<path d="M155.8,901.3c-1-0.4-1.9-1.1-2.5-1.9c-0.7-0.8-1-1.9-1-3h4.2c0,0.7,0.3,1.4,0.8,1.8s1.2,0.7,2.1,0.7c0.7,0,1.5-0.1,2.1-0.7
		c0.6-0.4,0.8-1,0.8-1.7c0-0.6-0.1-1-0.6-1.4s-0.8-0.7-1.2-0.8c-0.7-0.3-1.4-0.6-2.1-0.7c-1-0.3-2.1-0.7-3-1.1
		c-0.8-0.4-1.5-1-1.9-1.7c-0.6-0.8-0.8-1.8-0.8-2.9s0.3-2.1,0.8-2.9c0.6-0.8,1.4-1.5,2.4-1.9c1.1-0.4,2.4-0.7,3.5-0.7
		c1.7-0.1,3.5,0.4,4.8,1.4c1.2,1,1.9,2.4,2.1,4H162c0-0.7-0.3-1.2-0.8-1.7c-0.6-0.4-1.4-0.7-2.1-0.7c-0.7,0-1.2,0.1-1.8,0.6
		c-0.4,0.4-0.7,1-0.7,1.7c0,0.4,0.1,1,0.6,1.2c0.4,0.4,0.8,0.7,1.2,0.8c0.6,0.3,1.2,0.4,2.1,0.7c1,0.3,2.1,0.7,3,1.1
		c0.8,0.4,1.5,1,2.1,1.7c0.6,0.8,1,1.8,0.8,2.9c0,1-0.3,1.9-0.8,2.9c-0.6,0.8-1.4,1.7-2.4,2.1c-1.1,0.6-2.4,0.8-3.6,0.8
		C158.3,902,157,901.9,155.8,901.3z"/>
	<path d="M183.5,895.5h-11.1c0,1,0.4,1.9,1.1,2.6c0.7,0.6,1.5,1,2.5,1c1.2,0.1,2.5-0.7,3-1.8h4.2c-0.4,1.4-1.2,2.6-2.5,3.6
		c-1.4,1-2.9,1.4-4.6,1.4c-1.4,0-2.8-0.3-3.9-1s-2.1-1.7-2.8-2.8c-0.7-1.2-1-2.8-1-4.2s0.3-2.9,1-4.2c0.6-1.1,1.5-2.1,2.6-2.8
		c1.2-0.7,2.6-1,4-1c1.4,0,2.6,0.3,3.9,1c1.1,0.6,2.1,1.5,2.6,2.6c0.7,1.2,1,2.5,1,3.9C183.5,894.4,183.5,895,183.5,895.5z
		 M179.6,892.9c0-1-0.4-1.8-1.1-2.4s-1.7-1-2.5-0.8c-0.8,0-1.8,0.3-2.4,0.8c-0.7,0.7-1.1,1.5-1.2,2.4H179.6z"/>
	<path d="M186.2,890.2c1.1-2.4,3.5-3.7,6-3.7c1,0,2.1,0.1,2.9,0.7c0.8,0.4,1.5,1,2.1,1.7v-2.2h3.9v15.1h-3.7v-2.2
		c-0.6,0.7-1.2,1.4-2.1,1.8c-1,0.4-1.9,0.7-3,0.7c-1.2,0-2.5-0.3-3.5-1c-1.1-0.7-1.9-1.7-2.5-2.8c-0.7-1.2-1-2.8-1-4.2
		C185.3,892.9,185.7,891.5,186.2,890.2z M196.8,891.9c-0.7-1.2-2.1-2.1-3.5-2.1s-2.8,0.8-3.5,2.1c-0.4,0.7-0.6,1.5-0.6,2.4
		s0.1,1.7,0.6,2.4c0.4,0.7,1,1.2,1.5,1.5c0.6,0.4,1.2,0.6,1.9,0.6c0.7,0,1.4-0.1,1.9-0.6c0.6-0.4,1.1-0.8,1.5-1.5
		C197.4,895.2,197.4,893.4,196.8,891.9L196.8,891.9z"/>
	<path d="M210.6,887.2c0.8-0.4,1.8-0.7,2.8-0.7v4h-1c-1.8-0.3-3.3,1-3.6,2.6c0,0.4,0,0.8,0,1.1v7.5h-3.7v-15.1h3.9v2.4
		C209.2,888.3,209.8,887.6,210.6,887.2z"/>
	<path d="M215.8,890.2c0.6-1.1,1.5-2.1,2.6-2.8c1.2-0.7,2.5-1,3.9-1c1.7-0.1,3.3,0.4,4.7,1.4c1.2,1,2.1,2.4,2.5,3.9h-4.2
		c-0.1-0.6-0.6-1.1-1.1-1.5s-1.2-0.6-1.9-0.6c-1,0-1.9,0.4-2.6,1.2c-1.2,2.1-1.2,4.7,0,6.6c0.7,0.8,1.5,1.2,2.6,1.2
		c1.4,0.1,2.6-0.7,3-2.1h4.2c-0.4,1.5-1.2,2.9-2.5,3.9c-1.4,1-3,1.5-4.6,1.4c-1.4,0-2.6-0.3-3.9-1c-1.1-0.7-2.1-1.7-2.6-2.8
		C214.6,895.6,214.6,892.7,215.8,890.2L215.8,890.2z"/>
	<path d="M243.8,887.2c1,0.6,1.7,1.2,2.1,2.2c0.6,1.1,0.8,2.4,0.7,3.5v8.9h-3.9v-8.3c0.1-1-0.3-1.9-1-2.8c-0.7-0.7-1.5-1-2.5-1
		s-1.8,0.3-2.5,1c-0.7,0.8-1,1.8-1,2.8v8.3h-3.9v-20.2h3.9v6.9c0.6-0.7,1.2-1.2,2.1-1.5c0.8-0.4,1.8-0.6,2.8-0.6
		C242,886.5,243,886.8,243.8,887.2z"/>
	<path d="M257.2,887.2c0.8-1.5,2.1-2.6,3.5-3.5c1.5-0.8,3.2-1.2,5-1.2c1.9,0,3.9,0.6,5.5,1.7c1.7,1.1,2.8,2.6,3.3,4.6h-4.4
		c-0.4-0.8-1-1.5-1.8-2.1c-0.8-0.4-1.8-0.7-2.8-0.7c-1.1,0-2.1,0.3-2.9,0.8c-0.8,0.6-1.5,1.2-2.1,2.2c-1,2.1-1,4.6,0,6.6
		c0.4,1,1.1,1.7,2.1,2.2c0.8,0.6,1.9,0.8,2.9,0.8s1.9-0.3,2.8-0.7c0.8-0.6,1.4-1.2,1.8-2.1h4.4c-0.6,1.8-1.8,3.5-3.3,4.6
		c-3.2,2.1-7.2,2.2-10.5,0.4c-1.4-0.8-2.6-2.1-3.5-3.5C255.4,894.1,255.4,890.4,257.2,887.2L257.2,887.2z"/>
	<path d="M283.5,887.2c0.8-0.4,1.8-0.7,2.8-0.7v4h-1.1c-1.8-0.3-3.3,1-3.6,2.6c0,0.4,0,0.8,0,1.1v7.5h-3.9v-15.1h3.9v2.4
		C282,888.3,282.7,887.6,283.5,887.2z"/>
	<path d="M302.7,895.5h-11.1c0,1,0.4,1.9,1.1,2.6c0.7,0.6,1.5,1,2.5,1c1.2,0,2.5-0.7,3-1.8h4.2c-0.4,1.4-1.4,2.6-2.5,3.6
		c-1.4,1-2.9,1.4-4.6,1.4c-1.4,0-2.8-0.3-3.9-1s-2.1-1.7-2.8-2.8c-0.7-1.2-1-2.8-1-4.2s0.3-2.9,1-4.2c0.6-1.1,1.5-2.1,2.6-2.8
		c1.2-0.7,2.6-1,4-1c1.4,0,2.6,0.3,3.9,1c1.1,0.6,2.1,1.5,2.6,2.6c0.7,1.2,1,2.5,1,3.9C302.9,894.4,302.7,895,302.7,895.5z
		 M298.9,892.9c0-1-0.4-1.8-1.1-2.4c-0.7-0.6-1.7-1-2.5-0.8c-0.8,0-1.8,0.3-2.4,0.8c-0.7,0.7-1.1,1.5-1.2,2.4H298.9z"/>
	<path d="M305.5,890.2c1.1-2.2,3.5-3.7,6-3.7c1.9,0,3.9,0.8,5,2.4v-2.2h3.9v15.1h-3.9v-2.2c-0.6,0.7-1.2,1.4-2.1,1.8
		c-1,0.4-1.9,0.7-3,0.7c-1.2,0-2.5-0.3-3.5-1c-1.1-0.7-1.9-1.7-2.5-2.8c-0.7-1.2-1-2.8-1-4.2C304.7,892.9,305,891.5,305.5,890.2z
		 M316,891.9c-0.3-0.7-0.8-1.1-1.5-1.5c-1.8-1.1-4.2-0.6-5.3,1.4l0,0l-0.1,0.1c-0.4,0.7-0.6,1.5-0.6,2.4s0.1,1.7,0.6,2.4
		c0.4,0.7,0.8,1.2,1.5,1.5c0.6,0.4,1.2,0.6,1.9,0.6c1.4,0,2.8-0.8,3.5-2.1C316.7,895.2,316.7,893.4,316,891.9L316,891.9z"/>
	<path d="M328.6,889.8v7.3c0,0.4,0.1,0.8,0.4,1.1c0.4,0.3,0.8,0.4,1.2,0.4h1.8v3.2h-2.4c-3.2,0-4.8-1.5-4.8-4.7v-7.3H323v-3.2h1.8
		v-3.7h3.9v3.7h3.3v3.2H328.6z"/>
	<path d="M335,884.3c-0.8-0.8-0.8-2.4,0-3.2l0,0l0,0c1-0.8,2.4-0.8,3.3,0c0.8,0.8,0.8,2.4,0,3.2l0,0
		C337.3,885.1,336,885.1,335,884.3z M338.6,886.7v15.1h-3.9v-15.1H338.6z"/>
	<path d="M348.5,898.3l3.9-11.6h4l-5.5,15.1h-4.6l-5.5-15.1h4.2L348.5,898.3z"/>
	<path d="M372.6,895.5h-11.1c0,1,0.4,1.9,1.1,2.6c0.7,0.6,1.5,1,2.5,1c1.2,0.1,2.5-0.7,3-1.8h4.2c-0.4,1.4-1.4,2.6-2.5,3.6
		c-1.4,1-2.9,1.4-4.6,1.4c-1.4,0-2.8-0.3-3.9-1s-2.1-1.7-2.6-2.8c-0.7-1.2-1-2.8-1-4.2s0.3-2.9,1-4.2c0.6-1.1,1.5-2.1,2.6-2.8
		c1.2-0.7,2.6-1,4-1s2.6,0.3,3.9,1c1.1,0.6,2.1,1.5,2.6,2.6c0.7,1.2,1,2.5,1,3.9C372.8,894.4,372.8,895,372.6,895.5z M368.8,892.9
		c0-1-0.4-1.8-1.1-2.4s-1.7-1-2.5-0.8c-0.8,0-1.7,0.3-2.4,0.8c-0.7,0.7-1.1,1.5-1.2,2.4H368.8z"/>
	<path d="M407.5,882.8l-5.4,19.1h-4.6l-3.6-13.6l-3.7,13.6h-4.4l-5.1-19.1h4.2l3.3,14.8l3.9-14.8h4.3l3.6,14.8l3.3-14.7L407.5,882.8
		z"/>
	<path d="M412.8,901.2c-1.1-0.7-2.1-1.7-2.8-2.8c-1.4-2.6-1.4-5.7,0-8.3c0.7-1.1,1.7-2.1,2.8-2.8c2.5-1.2,5.4-1.2,7.9,0
		c1.1,0.7,2.1,1.7,2.8,2.8c1.4,2.6,1.4,5.7,0,8.3c-0.7,1.1-1.7,2.1-2.9,2.8c-1.2,0.7-2.6,1-4,1C415.2,902.1,414,901.7,412.8,901.2z
		 M418.7,898.3c0.7-0.4,1.1-0.8,1.5-1.5s0.6-1.7,0.6-2.5c0.1-1.2-0.3-2.4-1.1-3.3c-0.7-0.8-1.7-1.2-2.8-1.1c-1.1,0-2.1,0.4-2.8,1.1
		c-1.5,1.9-1.5,4.7,0,6.6c0.7,0.8,1.7,1.2,2.8,1.1C417.3,898.7,418,898.6,418.7,898.3L418.7,898.3z"/>
	<path d="M433.1,887.2c0.8-0.4,1.8-0.7,2.8-0.7v4h-1c-1.8-0.3-3.3,1-3.6,2.6c0,0.4,0,0.8,0,1.1v7.5h-3.9v-15.1h3.9v2.4
		C431.7,888.3,432.3,887.6,433.1,887.2z"/>
	<path d="M447.3,901.9l-5.1-6.5v6.5h-3.9v-20.2h3.9v11.5l5.1-6.4h5l-6.6,7.6l6.8,7.5L447.3,901.9z"/>
</g>
<g id="Layer_3">
	<g>
		<path class="st2" d="M1194.6,441.3c0.1-1.5-0.5-2.9-1.6-3.9c-1-1-2.4-1.6-3.8-1.7H927.8l7.8-7.7c0.2-0.2,0.4-0.5,0.6-0.7
			c1.6-2.2,1.4-5.2-0.6-7.1c-1-1-2.4-1.6-3.8-1.7c-1.5,0-2.8,0.6-3.9,1.6L910.6,437c-0.2,0.2-0.4,0.5-0.6,0.7
			c-0.7,0.9-1.1,2.1-1,3.2c0,1.4,0.6,2.8,1.6,3.9l16.9,17.2c1,1,2.4,1.6,3.8,1.7c1.5,0,2.8-0.6,3.9-1.6c0.2-0.2,0.4-0.5,0.6-0.7
			c0.7-0.9,1.1-2.1,1-3.2c0-1.4-0.6-2.8-1.6-3.9l-7.7-7.8l261.4,0.1c1.4,0,2.8-0.6,3.9-1.6C1194,444.2,1194.6,442.7,1194.6,441.3z
			 M1191.5,443.7c-0.7,0.6-1.5,1-2.4,1l-263.9-0.1c-0.2,0-0.5,0.1-0.7,0.2l-0.2,0.3c-0.1,0.3-0.1,0.8,0.2,1.1l9.3,9.6
			c0.6,0.7,1,1.5,1,2.4s-0.4,1.8-1,2.5c-0.7,0.6-1.5,1-2.4,1s-1.8-0.4-2.5-1L912,443.4c-0.6-0.7-1-1.5-1-2.4s0.4-1.8,1-2.5
			l17.2-16.9c0.7-0.6,1.5-1,2.4-1s1.8,0.4,2.5,1c1.3,1.4,1.3,3.5,0,4.9l-9.6,9.3c-0.3,0.3-0.5,0.8-0.2,1.2c0.2,0.4,0.5,0.6,1,0.6
			l263.9,0.1c0.9,0,1.8,0.4,2.5,1s1,1.5,1,2.4C1192.6,442.2,1192.2,443,1191.5,443.7L1191.5,443.7z"/>
		<path class="st2" d="M1191.5,443.7c-0.7,0.6-1.5,1-2.4,1l-263.9-0.1c-0.2,0-0.5,0.1-0.7,0.2l-0.2,0.3c-0.1,0.3-0.1,0.8,0.2,1.1
			l9.3,9.6c0.6,0.7,1,1.5,1,2.4s-0.4,1.8-1,2.5c-0.7,0.6-1.5,1-2.4,1s-1.8-0.4-2.5-1L912,443.4c-0.6-0.7-1-1.5-1-2.4s0.4-1.8,1-2.5
			l17.2-16.9c0.7-0.6,1.5-1,2.4-1s1.8,0.4,2.5,1c1.3,1.4,1.3,3.5,0,4.9l-9.6,9.3c-0.3,0.3-0.5,0.8-0.2,1.2c0.2,0.4,0.5,0.6,1,0.6
			l263.9,0.1c0.9,0,1.8,0.4,2.5,1s1,1.5,1,2.4C1192.6,442.2,1192.2,443,1191.5,443.7z"/>
		<path class="st2" d="M697.8,587.6c-3,0-5.5,2.4-5.5,5.4l0,0v90.7l-7.8-7.7c-0.2-0.3-0.4-0.4-0.7-0.6c-2.5-1.7-6-1.1-7.7,1.5
			c-1.4,2.1-1.2,5.1,0.6,7l17.1,17c0.2,0.3,0.4,0.4,0.7,0.6c1,0.6,2.1,1,3.2,1c1.5,0,2.9-0.5,3.9-1.6l17.1-17.1
			c2.1-2.1,2.1-5.7,0-7.9c-0.2-0.2-0.4-0.4-0.7-0.6c-1-0.7-2.1-1.1-3.2-1.1c-1.5,0-2.9,0.5-3.9,1.6l-7.7,7.7V593
			c0-1.5-0.5-2.9-1.6-3.9C700.6,588.2,699.2,587.6,697.8,587.6z M700.2,590.6c0.6,0.6,1,1.5,1,2.4v93c0,0.3,0.1,0.5,0.4,0.7
			c0.1,0.1,0.2,0.2,0.4,0.2c0.4,0.2,0.8,0.1,1.1-0.2l9.5-9.5c1.3-1.2,3.6-1.2,4.8,0.2c1.2,1.3,1.2,3.4,0,4.6l-17,17.1
			c-1.3,1.3-3.5,1.3-4.8,0L678.5,682c-1.3-1.3-1.3-3.5,0-4.8s3.6-1.3,4.9,0l9.5,9.5c0.3,0.3,0.7,0.4,1.1,0.2s0.6-0.5,0.6-0.9v-93
			c0-1.9,1.4-3.4,3.3-3.4l0,0h0.1C698.6,589.6,699.6,589.8,700.2,590.6L700.2,590.6z"/>
		<path class="st2" d="M700.2,590.6c0.6,0.6,1,1.5,1,2.4v93c0,0.3,0.1,0.5,0.4,0.7c0.1,0.1,0.2,0.2,0.4,0.2c0.4,0.2,0.8,0.1,1.1-0.2
			l9.5-9.5c1.3-1.2,3.6-1.2,4.8,0.2c1.2,1.3,1.2,3.4,0,4.6l-17,17.1c-1.3,1.3-3.5,1.3-4.8,0L678.5,682c-1.3-1.3-1.3-3.5,0-4.8
			s3.6-1.3,4.9,0l9.5,9.5c0.3,0.3,0.7,0.4,1.1,0.2s0.6-0.5,0.6-0.9v-93c0-1.9,1.4-3.4,3.3-3.4l0,0h0.1
			C698.6,589.6,699.6,589.8,700.2,590.6z"/>
		<path class="st2" d="M373.2,813.1c0,3,2.5,5.4,5.5,5.4l0,0l90.7-0.9l-7.7,7.9c-0.2,0.2-0.4,0.4-0.6,0.7c-1.5,2.2-1.2,5.2,0.6,7
			c1,1.1,2.5,1.6,3.9,1.5c1.4,0,2.9-0.5,3.8-1.6l16.9-17.3c0.3-0.2,0.4-0.4,0.6-0.7c0.6-1,1-2.1,1-3.2c0-1.4-0.5-2.9-1.6-3.8
			L469,791.2c-1-1.1-2.5-1.6-3.9-1.5c-1.4,0-2.9,0.5-3.8,1.6c-0.2,0.2-0.4,0.4-0.5,0.7c-0.6,1-1,2.1-1,3.2c0,1.4,0.6,2.9,1.6,3.8
			l7.9,7.7l-90.7,0.8c-1.4,0-2.9,0.5-3.8,1.6C373.8,810.3,373.2,811.7,373.2,813.1z M376.3,810.7c0.6-0.6,1.5-1.1,2.4-1.1l93.1-0.9
			c0.3,0,0.5-0.1,0.7-0.4c0.1-0.1,0.2-0.2,0.2-0.4c0.2-0.4,0.1-0.8-0.2-1.1l-9.5-9.4c-0.6-0.6-1.1-1.5-1.1-2.4s0.4-1.8,1-2.4
			s1.5-1.1,2.4-1.1s1.8,0.4,2.4,1l17.3,16.9c0.6,0.6,1.1,1.5,1.1,2.4s-0.4,1.8-1,2.4l-17,17.4c-0.6,0.6-1.5,1.1-2.4,1.1
			s-1.8-0.4-2.4-1c-1.3-1.3-1.3-3.5-0.1-4.9l9.4-9.5c0.3-0.3,0.4-0.7,0.2-1.1c-0.2-0.4-0.5-0.6-0.9-0.6l-93.1,0.9
			c-0.9,0-1.8-0.4-2.4-1s-1.1-1.5-1.1-2.4C375.2,812.2,375.6,811.3,376.3,810.7L376.3,810.7z"/>
		<path class="st2" d="M376.3,810.7c0.6-0.6,1.5-1.1,2.4-1.1l93.1-0.9c0.3,0,0.5-0.1,0.7-0.4c0.1-0.1,0.2-0.2,0.2-0.4
			c0.2-0.4,0.1-0.8-0.2-1.1l-9.5-9.4c-0.6-0.6-1.1-1.5-1.1-2.4s0.4-1.8,1-2.4s1.5-1.1,2.4-1.1s1.8,0.4,2.4,1l17.3,16.9
			c0.6,0.6,1.1,1.5,1.1,2.4s-0.4,1.8-1,2.4l-17,17.4c-0.6,0.6-1.5,1.1-2.4,1.1s-1.8-0.4-2.4-1c-1.3-1.3-1.3-3.5-0.1-4.9l9.4-9.5
			c0.3-0.3,0.4-0.7,0.2-1.1c-0.2-0.4-0.5-0.6-0.9-0.6l-93.1,0.9c-0.9,0-1.8-0.4-2.4-1s-1.1-1.5-1.1-2.4
			C375.2,812.2,375.6,811.3,376.3,810.7z"/>
		<path class="st2" d="M1380.2,587.4c-3,0-5.5,2.4-5.5,5.4l0,0v90.7l-7.8-7.7c-0.2-0.3-0.4-0.4-0.7-0.6c-2.5-1.7-6-1.1-7.7,1.5
			c-1.4,2.1-1.2,5.1,0.6,7l17.1,17c0.2,0.3,0.4,0.4,0.7,0.6c1,0.6,2.1,1,3.2,1c1.5,0,2.9-0.5,3.9-1.6l17.1-17.1
			c2.1-2.1,2.1-5.7,0-7.9c-0.2-0.2-0.4-0.4-0.7-0.6c-1-0.7-2.1-1.1-3.2-1.1c-1.5,0-2.9,0.5-3.9,1.6l-7.7,7.7v-90.7
			c0-1.5-0.5-2.9-1.6-3.9C1383.1,588,1381.7,587.4,1380.2,587.4z M1382.6,590.4c0.6,0.6,1,1.5,1,2.4v93.1c0,0.3,0.1,0.5,0.4,0.7
			c0.1,0.1,0.2,0.2,0.4,0.2c0.4,0.2,0.8,0.1,1.1-0.2l9.5-9.5c1.3-1.2,3.6-1.2,4.8,0.2c1.2,1.3,1.2,3.4,0,4.6l-17,17.1
			c-1.3,1.3-3.5,1.3-4.8,0l-17.1-17.1c-1.3-1.3-1.3-3.5,0-4.8s3.6-1.3,4.9,0l9.5,9.5c0.3,0.3,0.7,0.4,1.1,0.2s0.6-0.5,0.6-0.9v-93
			c0-1.9,1.4-3.4,3.3-3.4l0,0h0.1C1381,589.4,1382,589.7,1382.6,590.4L1382.6,590.4z"/>
		<path class="st2" d="M1382.6,590.4c0.6,0.6,1,1.5,1,2.4v93.1c0,0.3,0.1,0.5,0.4,0.7c0.1,0.1,0.2,0.2,0.4,0.2
			c0.4,0.2,0.8,0.1,1.1-0.2l9.5-9.5c1.3-1.2,3.6-1.2,4.8,0.2c1.2,1.3,1.2,3.4,0,4.6l-17,17.1c-1.3,1.3-3.5,1.3-4.8,0l-17.1-17.1
			c-1.3-1.3-1.3-3.5,0-4.8s3.6-1.3,4.9,0l9.5,9.5c0.3,0.3,0.7,0.4,1.1,0.2s0.6-0.5,0.6-0.9v-93c0-1.9,1.4-3.4,3.3-3.4l0,0h0.1
			C1381,589.4,1382,589.7,1382.6,590.4z"/>
	</g>
</g>
</svg>
